G75*
G70*
%OFA0B0*%
%FSLAX24Y24*%
%IPPOS*%
%LPD*%
%AMOC8*
5,1,8,0,0,1.08239X$1,22.5*
%
%ADD10C,0.0680*%
%ADD11R,0.0474X0.0513*%
%ADD12R,0.0395X0.0395*%
%ADD13C,0.1380*%
%ADD14R,0.0474X0.1891*%
%ADD15R,0.0710X0.1419*%
%ADD16R,0.0198X0.0552*%
%ADD17R,0.0552X0.0198*%
%ADD18R,0.0474X0.0631*%
%ADD19R,0.0828X0.0513*%
%ADD20R,0.1064X0.0277*%
%ADD21R,0.1064X0.0867*%
%ADD22C,0.0434*%
%ADD23R,0.0474X0.0474*%
%ADD24C,0.1660*%
%ADD25C,0.0680*%
%ADD26R,0.0671X0.0552*%
%ADD27R,0.0190X0.0415*%
%ADD28C,0.0050*%
%ADD29R,0.0513X0.0474*%
%ADD30R,0.0680X0.0680*%
%ADD31OC8,0.0680*%
%ADD32R,0.0880X0.0474*%
%ADD33R,0.0395X0.0434*%
%ADD34R,0.0631X0.0789*%
%ADD35R,0.0828X0.0631*%
%ADD36R,0.0671X0.0395*%
D10*
X014935Y000954D02*
X014935Y001554D01*
X015935Y001554D02*
X015935Y000954D01*
X016935Y000954D02*
X016935Y001554D01*
X017935Y001554D02*
X017935Y000954D01*
X018935Y000954D02*
X018935Y001554D01*
X019935Y001554D02*
X019935Y000954D01*
X021935Y000954D02*
X021935Y001554D01*
X022935Y001554D02*
X022935Y000954D01*
X023935Y000954D02*
X023935Y001554D01*
X024935Y001554D02*
X024935Y000954D01*
X025935Y000954D02*
X025935Y001554D01*
X026935Y001554D02*
X026935Y000954D01*
X026935Y020554D02*
X026935Y021154D01*
X025935Y021154D02*
X025935Y020554D01*
X024935Y020554D02*
X024935Y021154D01*
X023935Y021154D02*
X023935Y020554D01*
X022935Y020554D02*
X022935Y021154D01*
X021935Y021154D02*
X021935Y020554D01*
X020935Y020554D02*
X020935Y021154D01*
X019935Y021154D02*
X019935Y020554D01*
X018285Y020554D02*
X018285Y021154D01*
X017285Y021154D02*
X017285Y020554D01*
X016285Y020554D02*
X016285Y021154D01*
X015285Y021154D02*
X015285Y020554D01*
X014285Y020554D02*
X014285Y021154D01*
X013285Y021154D02*
X013285Y020554D01*
X012285Y020554D02*
X012285Y021154D01*
X011285Y021154D02*
X011285Y020554D01*
D11*
X009970Y018354D03*
X009970Y017854D03*
X009970Y017354D03*
X009970Y016854D03*
X009970Y016354D03*
X009300Y016354D03*
X009300Y016854D03*
X009300Y017354D03*
X009300Y017854D03*
X009300Y018354D03*
X007170Y009254D03*
X007170Y008754D03*
X006500Y008754D03*
X006500Y009254D03*
X006500Y007754D03*
X006500Y007254D03*
X007170Y007254D03*
X007170Y007754D03*
X007170Y006754D03*
X007170Y006254D03*
X007170Y005754D03*
X006500Y005754D03*
X006500Y006254D03*
X006500Y006754D03*
X014200Y003304D03*
X014870Y003304D03*
X017835Y003530D03*
X017835Y004199D03*
X019335Y006320D03*
X019335Y006989D03*
X018370Y007154D03*
X017700Y007154D03*
X016870Y007154D03*
X016200Y007154D03*
X021235Y004459D03*
X021235Y003790D03*
X024815Y007650D03*
X024815Y008319D03*
X025335Y009920D03*
X025335Y010589D03*
D12*
X011830Y016554D03*
X011240Y016554D03*
X011240Y017054D03*
X011830Y017054D03*
X011530Y017754D03*
X010940Y017754D03*
D13*
X009435Y020554D03*
X027935Y003254D03*
X009435Y001554D03*
D14*
X005174Y018604D03*
X004386Y018604D03*
D15*
X003441Y020651D03*
X006119Y020651D03*
D16*
X020169Y011501D03*
X020366Y011501D03*
X020562Y011501D03*
X020759Y011501D03*
X020956Y011501D03*
X021153Y011501D03*
X021350Y011501D03*
X021547Y011501D03*
X021744Y011501D03*
X021940Y011501D03*
X022137Y011501D03*
X022334Y011501D03*
X022531Y011501D03*
X022728Y011501D03*
X022925Y011501D03*
X023121Y011501D03*
X023121Y006847D03*
X022925Y006847D03*
X022728Y006847D03*
X022531Y006847D03*
X022334Y006847D03*
X022137Y006847D03*
X021940Y006847D03*
X021744Y006847D03*
X021547Y006847D03*
X021350Y006847D03*
X021153Y006847D03*
X020956Y006847D03*
X020759Y006847D03*
X020562Y006847D03*
X020366Y006847D03*
X020169Y006847D03*
D17*
X019308Y007708D03*
X019308Y007905D03*
X019308Y008102D03*
X019308Y008299D03*
X019308Y008495D03*
X019308Y008692D03*
X019308Y008889D03*
X019308Y009086D03*
X019308Y009283D03*
X019308Y009480D03*
X019308Y009676D03*
X019308Y009873D03*
X019308Y010070D03*
X019308Y010267D03*
X019308Y010464D03*
X019308Y010661D03*
X023972Y010661D03*
X023972Y010464D03*
X023972Y010267D03*
X023972Y010070D03*
X023972Y009873D03*
X023972Y009676D03*
X023972Y009480D03*
X023972Y009283D03*
X023972Y009086D03*
X023972Y008889D03*
X023972Y008692D03*
X023972Y008495D03*
X023972Y008299D03*
X023972Y008102D03*
X023972Y007905D03*
X023972Y007708D03*
D18*
X008659Y008187D03*
X007911Y008187D03*
X008285Y007321D03*
X008285Y006587D03*
X007911Y005721D03*
X008659Y005721D03*
D19*
X018857Y004437D03*
X018857Y003532D03*
X020313Y003532D03*
X020313Y004437D03*
D20*
X005019Y008324D03*
X005019Y008639D03*
X005019Y008954D03*
X005019Y009269D03*
X005019Y009584D03*
D21*
X005019Y010726D03*
X002854Y010726D03*
X002854Y007183D03*
X005019Y007183D03*
D22*
X004035Y008088D03*
X004035Y009820D03*
D23*
X011808Y001969D03*
X011808Y001339D03*
X013462Y001339D03*
X013462Y001969D03*
X016208Y005689D03*
X016208Y006319D03*
X017862Y006319D03*
X017862Y005689D03*
D24*
X006279Y003414D03*
X003917Y003414D03*
X005098Y001564D03*
D25*
X002565Y002914D03*
X002565Y003914D03*
X010935Y019554D03*
X011935Y019554D03*
X012935Y019554D03*
X013935Y019554D03*
X014935Y019554D03*
X015935Y019554D03*
X016935Y019554D03*
X019935Y019554D03*
X020935Y019554D03*
X021935Y019554D03*
X022935Y019554D03*
X023935Y019554D03*
X024935Y019554D03*
X025935Y019554D03*
D26*
X004606Y005854D03*
X003464Y005854D03*
D27*
X007518Y017957D03*
X007715Y017957D03*
X007912Y017957D03*
X008109Y017957D03*
X008306Y017957D03*
X008306Y019119D03*
X008109Y019119D03*
X007912Y019119D03*
X007715Y019119D03*
X007518Y019119D03*
D28*
X007392Y018858D02*
X008432Y018858D01*
X008432Y018758D01*
X007392Y018758D01*
X007392Y018858D01*
X007392Y018855D02*
X008432Y018855D01*
X008432Y018807D02*
X007392Y018807D01*
X007392Y018758D02*
X007182Y018758D01*
X007182Y018318D01*
X007392Y018318D01*
X007392Y018218D01*
X008432Y018218D01*
X008432Y018318D01*
X008642Y018318D01*
X008642Y018758D01*
X008432Y018758D01*
X008642Y018710D02*
X007182Y018710D01*
X007182Y018661D02*
X008642Y018661D01*
X008642Y018612D02*
X007182Y018612D01*
X007182Y018564D02*
X008642Y018564D01*
X008642Y018515D02*
X007182Y018515D01*
X007182Y018467D02*
X008642Y018467D01*
X008642Y018418D02*
X007182Y018418D01*
X007182Y018370D02*
X008642Y018370D01*
X008642Y018321D02*
X007182Y018321D01*
X007392Y018273D02*
X008432Y018273D01*
X008432Y018224D02*
X007392Y018224D01*
D29*
X007470Y020154D03*
X008085Y020220D03*
X008085Y020889D03*
X006800Y020154D03*
X019350Y012024D03*
X020020Y012024D03*
X023135Y014620D03*
X023135Y015289D03*
X024143Y015273D03*
X024143Y014603D03*
X025940Y014954D03*
X026610Y014954D03*
X026213Y006221D03*
X025544Y006221D03*
X023370Y006154D03*
X022700Y006154D03*
X015385Y006289D03*
X015385Y005620D03*
X010570Y006654D03*
X009900Y006654D03*
X007170Y008254D03*
X006500Y008254D03*
X006500Y009754D03*
X007170Y009754D03*
X010935Y001989D03*
X010935Y001320D03*
D30*
X017935Y019554D03*
X026935Y019554D03*
D31*
X014935Y010554D03*
X013935Y010554D03*
X013935Y009554D03*
X014935Y009554D03*
X014935Y008554D03*
X013935Y008554D03*
X013935Y007554D03*
X014935Y007554D03*
X010933Y009550D03*
X009933Y009550D03*
X009933Y010550D03*
X010933Y010550D03*
X010933Y011550D03*
X009933Y011550D03*
X009933Y012550D03*
X010933Y012550D03*
D32*
X010496Y003754D03*
X009174Y003754D03*
X011874Y003754D03*
X013196Y003754D03*
X015774Y003754D03*
X017096Y003754D03*
D33*
X013609Y005261D03*
X012861Y005261D03*
X012009Y005261D03*
X011261Y005261D03*
X011635Y006087D03*
X013235Y006087D03*
D34*
X008144Y014162D03*
X008144Y016406D03*
D35*
X002967Y017036D03*
X002573Y011859D03*
D36*
X004089Y013694D03*
X004246Y014127D03*
X004089Y014560D03*
X004010Y014993D03*
X004089Y015426D03*
X004010Y015859D03*
X004089Y016292D03*
X004089Y016725D03*
M02*
