G75*
G70*
%OFA0B0*%
%FSLAX24Y24*%
%IPPOS*%
%LPD*%
%AMOC8*
5,1,8,0,0,1.08239X$1,22.5*
%
%ADD10C,0.0080*%
%ADD11C,0.0050*%
%ADD12C,0.0060*%
%ADD13C,0.0030*%
%ADD14C,0.0000*%
%ADD15C,0.0040*%
%ADD16C,0.0120*%
D10*
X001935Y000879D02*
X001935Y021230D01*
X001937Y021269D01*
X001942Y021308D01*
X001951Y021346D01*
X001964Y021383D01*
X001979Y021419D01*
X001999Y021453D01*
X002021Y021486D01*
X002046Y021516D01*
X002073Y021543D01*
X002103Y021568D01*
X002136Y021590D01*
X002170Y021610D01*
X002206Y021625D01*
X002243Y021638D01*
X002281Y021647D01*
X002320Y021652D01*
X002359Y021654D01*
X027511Y021654D01*
X027550Y021652D01*
X027589Y021647D01*
X027627Y021638D01*
X027664Y021625D01*
X027700Y021610D01*
X027734Y021590D01*
X027767Y021568D01*
X027797Y021543D01*
X027824Y021516D01*
X027849Y021486D01*
X027871Y021453D01*
X027891Y021419D01*
X027906Y021383D01*
X027919Y021346D01*
X027928Y021308D01*
X027933Y021269D01*
X027935Y021230D01*
X027935Y016789D01*
X028135Y016430D02*
X031736Y014179D01*
X031935Y013819D02*
X031935Y004289D01*
X031933Y004250D01*
X031928Y004211D01*
X031919Y004173D01*
X031907Y004136D01*
X031891Y004101D01*
X031872Y004067D01*
X031850Y004034D01*
X031825Y004004D01*
X031798Y003977D01*
X031768Y003952D01*
X031736Y003929D01*
X031736Y003930D02*
X028135Y001679D01*
X027935Y001319D02*
X027935Y000879D01*
X027933Y000840D01*
X027928Y000801D01*
X027919Y000763D01*
X027906Y000726D01*
X027891Y000690D01*
X027871Y000656D01*
X027849Y000623D01*
X027824Y000593D01*
X027797Y000566D01*
X027767Y000541D01*
X027734Y000519D01*
X027700Y000499D01*
X027664Y000484D01*
X027627Y000471D01*
X027589Y000462D01*
X027550Y000457D01*
X027511Y000455D01*
X027511Y000454D02*
X002359Y000454D01*
X002359Y000455D02*
X002320Y000457D01*
X002281Y000462D01*
X002243Y000471D01*
X002206Y000484D01*
X002170Y000499D01*
X002136Y000519D01*
X002103Y000541D01*
X002073Y000566D01*
X002046Y000593D01*
X002021Y000623D01*
X001999Y000656D01*
X001979Y000690D01*
X001964Y000726D01*
X001951Y000763D01*
X001942Y000801D01*
X001937Y000840D01*
X001935Y000879D01*
X002635Y001864D02*
X002635Y002214D01*
X002785Y002414D02*
X002335Y002414D01*
X002085Y002664D01*
X002085Y003164D01*
X002335Y003414D01*
X002085Y003664D01*
X002085Y004164D01*
X002335Y004414D01*
X002785Y004414D01*
X003035Y004164D01*
X003035Y003664D01*
X002785Y003414D01*
X003035Y003164D01*
X003035Y002664D01*
X002785Y002414D01*
X002635Y004614D02*
X002635Y005014D01*
X002835Y004814D02*
X002435Y004814D01*
X014435Y002054D02*
X014435Y001054D01*
X014535Y001054D01*
X015335Y001054D02*
X015435Y001054D01*
X015435Y002054D01*
X014435Y002054D01*
X015435Y002054D02*
X016435Y002054D01*
X016435Y001054D01*
X016535Y001054D01*
X016435Y001054D02*
X016335Y001054D01*
X015535Y001054D02*
X015435Y001054D01*
X016435Y002054D02*
X017435Y002054D01*
X017435Y001054D01*
X017535Y001054D01*
X017435Y001054D02*
X017335Y001054D01*
X018335Y001054D02*
X018435Y001054D01*
X018435Y002054D01*
X017435Y002054D01*
X017685Y002204D02*
X017685Y002404D01*
X017885Y002404D01*
X018435Y002054D02*
X019435Y002054D01*
X019435Y001054D01*
X019535Y001054D01*
X019435Y001054D02*
X019335Y001054D01*
X018535Y001054D02*
X018435Y001054D01*
X019435Y002054D02*
X020435Y002054D01*
X020435Y001054D01*
X020335Y001054D01*
X021435Y001054D02*
X021435Y002054D01*
X022435Y002054D01*
X022435Y001054D01*
X022535Y001054D01*
X022435Y001054D02*
X022335Y001054D01*
X021535Y001054D02*
X021435Y001054D01*
X022435Y002054D02*
X023435Y002054D01*
X023435Y001054D01*
X023535Y001054D01*
X023435Y001054D02*
X023335Y001054D01*
X024335Y001054D02*
X024435Y001054D01*
X024435Y002054D01*
X025435Y002054D01*
X025435Y001054D01*
X025335Y001054D01*
X025435Y001054D02*
X025535Y001054D01*
X026335Y001054D02*
X026435Y001054D01*
X026435Y002054D01*
X027435Y002054D01*
X027435Y001054D01*
X027335Y001054D01*
X026535Y001054D02*
X026435Y001054D01*
X026435Y002054D02*
X025435Y002054D01*
X024435Y002054D02*
X023435Y002054D01*
X024435Y001054D02*
X024535Y001054D01*
X027935Y001319D02*
X027937Y001358D01*
X027942Y001397D01*
X027951Y001435D01*
X027963Y001472D01*
X027979Y001507D01*
X027998Y001541D01*
X028020Y001574D01*
X028045Y001604D01*
X028072Y001631D01*
X028102Y001656D01*
X028134Y001679D01*
X029000Y004819D02*
X031500Y004819D01*
X031634Y004819D02*
X031634Y013087D01*
X031500Y013090D02*
X029000Y013090D01*
X031736Y014179D02*
X031768Y014156D01*
X031798Y014131D01*
X031825Y014104D01*
X031850Y014074D01*
X031872Y014041D01*
X031891Y014007D01*
X031907Y013972D01*
X031919Y013935D01*
X031928Y013897D01*
X031933Y013858D01*
X031935Y013819D01*
X028134Y016429D02*
X028102Y016452D01*
X028072Y016477D01*
X028045Y016504D01*
X028020Y016534D01*
X027998Y016567D01*
X027979Y016601D01*
X027963Y016636D01*
X027951Y016673D01*
X027942Y016711D01*
X027937Y016750D01*
X027935Y016789D01*
X027435Y019054D02*
X026435Y019054D01*
X026435Y020054D01*
X026435Y021054D01*
X026535Y021054D01*
X026435Y021054D02*
X026335Y021054D01*
X025535Y021054D02*
X025435Y021054D01*
X025435Y020054D01*
X025435Y019054D01*
X026435Y019054D01*
X025435Y019054D02*
X024435Y019054D01*
X024435Y020054D01*
X024435Y021054D01*
X024535Y021054D01*
X024435Y021054D02*
X024335Y021054D01*
X023535Y021054D02*
X023435Y021054D01*
X023435Y020054D01*
X023435Y019054D01*
X024435Y019054D01*
X023435Y019054D02*
X022435Y019054D01*
X022435Y020054D01*
X022435Y021054D01*
X022535Y021054D01*
X022435Y021054D02*
X022335Y021054D01*
X021535Y021054D02*
X021435Y021054D01*
X021435Y020054D01*
X021435Y019054D01*
X022435Y019054D01*
X021435Y019054D02*
X020435Y019054D01*
X020435Y020054D01*
X020435Y021054D01*
X020535Y021054D01*
X020435Y021054D02*
X020335Y021054D01*
X019535Y021054D02*
X019435Y021054D01*
X019435Y020054D01*
X020435Y020054D01*
X021435Y020054D01*
X022435Y020054D01*
X023435Y020054D01*
X024435Y020054D01*
X025435Y020054D01*
X026435Y020054D01*
X027435Y020054D01*
X027435Y021054D01*
X027335Y021054D01*
X027435Y020054D02*
X027435Y019054D01*
X025435Y021054D02*
X025335Y021054D01*
X023435Y021054D02*
X023335Y021054D01*
X021435Y021054D02*
X021335Y021054D01*
X019435Y020054D02*
X019435Y019054D01*
X020435Y019054D01*
X018785Y020054D02*
X018785Y021054D01*
X018685Y021054D01*
X017885Y021054D02*
X017785Y021054D01*
X017785Y020054D01*
X017435Y020054D01*
X017435Y019054D01*
X016435Y019054D01*
X016435Y020054D01*
X016785Y020054D01*
X016785Y021054D01*
X016885Y021054D01*
X016785Y021054D02*
X016685Y021054D01*
X015885Y021054D02*
X015785Y021054D01*
X015785Y020054D01*
X016435Y020054D01*
X016785Y020054D02*
X017435Y020054D01*
X017785Y020054D02*
X018435Y020054D01*
X018785Y020054D01*
X018435Y020054D02*
X018435Y019054D01*
X017435Y019054D01*
X016435Y019054D02*
X015435Y019054D01*
X015435Y020054D01*
X015785Y020054D01*
X015435Y020054D02*
X014785Y020054D01*
X014785Y021054D01*
X014885Y021054D01*
X014785Y021054D02*
X014685Y021054D01*
X013885Y021054D02*
X013785Y021054D01*
X013785Y020054D01*
X014435Y020054D01*
X014435Y019054D01*
X013435Y019054D01*
X013435Y020054D01*
X013785Y020054D01*
X013435Y020054D02*
X012785Y020054D01*
X012785Y021054D01*
X012885Y021054D01*
X012785Y021054D02*
X012685Y021054D01*
X011885Y021054D02*
X011785Y021054D01*
X011785Y020054D01*
X012435Y020054D01*
X012435Y019054D01*
X011435Y019054D01*
X011435Y020054D01*
X011785Y020054D01*
X011435Y020054D02*
X010785Y020054D01*
X010785Y021054D01*
X010885Y021054D01*
X011685Y021054D02*
X011785Y021054D01*
X012435Y020054D02*
X012785Y020054D01*
X012435Y019054D02*
X013435Y019054D01*
X014435Y019054D02*
X015435Y019054D01*
X014785Y020054D02*
X014435Y020054D01*
X013785Y021054D02*
X013685Y021054D01*
X015685Y021054D02*
X015785Y021054D01*
X017685Y021054D02*
X017785Y021054D01*
X016335Y018054D02*
X016333Y018031D01*
X016328Y018008D01*
X016319Y017986D01*
X016306Y017966D01*
X016291Y017948D01*
X016273Y017933D01*
X016253Y017920D01*
X016231Y017911D01*
X016208Y017906D01*
X016185Y017904D01*
X015085Y017904D01*
X013885Y017904D02*
X012735Y017904D01*
X012712Y017906D01*
X012689Y017911D01*
X012667Y017920D01*
X012647Y017933D01*
X012629Y017948D01*
X012614Y017966D01*
X012601Y017986D01*
X012592Y018008D01*
X012587Y018031D01*
X012585Y018054D01*
X011435Y019054D02*
X010435Y019054D01*
X010435Y020054D01*
X010785Y020054D01*
X019429Y013087D02*
X019429Y004819D01*
X019500Y004819D02*
X020000Y004819D01*
X019185Y002404D02*
X019185Y002204D01*
X019185Y002404D02*
X018935Y002404D01*
X019500Y013087D02*
X020000Y013087D01*
D11*
X021760Y016229D02*
X021760Y016319D01*
X021760Y016274D02*
X022030Y016274D01*
X022030Y016229D02*
X022030Y016319D01*
X021985Y016426D02*
X022030Y016471D01*
X022030Y016561D01*
X021985Y016606D01*
X021940Y016606D01*
X021760Y016426D01*
X021760Y016606D01*
X021805Y016720D02*
X021760Y016765D01*
X021760Y016855D01*
X021805Y016901D01*
X021760Y017015D02*
X021760Y017195D01*
X021760Y017105D02*
X022030Y017105D01*
X021940Y017015D01*
X021985Y016901D02*
X022030Y016855D01*
X022030Y016765D01*
X021985Y016720D01*
X021805Y016720D01*
X021895Y017310D02*
X021895Y017490D01*
X021940Y017604D02*
X021895Y017649D01*
X021895Y017739D01*
X021850Y017784D01*
X021805Y017784D01*
X021760Y017739D01*
X021760Y017649D01*
X021805Y017604D01*
X021940Y017604D02*
X021985Y017604D01*
X022030Y017649D01*
X022030Y017739D01*
X021985Y017784D01*
X021985Y017899D02*
X021805Y017899D01*
X021760Y017944D01*
X021760Y018034D01*
X021805Y018079D01*
X021760Y018194D02*
X021760Y018374D01*
X021760Y018194D02*
X022030Y018194D01*
X021985Y018079D02*
X022030Y018034D01*
X022030Y017944D01*
X021985Y017899D01*
X023777Y018638D02*
X023835Y018579D01*
X023952Y018579D01*
X024010Y018638D01*
X023893Y018754D02*
X023835Y018754D01*
X023777Y018696D01*
X023777Y018638D01*
X023835Y018754D02*
X023777Y018813D01*
X023777Y018871D01*
X023835Y018930D01*
X023952Y018930D01*
X024010Y018871D01*
X017080Y018284D02*
X016990Y018374D01*
X016810Y018374D01*
X016945Y018374D02*
X016945Y018194D01*
X016990Y018194D02*
X017080Y018284D01*
X016990Y018194D02*
X016810Y018194D01*
X016855Y018079D02*
X017035Y018079D01*
X017080Y018034D01*
X017080Y017899D01*
X016810Y017899D01*
X016810Y018034D01*
X016855Y018079D01*
X016855Y017784D02*
X016810Y017739D01*
X016810Y017649D01*
X016855Y017604D01*
X016945Y017649D02*
X016945Y017739D01*
X016900Y017784D01*
X016855Y017784D01*
X016945Y017649D02*
X016990Y017604D01*
X017035Y017604D01*
X017080Y017649D01*
X017080Y017739D01*
X017035Y017784D01*
X016945Y017490D02*
X016945Y017310D01*
X016810Y017195D02*
X016810Y017015D01*
X016810Y017105D02*
X017080Y017105D01*
X016990Y017015D01*
X017035Y016901D02*
X017080Y016855D01*
X017080Y016765D01*
X017035Y016720D01*
X016855Y016720D01*
X016810Y016765D01*
X016810Y016855D01*
X016855Y016901D01*
X016810Y016606D02*
X016810Y016426D01*
X016990Y016606D01*
X017035Y016606D01*
X017080Y016561D01*
X017080Y016471D01*
X017035Y016426D01*
X017080Y016319D02*
X017080Y016229D01*
X017080Y016274D02*
X016810Y016274D01*
X016810Y016229D02*
X016810Y016319D01*
X014960Y017824D02*
X014915Y017779D01*
X014825Y017779D01*
X014780Y017824D01*
X014780Y017869D01*
X014825Y017914D01*
X014915Y017914D01*
X014960Y017959D01*
X014960Y018004D01*
X014915Y018050D01*
X014825Y018050D01*
X014780Y018004D01*
X014665Y018050D02*
X014665Y017779D01*
X014665Y017869D02*
X014530Y017869D01*
X014485Y017914D01*
X014485Y018004D01*
X014530Y018050D01*
X014665Y018050D01*
X014676Y018179D02*
X014586Y018179D01*
X014631Y018179D02*
X014631Y018359D01*
X014676Y018359D01*
X014631Y018450D02*
X014631Y018495D01*
X014791Y018359D02*
X014926Y018359D01*
X014971Y018314D01*
X014926Y018269D01*
X014836Y018269D01*
X014791Y018224D01*
X014836Y018179D01*
X014971Y018179D01*
X015085Y018224D02*
X015085Y018314D01*
X015130Y018359D01*
X015220Y018359D01*
X015265Y018314D01*
X015265Y018224D01*
X015220Y018179D01*
X015130Y018179D01*
X015085Y018224D01*
X015380Y018179D02*
X015380Y018314D01*
X015425Y018359D01*
X015470Y018314D01*
X015470Y018179D01*
X015560Y018179D02*
X015560Y018359D01*
X015515Y018359D01*
X015470Y018314D01*
X015785Y018359D02*
X015920Y018359D01*
X015965Y018314D01*
X015920Y018269D01*
X015830Y018269D01*
X015785Y018224D01*
X015830Y018179D01*
X015965Y018179D01*
X016080Y018224D02*
X016125Y018269D01*
X016215Y018269D01*
X016260Y018314D01*
X016215Y018359D01*
X016080Y018359D01*
X016080Y018224D02*
X016125Y018179D01*
X016260Y018179D01*
X014371Y018050D02*
X014281Y018050D01*
X014326Y018050D02*
X014326Y017779D01*
X014371Y017779D02*
X014281Y017779D01*
X014174Y017779D02*
X013994Y017779D01*
X014084Y017779D02*
X014084Y018050D01*
X014174Y017959D01*
X014180Y018179D02*
X014180Y018314D01*
X014225Y018359D01*
X014270Y018314D01*
X014270Y018179D01*
X014360Y018179D02*
X014360Y018359D01*
X014315Y018359D01*
X014270Y018314D01*
X014065Y018359D02*
X014020Y018359D01*
X014020Y018179D01*
X014065Y018179D02*
X013975Y018179D01*
X013869Y018179D02*
X013734Y018179D01*
X013689Y018224D01*
X013734Y018269D01*
X013824Y018269D01*
X013869Y018314D01*
X013824Y018359D01*
X013689Y018359D01*
X013574Y018314D02*
X013574Y018224D01*
X013529Y018179D01*
X013439Y018179D01*
X013394Y018224D01*
X013394Y018314D01*
X013439Y018359D01*
X013529Y018359D01*
X013574Y018314D01*
X014020Y018450D02*
X014020Y018495D01*
X013110Y018314D02*
X013110Y018224D01*
X013065Y018179D01*
X012930Y018179D01*
X012815Y018179D02*
X012815Y018450D01*
X012930Y018359D02*
X013065Y018359D01*
X013110Y018314D01*
X012815Y018269D02*
X012680Y018359D01*
X012815Y018269D02*
X012680Y018179D01*
X012120Y018140D02*
X012120Y018023D01*
X012062Y017964D01*
X011828Y017964D01*
X011770Y018023D01*
X011770Y018140D01*
X011828Y018198D01*
X011945Y018198D01*
X011945Y018081D01*
X012062Y018198D02*
X012120Y018140D01*
X012120Y018333D02*
X011770Y018333D01*
X011770Y018566D02*
X012120Y018566D01*
X012120Y018701D02*
X011770Y018701D01*
X011770Y018876D01*
X011828Y018935D01*
X012062Y018935D01*
X012120Y018876D01*
X012120Y018701D01*
X012120Y018333D02*
X011770Y018566D01*
X030248Y006102D02*
X030248Y005401D01*
X030956Y005401D01*
X030956Y006102D01*
X030248Y006102D01*
X030279Y006102D01*
X030437Y005756D02*
X030439Y005781D01*
X030445Y005806D01*
X030454Y005829D01*
X030467Y005851D01*
X030483Y005870D01*
X030502Y005887D01*
X030523Y005901D01*
X030546Y005911D01*
X030571Y005918D01*
X030596Y005921D01*
X030621Y005920D01*
X030646Y005915D01*
X030669Y005907D01*
X030692Y005894D01*
X030712Y005879D01*
X030729Y005861D01*
X030744Y005840D01*
X030755Y005818D01*
X030763Y005794D01*
X030767Y005769D01*
X030767Y005743D01*
X030763Y005718D01*
X030755Y005694D01*
X030744Y005672D01*
X030729Y005651D01*
X030712Y005633D01*
X030692Y005618D01*
X030669Y005605D01*
X030646Y005597D01*
X030621Y005592D01*
X030596Y005591D01*
X030571Y005594D01*
X030546Y005601D01*
X030523Y005611D01*
X030502Y005625D01*
X030483Y005642D01*
X030467Y005661D01*
X030454Y005683D01*
X030445Y005706D01*
X030439Y005731D01*
X030437Y005756D01*
X030303Y005756D02*
X030305Y005790D01*
X030311Y005824D01*
X030320Y005856D01*
X030334Y005888D01*
X030350Y005918D01*
X030371Y005945D01*
X030394Y005970D01*
X030419Y005993D01*
X030448Y006012D01*
X030478Y006028D01*
X030510Y006040D01*
X030543Y006049D01*
X030576Y006054D01*
X030611Y006055D01*
X030645Y006052D01*
X030678Y006045D01*
X030710Y006035D01*
X030742Y006020D01*
X030771Y006003D01*
X030798Y005982D01*
X030822Y005958D01*
X030844Y005932D01*
X030862Y005903D01*
X030877Y005872D01*
X030889Y005840D01*
X030897Y005807D01*
X030901Y005773D01*
X030901Y005739D01*
X030897Y005705D01*
X030889Y005672D01*
X030877Y005640D01*
X030862Y005609D01*
X030844Y005580D01*
X030822Y005554D01*
X030798Y005530D01*
X030771Y005509D01*
X030742Y005492D01*
X030710Y005477D01*
X030678Y005467D01*
X030645Y005460D01*
X030611Y005457D01*
X030576Y005458D01*
X030543Y005463D01*
X030510Y005472D01*
X030478Y005484D01*
X030448Y005500D01*
X030419Y005519D01*
X030394Y005542D01*
X030371Y005567D01*
X030350Y005594D01*
X030334Y005624D01*
X030320Y005656D01*
X030311Y005688D01*
X030305Y005722D01*
X030303Y005756D01*
X027235Y002834D02*
X027145Y002925D01*
X027055Y002834D01*
X027055Y002654D01*
X026940Y002654D02*
X026850Y002654D01*
X026895Y002654D02*
X026895Y002925D01*
X026940Y002925D02*
X026850Y002925D01*
X026744Y002925D02*
X026564Y002654D01*
X026564Y002925D01*
X026744Y002925D02*
X026744Y002654D01*
X027055Y002789D02*
X027235Y002789D01*
X027235Y002834D02*
X027235Y002654D01*
X026235Y002654D02*
X026235Y002834D01*
X026145Y002925D01*
X026055Y002834D01*
X026055Y002654D01*
X025940Y002654D02*
X025850Y002654D01*
X025895Y002654D02*
X025895Y002925D01*
X025940Y002925D02*
X025850Y002925D01*
X025744Y002925D02*
X025564Y002654D01*
X025564Y002925D01*
X025744Y002925D02*
X025744Y002654D01*
X026055Y002789D02*
X026235Y002789D01*
X025235Y002789D02*
X025055Y002789D01*
X025055Y002834D02*
X025055Y002654D01*
X024940Y002654D02*
X024850Y002654D01*
X024895Y002654D02*
X024895Y002925D01*
X024940Y002925D02*
X024850Y002925D01*
X024744Y002925D02*
X024564Y002654D01*
X024564Y002925D01*
X024744Y002925D02*
X024744Y002654D01*
X025055Y002834D02*
X025145Y002925D01*
X025235Y002834D01*
X025235Y002654D01*
X024235Y002654D02*
X024235Y002834D01*
X024145Y002925D01*
X024055Y002834D01*
X024055Y002654D01*
X023940Y002654D02*
X023850Y002654D01*
X023895Y002654D02*
X023895Y002925D01*
X023940Y002925D02*
X023850Y002925D01*
X023744Y002925D02*
X023564Y002654D01*
X023564Y002925D01*
X023744Y002925D02*
X023744Y002654D01*
X024055Y002789D02*
X024235Y002789D01*
X023235Y002789D02*
X023055Y002789D01*
X023055Y002834D02*
X023055Y002654D01*
X022940Y002654D02*
X022850Y002654D01*
X022895Y002654D02*
X022895Y002925D01*
X022940Y002925D02*
X022850Y002925D01*
X022744Y002925D02*
X022564Y002654D01*
X022564Y002925D01*
X022744Y002925D02*
X022744Y002654D01*
X023055Y002834D02*
X023145Y002925D01*
X023235Y002834D01*
X023235Y002654D01*
X022235Y002654D02*
X022235Y002834D01*
X022145Y002925D01*
X022055Y002834D01*
X022055Y002654D01*
X021940Y002654D02*
X021850Y002654D01*
X021895Y002654D02*
X021895Y002925D01*
X021940Y002925D02*
X021850Y002925D01*
X021744Y002925D02*
X021564Y002654D01*
X021564Y002925D01*
X021744Y002925D02*
X021744Y002654D01*
X022055Y002789D02*
X022235Y002789D01*
X020246Y002530D02*
X020246Y002349D01*
X020156Y002259D01*
X020066Y002349D01*
X020066Y002530D01*
X019951Y002439D02*
X019906Y002439D01*
X019906Y002259D01*
X019951Y002259D02*
X019861Y002259D01*
X019755Y002259D02*
X019755Y002439D01*
X019620Y002439D01*
X019575Y002394D01*
X019575Y002259D01*
X019906Y002530D02*
X019906Y002575D01*
X018794Y002484D02*
X018794Y002304D01*
X018749Y002259D01*
X018659Y002259D01*
X018614Y002304D01*
X018614Y002394D01*
X018704Y002394D01*
X018794Y002484D02*
X018749Y002530D01*
X018659Y002530D01*
X018614Y002484D01*
X018499Y002530D02*
X018319Y002259D01*
X018319Y002530D01*
X018205Y002530D02*
X018205Y002259D01*
X018070Y002259D01*
X018025Y002304D01*
X018025Y002484D01*
X018070Y002530D01*
X018205Y002530D01*
X018499Y002530D02*
X018499Y002259D01*
X017489Y002349D02*
X017399Y002259D01*
X017309Y002349D01*
X017309Y002530D01*
X017194Y002530D02*
X017059Y002530D01*
X017014Y002484D01*
X017014Y002304D01*
X017059Y002259D01*
X017194Y002259D01*
X017194Y002530D01*
X016899Y002530D02*
X016899Y002259D01*
X016764Y002259D01*
X016719Y002304D01*
X016719Y002484D01*
X016764Y002530D01*
X016899Y002530D01*
X016605Y002439D02*
X016605Y002259D01*
X016605Y002394D02*
X016425Y002394D01*
X016425Y002439D02*
X016425Y002259D01*
X016425Y002439D02*
X016515Y002530D01*
X016605Y002439D01*
X016244Y002349D02*
X016154Y002259D01*
X016064Y002349D01*
X016064Y002530D01*
X015949Y002484D02*
X015949Y002304D01*
X015904Y002259D01*
X015814Y002259D01*
X015769Y002304D01*
X015655Y002304D02*
X015655Y002484D01*
X015610Y002530D01*
X015520Y002530D01*
X015475Y002484D01*
X015475Y002304D02*
X015520Y002259D01*
X015610Y002259D01*
X015655Y002304D01*
X015769Y002484D02*
X015814Y002530D01*
X015904Y002530D01*
X015949Y002484D01*
X016244Y002530D02*
X016244Y002349D01*
X015244Y002349D02*
X015109Y002349D01*
X015064Y002394D01*
X015064Y002484D01*
X015109Y002530D01*
X015244Y002530D01*
X015244Y002259D01*
X015154Y002349D02*
X015064Y002259D01*
X014949Y002304D02*
X014904Y002259D01*
X014814Y002259D01*
X014769Y002304D01*
X014769Y002349D01*
X014814Y002394D01*
X014904Y002394D01*
X014949Y002439D01*
X014949Y002484D01*
X014904Y002530D01*
X014814Y002530D01*
X014769Y002484D01*
X014655Y002530D02*
X014475Y002530D01*
X014565Y002530D02*
X014565Y002259D01*
X017489Y002349D02*
X017489Y002530D01*
D12*
X021647Y002525D02*
X021873Y002525D01*
X021873Y002354D01*
X021760Y002411D01*
X021703Y002411D01*
X021647Y002354D01*
X021647Y002241D01*
X021703Y002184D01*
X021817Y002184D01*
X021873Y002241D01*
X022015Y002184D02*
X022242Y002184D01*
X022128Y002184D02*
X022128Y002525D01*
X022242Y002411D01*
X022647Y002298D02*
X022703Y002354D01*
X022873Y002354D01*
X022873Y002241D01*
X022817Y002184D01*
X022703Y002184D01*
X022647Y002241D01*
X022647Y002298D01*
X022760Y002468D02*
X022873Y002354D01*
X022760Y002468D02*
X022647Y002525D01*
X023128Y002525D02*
X023128Y002184D01*
X023015Y002184D02*
X023242Y002184D01*
X023242Y002411D02*
X023128Y002525D01*
X023647Y002525D02*
X023647Y002468D01*
X023873Y002241D01*
X023873Y002184D01*
X024015Y002184D02*
X024242Y002184D01*
X024128Y002184D02*
X024128Y002525D01*
X024242Y002411D01*
X023873Y002525D02*
X023647Y002525D01*
X024647Y002468D02*
X024647Y002411D01*
X024703Y002354D01*
X024817Y002354D01*
X024873Y002411D01*
X024873Y002468D01*
X024817Y002525D01*
X024703Y002525D01*
X024647Y002468D01*
X024703Y002354D02*
X024647Y002298D01*
X024647Y002241D01*
X024703Y002184D01*
X024817Y002184D01*
X024873Y002241D01*
X024873Y002298D01*
X024817Y002354D01*
X025015Y002184D02*
X025242Y002184D01*
X025128Y002184D02*
X025128Y002525D01*
X025242Y002411D01*
X025647Y002354D02*
X025817Y002354D01*
X025873Y002411D01*
X025873Y002468D01*
X025817Y002525D01*
X025703Y002525D01*
X025647Y002468D01*
X025647Y002241D01*
X025703Y002184D01*
X025817Y002184D01*
X025873Y002241D01*
X026015Y002184D02*
X026242Y002184D01*
X026128Y002184D02*
X026128Y002525D01*
X026242Y002411D01*
X026647Y002468D02*
X026873Y002241D01*
X026817Y002184D01*
X026703Y002184D01*
X026647Y002241D01*
X026647Y002468D01*
X026703Y002525D01*
X026817Y002525D01*
X026873Y002468D01*
X026873Y002241D01*
X027015Y002184D02*
X027242Y002184D01*
X027015Y002411D01*
X027015Y002468D01*
X027072Y002525D01*
X027185Y002525D01*
X027242Y002468D01*
X026948Y018584D02*
X026835Y018584D01*
X026778Y018641D01*
X026778Y018868D01*
X027005Y018641D01*
X026948Y018584D01*
X027005Y018641D02*
X027005Y018868D01*
X026948Y018925D01*
X026835Y018925D01*
X026778Y018868D01*
X026055Y018811D02*
X025942Y018925D01*
X025942Y018584D01*
X026055Y018584D02*
X025828Y018584D01*
X025005Y018584D02*
X024778Y018811D01*
X024778Y018868D01*
X024835Y018925D01*
X024948Y018925D01*
X025005Y018868D01*
X025005Y018584D02*
X024778Y018584D01*
X024005Y018641D02*
X023948Y018584D01*
X023835Y018584D01*
X023778Y018641D01*
X023778Y018698D01*
X023835Y018754D01*
X023892Y018754D01*
X023835Y018754D02*
X023778Y018811D01*
X023778Y018868D01*
X023835Y018925D01*
X023948Y018925D01*
X024005Y018868D01*
X023005Y018754D02*
X022778Y018754D01*
X022835Y018584D02*
X022835Y018925D01*
X023005Y018754D01*
X022005Y018754D02*
X021892Y018811D01*
X021835Y018811D01*
X021778Y018754D01*
X021778Y018641D01*
X021835Y018584D01*
X021948Y018584D01*
X022005Y018641D01*
X022005Y018754D02*
X022005Y018925D01*
X021778Y018925D01*
X021005Y018754D02*
X020835Y018754D01*
X020778Y018698D01*
X020778Y018641D01*
X020835Y018584D01*
X020948Y018584D01*
X021005Y018641D01*
X021005Y018754D01*
X020892Y018868D01*
X020778Y018925D01*
X020005Y018925D02*
X019778Y018925D01*
X019778Y018868D01*
X020005Y018641D01*
X020005Y018584D01*
X018055Y018641D02*
X017998Y018584D01*
X017885Y018584D01*
X017828Y018641D01*
X017828Y018698D01*
X017885Y018754D01*
X017998Y018754D01*
X018055Y018811D01*
X018055Y018868D01*
X017998Y018925D01*
X017885Y018925D01*
X017828Y018868D01*
X017828Y018811D01*
X017885Y018754D01*
X017998Y018754D02*
X018055Y018698D01*
X018055Y018641D01*
X017055Y018641D02*
X016998Y018584D01*
X016885Y018584D01*
X016828Y018641D01*
X016828Y018868D01*
X016885Y018925D01*
X016998Y018925D01*
X017055Y018868D01*
X017055Y018811D01*
X016998Y018754D01*
X016828Y018754D01*
X016255Y018811D02*
X016142Y018925D01*
X016142Y018584D01*
X016255Y018584D02*
X016028Y018584D01*
X015887Y018641D02*
X015830Y018584D01*
X015717Y018584D01*
X015660Y018641D01*
X015660Y018868D01*
X015887Y018641D01*
X015887Y018868D01*
X015830Y018925D01*
X015717Y018925D01*
X015660Y018868D01*
X015205Y018811D02*
X015092Y018925D01*
X015092Y018584D01*
X015205Y018584D02*
X014978Y018584D01*
X014837Y018584D02*
X014610Y018584D01*
X014723Y018584D02*
X014723Y018925D01*
X014837Y018811D01*
X014255Y018811D02*
X014142Y018925D01*
X014142Y018584D01*
X014255Y018584D02*
X014028Y018584D01*
X013887Y018584D02*
X013660Y018811D01*
X013660Y018868D01*
X013717Y018925D01*
X013830Y018925D01*
X013887Y018868D01*
X013887Y018584D02*
X013660Y018584D01*
X013205Y018584D02*
X012978Y018584D01*
X013092Y018584D02*
X013092Y018925D01*
X013205Y018811D01*
X012837Y018868D02*
X012780Y018925D01*
X012667Y018925D01*
X012610Y018868D01*
X012610Y018811D01*
X012667Y018754D01*
X012610Y018698D01*
X012610Y018641D01*
X012667Y018584D01*
X012780Y018584D01*
X012837Y018641D01*
X012723Y018754D02*
X012667Y018754D01*
X011255Y018811D02*
X011142Y018925D01*
X011142Y018584D01*
X011255Y018584D02*
X011028Y018584D01*
X010887Y018754D02*
X010660Y018754D01*
X010717Y018584D02*
X010717Y018925D01*
X010887Y018754D01*
D13*
X013647Y014040D02*
X013647Y013669D01*
X013524Y013669D02*
X013771Y013669D01*
X013770Y013540D02*
X013708Y013478D01*
X013955Y013231D01*
X013893Y013169D01*
X013770Y013169D01*
X013708Y013231D01*
X013708Y013478D01*
X013770Y013540D02*
X013893Y013540D01*
X013955Y013478D01*
X013955Y013231D01*
X014076Y013169D02*
X014323Y013169D01*
X014200Y013169D02*
X014200Y013540D01*
X014323Y013416D01*
X014445Y013478D02*
X014692Y013231D01*
X014630Y013169D01*
X014506Y013169D01*
X014445Y013231D01*
X014445Y013478D01*
X014506Y013540D01*
X014630Y013540D01*
X014692Y013478D01*
X014692Y013231D01*
X014813Y013169D02*
X015060Y013169D01*
X014813Y013416D01*
X014813Y013478D01*
X014875Y013540D01*
X014998Y013540D01*
X015060Y013478D01*
X015183Y013669D02*
X015183Y013916D01*
X015183Y013793D02*
X015059Y013916D01*
X014997Y013916D01*
X014876Y013854D02*
X014814Y013916D01*
X014691Y013916D01*
X014629Y013854D01*
X014629Y013793D01*
X014876Y013793D01*
X014876Y013854D02*
X014876Y013731D01*
X014814Y013669D01*
X014691Y013669D01*
X014384Y013669D02*
X014261Y013916D01*
X014507Y013916D02*
X014384Y013669D01*
X013771Y013916D02*
X013647Y014040D01*
X015550Y013416D02*
X015674Y013416D01*
X015612Y013478D02*
X015612Y013231D01*
X015550Y013169D01*
X015795Y013231D02*
X015857Y013293D01*
X015980Y013293D01*
X016042Y013354D01*
X015980Y013416D01*
X015795Y013416D01*
X015796Y013546D02*
X015673Y013669D01*
X015735Y013669D01*
X015735Y013731D01*
X015673Y013731D01*
X015673Y013669D01*
X015918Y013731D02*
X015918Y013854D01*
X015980Y013916D01*
X016165Y013916D01*
X016165Y014040D02*
X016165Y013669D01*
X015980Y013669D01*
X015918Y013731D01*
X016286Y013854D02*
X016533Y013854D01*
X016655Y013854D02*
X016655Y013793D01*
X016901Y013793D01*
X016901Y013854D02*
X016840Y013916D01*
X016716Y013916D01*
X016655Y013854D01*
X016716Y013669D02*
X016840Y013669D01*
X016901Y013731D01*
X016901Y013854D01*
X017023Y013669D02*
X017147Y013669D01*
X017085Y013669D02*
X017085Y014040D01*
X017147Y014040D01*
X017268Y013854D02*
X017330Y013916D01*
X017515Y013916D01*
X017515Y014040D02*
X017515Y013669D01*
X017330Y013669D01*
X017268Y013731D01*
X017268Y013854D01*
X017637Y013854D02*
X017637Y013669D01*
X017760Y013669D02*
X017760Y013854D01*
X017698Y013916D01*
X017637Y013854D01*
X017760Y013854D02*
X017822Y013916D01*
X017884Y013916D01*
X017884Y013669D01*
X018005Y013669D02*
X018005Y013916D01*
X018005Y013669D02*
X018190Y013669D01*
X018252Y013731D01*
X018252Y013916D01*
X018373Y013854D02*
X018373Y013731D01*
X018435Y013669D01*
X018620Y013669D01*
X018620Y014040D01*
X018620Y013916D02*
X018435Y013916D01*
X018373Y013854D01*
X018373Y013416D02*
X018558Y013416D01*
X018620Y013354D01*
X018558Y013293D01*
X018435Y013293D01*
X018373Y013231D01*
X018435Y013169D01*
X018620Y013169D01*
X018252Y013231D02*
X018190Y013169D01*
X018067Y013169D01*
X018005Y013231D01*
X018005Y013354D01*
X018067Y013416D01*
X018190Y013416D01*
X018252Y013354D01*
X018252Y013231D01*
X017884Y013231D02*
X017884Y013416D01*
X017884Y013231D02*
X017822Y013169D01*
X017637Y013169D01*
X017637Y013416D01*
X017515Y013416D02*
X017330Y013416D01*
X017268Y013354D01*
X017268Y013169D01*
X017147Y013231D02*
X017147Y013354D01*
X017085Y013416D01*
X016900Y013416D01*
X016900Y013540D02*
X016900Y013169D01*
X017085Y013169D01*
X017147Y013231D01*
X016779Y013231D02*
X016779Y013354D01*
X016717Y013416D01*
X016532Y013416D01*
X016410Y013416D02*
X016410Y013231D01*
X016349Y013169D01*
X016163Y013169D01*
X016163Y013108D02*
X016225Y013046D01*
X016287Y013046D01*
X016163Y013108D02*
X016163Y013416D01*
X016042Y013169D02*
X015857Y013169D01*
X015795Y013231D01*
X016532Y013169D02*
X016717Y013169D01*
X016779Y013231D01*
X017515Y013169D02*
X017515Y013416D01*
D14*
X008785Y020554D02*
X008787Y020604D01*
X008793Y020654D01*
X008803Y020704D01*
X008816Y020752D01*
X008833Y020800D01*
X008854Y020846D01*
X008878Y020890D01*
X008906Y020932D01*
X008937Y020972D01*
X008971Y021009D01*
X009008Y021044D01*
X009047Y021075D01*
X009088Y021104D01*
X009132Y021129D01*
X009178Y021151D01*
X009225Y021169D01*
X009273Y021183D01*
X009322Y021194D01*
X009372Y021201D01*
X009422Y021204D01*
X009473Y021203D01*
X009523Y021198D01*
X009573Y021189D01*
X009621Y021177D01*
X009669Y021160D01*
X009715Y021140D01*
X009760Y021117D01*
X009803Y021090D01*
X009843Y021060D01*
X009881Y021027D01*
X009916Y020991D01*
X009949Y020952D01*
X009978Y020911D01*
X010004Y020868D01*
X010027Y020823D01*
X010046Y020776D01*
X010061Y020728D01*
X010073Y020679D01*
X010081Y020629D01*
X010085Y020579D01*
X010085Y020529D01*
X010081Y020479D01*
X010073Y020429D01*
X010061Y020380D01*
X010046Y020332D01*
X010027Y020285D01*
X010004Y020240D01*
X009978Y020197D01*
X009949Y020156D01*
X009916Y020117D01*
X009881Y020081D01*
X009843Y020048D01*
X009803Y020018D01*
X009760Y019991D01*
X009715Y019968D01*
X009669Y019948D01*
X009621Y019931D01*
X009573Y019919D01*
X009523Y019910D01*
X009473Y019905D01*
X009422Y019904D01*
X009372Y019907D01*
X009322Y019914D01*
X009273Y019925D01*
X009225Y019939D01*
X009178Y019957D01*
X009132Y019979D01*
X009088Y020004D01*
X009047Y020033D01*
X009008Y020064D01*
X008971Y020099D01*
X008937Y020136D01*
X008906Y020176D01*
X008878Y020218D01*
X008854Y020262D01*
X008833Y020308D01*
X008816Y020356D01*
X008803Y020404D01*
X008793Y020454D01*
X008787Y020504D01*
X008785Y020554D01*
X003858Y009820D02*
X003860Y009846D01*
X003866Y009872D01*
X003876Y009897D01*
X003889Y009920D01*
X003905Y009940D01*
X003925Y009958D01*
X003947Y009973D01*
X003970Y009985D01*
X003996Y009993D01*
X004022Y009997D01*
X004048Y009997D01*
X004074Y009993D01*
X004100Y009985D01*
X004124Y009973D01*
X004145Y009958D01*
X004165Y009940D01*
X004181Y009920D01*
X004194Y009897D01*
X004204Y009872D01*
X004210Y009846D01*
X004212Y009820D01*
X004210Y009794D01*
X004204Y009768D01*
X004194Y009743D01*
X004181Y009720D01*
X004165Y009700D01*
X004145Y009682D01*
X004123Y009667D01*
X004100Y009655D01*
X004074Y009647D01*
X004048Y009643D01*
X004022Y009643D01*
X003996Y009647D01*
X003970Y009655D01*
X003946Y009667D01*
X003925Y009682D01*
X003905Y009700D01*
X003889Y009720D01*
X003876Y009743D01*
X003866Y009768D01*
X003860Y009794D01*
X003858Y009820D01*
X003858Y008088D02*
X003860Y008114D01*
X003866Y008140D01*
X003876Y008165D01*
X003889Y008188D01*
X003905Y008208D01*
X003925Y008226D01*
X003947Y008241D01*
X003970Y008253D01*
X003996Y008261D01*
X004022Y008265D01*
X004048Y008265D01*
X004074Y008261D01*
X004100Y008253D01*
X004124Y008241D01*
X004145Y008226D01*
X004165Y008208D01*
X004181Y008188D01*
X004194Y008165D01*
X004204Y008140D01*
X004210Y008114D01*
X004212Y008088D01*
X004210Y008062D01*
X004204Y008036D01*
X004194Y008011D01*
X004181Y007988D01*
X004165Y007968D01*
X004145Y007950D01*
X004123Y007935D01*
X004100Y007923D01*
X004074Y007915D01*
X004048Y007911D01*
X004022Y007911D01*
X003996Y007915D01*
X003970Y007923D01*
X003946Y007935D01*
X003925Y007950D01*
X003905Y007968D01*
X003889Y007988D01*
X003876Y008011D01*
X003866Y008036D01*
X003860Y008062D01*
X003858Y008088D01*
X008785Y001554D02*
X008787Y001604D01*
X008793Y001654D01*
X008803Y001704D01*
X008816Y001752D01*
X008833Y001800D01*
X008854Y001846D01*
X008878Y001890D01*
X008906Y001932D01*
X008937Y001972D01*
X008971Y002009D01*
X009008Y002044D01*
X009047Y002075D01*
X009088Y002104D01*
X009132Y002129D01*
X009178Y002151D01*
X009225Y002169D01*
X009273Y002183D01*
X009322Y002194D01*
X009372Y002201D01*
X009422Y002204D01*
X009473Y002203D01*
X009523Y002198D01*
X009573Y002189D01*
X009621Y002177D01*
X009669Y002160D01*
X009715Y002140D01*
X009760Y002117D01*
X009803Y002090D01*
X009843Y002060D01*
X009881Y002027D01*
X009916Y001991D01*
X009949Y001952D01*
X009978Y001911D01*
X010004Y001868D01*
X010027Y001823D01*
X010046Y001776D01*
X010061Y001728D01*
X010073Y001679D01*
X010081Y001629D01*
X010085Y001579D01*
X010085Y001529D01*
X010081Y001479D01*
X010073Y001429D01*
X010061Y001380D01*
X010046Y001332D01*
X010027Y001285D01*
X010004Y001240D01*
X009978Y001197D01*
X009949Y001156D01*
X009916Y001117D01*
X009881Y001081D01*
X009843Y001048D01*
X009803Y001018D01*
X009760Y000991D01*
X009715Y000968D01*
X009669Y000948D01*
X009621Y000931D01*
X009573Y000919D01*
X009523Y000910D01*
X009473Y000905D01*
X009422Y000904D01*
X009372Y000907D01*
X009322Y000914D01*
X009273Y000925D01*
X009225Y000939D01*
X009178Y000957D01*
X009132Y000979D01*
X009088Y001004D01*
X009047Y001033D01*
X009008Y001064D01*
X008971Y001099D01*
X008937Y001136D01*
X008906Y001176D01*
X008878Y001218D01*
X008854Y001262D01*
X008833Y001308D01*
X008816Y001356D01*
X008803Y001404D01*
X008793Y001454D01*
X008787Y001504D01*
X008785Y001554D01*
X027285Y003254D02*
X027287Y003304D01*
X027293Y003354D01*
X027303Y003404D01*
X027316Y003452D01*
X027333Y003500D01*
X027354Y003546D01*
X027378Y003590D01*
X027406Y003632D01*
X027437Y003672D01*
X027471Y003709D01*
X027508Y003744D01*
X027547Y003775D01*
X027588Y003804D01*
X027632Y003829D01*
X027678Y003851D01*
X027725Y003869D01*
X027773Y003883D01*
X027822Y003894D01*
X027872Y003901D01*
X027922Y003904D01*
X027973Y003903D01*
X028023Y003898D01*
X028073Y003889D01*
X028121Y003877D01*
X028169Y003860D01*
X028215Y003840D01*
X028260Y003817D01*
X028303Y003790D01*
X028343Y003760D01*
X028381Y003727D01*
X028416Y003691D01*
X028449Y003652D01*
X028478Y003611D01*
X028504Y003568D01*
X028527Y003523D01*
X028546Y003476D01*
X028561Y003428D01*
X028573Y003379D01*
X028581Y003329D01*
X028585Y003279D01*
X028585Y003229D01*
X028581Y003179D01*
X028573Y003129D01*
X028561Y003080D01*
X028546Y003032D01*
X028527Y002985D01*
X028504Y002940D01*
X028478Y002897D01*
X028449Y002856D01*
X028416Y002817D01*
X028381Y002781D01*
X028343Y002748D01*
X028303Y002718D01*
X028260Y002691D01*
X028215Y002668D01*
X028169Y002648D01*
X028121Y002631D01*
X028073Y002619D01*
X028023Y002610D01*
X027973Y002605D01*
X027922Y002604D01*
X027872Y002607D01*
X027822Y002614D01*
X027773Y002625D01*
X027725Y002639D01*
X027678Y002657D01*
X027632Y002679D01*
X027588Y002704D01*
X027547Y002733D01*
X027508Y002764D01*
X027471Y002799D01*
X027437Y002836D01*
X027406Y002876D01*
X027378Y002918D01*
X027354Y002962D01*
X027333Y003008D01*
X027316Y003056D01*
X027303Y003104D01*
X027293Y003154D01*
X027287Y003204D01*
X027285Y003254D01*
D15*
X020305Y008830D02*
X020305Y008983D01*
X020305Y008906D02*
X019844Y008906D01*
X019844Y008830D02*
X019844Y008983D01*
X019921Y009137D02*
X019844Y009213D01*
X019844Y009367D01*
X019921Y009443D01*
X019921Y009597D02*
X019844Y009674D01*
X019844Y009827D01*
X019921Y009904D01*
X019998Y009904D01*
X020075Y009827D01*
X020075Y009750D01*
X020075Y009827D02*
X020151Y009904D01*
X020228Y009904D01*
X020305Y009827D01*
X020305Y009674D01*
X020228Y009597D01*
X020228Y009443D02*
X020305Y009367D01*
X020305Y009213D01*
X020228Y009137D01*
X019921Y009137D01*
X019972Y012028D02*
X019972Y012488D01*
X020125Y012335D01*
X020125Y012028D02*
X019818Y012028D01*
D16*
X030244Y012094D02*
X031031Y012094D01*
X031031Y012098D02*
X031031Y011311D01*
X030244Y011311D01*
X030232Y011315D02*
X030232Y010527D01*
X031019Y010527D01*
X031019Y010531D02*
X031019Y009744D01*
X030232Y009744D01*
X030228Y009744D02*
X030228Y008957D01*
X031015Y008957D01*
X031015Y008961D02*
X031015Y008173D01*
X030228Y008173D01*
X030216Y008177D02*
X030216Y007390D01*
X031004Y007390D01*
X031004Y007394D02*
X031004Y006606D01*
X030614Y006602D01*
X030618Y006543D02*
X030618Y005783D01*
X030244Y012094D02*
X030244Y012882D01*
X030236Y012882D02*
X031023Y012882D01*
M02*
