G75*
G70*
%OFA0B0*%
%FSLAX24Y24*%
%IPPOS*%
%LPD*%
%AMOC8*
5,1,8,0,0,1.08239X$1,22.5*
%
%ADD10C,0.0600*%
%ADD11C,0.1580*%
%ADD12C,0.0100*%
%ADD13C,0.0290*%
D10*
X002565Y002914D03*
X002565Y003914D03*
X009933Y009550D03*
X010933Y009550D03*
X010933Y010550D03*
X010933Y011550D03*
X009933Y011550D03*
X009933Y010550D03*
X009933Y012550D03*
X010933Y012550D03*
X013935Y010554D03*
X014935Y010554D03*
X014935Y009554D03*
X013935Y009554D03*
X013935Y008554D03*
X014935Y008554D03*
X014935Y007554D03*
X013935Y007554D03*
X014935Y001554D03*
X015935Y001554D03*
X016935Y001554D03*
X017935Y001554D03*
X018935Y001554D03*
X019935Y001554D03*
X021935Y001554D03*
X022935Y001554D03*
X023935Y001554D03*
X024935Y001554D03*
X025935Y001554D03*
X026935Y001554D03*
X026935Y019554D03*
X025935Y019554D03*
X024935Y019554D03*
X023935Y019554D03*
X022935Y019554D03*
X021935Y019554D03*
X020935Y019554D03*
X019935Y019554D03*
X019935Y020554D03*
X020935Y020554D03*
X021935Y020554D03*
X022935Y020554D03*
X023935Y020554D03*
X024935Y020554D03*
X025935Y020554D03*
X026935Y020554D03*
X018285Y020554D03*
X017285Y020554D03*
X016285Y020554D03*
X015285Y020554D03*
X014285Y020554D03*
X013285Y020554D03*
X012285Y020554D03*
X011285Y020554D03*
X010935Y019554D03*
X011935Y019554D03*
X012935Y019554D03*
X013935Y019554D03*
X014935Y019554D03*
X015935Y019554D03*
X016935Y019554D03*
X017935Y019554D03*
D11*
X006279Y003414D03*
X003917Y003414D03*
X005098Y001564D03*
D12*
X002252Y001032D02*
X002232Y001103D01*
X002224Y001177D01*
X002221Y002623D01*
X002222Y002621D01*
X002272Y002571D01*
X002329Y002529D01*
X002392Y002497D01*
X002460Y002475D01*
X002515Y002467D01*
X002515Y002864D01*
X002615Y002864D01*
X002615Y002467D01*
X002670Y002475D01*
X002738Y002497D01*
X002801Y002529D01*
X002858Y002571D01*
X002908Y002621D01*
X002950Y002678D01*
X002982Y002742D01*
X003004Y002809D01*
X003013Y002864D01*
X002615Y002864D01*
X002615Y002964D01*
X003013Y002964D01*
X003004Y003020D01*
X002982Y003087D01*
X002950Y003150D01*
X002908Y003207D01*
X002858Y003258D01*
X002801Y003299D01*
X002738Y003331D01*
X002670Y003353D01*
X002615Y003362D01*
X002615Y002964D01*
X002515Y002964D01*
X002515Y003362D01*
X002460Y003353D01*
X002392Y003331D01*
X002329Y003299D01*
X002272Y003258D01*
X002222Y003207D01*
X002219Y003204D01*
X002218Y003682D01*
X002333Y003567D01*
X002484Y003504D01*
X002647Y003504D01*
X002797Y003567D01*
X002913Y003682D01*
X002975Y003833D01*
X002975Y003996D01*
X002913Y004147D01*
X002797Y004262D01*
X002647Y004324D01*
X002484Y004324D01*
X002333Y004262D01*
X002218Y004147D01*
X002217Y004145D01*
X002176Y021047D01*
X002183Y021117D01*
X002203Y021184D01*
X002237Y021246D01*
X002282Y021301D01*
X002336Y021345D01*
X002399Y021378D01*
X002466Y021398D01*
X002537Y021404D01*
X027335Y021404D01*
X027335Y020660D01*
X027283Y020787D01*
X027167Y020902D01*
X027017Y020964D01*
X026854Y020964D01*
X026703Y020902D01*
X026588Y020787D01*
X026525Y020636D01*
X026525Y020473D01*
X026588Y020322D01*
X026703Y020207D01*
X026854Y020144D01*
X027017Y020144D01*
X027167Y020207D01*
X027283Y020322D01*
X027335Y020449D01*
X027335Y019660D01*
X027283Y019787D01*
X027167Y019902D01*
X027017Y019964D01*
X026854Y019964D01*
X026703Y019902D01*
X026588Y019787D01*
X026525Y019636D01*
X026525Y019473D01*
X026588Y019322D01*
X026703Y019207D01*
X026854Y019144D01*
X027017Y019144D01*
X027167Y019207D01*
X027283Y019322D01*
X027335Y019449D01*
X027335Y005454D01*
X024785Y005454D01*
X024785Y006554D01*
X022735Y006554D01*
X022735Y007154D01*
X021235Y007154D01*
X021235Y004854D01*
X021635Y004454D01*
X021635Y003054D01*
X018185Y003054D01*
X018185Y002804D01*
X021885Y002804D01*
X021885Y004554D01*
X021485Y004954D01*
X021485Y006304D01*
X024385Y006304D01*
X024385Y005254D01*
X027535Y005254D01*
X027535Y006754D01*
X028835Y006754D01*
X028835Y002754D01*
X027435Y001844D01*
X027435Y001054D01*
X021685Y001054D01*
X021685Y001225D01*
X021703Y001207D01*
X021854Y001144D01*
X022017Y001144D01*
X022167Y001207D01*
X022283Y001322D01*
X022345Y001473D01*
X022345Y001636D01*
X022283Y001787D01*
X022167Y001902D01*
X022017Y001964D01*
X021854Y001964D01*
X021703Y001902D01*
X021685Y001884D01*
X021685Y002304D01*
X019435Y002304D01*
X019435Y000754D01*
X009725Y000754D01*
X009917Y000834D01*
X010156Y001073D01*
X010285Y001385D01*
X010285Y001723D01*
X010156Y002036D01*
X009917Y002275D01*
X009604Y002404D01*
X009266Y002404D01*
X008954Y002275D01*
X008715Y002036D01*
X008585Y001723D01*
X008585Y001385D01*
X008715Y001073D01*
X008954Y000834D01*
X009145Y000754D01*
X005576Y000754D01*
X005643Y000796D01*
X005725Y000862D01*
X005800Y000937D01*
X005866Y001019D01*
X005922Y001109D01*
X005967Y001204D01*
X006002Y001303D01*
X006026Y001406D01*
X006038Y001511D01*
X006038Y001514D01*
X005148Y001514D01*
X005148Y001614D01*
X006038Y001614D01*
X006038Y001617D01*
X006026Y001722D01*
X006002Y001825D01*
X005967Y001924D01*
X005922Y002019D01*
X005866Y002109D01*
X005800Y002191D01*
X005725Y002266D01*
X005643Y002332D01*
X005553Y002388D01*
X005458Y002434D01*
X005358Y002469D01*
X005255Y002492D01*
X005151Y002504D01*
X005148Y002504D01*
X005148Y001614D01*
X005048Y001614D01*
X005048Y002504D01*
X005045Y002504D01*
X004940Y002492D01*
X004837Y002469D01*
X004737Y002434D01*
X004642Y002388D01*
X004553Y002332D01*
X004470Y002266D01*
X004396Y002191D01*
X004330Y002109D01*
X004274Y002019D01*
X004228Y001924D01*
X004193Y001825D01*
X004170Y001722D01*
X004158Y001617D01*
X004158Y001614D01*
X005048Y001614D01*
X005048Y001514D01*
X004158Y001514D01*
X004158Y001511D01*
X004170Y001406D01*
X004193Y001303D01*
X004228Y001204D01*
X004274Y001109D01*
X004330Y001019D01*
X004396Y000937D01*
X004470Y000862D01*
X004553Y000796D01*
X004619Y000754D01*
X002655Y000754D01*
X002581Y000761D01*
X002510Y000780D01*
X002442Y000811D01*
X002381Y000853D01*
X002328Y000905D01*
X002285Y000965D01*
X002252Y001032D01*
X002248Y001047D02*
X004312Y001047D01*
X004256Y001146D02*
X002227Y001146D01*
X002224Y001244D02*
X004214Y001244D01*
X004184Y001343D02*
X002224Y001343D01*
X002223Y001441D02*
X004166Y001441D01*
X004160Y001638D02*
X002223Y001638D01*
X002223Y001540D02*
X005048Y001540D01*
X005048Y001638D02*
X005148Y001638D01*
X005148Y001540D02*
X008585Y001540D01*
X008585Y001638D02*
X006035Y001638D01*
X006022Y001737D02*
X008591Y001737D01*
X008632Y001835D02*
X005999Y001835D01*
X005963Y001934D02*
X008672Y001934D01*
X008713Y002032D02*
X005913Y002032D01*
X005848Y002131D02*
X008810Y002131D01*
X008908Y002230D02*
X005761Y002230D01*
X005647Y002328D02*
X009082Y002328D01*
X009788Y002328D02*
X028179Y002328D01*
X028158Y002427D02*
X028331Y002427D01*
X028396Y002525D02*
X028483Y002525D01*
X028417Y002534D02*
X028656Y002773D01*
X028785Y003085D01*
X028785Y003423D01*
X028656Y003736D01*
X028417Y003975D01*
X028104Y004104D01*
X027766Y004104D01*
X027454Y003975D01*
X027215Y003736D01*
X027085Y003423D01*
X027085Y003085D01*
X027215Y002773D01*
X027454Y002534D01*
X027766Y002404D01*
X028104Y002404D01*
X028417Y002534D01*
X028507Y002624D02*
X028634Y002624D01*
X028605Y002722D02*
X028786Y002722D01*
X028835Y002821D02*
X028676Y002821D01*
X028716Y002919D02*
X028835Y002919D01*
X028835Y003018D02*
X028757Y003018D01*
X028785Y003116D02*
X028835Y003116D01*
X028835Y003215D02*
X028785Y003215D01*
X028785Y003314D02*
X028835Y003314D01*
X028835Y003412D02*
X028785Y003412D01*
X028749Y003511D02*
X028835Y003511D01*
X028835Y003609D02*
X028708Y003609D01*
X028667Y003708D02*
X028835Y003708D01*
X028835Y003806D02*
X028585Y003806D01*
X028487Y003905D02*
X028835Y003905D01*
X028835Y004003D02*
X028348Y004003D01*
X028110Y004102D02*
X028835Y004102D01*
X028835Y004200D02*
X021885Y004200D01*
X021885Y004102D02*
X027760Y004102D01*
X027522Y004003D02*
X021885Y004003D01*
X021885Y003905D02*
X027384Y003905D01*
X027285Y003806D02*
X021885Y003806D01*
X021885Y003708D02*
X027203Y003708D01*
X027162Y003609D02*
X021885Y003609D01*
X021885Y003511D02*
X027121Y003511D01*
X027085Y003412D02*
X021885Y003412D01*
X021885Y003314D02*
X027085Y003314D01*
X027085Y003215D02*
X021885Y003215D01*
X021885Y003116D02*
X027085Y003116D01*
X027113Y003018D02*
X021885Y003018D01*
X021885Y002919D02*
X027154Y002919D01*
X027195Y002821D02*
X021885Y002821D01*
X021635Y003116D02*
X012034Y003116D01*
X012051Y003099D02*
X011980Y003170D01*
X011886Y003209D01*
X011784Y003209D01*
X011691Y003170D01*
X011619Y003099D01*
X011580Y003005D01*
X011580Y002904D01*
X011619Y002810D01*
X011691Y002738D01*
X011784Y002699D01*
X011886Y002699D01*
X011980Y002738D01*
X012051Y002810D01*
X012090Y002904D01*
X012090Y003005D01*
X012051Y003099D01*
X012085Y003018D02*
X018185Y003018D01*
X018185Y002919D02*
X014331Y002919D01*
X014351Y002899D02*
X014280Y002970D01*
X014186Y003009D01*
X014084Y003009D01*
X013991Y002970D01*
X013919Y002899D01*
X013880Y002805D01*
X013880Y002704D01*
X013919Y002610D01*
X013991Y002538D01*
X014084Y002499D01*
X014186Y002499D01*
X014280Y002538D01*
X014351Y002610D01*
X014390Y002704D01*
X014390Y002805D01*
X014351Y002899D01*
X014384Y002821D02*
X018185Y002821D01*
X018040Y001993D02*
X017985Y002002D01*
X017985Y001604D01*
X018383Y001604D01*
X018374Y001660D01*
X018352Y001727D01*
X018320Y001790D01*
X018278Y001847D01*
X018228Y001898D01*
X018171Y001939D01*
X018108Y001971D01*
X018040Y001993D01*
X017985Y001934D02*
X017885Y001934D01*
X017885Y002002D02*
X017885Y001604D01*
X017885Y001504D01*
X017985Y001504D01*
X017985Y001107D01*
X018040Y001115D01*
X018108Y001137D01*
X018171Y001169D01*
X018228Y001211D01*
X018278Y001261D01*
X018320Y001318D01*
X018352Y001382D01*
X018374Y001449D01*
X018383Y001504D01*
X017985Y001504D01*
X017985Y001604D01*
X017885Y001604D01*
X017487Y001604D01*
X017496Y001660D01*
X017518Y001727D01*
X017550Y001790D01*
X017592Y001847D01*
X017642Y001898D01*
X017699Y001939D01*
X017762Y001971D01*
X017830Y001993D01*
X017885Y002002D01*
X017885Y001835D02*
X017985Y001835D01*
X017985Y001737D02*
X017885Y001737D01*
X017885Y001638D02*
X017985Y001638D01*
X017985Y001540D02*
X018885Y001540D01*
X018885Y001504D02*
X018885Y001604D01*
X018487Y001604D01*
X018496Y001660D01*
X018518Y001727D01*
X018550Y001790D01*
X018592Y001847D01*
X018642Y001898D01*
X018699Y001939D01*
X018762Y001971D01*
X018830Y001993D01*
X018885Y002002D01*
X018885Y001604D01*
X018985Y001604D01*
X019383Y001604D01*
X019374Y001660D01*
X019352Y001727D01*
X019320Y001790D01*
X019278Y001847D01*
X019228Y001898D01*
X019171Y001939D01*
X019108Y001971D01*
X019040Y001993D01*
X018985Y002002D01*
X018985Y001604D01*
X018985Y001504D01*
X018985Y001107D01*
X019040Y001115D01*
X019108Y001137D01*
X019171Y001169D01*
X019228Y001211D01*
X019278Y001261D01*
X019320Y001318D01*
X019352Y001382D01*
X019374Y001449D01*
X019383Y001504D01*
X018985Y001504D01*
X018885Y001504D01*
X018885Y001107D01*
X018830Y001115D01*
X018762Y001137D01*
X018699Y001169D01*
X018642Y001211D01*
X018592Y001261D01*
X018550Y001318D01*
X018518Y001382D01*
X018496Y001449D01*
X018487Y001504D01*
X018885Y001504D01*
X018885Y001441D02*
X018985Y001441D01*
X018985Y001343D02*
X018885Y001343D01*
X018885Y001244D02*
X018985Y001244D01*
X018985Y001146D02*
X018885Y001146D01*
X018746Y001146D02*
X018124Y001146D01*
X017985Y001146D02*
X017885Y001146D01*
X017885Y001107D02*
X017885Y001504D01*
X017487Y001504D01*
X017496Y001449D01*
X017518Y001382D01*
X017550Y001318D01*
X017592Y001261D01*
X017642Y001211D01*
X017699Y001169D01*
X017762Y001137D01*
X017830Y001115D01*
X017885Y001107D01*
X017885Y001244D02*
X017985Y001244D01*
X017985Y001343D02*
X017885Y001343D01*
X017885Y001441D02*
X017985Y001441D01*
X017885Y001540D02*
X017345Y001540D01*
X017345Y001473D02*
X017345Y001636D01*
X017283Y001787D01*
X017167Y001902D01*
X017017Y001964D01*
X016854Y001964D01*
X016703Y001902D01*
X016588Y001787D01*
X016525Y001636D01*
X016525Y001473D01*
X016588Y001322D01*
X016703Y001207D01*
X016854Y001144D01*
X017017Y001144D01*
X017167Y001207D01*
X017283Y001322D01*
X017345Y001473D01*
X017332Y001441D02*
X017499Y001441D01*
X017538Y001343D02*
X017291Y001343D01*
X017205Y001244D02*
X017609Y001244D01*
X017746Y001146D02*
X017020Y001146D01*
X016850Y001146D02*
X016020Y001146D01*
X016017Y001144D02*
X016167Y001207D01*
X016283Y001322D01*
X016345Y001473D01*
X016345Y001636D01*
X016283Y001787D01*
X016167Y001902D01*
X016017Y001964D01*
X015854Y001964D01*
X015703Y001902D01*
X015588Y001787D01*
X015525Y001636D01*
X015525Y001473D01*
X015588Y001322D01*
X015703Y001207D01*
X015854Y001144D01*
X016017Y001144D01*
X015850Y001146D02*
X015020Y001146D01*
X015017Y001144D02*
X015167Y001207D01*
X015283Y001322D01*
X015345Y001473D01*
X015345Y001636D01*
X015283Y001787D01*
X015167Y001902D01*
X015017Y001964D01*
X014854Y001964D01*
X014703Y001902D01*
X014588Y001787D01*
X014525Y001636D01*
X014525Y001473D01*
X014588Y001322D01*
X014703Y001207D01*
X014854Y001144D01*
X015017Y001144D01*
X014850Y001146D02*
X010186Y001146D01*
X010227Y001244D02*
X014665Y001244D01*
X014579Y001343D02*
X010267Y001343D01*
X010285Y001441D02*
X014538Y001441D01*
X014525Y001540D02*
X010285Y001540D01*
X010285Y001638D02*
X014526Y001638D01*
X014567Y001737D02*
X010280Y001737D01*
X010239Y001835D02*
X014636Y001835D01*
X014780Y001934D02*
X010198Y001934D01*
X010157Y002032D02*
X019435Y002032D01*
X019435Y001934D02*
X019178Y001934D01*
X019287Y001835D02*
X019435Y001835D01*
X019435Y001737D02*
X019347Y001737D01*
X019377Y001638D02*
X019435Y001638D01*
X019435Y001540D02*
X018985Y001540D01*
X018985Y001638D02*
X018885Y001638D01*
X018885Y001737D02*
X018985Y001737D01*
X018985Y001835D02*
X018885Y001835D01*
X018885Y001934D02*
X018985Y001934D01*
X018692Y001934D02*
X018178Y001934D01*
X018287Y001835D02*
X018583Y001835D01*
X018523Y001737D02*
X018347Y001737D01*
X018377Y001638D02*
X018493Y001638D01*
X018499Y001441D02*
X018371Y001441D01*
X018332Y001343D02*
X018538Y001343D01*
X018609Y001244D02*
X018261Y001244D01*
X017493Y001638D02*
X017344Y001638D01*
X017303Y001737D02*
X017523Y001737D01*
X017583Y001835D02*
X017234Y001835D01*
X017090Y001934D02*
X017692Y001934D01*
X016780Y001934D02*
X016090Y001934D01*
X016234Y001835D02*
X016636Y001835D01*
X016567Y001737D02*
X016303Y001737D01*
X016344Y001638D02*
X016526Y001638D01*
X016525Y001540D02*
X016345Y001540D01*
X016332Y001441D02*
X016538Y001441D01*
X016579Y001343D02*
X016291Y001343D01*
X016205Y001244D02*
X016665Y001244D01*
X015665Y001244D02*
X015205Y001244D01*
X015291Y001343D02*
X015579Y001343D01*
X015538Y001441D02*
X015332Y001441D01*
X015345Y001540D02*
X015525Y001540D01*
X015526Y001638D02*
X015344Y001638D01*
X015303Y001737D02*
X015567Y001737D01*
X015636Y001835D02*
X015234Y001835D01*
X015090Y001934D02*
X015780Y001934D01*
X014357Y002624D02*
X027364Y002624D01*
X027265Y002722D02*
X014390Y002722D01*
X014248Y002525D02*
X027474Y002525D01*
X027712Y002427D02*
X005473Y002427D01*
X005148Y002427D02*
X005048Y002427D01*
X005048Y002328D02*
X005148Y002328D01*
X005148Y002230D02*
X005048Y002230D01*
X005048Y002131D02*
X005148Y002131D01*
X005148Y002032D02*
X005048Y002032D01*
X005048Y001934D02*
X005148Y001934D01*
X005148Y001835D02*
X005048Y001835D01*
X005048Y001737D02*
X005148Y001737D01*
X006030Y001441D02*
X008585Y001441D01*
X008603Y001343D02*
X006011Y001343D01*
X005982Y001244D02*
X008644Y001244D01*
X008684Y001146D02*
X005940Y001146D01*
X005883Y001047D02*
X008740Y001047D01*
X008839Y000949D02*
X005809Y000949D01*
X005710Y000850D02*
X008937Y000850D01*
X009933Y000850D02*
X019435Y000850D01*
X019435Y000949D02*
X010031Y000949D01*
X010130Y001047D02*
X019435Y001047D01*
X019435Y001146D02*
X019124Y001146D01*
X019261Y001244D02*
X019435Y001244D01*
X019435Y001343D02*
X019332Y001343D01*
X019371Y001441D02*
X019435Y001441D01*
X019435Y002131D02*
X010060Y002131D01*
X009962Y002230D02*
X019435Y002230D01*
X021685Y002230D02*
X028028Y002230D01*
X027876Y002131D02*
X021685Y002131D01*
X021685Y002032D02*
X027725Y002032D01*
X027573Y001934D02*
X027090Y001934D01*
X027017Y001964D02*
X026854Y001964D01*
X026703Y001902D01*
X026588Y001787D01*
X026525Y001636D01*
X026525Y001473D01*
X026588Y001322D01*
X026703Y001207D01*
X026854Y001144D01*
X027017Y001144D01*
X027167Y001207D01*
X027283Y001322D01*
X027345Y001473D01*
X027345Y001636D01*
X027283Y001787D01*
X027167Y001902D01*
X027017Y001964D01*
X026780Y001934D02*
X026090Y001934D01*
X026017Y001964D02*
X025854Y001964D01*
X025703Y001902D01*
X025588Y001787D01*
X025525Y001636D01*
X025525Y001473D01*
X025588Y001322D01*
X025703Y001207D01*
X025854Y001144D01*
X026017Y001144D01*
X026167Y001207D01*
X026283Y001322D01*
X026345Y001473D01*
X026345Y001636D01*
X026283Y001787D01*
X026167Y001902D01*
X026017Y001964D01*
X025780Y001934D02*
X025090Y001934D01*
X025017Y001964D02*
X025167Y001902D01*
X025283Y001787D01*
X025345Y001636D01*
X025345Y001473D01*
X025283Y001322D01*
X025167Y001207D01*
X025017Y001144D01*
X024854Y001144D01*
X024703Y001207D01*
X024588Y001322D01*
X024525Y001473D01*
X024525Y001636D01*
X024588Y001787D01*
X024703Y001902D01*
X024854Y001964D01*
X025017Y001964D01*
X024780Y001934D02*
X024090Y001934D01*
X024017Y001964D02*
X024167Y001902D01*
X024283Y001787D01*
X024345Y001636D01*
X024345Y001473D01*
X024283Y001322D01*
X024167Y001207D01*
X024017Y001144D01*
X023854Y001144D01*
X023703Y001207D01*
X023588Y001322D01*
X023525Y001473D01*
X023525Y001636D01*
X023588Y001787D01*
X023703Y001902D01*
X023854Y001964D01*
X024017Y001964D01*
X023780Y001934D02*
X023090Y001934D01*
X023017Y001964D02*
X022854Y001964D01*
X022703Y001902D01*
X022588Y001787D01*
X022525Y001636D01*
X022525Y001473D01*
X022588Y001322D01*
X022703Y001207D01*
X022854Y001144D01*
X023017Y001144D01*
X023167Y001207D01*
X023283Y001322D01*
X023345Y001473D01*
X023345Y001636D01*
X023283Y001787D01*
X023167Y001902D01*
X023017Y001964D01*
X022780Y001934D02*
X022090Y001934D01*
X022234Y001835D02*
X022636Y001835D01*
X022567Y001737D02*
X022303Y001737D01*
X022344Y001638D02*
X022526Y001638D01*
X022525Y001540D02*
X022345Y001540D01*
X022332Y001441D02*
X022538Y001441D01*
X022579Y001343D02*
X022291Y001343D01*
X022205Y001244D02*
X022665Y001244D01*
X022850Y001146D02*
X022020Y001146D01*
X021850Y001146D02*
X021685Y001146D01*
X021685Y001934D02*
X021780Y001934D01*
X023020Y001146D02*
X023850Y001146D01*
X024020Y001146D02*
X024850Y001146D01*
X025020Y001146D02*
X025850Y001146D01*
X026020Y001146D02*
X026850Y001146D01*
X027020Y001146D02*
X027435Y001146D01*
X027435Y001244D02*
X027205Y001244D01*
X027291Y001343D02*
X027435Y001343D01*
X027435Y001441D02*
X027332Y001441D01*
X027345Y001540D02*
X027435Y001540D01*
X027435Y001638D02*
X027344Y001638D01*
X027303Y001737D02*
X027435Y001737D01*
X027435Y001835D02*
X027234Y001835D01*
X026636Y001835D02*
X026234Y001835D01*
X026303Y001737D02*
X026567Y001737D01*
X026526Y001638D02*
X026344Y001638D01*
X026345Y001540D02*
X026525Y001540D01*
X026538Y001441D02*
X026332Y001441D01*
X026291Y001343D02*
X026579Y001343D01*
X026665Y001244D02*
X026205Y001244D01*
X025665Y001244D02*
X025205Y001244D01*
X025291Y001343D02*
X025579Y001343D01*
X025538Y001441D02*
X025332Y001441D01*
X025345Y001540D02*
X025525Y001540D01*
X025526Y001638D02*
X025344Y001638D01*
X025303Y001737D02*
X025567Y001737D01*
X025636Y001835D02*
X025234Y001835D01*
X024636Y001835D02*
X024234Y001835D01*
X024303Y001737D02*
X024567Y001737D01*
X024526Y001638D02*
X024344Y001638D01*
X024345Y001540D02*
X024525Y001540D01*
X024538Y001441D02*
X024332Y001441D01*
X024291Y001343D02*
X024579Y001343D01*
X024665Y001244D02*
X024205Y001244D01*
X023665Y001244D02*
X023205Y001244D01*
X023291Y001343D02*
X023579Y001343D01*
X023538Y001441D02*
X023332Y001441D01*
X023345Y001540D02*
X023525Y001540D01*
X023526Y001638D02*
X023344Y001638D01*
X023303Y001737D02*
X023567Y001737D01*
X023636Y001835D02*
X023234Y001835D01*
X021635Y003215D02*
X007170Y003215D01*
X007179Y003235D02*
X007042Y002904D01*
X006789Y002651D01*
X006458Y002514D01*
X006100Y002514D01*
X005769Y002651D01*
X005516Y002904D01*
X005379Y003235D01*
X005379Y003593D01*
X005516Y003924D01*
X005769Y004177D01*
X006100Y004314D01*
X006458Y004314D01*
X006789Y004177D01*
X007042Y003924D01*
X007179Y003593D01*
X007179Y003235D01*
X007179Y003314D02*
X021635Y003314D01*
X021635Y003412D02*
X007179Y003412D01*
X007179Y003511D02*
X021635Y003511D01*
X021635Y003609D02*
X007172Y003609D01*
X007131Y003708D02*
X021635Y003708D01*
X021635Y003806D02*
X007091Y003806D01*
X007050Y003905D02*
X021635Y003905D01*
X021635Y004003D02*
X015796Y004003D01*
X015786Y003999D02*
X015880Y004038D01*
X015951Y004110D01*
X015990Y004204D01*
X015990Y004305D01*
X015951Y004399D01*
X015880Y004470D01*
X015786Y004509D01*
X015684Y004509D01*
X015591Y004470D01*
X015519Y004399D01*
X015480Y004305D01*
X015480Y004204D01*
X015519Y004110D01*
X015591Y004038D01*
X015684Y003999D01*
X015786Y003999D01*
X015675Y004003D02*
X006963Y004003D01*
X006864Y004102D02*
X014778Y004102D01*
X014784Y004099D02*
X014886Y004099D01*
X014980Y004138D01*
X015051Y004210D01*
X015090Y004304D01*
X015090Y004405D01*
X015051Y004499D01*
X014980Y004570D01*
X014886Y004609D01*
X014784Y004609D01*
X014691Y004570D01*
X014619Y004499D01*
X014580Y004405D01*
X014580Y004304D01*
X014619Y004210D01*
X014691Y004138D01*
X014784Y004099D01*
X014892Y004102D02*
X015527Y004102D01*
X015481Y004200D02*
X015042Y004200D01*
X015088Y004299D02*
X015480Y004299D01*
X015518Y004398D02*
X015090Y004398D01*
X015052Y004496D02*
X015652Y004496D01*
X015818Y004496D02*
X021593Y004496D01*
X021635Y004398D02*
X015952Y004398D01*
X015990Y004299D02*
X021635Y004299D01*
X021635Y004200D02*
X015989Y004200D01*
X015943Y004102D02*
X021635Y004102D01*
X021885Y004299D02*
X028835Y004299D01*
X028835Y004398D02*
X021885Y004398D01*
X021885Y004496D02*
X028835Y004496D01*
X028835Y004595D02*
X021845Y004595D01*
X021746Y004693D02*
X028835Y004693D01*
X028835Y004792D02*
X021648Y004792D01*
X021549Y004890D02*
X028835Y004890D01*
X028835Y004989D02*
X021485Y004989D01*
X021485Y005087D02*
X028835Y005087D01*
X028835Y005186D02*
X021485Y005186D01*
X021485Y005284D02*
X024385Y005284D01*
X024385Y005383D02*
X021485Y005383D01*
X021485Y005481D02*
X022647Y005481D01*
X022619Y005510D02*
X022691Y005438D01*
X022784Y005399D01*
X022886Y005399D01*
X022980Y005438D01*
X023051Y005510D01*
X023090Y005604D01*
X023090Y005705D01*
X023051Y005799D01*
X022980Y005870D01*
X022886Y005909D01*
X022784Y005909D01*
X022691Y005870D01*
X022619Y005799D01*
X022580Y005705D01*
X022580Y005604D01*
X022619Y005510D01*
X022590Y005580D02*
X021485Y005580D01*
X021485Y005679D02*
X022580Y005679D01*
X022610Y005777D02*
X021485Y005777D01*
X021485Y005876D02*
X022703Y005876D01*
X022967Y005876D02*
X024385Y005876D01*
X024385Y005974D02*
X021485Y005974D01*
X021485Y006073D02*
X024385Y006073D01*
X024385Y006171D02*
X021485Y006171D01*
X021485Y006270D02*
X024385Y006270D01*
X024785Y006270D02*
X027335Y006270D01*
X027335Y006368D02*
X024785Y006368D01*
X024785Y006467D02*
X027335Y006467D01*
X027335Y006565D02*
X022735Y006565D01*
X022735Y006664D02*
X023365Y006664D01*
X023391Y006638D02*
X023484Y006599D01*
X023586Y006599D01*
X023680Y006638D01*
X023751Y006710D01*
X023790Y006804D01*
X023790Y006905D01*
X023751Y006999D01*
X023680Y007070D01*
X023586Y007109D01*
X023484Y007109D01*
X023391Y007070D01*
X023319Y006999D01*
X023280Y006905D01*
X023280Y006804D01*
X023319Y006710D01*
X023391Y006638D01*
X023297Y006763D02*
X022735Y006763D01*
X022735Y006861D02*
X023280Y006861D01*
X023303Y006960D02*
X022735Y006960D01*
X022735Y007058D02*
X023378Y007058D01*
X023692Y007058D02*
X027335Y007058D01*
X027335Y006960D02*
X023767Y006960D01*
X023790Y006861D02*
X027335Y006861D01*
X027335Y006763D02*
X023773Y006763D01*
X023705Y006664D02*
X027335Y006664D01*
X027535Y006664D02*
X028835Y006664D01*
X028835Y006565D02*
X027535Y006565D01*
X027535Y006467D02*
X028835Y006467D01*
X028835Y006368D02*
X027535Y006368D01*
X027535Y006270D02*
X028835Y006270D01*
X028835Y006171D02*
X027535Y006171D01*
X027535Y006073D02*
X028835Y006073D01*
X028835Y005974D02*
X027535Y005974D01*
X027535Y005876D02*
X028835Y005876D01*
X028835Y005777D02*
X027535Y005777D01*
X027535Y005679D02*
X028835Y005679D01*
X028835Y005580D02*
X027535Y005580D01*
X027535Y005481D02*
X028835Y005481D01*
X028835Y005383D02*
X027535Y005383D01*
X027535Y005284D02*
X028835Y005284D01*
X027335Y005481D02*
X024785Y005481D01*
X024785Y005580D02*
X025349Y005580D01*
X025319Y005610D02*
X025391Y005538D01*
X025484Y005499D01*
X025586Y005499D01*
X025680Y005538D01*
X025751Y005610D01*
X025790Y005704D01*
X025790Y005805D01*
X025751Y005899D01*
X025680Y005970D01*
X025586Y006009D01*
X025484Y006009D01*
X025391Y005970D01*
X025319Y005899D01*
X025280Y005805D01*
X025280Y005704D01*
X025319Y005610D01*
X025290Y005679D02*
X024785Y005679D01*
X024785Y005777D02*
X025280Y005777D01*
X025309Y005876D02*
X024785Y005876D01*
X024785Y005974D02*
X025400Y005974D01*
X025671Y005974D02*
X027335Y005974D01*
X027335Y005876D02*
X025761Y005876D01*
X025790Y005777D02*
X027335Y005777D01*
X027335Y005679D02*
X025780Y005679D01*
X025721Y005580D02*
X027335Y005580D01*
X027335Y006073D02*
X024785Y006073D01*
X024785Y006171D02*
X027335Y006171D01*
X027335Y007157D02*
X024044Y007157D01*
X024026Y007149D02*
X024120Y007188D01*
X024191Y007260D01*
X024230Y007354D01*
X027335Y007354D01*
X027335Y007452D02*
X024230Y007452D01*
X024230Y007455D02*
X024191Y007549D01*
X024120Y007620D01*
X024026Y007659D01*
X023924Y007659D01*
X023831Y007620D01*
X023759Y007549D01*
X023720Y007455D01*
X023720Y007354D01*
X022969Y007354D01*
X022951Y007310D02*
X022990Y007404D01*
X022990Y007499D01*
X023086Y007499D01*
X023180Y007538D01*
X023251Y007610D01*
X023290Y007704D01*
X023290Y007805D01*
X023251Y007899D01*
X023180Y007970D01*
X023086Y008009D01*
X022984Y008009D01*
X022891Y007970D01*
X022819Y007899D01*
X022780Y007805D01*
X022780Y007709D01*
X022684Y007709D01*
X022591Y007670D01*
X022519Y007599D01*
X022480Y007505D01*
X022480Y007404D01*
X022519Y007310D01*
X022591Y007238D01*
X022684Y007199D01*
X022786Y007199D01*
X022880Y007238D01*
X022951Y007310D01*
X022897Y007255D02*
X023764Y007255D01*
X023759Y007260D02*
X023831Y007188D01*
X023924Y007149D01*
X024026Y007149D01*
X023906Y007157D02*
X019998Y007157D01*
X019980Y007138D02*
X020051Y007210D01*
X020090Y007304D01*
X020090Y007405D01*
X020051Y007499D01*
X019980Y007570D01*
X019886Y007609D01*
X019784Y007609D01*
X019691Y007570D01*
X019619Y007499D01*
X019580Y007405D01*
X019580Y007304D01*
X019619Y007210D01*
X019691Y007138D01*
X019784Y007099D01*
X019886Y007099D01*
X019980Y007138D01*
X020070Y007255D02*
X022574Y007255D01*
X022501Y007354D02*
X020090Y007354D01*
X020071Y007452D02*
X022480Y007452D01*
X022499Y007551D02*
X019999Y007551D01*
X019671Y007551D02*
X015345Y007551D01*
X015345Y007473D02*
X015283Y007322D01*
X015167Y007207D01*
X015017Y007144D01*
X014854Y007144D01*
X014703Y007207D01*
X014588Y007322D01*
X014525Y007473D01*
X014525Y007636D01*
X014588Y007787D01*
X014703Y007902D01*
X014854Y007964D01*
X015017Y007964D01*
X015167Y007902D01*
X015283Y007787D01*
X015345Y007636D01*
X015345Y007473D01*
X015337Y007452D02*
X019600Y007452D01*
X019580Y007354D02*
X015296Y007354D01*
X015216Y007255D02*
X018675Y007255D01*
X018691Y007270D02*
X018619Y007199D01*
X018580Y007105D01*
X018580Y007004D01*
X018619Y006910D01*
X018691Y006838D01*
X018784Y006799D01*
X018886Y006799D01*
X018980Y006838D01*
X019051Y006910D01*
X019090Y007004D01*
X019090Y007105D01*
X019051Y007199D01*
X018980Y007270D01*
X018886Y007309D01*
X018784Y007309D01*
X018691Y007270D01*
X018602Y007157D02*
X015047Y007157D01*
X014824Y007157D02*
X014146Y007157D01*
X014171Y007169D02*
X014228Y007211D01*
X014278Y007261D01*
X014320Y007318D01*
X014352Y007382D01*
X014374Y007449D01*
X014383Y007504D01*
X013985Y007504D01*
X013985Y007107D01*
X014040Y007115D01*
X014108Y007137D01*
X014171Y007169D01*
X014272Y007255D02*
X014654Y007255D01*
X014574Y007354D02*
X014338Y007354D01*
X014375Y007452D02*
X014534Y007452D01*
X014525Y007551D02*
X013985Y007551D01*
X013985Y007504D02*
X013985Y007604D01*
X014383Y007604D01*
X014374Y007660D01*
X014352Y007727D01*
X014320Y007790D01*
X014278Y007847D01*
X014228Y007898D01*
X014171Y007939D01*
X014108Y007971D01*
X014040Y007993D01*
X013985Y008002D01*
X013985Y007604D01*
X013885Y007604D01*
X013885Y007504D01*
X013985Y007504D01*
X013985Y007452D02*
X013885Y007452D01*
X013885Y007504D02*
X013885Y007107D01*
X013830Y007115D01*
X013762Y007137D01*
X013699Y007169D01*
X013642Y007211D01*
X013592Y007261D01*
X013550Y007318D01*
X013518Y007382D01*
X013496Y007449D01*
X013487Y007504D01*
X013885Y007504D01*
X013885Y007551D02*
X002209Y007551D01*
X002208Y007649D02*
X013495Y007649D01*
X013496Y007660D02*
X013487Y007604D01*
X013885Y007604D01*
X013885Y008002D01*
X013830Y007993D01*
X013762Y007971D01*
X013699Y007939D01*
X013642Y007898D01*
X013592Y007847D01*
X013550Y007790D01*
X013518Y007727D01*
X013496Y007660D01*
X013529Y007748D02*
X004199Y007748D01*
X004249Y007768D02*
X004355Y007875D01*
X004412Y008013D01*
X004412Y008163D01*
X004355Y008302D01*
X004249Y008408D01*
X004110Y008465D01*
X003960Y008465D01*
X003821Y008408D01*
X003715Y008302D01*
X003658Y008163D01*
X003658Y008013D01*
X003715Y007875D01*
X003821Y007768D01*
X003960Y007711D01*
X004110Y007711D01*
X004249Y007768D01*
X004327Y007847D02*
X013591Y007847D01*
X013711Y007945D02*
X004384Y007945D01*
X004412Y008044D02*
X021505Y008044D01*
X021519Y008010D02*
X021591Y007938D01*
X021684Y007899D01*
X021786Y007899D01*
X021880Y007938D01*
X021951Y008010D01*
X021990Y008104D01*
X021990Y008205D01*
X021951Y008299D01*
X021880Y008370D01*
X021786Y008409D01*
X021684Y008409D01*
X021591Y008370D01*
X021519Y008299D01*
X021480Y008205D01*
X021480Y008104D01*
X021519Y008010D01*
X021584Y007945D02*
X015063Y007945D01*
X015223Y007847D02*
X022797Y007847D01*
X022780Y007748D02*
X015299Y007748D01*
X015339Y007649D02*
X022570Y007649D01*
X022990Y007452D02*
X023720Y007452D01*
X023720Y007354D02*
X023759Y007260D01*
X023761Y007551D02*
X023192Y007551D01*
X023268Y007649D02*
X023901Y007649D01*
X024050Y007649D02*
X027335Y007649D01*
X027335Y007551D02*
X024189Y007551D01*
X024230Y007455D02*
X024230Y007354D01*
X024187Y007255D02*
X027335Y007255D01*
X027335Y007748D02*
X023290Y007748D01*
X023273Y007847D02*
X027335Y007847D01*
X027335Y007945D02*
X023205Y007945D01*
X023284Y008199D02*
X023386Y008199D01*
X023480Y008238D01*
X023551Y008310D01*
X023590Y008404D01*
X023590Y008505D01*
X023551Y008599D01*
X023496Y008654D01*
X023551Y008710D01*
X023590Y008804D01*
X023590Y008905D01*
X023551Y008999D01*
X023496Y009054D01*
X023551Y009110D01*
X023590Y009204D01*
X023590Y009305D01*
X023551Y009399D01*
X023480Y009470D01*
X023386Y009509D01*
X023284Y009509D01*
X023191Y009470D01*
X023119Y009399D01*
X023080Y009305D01*
X023080Y009204D01*
X023119Y009110D01*
X023175Y009054D01*
X023119Y008999D01*
X023080Y008905D01*
X023080Y008804D01*
X023119Y008710D01*
X023175Y008654D01*
X023119Y008599D01*
X023080Y008505D01*
X023080Y008404D01*
X023119Y008310D01*
X023191Y008238D01*
X023284Y008199D01*
X023188Y008241D02*
X021975Y008241D01*
X021990Y008142D02*
X027335Y008142D01*
X027335Y008044D02*
X021965Y008044D01*
X021886Y007945D02*
X022865Y007945D01*
X023107Y008339D02*
X021911Y008339D01*
X021559Y008339D02*
X015290Y008339D01*
X015283Y008322D02*
X015345Y008473D01*
X015345Y008636D01*
X015283Y008787D01*
X015167Y008902D01*
X015017Y008964D01*
X014854Y008964D01*
X014703Y008902D01*
X014588Y008787D01*
X014525Y008636D01*
X014525Y008473D01*
X014588Y008322D01*
X014703Y008207D01*
X014854Y008144D01*
X015017Y008144D01*
X015167Y008207D01*
X015283Y008322D01*
X015201Y008241D02*
X021495Y008241D01*
X021480Y008142D02*
X004412Y008142D01*
X004380Y008241D02*
X013669Y008241D01*
X013703Y008207D02*
X013854Y008144D01*
X014017Y008144D01*
X014167Y008207D01*
X014283Y008322D01*
X014345Y008473D01*
X014345Y008636D01*
X014283Y008787D01*
X014167Y008902D01*
X014017Y008964D01*
X013854Y008964D01*
X013703Y008902D01*
X013588Y008787D01*
X013525Y008636D01*
X013525Y008473D01*
X013588Y008322D01*
X013703Y008207D01*
X013580Y008339D02*
X004317Y008339D01*
X004177Y008438D02*
X013540Y008438D01*
X013525Y008536D02*
X002206Y008536D01*
X002207Y008438D02*
X003894Y008438D01*
X003753Y008339D02*
X002207Y008339D01*
X002207Y008241D02*
X003690Y008241D01*
X003658Y008142D02*
X002207Y008142D01*
X002207Y008044D02*
X003658Y008044D01*
X003686Y007945D02*
X002208Y007945D01*
X002208Y007847D02*
X003743Y007847D01*
X003871Y007748D02*
X002208Y007748D01*
X002209Y007452D02*
X008673Y007452D01*
X008691Y007470D02*
X008619Y007399D01*
X008580Y007305D01*
X008580Y007204D01*
X008619Y007110D01*
X008691Y007038D01*
X008784Y006999D01*
X008886Y006999D01*
X008980Y007038D01*
X009051Y007110D01*
X009090Y007204D01*
X009090Y007305D01*
X009051Y007399D01*
X008980Y007470D01*
X008886Y007509D01*
X008784Y007509D01*
X008691Y007470D01*
X008600Y007354D02*
X002209Y007354D01*
X002209Y007255D02*
X008580Y007255D01*
X008600Y007157D02*
X002210Y007157D01*
X002210Y007058D02*
X008671Y007058D01*
X009000Y007058D02*
X018580Y007058D01*
X018598Y006960D02*
X006090Y006960D01*
X006080Y006970D02*
X005986Y007009D01*
X005884Y007009D01*
X005791Y006970D01*
X005719Y006899D01*
X005680Y006805D01*
X005680Y006704D01*
X005719Y006610D01*
X005743Y006585D01*
X005686Y006609D01*
X005584Y006609D01*
X005491Y006570D01*
X005419Y006499D01*
X005380Y006405D01*
X005380Y006304D01*
X005419Y006210D01*
X005491Y006138D01*
X005584Y006099D01*
X005686Y006099D01*
X005780Y006138D01*
X005851Y006210D01*
X005890Y006304D01*
X005890Y006405D01*
X005851Y006499D01*
X005827Y006523D01*
X005884Y006499D01*
X005986Y006499D01*
X006080Y006538D01*
X006151Y006610D01*
X006190Y006704D01*
X006190Y006805D01*
X006151Y006899D01*
X006080Y006970D01*
X006167Y006861D02*
X018668Y006861D01*
X019002Y006861D02*
X021235Y006861D01*
X021235Y006763D02*
X006190Y006763D01*
X006174Y006664D02*
X021235Y006664D01*
X021235Y006565D02*
X006107Y006565D01*
X005864Y006467D02*
X014687Y006467D01*
X014691Y006470D02*
X014619Y006399D01*
X014580Y006305D01*
X014580Y006204D01*
X014619Y006110D01*
X014691Y006038D01*
X014784Y005999D01*
X014886Y005999D01*
X014980Y006038D01*
X015051Y006110D01*
X015090Y006204D01*
X015090Y006305D01*
X015051Y006399D01*
X014980Y006470D01*
X014886Y006509D01*
X014784Y006509D01*
X014691Y006470D01*
X014606Y006368D02*
X005890Y006368D01*
X005876Y006270D02*
X009790Y006270D01*
X009791Y006270D02*
X009719Y006199D01*
X009680Y006105D01*
X009680Y006004D01*
X009719Y005910D01*
X009791Y005838D01*
X009884Y005799D01*
X009986Y005799D01*
X010080Y005838D01*
X010151Y005910D01*
X010190Y006004D01*
X010190Y006105D01*
X010151Y006199D01*
X010080Y006270D01*
X013734Y006270D01*
X013768Y006304D02*
X013696Y006232D01*
X013657Y006138D01*
X013657Y006037D01*
X013696Y005943D01*
X013768Y005871D01*
X013861Y005832D01*
X013963Y005832D01*
X014056Y005871D01*
X014128Y005943D01*
X014167Y006037D01*
X014167Y006138D01*
X014128Y006232D01*
X014056Y006304D01*
X013963Y006342D01*
X013861Y006342D01*
X013768Y006304D01*
X013671Y006171D02*
X010163Y006171D01*
X010190Y006073D02*
X013657Y006073D01*
X013683Y005974D02*
X010178Y005974D01*
X010117Y005876D02*
X013763Y005876D01*
X014061Y005876D02*
X021235Y005876D01*
X021235Y005974D02*
X014141Y005974D01*
X014167Y006073D02*
X014656Y006073D01*
X014593Y006171D02*
X014153Y006171D01*
X014090Y006270D02*
X014580Y006270D01*
X014983Y006467D02*
X021235Y006467D01*
X021235Y006368D02*
X015064Y006368D01*
X015090Y006270D02*
X021235Y006270D01*
X021235Y006171D02*
X015077Y006171D01*
X015014Y006073D02*
X021235Y006073D01*
X021235Y005777D02*
X005679Y005777D01*
X005690Y005804D02*
X005651Y005710D01*
X005580Y005638D01*
X005486Y005599D01*
X005384Y005599D01*
X005291Y005638D01*
X005219Y005710D01*
X005180Y005804D01*
X005180Y005905D01*
X005219Y005999D01*
X005291Y006070D01*
X005384Y006109D01*
X005486Y006109D01*
X005580Y006070D01*
X005651Y005999D01*
X005690Y005905D01*
X005690Y005804D01*
X005690Y005876D02*
X009753Y005876D01*
X009692Y005974D02*
X005661Y005974D01*
X005574Y006073D02*
X009680Y006073D01*
X009708Y006171D02*
X005813Y006171D01*
X005458Y006171D02*
X002212Y006171D01*
X002212Y006073D02*
X005296Y006073D01*
X005209Y005974D02*
X002212Y005974D01*
X002213Y005876D02*
X005180Y005876D01*
X005191Y005777D02*
X002213Y005777D01*
X002213Y005679D02*
X005250Y005679D01*
X005620Y005679D02*
X021235Y005679D01*
X021235Y005580D02*
X002213Y005580D01*
X002214Y005481D02*
X018717Y005481D01*
X018691Y005470D02*
X018619Y005399D01*
X018580Y005305D01*
X018580Y005204D01*
X018619Y005110D01*
X018691Y005038D01*
X018784Y004999D01*
X018886Y004999D01*
X018980Y005038D01*
X019051Y005110D01*
X019090Y005204D01*
X019090Y005305D01*
X019051Y005399D01*
X018980Y005470D01*
X018886Y005509D01*
X018784Y005509D01*
X018691Y005470D01*
X018612Y005383D02*
X002214Y005383D01*
X002214Y005284D02*
X006424Y005284D01*
X006391Y005270D02*
X006484Y005309D01*
X006586Y005309D01*
X006680Y005270D01*
X006751Y005199D01*
X006790Y005105D01*
X006790Y005004D01*
X006751Y004910D01*
X006680Y004838D01*
X006586Y004799D01*
X006484Y004799D01*
X006391Y004838D01*
X006319Y004910D01*
X006280Y005004D01*
X006280Y005105D01*
X006319Y005199D01*
X006391Y005270D01*
X006314Y005186D02*
X002214Y005186D01*
X002215Y005087D02*
X006280Y005087D01*
X006286Y004989D02*
X002215Y004989D01*
X002215Y004890D02*
X006339Y004890D01*
X006732Y004890D02*
X021235Y004890D01*
X021235Y004989D02*
X006784Y004989D01*
X006790Y005087D02*
X018641Y005087D01*
X018587Y005186D02*
X006757Y005186D01*
X006646Y005284D02*
X018580Y005284D01*
X018953Y005481D02*
X021235Y005481D01*
X021235Y005383D02*
X019058Y005383D01*
X019090Y005284D02*
X021235Y005284D01*
X021235Y005186D02*
X019083Y005186D01*
X019029Y005087D02*
X021235Y005087D01*
X021298Y004792D02*
X002215Y004792D01*
X002216Y004693D02*
X021396Y004693D01*
X021495Y004595D02*
X014921Y004595D01*
X014749Y004595D02*
X002216Y004595D01*
X002216Y004496D02*
X014618Y004496D01*
X014580Y004398D02*
X002216Y004398D01*
X002217Y004299D02*
X002422Y004299D01*
X002271Y004200D02*
X002217Y004200D01*
X002708Y004299D02*
X003599Y004299D01*
X003556Y004284D02*
X003461Y004238D01*
X003372Y004182D01*
X003289Y004116D01*
X003215Y004042D01*
X003149Y003959D01*
X003093Y003870D01*
X003047Y003775D01*
X003012Y003675D01*
X002988Y003572D01*
X002977Y003467D01*
X002977Y003464D01*
X003866Y003464D01*
X003866Y003364D01*
X002977Y003364D01*
X002977Y003361D01*
X002988Y003257D01*
X003012Y003154D01*
X003047Y003054D01*
X003093Y002959D01*
X003149Y002869D01*
X003215Y002787D01*
X003289Y002712D01*
X003372Y002646D01*
X003461Y002590D01*
X003556Y002545D01*
X003656Y002510D01*
X003759Y002486D01*
X003864Y002474D01*
X003867Y002474D01*
X003867Y003364D01*
X003967Y003364D01*
X003967Y003464D01*
X004857Y003464D01*
X004857Y003467D01*
X004845Y003572D01*
X004821Y003675D01*
X004786Y003775D01*
X004741Y003870D01*
X004684Y003959D01*
X004619Y004042D01*
X004544Y004116D01*
X004461Y004182D01*
X004372Y004238D01*
X004277Y004284D01*
X004177Y004319D01*
X004074Y004342D01*
X003969Y004354D01*
X003967Y004354D01*
X003967Y003464D01*
X003867Y003464D01*
X003867Y004354D01*
X003864Y004354D01*
X003759Y004342D01*
X003656Y004319D01*
X003556Y004284D01*
X003401Y004200D02*
X002859Y004200D01*
X002931Y004102D02*
X003275Y004102D01*
X003184Y004003D02*
X002972Y004003D01*
X002975Y003905D02*
X003115Y003905D01*
X003062Y003806D02*
X002964Y003806D01*
X002923Y003708D02*
X003023Y003708D01*
X002997Y003609D02*
X002840Y003609D01*
X002982Y003511D02*
X002662Y003511D01*
X002468Y003511D02*
X002218Y003511D01*
X002218Y003609D02*
X002290Y003609D01*
X002219Y003412D02*
X003866Y003412D01*
X003867Y003314D02*
X003967Y003314D01*
X003967Y003364D02*
X003967Y002474D01*
X003969Y002474D01*
X004074Y002486D01*
X004177Y002510D01*
X004277Y002545D01*
X004372Y002590D01*
X004461Y002646D01*
X004544Y002712D01*
X004619Y002787D01*
X004684Y002869D01*
X004741Y002959D01*
X004786Y003054D01*
X004821Y003154D01*
X004845Y003257D01*
X004857Y003361D01*
X004857Y003364D01*
X003967Y003364D01*
X003967Y003412D02*
X005379Y003412D01*
X005379Y003314D02*
X004851Y003314D01*
X004835Y003215D02*
X005387Y003215D01*
X005428Y003116D02*
X004808Y003116D01*
X004769Y003018D02*
X005469Y003018D01*
X005510Y002919D02*
X004716Y002919D01*
X004646Y002821D02*
X005599Y002821D01*
X005698Y002722D02*
X004554Y002722D01*
X004425Y002624D02*
X005836Y002624D01*
X006074Y002525D02*
X004222Y002525D01*
X003967Y002525D02*
X003867Y002525D01*
X003867Y002624D02*
X003967Y002624D01*
X003967Y002722D02*
X003867Y002722D01*
X003867Y002821D02*
X003967Y002821D01*
X003967Y002919D02*
X003867Y002919D01*
X003867Y003018D02*
X003967Y003018D01*
X003967Y003116D02*
X003867Y003116D01*
X003867Y003215D02*
X003967Y003215D01*
X003967Y003511D02*
X003867Y003511D01*
X003867Y003609D02*
X003967Y003609D01*
X003967Y003708D02*
X003867Y003708D01*
X003867Y003806D02*
X003967Y003806D01*
X003967Y003905D02*
X003867Y003905D01*
X003867Y004003D02*
X003967Y004003D01*
X003967Y004102D02*
X003867Y004102D01*
X003867Y004200D02*
X003967Y004200D01*
X003967Y004299D02*
X003867Y004299D01*
X004234Y004299D02*
X006063Y004299D01*
X005825Y004200D02*
X004432Y004200D01*
X004558Y004102D02*
X005694Y004102D01*
X005595Y004003D02*
X004649Y004003D01*
X004719Y003905D02*
X005508Y003905D01*
X005467Y003806D02*
X004771Y003806D01*
X004810Y003708D02*
X005426Y003708D01*
X005385Y003609D02*
X004836Y003609D01*
X004852Y003511D02*
X005379Y003511D01*
X006495Y004299D02*
X014582Y004299D01*
X014628Y004200D02*
X006733Y004200D01*
X007130Y003116D02*
X011637Y003116D01*
X011585Y003018D02*
X007089Y003018D01*
X007048Y002919D02*
X011580Y002919D01*
X011614Y002821D02*
X006958Y002821D01*
X006860Y002722D02*
X011729Y002722D01*
X011941Y002722D02*
X013880Y002722D01*
X013887Y002821D02*
X012056Y002821D01*
X012090Y002919D02*
X013940Y002919D01*
X013913Y002624D02*
X006722Y002624D01*
X006484Y002525D02*
X014022Y002525D01*
X010080Y006270D02*
X009986Y006309D01*
X009884Y006309D01*
X009791Y006270D01*
X009071Y007157D02*
X013724Y007157D01*
X013598Y007255D02*
X009090Y007255D01*
X009070Y007354D02*
X013532Y007354D01*
X013496Y007452D02*
X008998Y007452D01*
X009701Y009202D02*
X009851Y009140D01*
X010014Y009140D01*
X010165Y009202D01*
X010280Y009318D01*
X010343Y009468D01*
X010343Y009631D01*
X010280Y009782D01*
X010165Y009897D01*
X010014Y009960D01*
X009851Y009960D01*
X009701Y009897D01*
X009585Y009782D01*
X009523Y009631D01*
X009523Y009468D01*
X009585Y009318D01*
X009701Y009202D01*
X009677Y009226D02*
X002205Y009226D01*
X002205Y009128D02*
X017316Y009128D01*
X017291Y009138D02*
X017384Y009099D01*
X017486Y009099D01*
X017580Y009138D01*
X017651Y009210D01*
X017690Y009304D01*
X017690Y009405D01*
X017651Y009499D01*
X017580Y009570D01*
X017486Y009609D01*
X017384Y009609D01*
X017291Y009570D01*
X017219Y009499D01*
X017180Y009405D01*
X017180Y009304D01*
X017219Y009210D01*
X017291Y009138D01*
X017212Y009226D02*
X015187Y009226D01*
X015167Y009207D02*
X015283Y009322D01*
X015345Y009473D01*
X015345Y009636D01*
X015283Y009787D01*
X015167Y009902D01*
X015017Y009964D01*
X014854Y009964D01*
X014703Y009902D01*
X014588Y009787D01*
X014525Y009636D01*
X014525Y009473D01*
X014588Y009322D01*
X014703Y009207D01*
X014854Y009144D01*
X015017Y009144D01*
X015167Y009207D01*
X015284Y009325D02*
X017180Y009325D01*
X017188Y009423D02*
X015325Y009423D01*
X015345Y009522D02*
X017242Y009522D01*
X017186Y009599D02*
X017280Y009638D01*
X017351Y009710D01*
X017390Y009804D01*
X017390Y009905D01*
X017351Y009999D01*
X017280Y010070D01*
X017186Y010109D01*
X017084Y010109D01*
X016991Y010070D01*
X016919Y009999D01*
X016880Y009905D01*
X016880Y009804D01*
X016919Y009710D01*
X016991Y009638D01*
X017084Y009599D01*
X017186Y009599D01*
X017236Y009620D02*
X019580Y009620D01*
X019580Y009604D02*
X019619Y009510D01*
X019691Y009438D01*
X019784Y009399D01*
X019886Y009399D01*
X019980Y009438D01*
X020051Y009510D01*
X020090Y009604D01*
X020090Y009705D01*
X020051Y009799D01*
X019980Y009870D01*
X019886Y009909D01*
X019784Y009909D01*
X019691Y009870D01*
X019619Y009799D01*
X019580Y009705D01*
X019580Y009604D01*
X019614Y009522D02*
X017628Y009522D01*
X017683Y009423D02*
X019727Y009423D01*
X019944Y009423D02*
X020380Y009423D01*
X020380Y009404D02*
X020380Y009505D01*
X020419Y009599D01*
X020491Y009670D01*
X020584Y009709D01*
X020686Y009709D01*
X020780Y009670D01*
X020851Y009599D01*
X020890Y009505D01*
X020890Y009404D01*
X020851Y009310D01*
X020780Y009238D01*
X020686Y009199D01*
X020584Y009199D01*
X020491Y009238D01*
X020419Y009310D01*
X020380Y009404D01*
X020413Y009325D02*
X017690Y009325D01*
X017658Y009226D02*
X020520Y009226D01*
X020751Y009226D02*
X021880Y009226D01*
X021880Y009204D02*
X021919Y009110D01*
X021991Y009038D01*
X022084Y008999D01*
X022186Y008999D01*
X022280Y009038D01*
X022351Y009110D01*
X022390Y009204D01*
X022390Y009305D01*
X022351Y009399D01*
X022280Y009470D01*
X022186Y009509D01*
X022084Y009509D01*
X021991Y009470D01*
X021919Y009399D01*
X021880Y009305D01*
X021880Y009204D01*
X021912Y009128D02*
X017554Y009128D01*
X017034Y009620D02*
X015345Y009620D01*
X015311Y009719D02*
X016915Y009719D01*
X016880Y009817D02*
X015252Y009817D01*
X015133Y009916D02*
X016885Y009916D01*
X016935Y010014D02*
X005186Y010014D01*
X005190Y010005D02*
X005151Y010099D01*
X005080Y010170D01*
X004986Y010209D01*
X004884Y010209D01*
X004791Y010170D01*
X004719Y010099D01*
X004680Y010005D01*
X004680Y009904D01*
X004719Y009810D01*
X004791Y009738D01*
X004884Y009699D01*
X004986Y009699D01*
X005080Y009738D01*
X005151Y009810D01*
X005190Y009904D01*
X005190Y010005D01*
X005190Y009916D02*
X009745Y009916D01*
X009620Y009817D02*
X005154Y009817D01*
X005033Y009719D02*
X009559Y009719D01*
X009523Y009620D02*
X004360Y009620D01*
X004355Y009607D02*
X004412Y009745D01*
X004412Y009895D01*
X004355Y010034D01*
X004249Y010140D01*
X004110Y010198D01*
X003960Y010198D01*
X003821Y010140D01*
X003715Y010034D01*
X003658Y009895D01*
X003658Y009745D01*
X003715Y009607D01*
X003821Y009501D01*
X003960Y009443D01*
X004110Y009443D01*
X004249Y009501D01*
X004355Y009607D01*
X004270Y009522D02*
X009523Y009522D01*
X009541Y009423D02*
X002204Y009423D01*
X002204Y009325D02*
X009582Y009325D01*
X010189Y009226D02*
X010677Y009226D01*
X010701Y009202D02*
X010851Y009140D01*
X011014Y009140D01*
X011165Y009202D01*
X011280Y009318D01*
X011343Y009468D01*
X011343Y009631D01*
X011280Y009782D01*
X011165Y009897D01*
X011014Y009960D01*
X010851Y009960D01*
X010701Y009897D01*
X010585Y009782D01*
X010523Y009631D01*
X010523Y009468D01*
X010585Y009318D01*
X010701Y009202D01*
X010582Y009325D02*
X010283Y009325D01*
X010324Y009423D02*
X010541Y009423D01*
X010523Y009522D02*
X010343Y009522D01*
X010343Y009620D02*
X010523Y009620D01*
X010559Y009719D02*
X010307Y009719D01*
X010245Y009817D02*
X010620Y009817D01*
X010745Y009916D02*
X010120Y009916D01*
X010014Y010140D02*
X009851Y010140D01*
X009701Y010202D01*
X009585Y010318D01*
X009523Y010468D01*
X009523Y010631D01*
X009585Y010782D01*
X009701Y010897D01*
X009851Y010960D01*
X010014Y010960D01*
X010165Y010897D01*
X010280Y010782D01*
X010343Y010631D01*
X010343Y010468D01*
X010280Y010318D01*
X010165Y010202D01*
X010014Y010140D01*
X010174Y010212D02*
X010691Y010212D01*
X010701Y010202D02*
X010851Y010140D01*
X011014Y010140D01*
X011165Y010202D01*
X011280Y010318D01*
X011343Y010468D01*
X011343Y010631D01*
X011280Y010782D01*
X011165Y010897D01*
X011014Y010960D01*
X010851Y010960D01*
X010701Y010897D01*
X010585Y010782D01*
X010523Y010631D01*
X010523Y010468D01*
X010585Y010318D01*
X010701Y010202D01*
X010593Y010310D02*
X010273Y010310D01*
X010318Y010409D02*
X010547Y010409D01*
X010523Y010507D02*
X010343Y010507D01*
X010343Y010606D02*
X010523Y010606D01*
X010553Y010704D02*
X010313Y010704D01*
X010260Y010803D02*
X010606Y010803D01*
X010710Y010901D02*
X010156Y010901D01*
X010014Y011140D02*
X009851Y011140D01*
X009701Y011202D01*
X009585Y011318D01*
X009523Y011468D01*
X009523Y011631D01*
X009585Y011782D01*
X009701Y011897D01*
X009851Y011960D01*
X010014Y011960D01*
X010165Y011897D01*
X010280Y011782D01*
X010343Y011631D01*
X010343Y011468D01*
X010280Y011318D01*
X010165Y011202D01*
X010014Y011140D01*
X010152Y011197D02*
X010713Y011197D01*
X010701Y011202D02*
X010851Y011140D01*
X011014Y011140D01*
X011165Y011202D01*
X011280Y011318D01*
X011343Y011468D01*
X011343Y011631D01*
X011280Y011782D01*
X011165Y011897D01*
X011014Y011960D01*
X010851Y011960D01*
X010701Y011897D01*
X010585Y011782D01*
X010523Y011631D01*
X010523Y011468D01*
X010585Y011318D01*
X010701Y011202D01*
X010607Y011296D02*
X010258Y011296D01*
X010312Y011394D02*
X010554Y011394D01*
X010523Y011493D02*
X010343Y011493D01*
X010343Y011591D02*
X010523Y011591D01*
X010547Y011690D02*
X010319Y011690D01*
X010274Y011788D02*
X010591Y011788D01*
X010690Y011887D02*
X010176Y011887D01*
X010014Y012140D02*
X009851Y012140D01*
X009701Y012202D01*
X009585Y012318D01*
X009523Y012468D01*
X009523Y012631D01*
X009585Y012782D01*
X009701Y012897D01*
X009851Y012960D01*
X010014Y012960D01*
X010165Y012897D01*
X010280Y012782D01*
X010343Y012631D01*
X010343Y012468D01*
X010280Y012318D01*
X010165Y012202D01*
X010014Y012140D01*
X010117Y012182D02*
X010749Y012182D01*
X010701Y012202D02*
X010851Y012140D01*
X011014Y012140D01*
X011165Y012202D01*
X011280Y012318D01*
X011343Y012468D01*
X011343Y012631D01*
X011280Y012782D01*
X011165Y012897D01*
X011014Y012960D01*
X010851Y012960D01*
X010701Y012897D01*
X010585Y012782D01*
X010523Y012631D01*
X010523Y012468D01*
X010585Y012318D01*
X010701Y012202D01*
X010622Y012281D02*
X010244Y012281D01*
X010306Y012380D02*
X010560Y012380D01*
X010523Y012478D02*
X010343Y012478D01*
X010343Y012577D02*
X010523Y012577D01*
X010541Y012675D02*
X010325Y012675D01*
X010284Y012774D02*
X010582Y012774D01*
X010675Y012872D02*
X010190Y012872D01*
X009675Y012872D02*
X002196Y012872D01*
X002196Y012774D02*
X009582Y012774D01*
X009541Y012675D02*
X002196Y012675D01*
X002196Y012577D02*
X009523Y012577D01*
X009523Y012478D02*
X002197Y012478D01*
X002197Y012380D02*
X009560Y012380D01*
X009622Y012281D02*
X008254Y012281D01*
X008280Y012270D02*
X008186Y012309D01*
X008084Y012309D01*
X007991Y012270D01*
X007919Y012199D01*
X007880Y012105D01*
X007880Y012004D01*
X007919Y011910D01*
X007991Y011838D01*
X008084Y011799D01*
X008186Y011799D01*
X008280Y011838D01*
X008351Y011910D01*
X008390Y012004D01*
X008390Y012105D01*
X008351Y012199D01*
X008280Y012270D01*
X008358Y012182D02*
X009749Y012182D01*
X009690Y011887D02*
X008328Y011887D01*
X008383Y011985D02*
X016788Y011985D01*
X016780Y012004D02*
X016819Y011910D01*
X016891Y011838D01*
X016984Y011799D01*
X017086Y011799D01*
X017180Y011838D01*
X017251Y011910D01*
X017271Y011958D01*
X017291Y011938D01*
X017384Y011899D01*
X017486Y011899D01*
X017580Y011938D01*
X017651Y012010D01*
X017690Y012104D01*
X017690Y012205D01*
X017651Y012299D01*
X017580Y012370D01*
X017486Y012409D01*
X017384Y012409D01*
X017291Y012370D01*
X017219Y012299D01*
X017199Y012251D01*
X017180Y012270D01*
X017086Y012309D01*
X016984Y012309D01*
X016891Y012270D01*
X016819Y012199D01*
X016780Y012105D01*
X016780Y012004D01*
X016780Y012084D02*
X008390Y012084D01*
X008016Y012281D02*
X002197Y012281D01*
X002197Y012182D02*
X007912Y012182D01*
X007880Y012084D02*
X002198Y012084D01*
X002198Y011985D02*
X007888Y011985D01*
X007942Y011887D02*
X002198Y011887D01*
X002198Y011788D02*
X009591Y011788D01*
X009547Y011690D02*
X002199Y011690D01*
X002199Y011591D02*
X009523Y011591D01*
X009523Y011493D02*
X002199Y011493D01*
X002199Y011394D02*
X009554Y011394D01*
X009607Y011296D02*
X002200Y011296D01*
X002200Y011197D02*
X009713Y011197D01*
X009710Y010901D02*
X002201Y010901D01*
X002201Y010803D02*
X009606Y010803D01*
X009553Y010704D02*
X002201Y010704D01*
X002201Y010606D02*
X009523Y010606D01*
X009523Y010507D02*
X002201Y010507D01*
X002202Y010409D02*
X009547Y010409D01*
X009593Y010310D02*
X002202Y010310D01*
X002202Y010212D02*
X009691Y010212D01*
X011120Y009916D02*
X013737Y009916D01*
X013703Y009902D02*
X013588Y009787D01*
X013525Y009636D01*
X013525Y009473D01*
X013588Y009322D01*
X013703Y009207D01*
X013854Y009144D01*
X014017Y009144D01*
X014167Y009207D01*
X014283Y009322D01*
X014345Y009473D01*
X014345Y009636D01*
X014283Y009787D01*
X014167Y009902D01*
X014017Y009964D01*
X013854Y009964D01*
X013703Y009902D01*
X013618Y009817D02*
X011245Y009817D01*
X011307Y009719D02*
X013560Y009719D01*
X013525Y009620D02*
X011343Y009620D01*
X011343Y009522D02*
X013525Y009522D01*
X013546Y009423D02*
X011324Y009423D01*
X011283Y009325D02*
X013586Y009325D01*
X013683Y009226D02*
X011189Y009226D01*
X011174Y010212D02*
X013698Y010212D01*
X013703Y010207D02*
X013854Y010144D01*
X014017Y010144D01*
X014167Y010207D01*
X014283Y010322D01*
X014345Y010473D01*
X014345Y010636D01*
X014283Y010787D01*
X014167Y010902D01*
X014017Y010964D01*
X013854Y010964D01*
X013703Y010902D01*
X013588Y010787D01*
X013525Y010636D01*
X013525Y010473D01*
X013588Y010322D01*
X013703Y010207D01*
X013599Y010310D02*
X011273Y010310D01*
X011318Y010409D02*
X013552Y010409D01*
X013525Y010507D02*
X011343Y010507D01*
X011343Y010606D02*
X013525Y010606D01*
X013553Y010704D02*
X011313Y010704D01*
X011260Y010803D02*
X013604Y010803D01*
X013702Y010901D02*
X011156Y010901D01*
X011152Y011197D02*
X017880Y011197D01*
X017880Y011205D02*
X017880Y011104D01*
X017919Y011010D01*
X017991Y010938D01*
X018084Y010899D01*
X018186Y010899D01*
X018280Y010938D01*
X018351Y011010D01*
X018390Y011104D01*
X018390Y011205D01*
X018351Y011299D01*
X018280Y011370D01*
X018186Y011409D01*
X018084Y011409D01*
X017991Y011370D01*
X017919Y011299D01*
X017880Y011205D01*
X017918Y011296D02*
X011258Y011296D01*
X011312Y011394D02*
X018048Y011394D01*
X017934Y011493D02*
X025136Y011493D01*
X025119Y011510D02*
X025191Y011438D01*
X025284Y011399D01*
X025386Y011399D01*
X025480Y011438D01*
X025551Y011510D01*
X025590Y011604D01*
X025590Y011705D01*
X025551Y011799D01*
X025480Y011870D01*
X025386Y011909D01*
X025290Y011909D01*
X025290Y012005D01*
X025251Y012099D01*
X025180Y012170D01*
X025086Y012209D01*
X024990Y012209D01*
X024990Y012305D01*
X024951Y012399D01*
X024880Y012470D01*
X024786Y012509D01*
X024684Y012509D01*
X024591Y012470D01*
X024519Y012399D01*
X024480Y012305D01*
X024480Y012204D01*
X024519Y012110D01*
X024591Y012038D01*
X024684Y011999D01*
X024780Y011999D01*
X024780Y011904D01*
X024819Y011810D01*
X024891Y011738D01*
X024984Y011699D01*
X025080Y011699D01*
X025080Y011604D01*
X025119Y011510D01*
X025085Y011591D02*
X017985Y011591D01*
X017990Y011604D02*
X017951Y011510D01*
X017880Y011438D01*
X017786Y011399D01*
X017684Y011399D01*
X017591Y011438D01*
X017519Y011510D01*
X017480Y011604D01*
X017480Y011705D01*
X017519Y011799D01*
X017591Y011870D01*
X017684Y011909D01*
X017786Y011909D01*
X017880Y011870D01*
X017951Y011799D01*
X017990Y011705D01*
X017990Y011604D01*
X017990Y011690D02*
X025080Y011690D01*
X024841Y011788D02*
X017956Y011788D01*
X017840Y011887D02*
X018342Y011887D01*
X018319Y011910D02*
X018391Y011838D01*
X018484Y011799D01*
X018586Y011799D01*
X018680Y011838D01*
X018751Y011910D01*
X018790Y012004D01*
X018790Y012105D01*
X018751Y012199D01*
X018680Y012270D01*
X018586Y012309D01*
X018484Y012309D01*
X018391Y012270D01*
X018319Y012199D01*
X018280Y012105D01*
X018280Y012004D01*
X018319Y011910D01*
X018288Y011985D02*
X017627Y011985D01*
X017630Y011887D02*
X017228Y011887D01*
X017515Y011788D02*
X011274Y011788D01*
X011319Y011690D02*
X017480Y011690D01*
X017485Y011591D02*
X011343Y011591D01*
X011343Y011493D02*
X017536Y011493D01*
X017882Y011098D02*
X002200Y011098D01*
X002200Y011000D02*
X017929Y011000D01*
X018079Y010901D02*
X015168Y010901D01*
X015167Y010902D02*
X015017Y010964D01*
X014854Y010964D01*
X014703Y010902D01*
X014588Y010787D01*
X014525Y010636D01*
X014525Y010473D01*
X014588Y010322D01*
X014703Y010207D01*
X014854Y010144D01*
X015017Y010144D01*
X015167Y010207D01*
X015283Y010322D01*
X015345Y010473D01*
X015345Y010636D01*
X015283Y010787D01*
X015167Y010902D01*
X015266Y010803D02*
X018423Y010803D01*
X018419Y010799D02*
X018380Y010705D01*
X018380Y010604D01*
X018419Y010510D01*
X018491Y010438D01*
X018584Y010399D01*
X018686Y010399D01*
X018780Y010438D01*
X018851Y010510D01*
X018890Y010604D01*
X018890Y010705D01*
X018851Y010799D01*
X018780Y010870D01*
X018686Y010909D01*
X018584Y010909D01*
X018491Y010870D01*
X018419Y010799D01*
X018380Y010704D02*
X015317Y010704D01*
X015345Y010606D02*
X018380Y010606D01*
X018422Y010507D02*
X015345Y010507D01*
X015319Y010409D02*
X018562Y010409D01*
X018708Y010409D02*
X022780Y010409D01*
X022780Y010404D02*
X022819Y010310D01*
X022891Y010238D01*
X022972Y010204D01*
X022891Y010170D01*
X022819Y010099D01*
X022780Y010005D01*
X022780Y009904D01*
X022819Y009810D01*
X022891Y009738D01*
X022984Y009699D01*
X023086Y009699D01*
X023180Y009738D01*
X023251Y009810D01*
X023290Y009904D01*
X023290Y010005D01*
X023251Y010099D01*
X023180Y010170D01*
X023098Y010204D01*
X023180Y010238D01*
X023251Y010310D01*
X023290Y010404D01*
X023290Y010505D01*
X023251Y010599D01*
X023180Y010670D01*
X023086Y010709D01*
X022984Y010709D01*
X022891Y010670D01*
X022819Y010599D01*
X022780Y010505D01*
X022780Y010404D01*
X022819Y010310D02*
X015271Y010310D01*
X015172Y010212D02*
X022955Y010212D01*
X022833Y010113D02*
X021537Y010113D01*
X021551Y010099D02*
X021480Y010170D01*
X021386Y010209D01*
X021284Y010209D01*
X021191Y010170D01*
X021119Y010099D01*
X021080Y010005D01*
X021080Y009904D01*
X021119Y009810D01*
X021191Y009738D01*
X021284Y009699D01*
X021386Y009699D01*
X021480Y009738D01*
X021551Y009810D01*
X021590Y009904D01*
X021590Y010005D01*
X021551Y010099D01*
X021586Y010014D02*
X022784Y010014D01*
X022780Y009916D02*
X021590Y009916D01*
X021554Y009817D02*
X022816Y009817D01*
X022937Y009719D02*
X021433Y009719D01*
X021237Y009719D02*
X020084Y009719D01*
X020090Y009620D02*
X020441Y009620D01*
X020387Y009522D02*
X020056Y009522D01*
X020033Y009817D02*
X021116Y009817D01*
X021080Y009916D02*
X017386Y009916D01*
X017390Y009817D02*
X019638Y009817D01*
X019586Y009719D02*
X017355Y009719D01*
X017336Y010014D02*
X021084Y010014D01*
X021133Y010113D02*
X005137Y010113D01*
X004733Y010113D02*
X004276Y010113D01*
X004363Y010014D02*
X004684Y010014D01*
X004680Y009916D02*
X004404Y009916D01*
X004412Y009817D02*
X004716Y009817D01*
X004837Y009719D02*
X004401Y009719D01*
X003800Y009522D02*
X002204Y009522D01*
X002204Y009620D02*
X003710Y009620D01*
X003669Y009719D02*
X002203Y009719D01*
X002203Y009817D02*
X003658Y009817D01*
X003666Y009916D02*
X002203Y009916D01*
X002203Y010014D02*
X003707Y010014D01*
X003794Y010113D02*
X002202Y010113D01*
X002205Y009029D02*
X022013Y009029D01*
X022258Y009029D02*
X023149Y009029D01*
X023112Y009128D02*
X022359Y009128D01*
X022390Y009226D02*
X023080Y009226D01*
X023088Y009325D02*
X022382Y009325D01*
X022327Y009423D02*
X023143Y009423D01*
X023133Y009719D02*
X027335Y009719D01*
X027335Y009817D02*
X023254Y009817D01*
X023290Y009916D02*
X027335Y009916D01*
X027335Y010014D02*
X023286Y010014D01*
X023237Y010113D02*
X027335Y010113D01*
X027335Y010212D02*
X023115Y010212D01*
X023251Y010310D02*
X027335Y010310D01*
X027335Y010409D02*
X024808Y010409D01*
X024786Y010399D02*
X024880Y010438D01*
X024951Y010510D01*
X024990Y010604D01*
X024990Y010705D01*
X024951Y010799D01*
X024880Y010870D01*
X024786Y010909D01*
X024684Y010909D01*
X024591Y010870D01*
X024519Y010799D01*
X024480Y010705D01*
X024480Y010604D01*
X024519Y010510D01*
X024591Y010438D01*
X024684Y010399D01*
X024786Y010399D01*
X024662Y010409D02*
X023290Y010409D01*
X023289Y010507D02*
X024522Y010507D01*
X024480Y010606D02*
X023244Y010606D01*
X023098Y010704D02*
X024480Y010704D01*
X024523Y010803D02*
X020344Y010803D01*
X020351Y010810D02*
X020390Y010904D01*
X020390Y011005D01*
X020351Y011099D01*
X020280Y011170D01*
X020186Y011209D01*
X020084Y011209D01*
X019991Y011170D01*
X019919Y011099D01*
X019880Y011005D01*
X019880Y010904D01*
X019919Y010810D01*
X019991Y010738D01*
X020084Y010699D01*
X020186Y010699D01*
X020280Y010738D01*
X020351Y010810D01*
X020389Y010901D02*
X024665Y010901D01*
X024805Y010901D02*
X026357Y010901D01*
X026350Y010885D02*
X026350Y010784D01*
X026389Y010690D01*
X026461Y010618D01*
X026554Y010579D01*
X026656Y010579D01*
X026750Y010618D01*
X026821Y010690D01*
X026860Y010784D01*
X026860Y010885D01*
X026821Y010979D01*
X026750Y011050D01*
X026656Y011089D01*
X026554Y011089D01*
X026461Y011050D01*
X026389Y010979D01*
X026350Y010885D01*
X026350Y010803D02*
X024947Y010803D01*
X024990Y010704D02*
X026383Y010704D01*
X026491Y010606D02*
X024990Y010606D01*
X024949Y010507D02*
X027335Y010507D01*
X027335Y010606D02*
X026720Y010606D01*
X026827Y010704D02*
X027335Y010704D01*
X027335Y010803D02*
X026860Y010803D01*
X026853Y010901D02*
X027335Y010901D01*
X027335Y011000D02*
X026800Y011000D01*
X026410Y011000D02*
X020390Y011000D01*
X020351Y011098D02*
X027335Y011098D01*
X027335Y011197D02*
X020216Y011197D01*
X020055Y011197D02*
X018390Y011197D01*
X018388Y011098D02*
X019919Y011098D01*
X019880Y011000D02*
X018341Y011000D01*
X018191Y010901D02*
X018565Y010901D01*
X018705Y010901D02*
X019881Y010901D01*
X019926Y010803D02*
X018847Y010803D01*
X018890Y010704D02*
X020072Y010704D01*
X020198Y010704D02*
X022972Y010704D01*
X022826Y010606D02*
X018890Y010606D01*
X018849Y010507D02*
X022781Y010507D01*
X023527Y009423D02*
X027335Y009423D01*
X027335Y009325D02*
X023582Y009325D01*
X023590Y009226D02*
X027335Y009226D01*
X027335Y009128D02*
X023559Y009128D01*
X023521Y009029D02*
X027335Y009029D01*
X027335Y008931D02*
X024919Y008931D01*
X024951Y008899D02*
X024880Y008970D01*
X024786Y009009D01*
X024684Y009009D01*
X024591Y008970D01*
X024519Y008899D01*
X024480Y008805D01*
X024480Y008704D01*
X024519Y008610D01*
X024591Y008538D01*
X024684Y008499D01*
X024786Y008499D01*
X024880Y008538D01*
X024951Y008610D01*
X024990Y008704D01*
X024990Y008805D01*
X024951Y008899D01*
X024979Y008832D02*
X027335Y008832D01*
X027335Y008733D02*
X024990Y008733D01*
X024962Y008635D02*
X027335Y008635D01*
X027335Y008536D02*
X024875Y008536D01*
X024595Y008536D02*
X023577Y008536D01*
X023590Y008438D02*
X027335Y008438D01*
X027335Y008339D02*
X023563Y008339D01*
X023482Y008241D02*
X027335Y008241D01*
X027335Y009522D02*
X020883Y009522D01*
X020890Y009423D02*
X021943Y009423D01*
X021888Y009325D02*
X020857Y009325D01*
X020830Y009620D02*
X027335Y009620D01*
X027335Y011296D02*
X018353Y011296D01*
X018223Y011394D02*
X027335Y011394D01*
X027335Y011493D02*
X025534Y011493D01*
X025585Y011591D02*
X027335Y011591D01*
X027335Y011690D02*
X025590Y011690D01*
X025556Y011788D02*
X027335Y011788D01*
X027335Y011887D02*
X025440Y011887D01*
X025290Y011985D02*
X027335Y011985D01*
X027335Y012084D02*
X025257Y012084D01*
X025151Y012182D02*
X027335Y012182D01*
X027335Y012281D02*
X024990Y012281D01*
X024959Y012380D02*
X027335Y012380D01*
X027335Y012478D02*
X024861Y012478D01*
X024609Y012478D02*
X023961Y012478D01*
X023980Y012470D02*
X023886Y012509D01*
X023784Y012509D01*
X023691Y012470D01*
X023619Y012399D01*
X023580Y012305D01*
X023580Y012204D01*
X023619Y012110D01*
X023691Y012038D01*
X023784Y011999D01*
X023886Y011999D01*
X023980Y012038D01*
X024051Y012110D01*
X024090Y012204D01*
X024090Y012305D01*
X024051Y012399D01*
X023980Y012470D01*
X024059Y012380D02*
X024511Y012380D01*
X024480Y012281D02*
X024090Y012281D01*
X024081Y012182D02*
X024489Y012182D01*
X024545Y012084D02*
X024025Y012084D01*
X023645Y012084D02*
X018790Y012084D01*
X018783Y011985D02*
X024780Y011985D01*
X024787Y011887D02*
X018728Y011887D01*
X018758Y012182D02*
X023589Y012182D01*
X023580Y012281D02*
X018654Y012281D01*
X018416Y012281D02*
X017659Y012281D01*
X017690Y012182D02*
X018312Y012182D01*
X018280Y012084D02*
X017682Y012084D01*
X017558Y012380D02*
X023611Y012380D01*
X023709Y012478D02*
X011343Y012478D01*
X011343Y012577D02*
X027335Y012577D01*
X027335Y012675D02*
X011325Y012675D01*
X011284Y012774D02*
X027335Y012774D01*
X027335Y012872D02*
X011190Y012872D01*
X011306Y012380D02*
X017313Y012380D01*
X017212Y012281D02*
X017154Y012281D01*
X016916Y012281D02*
X011244Y012281D01*
X011117Y012182D02*
X016812Y012182D01*
X016842Y011887D02*
X011176Y011887D01*
X010580Y013438D02*
X010651Y013510D01*
X010690Y013604D01*
X010690Y013705D01*
X010651Y013799D01*
X010580Y013870D01*
X010486Y013909D01*
X010384Y013909D01*
X010291Y013870D01*
X010219Y013799D01*
X010180Y013705D01*
X010180Y013604D01*
X010219Y013510D01*
X010291Y013438D01*
X010384Y013399D01*
X010486Y013399D01*
X010580Y013438D01*
X010605Y013464D02*
X027335Y013464D01*
X027335Y013562D02*
X010673Y013562D01*
X010690Y013661D02*
X023068Y013661D01*
X023091Y013638D02*
X023184Y013599D01*
X023286Y013599D01*
X023380Y013638D01*
X023451Y013710D01*
X023490Y013804D01*
X023490Y013905D01*
X023451Y013999D01*
X023380Y014070D01*
X023286Y014109D01*
X023184Y014109D01*
X023091Y014070D01*
X023019Y013999D01*
X022980Y013905D01*
X022980Y013804D01*
X023019Y013710D01*
X023091Y013638D01*
X022999Y013759D02*
X012101Y013759D01*
X012080Y013738D02*
X012151Y013810D01*
X012190Y013904D01*
X012190Y014005D01*
X012151Y014099D01*
X012080Y014170D01*
X011986Y014209D01*
X011884Y014209D01*
X011791Y014170D01*
X011719Y014099D01*
X011680Y014005D01*
X011680Y013904D01*
X011719Y013810D01*
X011791Y013738D01*
X011884Y013699D01*
X011986Y013699D01*
X012080Y013738D01*
X012171Y013858D02*
X019171Y013858D01*
X019191Y013838D02*
X019284Y013799D01*
X019386Y013799D01*
X019480Y013838D01*
X019551Y013910D01*
X019590Y014004D01*
X019590Y014105D01*
X019551Y014199D01*
X019480Y014270D01*
X019398Y014304D01*
X019480Y014338D01*
X019551Y014410D01*
X019590Y014504D01*
X019590Y014605D01*
X019551Y014699D01*
X019480Y014770D01*
X019386Y014809D01*
X019284Y014809D01*
X019191Y014770D01*
X019119Y014699D01*
X019080Y014605D01*
X019080Y014504D01*
X019119Y014410D01*
X019191Y014338D01*
X019272Y014304D01*
X019191Y014270D01*
X019119Y014199D01*
X019080Y014105D01*
X019080Y014004D01*
X019119Y013910D01*
X019191Y013838D01*
X019100Y013956D02*
X012190Y013956D01*
X012169Y014055D02*
X019080Y014055D01*
X019100Y014153D02*
X012097Y014153D01*
X011774Y014153D02*
X011397Y014153D01*
X011380Y014170D02*
X011286Y014209D01*
X011184Y014209D01*
X011091Y014170D01*
X011019Y014099D01*
X010980Y014005D01*
X010980Y013904D01*
X011019Y013810D01*
X011091Y013738D01*
X011184Y013699D01*
X011286Y013699D01*
X011380Y013738D01*
X011451Y013810D01*
X011490Y013904D01*
X011490Y014005D01*
X011451Y014099D01*
X011380Y014170D01*
X011469Y014055D02*
X011701Y014055D01*
X011680Y013956D02*
X011490Y013956D01*
X011471Y013858D02*
X011699Y013858D01*
X011770Y013759D02*
X011401Y013759D01*
X011070Y013759D02*
X010668Y013759D01*
X010592Y013858D02*
X010999Y013858D01*
X010980Y013956D02*
X009270Y013956D01*
X009251Y013910D02*
X009290Y014004D01*
X009290Y014105D01*
X009251Y014199D01*
X009180Y014270D01*
X009086Y014309D01*
X008984Y014309D01*
X008891Y014270D01*
X008819Y014199D01*
X008780Y014105D01*
X008780Y014004D01*
X008819Y013910D01*
X008891Y013838D01*
X008984Y013799D01*
X009086Y013799D01*
X009180Y013838D01*
X009251Y013910D01*
X009199Y013858D02*
X010278Y013858D01*
X010203Y013759D02*
X002194Y013759D01*
X002194Y013661D02*
X010180Y013661D01*
X010197Y013562D02*
X002194Y013562D01*
X002194Y013464D02*
X010265Y013464D01*
X011001Y014055D02*
X009290Y014055D01*
X009270Y014153D02*
X011074Y014153D01*
X009198Y014252D02*
X019172Y014252D01*
X019178Y014350D02*
X016192Y014350D01*
X016180Y014338D02*
X016251Y014410D01*
X016290Y014504D01*
X016290Y014605D01*
X016251Y014699D01*
X016180Y014770D01*
X016086Y014809D01*
X015984Y014809D01*
X015891Y014770D01*
X015819Y014699D01*
X015780Y014605D01*
X015780Y014504D01*
X015819Y014410D01*
X015891Y014338D01*
X015984Y014299D01*
X016086Y014299D01*
X016180Y014338D01*
X016267Y014449D02*
X019103Y014449D01*
X019080Y014547D02*
X016290Y014547D01*
X016273Y014646D02*
X019097Y014646D01*
X019165Y014745D02*
X016205Y014745D01*
X015865Y014745D02*
X002191Y014745D01*
X002191Y014843D02*
X004686Y014843D01*
X004691Y014838D02*
X004784Y014799D01*
X004886Y014799D01*
X004980Y014838D01*
X005051Y014910D01*
X005090Y015004D01*
X005090Y015105D01*
X005051Y015199D01*
X004980Y015270D01*
X004886Y015309D01*
X004784Y015309D01*
X004691Y015270D01*
X004619Y015199D01*
X004580Y015105D01*
X004580Y015004D01*
X004619Y014910D01*
X004691Y014838D01*
X004606Y014942D02*
X002191Y014942D01*
X002191Y015040D02*
X004580Y015040D01*
X004594Y015139D02*
X002190Y015139D01*
X002190Y015237D02*
X004657Y015237D01*
X005013Y015237D02*
X027335Y015237D01*
X027335Y015139D02*
X005076Y015139D01*
X005090Y015040D02*
X027335Y015040D01*
X027335Y014942D02*
X005064Y014942D01*
X004984Y014843D02*
X027335Y014843D01*
X027335Y014745D02*
X021405Y014745D01*
X021380Y014770D02*
X021286Y014809D01*
X021184Y014809D01*
X021091Y014770D01*
X021019Y014699D01*
X020980Y014605D01*
X020980Y014504D01*
X021019Y014410D01*
X021091Y014338D01*
X021184Y014299D01*
X021286Y014299D01*
X021380Y014338D01*
X021451Y014410D01*
X021490Y014504D01*
X021490Y014605D01*
X021451Y014699D01*
X021380Y014770D01*
X021473Y014646D02*
X027335Y014646D01*
X027335Y014547D02*
X021490Y014547D01*
X021467Y014449D02*
X025769Y014449D01*
X025791Y014470D02*
X025719Y014399D01*
X025680Y014305D01*
X025680Y014204D01*
X025719Y014110D01*
X025791Y014038D01*
X025884Y013999D01*
X025986Y013999D01*
X026080Y014038D01*
X026151Y014110D01*
X026190Y014204D01*
X026190Y014305D01*
X026151Y014399D01*
X026080Y014470D01*
X025986Y014509D01*
X025884Y014509D01*
X025791Y014470D01*
X025699Y014350D02*
X021392Y014350D01*
X021391Y014270D02*
X021319Y014199D01*
X021280Y014105D01*
X021280Y014004D01*
X021319Y013910D01*
X021391Y013838D01*
X021484Y013799D01*
X021586Y013799D01*
X021680Y013838D01*
X021751Y013910D01*
X021790Y014004D01*
X021790Y014105D01*
X021751Y014199D01*
X021680Y014270D01*
X021586Y014309D01*
X021484Y014309D01*
X021391Y014270D01*
X021372Y014252D02*
X019498Y014252D01*
X019492Y014350D02*
X021078Y014350D01*
X021003Y014449D02*
X019567Y014449D01*
X019590Y014547D02*
X020980Y014547D01*
X020997Y014646D02*
X019573Y014646D01*
X019505Y014745D02*
X021065Y014745D01*
X021698Y014252D02*
X025680Y014252D01*
X025701Y014153D02*
X024297Y014153D01*
X024280Y014170D02*
X024186Y014209D01*
X024084Y014209D01*
X023991Y014170D01*
X023919Y014099D01*
X023880Y014005D01*
X023880Y013904D01*
X023919Y013810D01*
X023991Y013738D01*
X024084Y013699D01*
X024186Y013699D01*
X024280Y013738D01*
X024351Y013810D01*
X024390Y013904D01*
X024390Y014005D01*
X024351Y014099D01*
X024280Y014170D01*
X024369Y014055D02*
X025774Y014055D01*
X026096Y014055D02*
X027335Y014055D01*
X027335Y014153D02*
X026169Y014153D01*
X026190Y014252D02*
X027335Y014252D01*
X027335Y014350D02*
X026171Y014350D01*
X026101Y014449D02*
X027335Y014449D01*
X027335Y013956D02*
X024390Y013956D01*
X024371Y013858D02*
X027335Y013858D01*
X027335Y013759D02*
X024301Y013759D01*
X023970Y013759D02*
X023472Y013759D01*
X023490Y013858D02*
X023899Y013858D01*
X023880Y013956D02*
X023469Y013956D01*
X023395Y014055D02*
X023901Y014055D01*
X023974Y014153D02*
X021770Y014153D01*
X021790Y014055D02*
X023075Y014055D01*
X023001Y013956D02*
X021770Y013956D01*
X021699Y013858D02*
X022980Y013858D01*
X023402Y013661D02*
X027335Y013661D01*
X027335Y013365D02*
X002195Y013365D01*
X002195Y013266D02*
X027335Y013266D01*
X027335Y013168D02*
X002195Y013168D01*
X002195Y013069D02*
X027335Y013069D01*
X027335Y012971D02*
X002196Y012971D01*
X002193Y013858D02*
X008871Y013858D01*
X008800Y013956D02*
X002193Y013956D01*
X002193Y014055D02*
X008780Y014055D01*
X008800Y014153D02*
X002193Y014153D01*
X002192Y014252D02*
X008872Y014252D01*
X010391Y015938D02*
X010484Y015899D01*
X010586Y015899D01*
X010680Y015938D01*
X010751Y016010D01*
X010790Y016104D01*
X010790Y016205D01*
X010751Y016299D01*
X010680Y016370D01*
X010586Y016409D01*
X010484Y016409D01*
X010391Y016370D01*
X010319Y016299D01*
X010280Y016205D01*
X010280Y016104D01*
X010319Y016010D01*
X010391Y015938D01*
X010417Y015927D02*
X002188Y015927D01*
X002189Y015829D02*
X011611Y015829D01*
X011619Y015810D02*
X011691Y015738D01*
X011784Y015699D01*
X011886Y015699D01*
X011980Y015738D01*
X012051Y015810D01*
X012090Y015904D01*
X012090Y016005D01*
X012051Y016099D01*
X011980Y016170D01*
X011886Y016209D01*
X011784Y016209D01*
X011691Y016170D01*
X011619Y016099D01*
X011580Y016005D01*
X011580Y015904D01*
X011619Y015810D01*
X011710Y015730D02*
X002189Y015730D01*
X002189Y015631D02*
X023007Y015631D01*
X022991Y015638D02*
X023084Y015599D01*
X023186Y015599D01*
X023280Y015638D01*
X023351Y015710D01*
X023390Y015804D01*
X023390Y015905D01*
X023351Y015999D01*
X023280Y016070D01*
X023186Y016109D01*
X023084Y016109D01*
X022991Y016070D01*
X022919Y015999D01*
X022880Y015905D01*
X022880Y015804D01*
X022919Y015710D01*
X022991Y015638D01*
X022911Y015730D02*
X011960Y015730D01*
X012059Y015829D02*
X022880Y015829D01*
X022889Y015927D02*
X012090Y015927D01*
X012082Y016026D02*
X012821Y016026D01*
X012791Y016038D02*
X012884Y015999D01*
X012986Y015999D01*
X013080Y016038D01*
X013151Y016110D01*
X013190Y016204D01*
X013190Y016305D01*
X013151Y016399D01*
X013080Y016470D01*
X012986Y016509D01*
X012884Y016509D01*
X012791Y016470D01*
X012719Y016399D01*
X012680Y016305D01*
X012680Y016204D01*
X012719Y016110D01*
X012791Y016038D01*
X012713Y016124D02*
X012026Y016124D01*
X011644Y016124D02*
X010790Y016124D01*
X010783Y016223D02*
X012680Y016223D01*
X012687Y016321D02*
X010729Y016321D01*
X010758Y016026D02*
X011589Y016026D01*
X011580Y015927D02*
X010653Y015927D01*
X010312Y016026D02*
X002188Y016026D01*
X002188Y016124D02*
X010280Y016124D01*
X010287Y016223D02*
X002188Y016223D01*
X002187Y016321D02*
X010341Y016321D01*
X008951Y016910D02*
X008990Y017004D01*
X008990Y017105D01*
X008951Y017199D01*
X008880Y017270D01*
X008786Y017309D01*
X008684Y017309D01*
X008591Y017270D01*
X008519Y017199D01*
X008480Y017105D01*
X008480Y017004D01*
X008519Y016910D01*
X008591Y016838D01*
X008684Y016799D01*
X008786Y016799D01*
X008880Y016838D01*
X008951Y016910D01*
X008952Y016913D02*
X027335Y016913D01*
X027335Y017011D02*
X008990Y017011D01*
X008988Y017110D02*
X027335Y017110D01*
X027335Y017208D02*
X008942Y017208D01*
X008792Y017307D02*
X027335Y017307D01*
X027335Y017405D02*
X007596Y017405D01*
X007586Y017409D02*
X007484Y017409D01*
X007391Y017370D01*
X007319Y017299D01*
X007280Y017205D01*
X007280Y017104D01*
X007319Y017010D01*
X007391Y016938D01*
X007484Y016899D01*
X007586Y016899D01*
X007680Y016938D01*
X007751Y017010D01*
X007790Y017104D01*
X007790Y017205D01*
X007751Y017299D01*
X007680Y017370D01*
X007586Y017409D01*
X007475Y017405D02*
X002185Y017405D01*
X002185Y017307D02*
X007327Y017307D01*
X007281Y017208D02*
X002185Y017208D01*
X002186Y017110D02*
X007280Y017110D01*
X007318Y017011D02*
X002186Y017011D01*
X002186Y016913D02*
X007453Y016913D01*
X007618Y016913D02*
X008518Y016913D01*
X008480Y017011D02*
X007752Y017011D01*
X007790Y017110D02*
X008482Y017110D01*
X008528Y017208D02*
X007789Y017208D01*
X007743Y017307D02*
X008678Y017307D01*
X008649Y016814D02*
X002186Y016814D01*
X002186Y016715D02*
X027335Y016715D01*
X027335Y016617D02*
X002187Y016617D01*
X002187Y016518D02*
X027335Y016518D01*
X027335Y016420D02*
X016130Y016420D01*
X016151Y016399D02*
X016080Y016470D01*
X015986Y016509D01*
X015884Y016509D01*
X015791Y016470D01*
X015719Y016399D01*
X015680Y016305D01*
X015680Y016204D01*
X015719Y016110D01*
X015791Y016038D01*
X015884Y015999D01*
X015986Y015999D01*
X016080Y016038D01*
X016151Y016110D01*
X016190Y016204D01*
X016190Y016305D01*
X016151Y016399D01*
X016183Y016321D02*
X027335Y016321D01*
X027335Y016223D02*
X016190Y016223D01*
X016157Y016124D02*
X027335Y016124D01*
X027335Y016026D02*
X023324Y016026D01*
X023381Y015927D02*
X027335Y015927D01*
X027335Y015829D02*
X023390Y015829D01*
X023360Y015730D02*
X027335Y015730D01*
X027335Y015631D02*
X023263Y015631D01*
X022946Y016026D02*
X016049Y016026D01*
X015821Y016026D02*
X015049Y016026D01*
X015080Y016038D02*
X014986Y015999D01*
X014884Y015999D01*
X014791Y016038D01*
X014719Y016110D01*
X014680Y016204D01*
X014680Y016305D01*
X014719Y016399D01*
X014791Y016470D01*
X014884Y016509D01*
X014986Y016509D01*
X015080Y016470D01*
X015151Y016399D01*
X015190Y016305D01*
X015190Y016204D01*
X015151Y016110D01*
X015080Y016038D01*
X015157Y016124D02*
X015713Y016124D01*
X015680Y016223D02*
X015190Y016223D01*
X015183Y016321D02*
X015687Y016321D01*
X015740Y016420D02*
X015130Y016420D01*
X014740Y016420D02*
X014130Y016420D01*
X014151Y016399D02*
X014080Y016470D01*
X013986Y016509D01*
X013884Y016509D01*
X013791Y016470D01*
X013719Y016399D01*
X013680Y016305D01*
X013680Y016204D01*
X013719Y016110D01*
X013791Y016038D01*
X013884Y015999D01*
X013986Y015999D01*
X014080Y016038D01*
X014151Y016110D01*
X014190Y016204D01*
X014190Y016305D01*
X014151Y016399D01*
X014183Y016321D02*
X014687Y016321D01*
X014680Y016223D02*
X014190Y016223D01*
X014157Y016124D02*
X014713Y016124D01*
X014821Y016026D02*
X014049Y016026D01*
X013821Y016026D02*
X013049Y016026D01*
X013157Y016124D02*
X013713Y016124D01*
X013680Y016223D02*
X013190Y016223D01*
X013183Y016321D02*
X013687Y016321D01*
X013740Y016420D02*
X013130Y016420D01*
X012740Y016420D02*
X002187Y016420D01*
X002189Y015533D02*
X027335Y015533D01*
X027335Y015434D02*
X002190Y015434D01*
X002190Y015336D02*
X027335Y015336D01*
X027335Y016814D02*
X008821Y016814D01*
X009284Y018799D02*
X009386Y018799D01*
X009480Y018838D01*
X009551Y018910D01*
X009590Y019004D01*
X009590Y019105D01*
X009551Y019199D01*
X009480Y019270D01*
X009386Y019309D01*
X009284Y019309D01*
X009191Y019270D01*
X009119Y019199D01*
X009080Y019105D01*
X009080Y019004D01*
X009119Y018910D01*
X009191Y018838D01*
X009284Y018799D01*
X009145Y018883D02*
X002181Y018883D01*
X002181Y018785D02*
X027335Y018785D01*
X027335Y018883D02*
X009525Y018883D01*
X009581Y018982D02*
X027335Y018982D01*
X027335Y019080D02*
X009590Y019080D01*
X009559Y019179D02*
X010770Y019179D01*
X010703Y019207D02*
X010854Y019144D01*
X011017Y019144D01*
X011167Y019207D01*
X011283Y019322D01*
X011345Y019473D01*
X011345Y019636D01*
X011283Y019787D01*
X011167Y019902D01*
X011017Y019964D01*
X010854Y019964D01*
X010703Y019902D01*
X010588Y019787D01*
X010525Y019636D01*
X010525Y019473D01*
X010588Y019322D01*
X010703Y019207D01*
X010632Y019278D02*
X009462Y019278D01*
X009208Y019278D02*
X007025Y019278D01*
X007017Y019299D02*
X006945Y019370D01*
X006851Y019409D01*
X006750Y019409D01*
X006656Y019370D01*
X006584Y019299D01*
X006545Y019205D01*
X006545Y019104D01*
X006584Y019010D01*
X006656Y018938D01*
X006750Y018899D01*
X006851Y018899D01*
X006945Y018938D01*
X007017Y019010D01*
X007055Y019104D01*
X007055Y019205D01*
X007017Y019299D01*
X006931Y019376D02*
X007753Y019376D01*
X007719Y019410D02*
X007791Y019338D01*
X007884Y019299D01*
X007986Y019299D01*
X008080Y019338D01*
X008151Y019410D01*
X008190Y019504D01*
X008190Y019605D01*
X008151Y019699D01*
X008080Y019770D01*
X009107Y019770D01*
X008954Y019834D02*
X009266Y019704D01*
X009604Y019704D01*
X009917Y019834D01*
X010156Y020073D01*
X010285Y020385D01*
X010285Y020723D01*
X010156Y021036D01*
X009917Y021275D01*
X009604Y021404D01*
X009266Y021404D01*
X008954Y021275D01*
X008715Y021036D01*
X008585Y020723D01*
X008585Y020385D01*
X008715Y020073D01*
X008954Y019834D01*
X008919Y019869D02*
X002179Y019869D01*
X002179Y019967D02*
X008820Y019967D01*
X008721Y020066D02*
X002178Y020066D01*
X002178Y020164D02*
X008677Y020164D01*
X008636Y020263D02*
X002178Y020263D01*
X002178Y020362D02*
X008595Y020362D01*
X008585Y020460D02*
X002177Y020460D01*
X002177Y020559D02*
X008585Y020559D01*
X008585Y020657D02*
X002177Y020657D01*
X002177Y020756D02*
X008599Y020756D01*
X008639Y020854D02*
X002176Y020854D01*
X002176Y020953D02*
X008680Y020953D01*
X008730Y021051D02*
X002176Y021051D01*
X002193Y021150D02*
X008829Y021150D01*
X008927Y021248D02*
X002238Y021248D01*
X002339Y021347D02*
X009128Y021347D01*
X009743Y021347D02*
X027335Y021347D01*
X027335Y021248D02*
X009943Y021248D01*
X010042Y021150D02*
X027335Y021150D01*
X027335Y021051D02*
X010140Y021051D01*
X010190Y020953D02*
X011176Y020953D01*
X011204Y020964D02*
X011053Y020902D01*
X010938Y020787D01*
X010875Y020636D01*
X010875Y020473D01*
X010938Y020322D01*
X011053Y020207D01*
X011204Y020144D01*
X011367Y020144D01*
X011517Y020207D01*
X011633Y020322D01*
X011695Y020473D01*
X011695Y020636D01*
X011633Y020787D01*
X011517Y020902D01*
X011367Y020964D01*
X011204Y020964D01*
X011394Y020953D02*
X012076Y020953D01*
X012049Y020939D02*
X011992Y020898D01*
X011942Y020847D01*
X011900Y020790D01*
X011868Y020727D01*
X011846Y020660D01*
X011837Y020604D01*
X012235Y020604D01*
X012235Y020504D01*
X012335Y020504D01*
X012335Y020107D01*
X012390Y020115D01*
X012458Y020137D01*
X012521Y020169D01*
X012578Y020211D01*
X012628Y020261D01*
X012670Y020318D01*
X012702Y020382D01*
X012724Y020449D01*
X012733Y020504D01*
X012335Y020504D01*
X012335Y020604D01*
X012733Y020604D01*
X012724Y020660D01*
X012702Y020727D01*
X012670Y020790D01*
X012628Y020847D01*
X012578Y020898D01*
X012521Y020939D01*
X012458Y020971D01*
X012390Y020993D01*
X012335Y021002D01*
X012335Y020604D01*
X012235Y020604D01*
X012235Y021002D01*
X012180Y020993D01*
X012112Y020971D01*
X012049Y020939D01*
X011949Y020854D02*
X011565Y020854D01*
X011645Y020756D02*
X011883Y020756D01*
X011846Y020657D02*
X011686Y020657D01*
X011695Y020559D02*
X012235Y020559D01*
X012235Y020504D02*
X011837Y020504D01*
X011846Y020449D01*
X011868Y020382D01*
X011900Y020318D01*
X011942Y020261D01*
X011992Y020211D01*
X012049Y020169D01*
X012112Y020137D01*
X012180Y020115D01*
X012235Y020107D01*
X012235Y020504D01*
X012235Y020460D02*
X012335Y020460D01*
X012335Y020362D02*
X012235Y020362D01*
X012235Y020263D02*
X012335Y020263D01*
X012335Y020164D02*
X012235Y020164D01*
X012059Y020164D02*
X011415Y020164D01*
X011574Y020263D02*
X011941Y020263D01*
X011878Y020362D02*
X011649Y020362D01*
X011690Y020460D02*
X011844Y020460D01*
X012235Y020657D02*
X012335Y020657D01*
X012335Y020559D02*
X012875Y020559D01*
X012875Y020636D02*
X012875Y020473D01*
X012938Y020322D01*
X013053Y020207D01*
X013204Y020144D01*
X013367Y020144D01*
X013517Y020207D01*
X013633Y020322D01*
X013695Y020473D01*
X013695Y020636D01*
X013633Y020787D01*
X013517Y020902D01*
X013367Y020964D01*
X013204Y020964D01*
X013053Y020902D01*
X012938Y020787D01*
X012875Y020636D01*
X012884Y020657D02*
X012724Y020657D01*
X012688Y020756D02*
X012925Y020756D01*
X013005Y020854D02*
X012622Y020854D01*
X012494Y020953D02*
X013176Y020953D01*
X013394Y020953D02*
X014176Y020953D01*
X014204Y020964D02*
X014053Y020902D01*
X013938Y020787D01*
X013875Y020636D01*
X013875Y020473D01*
X013938Y020322D01*
X014053Y020207D01*
X014204Y020144D01*
X014367Y020144D01*
X014517Y020207D01*
X014633Y020322D01*
X014695Y020473D01*
X014695Y020636D01*
X014633Y020787D01*
X014517Y020902D01*
X014367Y020964D01*
X014204Y020964D01*
X014394Y020953D02*
X015176Y020953D01*
X015204Y020964D02*
X015053Y020902D01*
X014938Y020787D01*
X014875Y020636D01*
X014875Y020473D01*
X014938Y020322D01*
X015053Y020207D01*
X015204Y020144D01*
X015367Y020144D01*
X015517Y020207D01*
X015633Y020322D01*
X015695Y020473D01*
X015695Y020636D01*
X015633Y020787D01*
X015517Y020902D01*
X015367Y020964D01*
X015204Y020964D01*
X015394Y020953D02*
X016176Y020953D01*
X016204Y020964D02*
X016053Y020902D01*
X015938Y020787D01*
X015875Y020636D01*
X015875Y020473D01*
X015938Y020322D01*
X016053Y020207D01*
X016204Y020144D01*
X016367Y020144D01*
X016517Y020207D01*
X016633Y020322D01*
X016695Y020473D01*
X016695Y020636D01*
X016633Y020787D01*
X016517Y020902D01*
X016367Y020964D01*
X016204Y020964D01*
X016394Y020953D02*
X017176Y020953D01*
X017204Y020964D02*
X017053Y020902D01*
X016938Y020787D01*
X016875Y020636D01*
X016875Y020473D01*
X016938Y020322D01*
X017053Y020207D01*
X017204Y020144D01*
X017367Y020144D01*
X017517Y020207D01*
X017633Y020322D01*
X017695Y020473D01*
X017695Y020636D01*
X017633Y020787D01*
X017517Y020902D01*
X017367Y020964D01*
X017204Y020964D01*
X017394Y020953D02*
X018176Y020953D01*
X018204Y020964D02*
X018053Y020902D01*
X017938Y020787D01*
X017875Y020636D01*
X017875Y020473D01*
X017938Y020322D01*
X018053Y020207D01*
X018204Y020144D01*
X018367Y020144D01*
X018517Y020207D01*
X018633Y020322D01*
X018695Y020473D01*
X018695Y020636D01*
X018633Y020787D01*
X018517Y020902D01*
X018367Y020964D01*
X018204Y020964D01*
X018394Y020953D02*
X019826Y020953D01*
X019854Y020964D02*
X019703Y020902D01*
X019588Y020787D01*
X019525Y020636D01*
X019525Y020473D01*
X019588Y020322D01*
X019703Y020207D01*
X019854Y020144D01*
X020017Y020144D01*
X020167Y020207D01*
X020283Y020322D01*
X020345Y020473D01*
X020345Y020636D01*
X020283Y020787D01*
X020167Y020902D01*
X020017Y020964D01*
X019854Y020964D01*
X020044Y020953D02*
X020826Y020953D01*
X020854Y020964D02*
X020703Y020902D01*
X020588Y020787D01*
X020525Y020636D01*
X020525Y020473D01*
X020588Y020322D01*
X020703Y020207D01*
X020854Y020144D01*
X021017Y020144D01*
X021167Y020207D01*
X021283Y020322D01*
X021345Y020473D01*
X021345Y020636D01*
X021283Y020787D01*
X021167Y020902D01*
X021017Y020964D01*
X020854Y020964D01*
X021044Y020953D02*
X021826Y020953D01*
X021854Y020964D02*
X021703Y020902D01*
X021588Y020787D01*
X021525Y020636D01*
X021525Y020473D01*
X021588Y020322D01*
X021703Y020207D01*
X021854Y020144D01*
X022017Y020144D01*
X022167Y020207D01*
X022283Y020322D01*
X022345Y020473D01*
X022345Y020636D01*
X022283Y020787D01*
X022167Y020902D01*
X022017Y020964D01*
X021854Y020964D01*
X022044Y020953D02*
X022826Y020953D01*
X022854Y020964D02*
X022703Y020902D01*
X022588Y020787D01*
X022525Y020636D01*
X022525Y020473D01*
X022588Y020322D01*
X022703Y020207D01*
X022854Y020144D01*
X023017Y020144D01*
X023167Y020207D01*
X023283Y020322D01*
X023345Y020473D01*
X023345Y020636D01*
X023283Y020787D01*
X023167Y020902D01*
X023017Y020964D01*
X022854Y020964D01*
X023044Y020953D02*
X023826Y020953D01*
X023854Y020964D02*
X023703Y020902D01*
X023588Y020787D01*
X023525Y020636D01*
X023525Y020473D01*
X023588Y020322D01*
X023703Y020207D01*
X023854Y020144D01*
X024017Y020144D01*
X024167Y020207D01*
X024283Y020322D01*
X024345Y020473D01*
X024345Y020636D01*
X024283Y020787D01*
X024167Y020902D01*
X024017Y020964D01*
X023854Y020964D01*
X024044Y020953D02*
X024826Y020953D01*
X024854Y020964D02*
X024703Y020902D01*
X024588Y020787D01*
X024525Y020636D01*
X024525Y020473D01*
X024588Y020322D01*
X024703Y020207D01*
X024854Y020144D01*
X025017Y020144D01*
X025167Y020207D01*
X025283Y020322D01*
X025345Y020473D01*
X025345Y020636D01*
X025283Y020787D01*
X025167Y020902D01*
X025017Y020964D01*
X024854Y020964D01*
X025044Y020953D02*
X025826Y020953D01*
X025854Y020964D02*
X025703Y020902D01*
X025588Y020787D01*
X025525Y020636D01*
X025525Y020473D01*
X025588Y020322D01*
X025703Y020207D01*
X025854Y020144D01*
X026017Y020144D01*
X026167Y020207D01*
X026283Y020322D01*
X026345Y020473D01*
X026345Y020636D01*
X026283Y020787D01*
X026167Y020902D01*
X026017Y020964D01*
X025854Y020964D01*
X026044Y020953D02*
X026826Y020953D01*
X026655Y020854D02*
X026215Y020854D01*
X026295Y020756D02*
X026575Y020756D01*
X026534Y020657D02*
X026336Y020657D01*
X026345Y020559D02*
X026525Y020559D01*
X026530Y020460D02*
X026340Y020460D01*
X026299Y020362D02*
X026571Y020362D01*
X026647Y020263D02*
X026224Y020263D01*
X026065Y020164D02*
X026805Y020164D01*
X027065Y020164D02*
X027335Y020164D01*
X027335Y020066D02*
X010149Y020066D01*
X010194Y020164D02*
X011155Y020164D01*
X010997Y020263D02*
X010234Y020263D01*
X010275Y020362D02*
X010921Y020362D01*
X010880Y020460D02*
X010285Y020460D01*
X010285Y020559D02*
X010875Y020559D01*
X010884Y020657D02*
X010285Y020657D01*
X010272Y020756D02*
X010925Y020756D01*
X011005Y020854D02*
X010231Y020854D01*
X010050Y019967D02*
X011755Y019967D01*
X011762Y019971D02*
X011699Y019939D01*
X011642Y019898D01*
X011592Y019847D01*
X011550Y019790D01*
X011518Y019727D01*
X011496Y019660D01*
X011487Y019604D01*
X011885Y019604D01*
X011885Y019504D01*
X011985Y019504D01*
X011985Y019107D01*
X012040Y019115D01*
X012108Y019137D01*
X012171Y019169D01*
X012228Y019211D01*
X012278Y019261D01*
X012320Y019318D01*
X012352Y019382D01*
X012374Y019449D01*
X012383Y019504D01*
X011985Y019504D01*
X011985Y019604D01*
X012383Y019604D01*
X012374Y019660D01*
X012352Y019727D01*
X012320Y019790D01*
X012278Y019847D01*
X012228Y019898D01*
X012171Y019939D01*
X012108Y019971D01*
X012040Y019993D01*
X011985Y020002D01*
X011985Y019604D01*
X011885Y019604D01*
X011885Y020002D01*
X011830Y019993D01*
X011762Y019971D01*
X011885Y019967D02*
X011985Y019967D01*
X011985Y019869D02*
X011885Y019869D01*
X011885Y019770D02*
X011985Y019770D01*
X011985Y019672D02*
X011885Y019672D01*
X011885Y019573D02*
X011345Y019573D01*
X011345Y019475D02*
X011492Y019475D01*
X011496Y019449D02*
X011487Y019504D01*
X011885Y019504D01*
X011885Y019107D01*
X011830Y019115D01*
X011762Y019137D01*
X011699Y019169D01*
X011642Y019211D01*
X011592Y019261D01*
X011550Y019318D01*
X011518Y019382D01*
X011496Y019449D01*
X011521Y019376D02*
X011305Y019376D01*
X011238Y019278D02*
X011580Y019278D01*
X011686Y019179D02*
X011100Y019179D01*
X011330Y019672D02*
X011500Y019672D01*
X011540Y019770D02*
X011289Y019770D01*
X011200Y019869D02*
X011613Y019869D01*
X011985Y019573D02*
X012525Y019573D01*
X012525Y019636D02*
X012525Y019473D01*
X012588Y019322D01*
X012703Y019207D01*
X012854Y019144D01*
X013017Y019144D01*
X013167Y019207D01*
X013283Y019322D01*
X013345Y019473D01*
X013345Y019636D01*
X013283Y019787D01*
X013167Y019902D01*
X013017Y019964D01*
X012854Y019964D01*
X012703Y019902D01*
X012588Y019787D01*
X012525Y019636D01*
X012540Y019672D02*
X012370Y019672D01*
X012330Y019770D02*
X012581Y019770D01*
X012670Y019869D02*
X012257Y019869D01*
X012116Y019967D02*
X027335Y019967D01*
X027335Y019869D02*
X027200Y019869D01*
X027289Y019770D02*
X027335Y019770D01*
X027330Y019672D02*
X027335Y019672D01*
X027335Y019376D02*
X027305Y019376D01*
X027335Y019278D02*
X027238Y019278D01*
X027335Y019179D02*
X027100Y019179D01*
X026770Y019179D02*
X026100Y019179D01*
X026167Y019207D02*
X026283Y019322D01*
X026345Y019473D01*
X026345Y019636D01*
X026283Y019787D01*
X026167Y019902D01*
X026017Y019964D01*
X025854Y019964D01*
X025703Y019902D01*
X025588Y019787D01*
X025525Y019636D01*
X025525Y019473D01*
X025588Y019322D01*
X025703Y019207D01*
X025854Y019144D01*
X026017Y019144D01*
X026167Y019207D01*
X026238Y019278D02*
X026632Y019278D01*
X026565Y019376D02*
X026305Y019376D01*
X026345Y019475D02*
X026525Y019475D01*
X026525Y019573D02*
X026345Y019573D01*
X026330Y019672D02*
X026540Y019672D01*
X026581Y019770D02*
X026289Y019770D01*
X026200Y019869D02*
X026670Y019869D01*
X027224Y020263D02*
X027335Y020263D01*
X027335Y020362D02*
X027299Y020362D01*
X027295Y020756D02*
X027335Y020756D01*
X027335Y020854D02*
X027215Y020854D01*
X027335Y020953D02*
X027044Y020953D01*
X025805Y020164D02*
X025065Y020164D01*
X025224Y020263D02*
X025647Y020263D01*
X025571Y020362D02*
X025299Y020362D01*
X025340Y020460D02*
X025530Y020460D01*
X025525Y020559D02*
X025345Y020559D01*
X025336Y020657D02*
X025534Y020657D01*
X025575Y020756D02*
X025295Y020756D01*
X025215Y020854D02*
X025655Y020854D01*
X024655Y020854D02*
X024215Y020854D01*
X024295Y020756D02*
X024575Y020756D01*
X024534Y020657D02*
X024336Y020657D01*
X024345Y020559D02*
X024525Y020559D01*
X024530Y020460D02*
X024340Y020460D01*
X024299Y020362D02*
X024571Y020362D01*
X024647Y020263D02*
X024224Y020263D01*
X024065Y020164D02*
X024805Y020164D01*
X024854Y019964D02*
X024703Y019902D01*
X024588Y019787D01*
X024525Y019636D01*
X024525Y019473D01*
X024588Y019322D01*
X024703Y019207D01*
X024854Y019144D01*
X025017Y019144D01*
X025167Y019207D01*
X025283Y019322D01*
X025345Y019473D01*
X025345Y019636D01*
X025283Y019787D01*
X025167Y019902D01*
X025017Y019964D01*
X024854Y019964D01*
X024670Y019869D02*
X024200Y019869D01*
X024167Y019902D02*
X024017Y019964D01*
X023854Y019964D01*
X023703Y019902D01*
X023588Y019787D01*
X023525Y019636D01*
X023525Y019473D01*
X023588Y019322D01*
X023703Y019207D01*
X023854Y019144D01*
X024017Y019144D01*
X024167Y019207D01*
X024283Y019322D01*
X024345Y019473D01*
X024345Y019636D01*
X024283Y019787D01*
X024167Y019902D01*
X024289Y019770D02*
X024581Y019770D01*
X024540Y019672D02*
X024330Y019672D01*
X024345Y019573D02*
X024525Y019573D01*
X024525Y019475D02*
X024345Y019475D01*
X024305Y019376D02*
X024565Y019376D01*
X024632Y019278D02*
X024238Y019278D01*
X024100Y019179D02*
X024770Y019179D01*
X025100Y019179D02*
X025770Y019179D01*
X025632Y019278D02*
X025238Y019278D01*
X025305Y019376D02*
X025565Y019376D01*
X025525Y019475D02*
X025345Y019475D01*
X025345Y019573D02*
X025525Y019573D01*
X025540Y019672D02*
X025330Y019672D01*
X025289Y019770D02*
X025581Y019770D01*
X025670Y019869D02*
X025200Y019869D01*
X023805Y020164D02*
X023065Y020164D01*
X023224Y020263D02*
X023647Y020263D01*
X023571Y020362D02*
X023299Y020362D01*
X023340Y020460D02*
X023530Y020460D01*
X023525Y020559D02*
X023345Y020559D01*
X023336Y020657D02*
X023534Y020657D01*
X023575Y020756D02*
X023295Y020756D01*
X023215Y020854D02*
X023655Y020854D01*
X022655Y020854D02*
X022215Y020854D01*
X022295Y020756D02*
X022575Y020756D01*
X022534Y020657D02*
X022336Y020657D01*
X022345Y020559D02*
X022525Y020559D01*
X022530Y020460D02*
X022340Y020460D01*
X022299Y020362D02*
X022571Y020362D01*
X022647Y020263D02*
X022224Y020263D01*
X022065Y020164D02*
X022805Y020164D01*
X022854Y019964D02*
X022703Y019902D01*
X022588Y019787D01*
X022525Y019636D01*
X022525Y019473D01*
X022588Y019322D01*
X022703Y019207D01*
X022854Y019144D01*
X023017Y019144D01*
X023167Y019207D01*
X023283Y019322D01*
X023345Y019473D01*
X023345Y019636D01*
X023283Y019787D01*
X023167Y019902D01*
X023017Y019964D01*
X022854Y019964D01*
X022670Y019869D02*
X022200Y019869D01*
X022167Y019902D02*
X022017Y019964D01*
X021854Y019964D01*
X021703Y019902D01*
X021588Y019787D01*
X021525Y019636D01*
X021525Y019473D01*
X021588Y019322D01*
X021703Y019207D01*
X021854Y019144D01*
X022017Y019144D01*
X022167Y019207D01*
X022283Y019322D01*
X022345Y019473D01*
X022345Y019636D01*
X022283Y019787D01*
X022167Y019902D01*
X022289Y019770D02*
X022581Y019770D01*
X022540Y019672D02*
X022330Y019672D01*
X022345Y019573D02*
X022525Y019573D01*
X022525Y019475D02*
X022345Y019475D01*
X022305Y019376D02*
X022565Y019376D01*
X022632Y019278D02*
X022238Y019278D01*
X022100Y019179D02*
X022770Y019179D01*
X023100Y019179D02*
X023770Y019179D01*
X023632Y019278D02*
X023238Y019278D01*
X023305Y019376D02*
X023565Y019376D01*
X023525Y019475D02*
X023345Y019475D01*
X023345Y019573D02*
X023525Y019573D01*
X023540Y019672D02*
X023330Y019672D01*
X023289Y019770D02*
X023581Y019770D01*
X023670Y019869D02*
X023200Y019869D01*
X021805Y020164D02*
X021065Y020164D01*
X021224Y020263D02*
X021647Y020263D01*
X021571Y020362D02*
X021299Y020362D01*
X021340Y020460D02*
X021530Y020460D01*
X021525Y020559D02*
X021345Y020559D01*
X021336Y020657D02*
X021534Y020657D01*
X021575Y020756D02*
X021295Y020756D01*
X021215Y020854D02*
X021655Y020854D01*
X020655Y020854D02*
X020215Y020854D01*
X020295Y020756D02*
X020575Y020756D01*
X020534Y020657D02*
X020336Y020657D01*
X020345Y020559D02*
X020525Y020559D01*
X020530Y020460D02*
X020340Y020460D01*
X020299Y020362D02*
X020571Y020362D01*
X020647Y020263D02*
X020224Y020263D01*
X020065Y020164D02*
X020805Y020164D01*
X020854Y019964D02*
X020703Y019902D01*
X020588Y019787D01*
X020525Y019636D01*
X020525Y019473D01*
X020588Y019322D01*
X020703Y019207D01*
X020854Y019144D01*
X021017Y019144D01*
X021167Y019207D01*
X021283Y019322D01*
X021345Y019473D01*
X021345Y019636D01*
X021283Y019787D01*
X021167Y019902D01*
X021017Y019964D01*
X020854Y019964D01*
X020670Y019869D02*
X020200Y019869D01*
X020167Y019902D02*
X020017Y019964D01*
X019854Y019964D01*
X019703Y019902D01*
X019588Y019787D01*
X019525Y019636D01*
X019525Y019473D01*
X019588Y019322D01*
X019703Y019207D01*
X019854Y019144D01*
X020017Y019144D01*
X020167Y019207D01*
X020283Y019322D01*
X020345Y019473D01*
X020345Y019636D01*
X020283Y019787D01*
X020167Y019902D01*
X020289Y019770D02*
X020581Y019770D01*
X020540Y019672D02*
X020330Y019672D01*
X020345Y019573D02*
X020525Y019573D01*
X020525Y019475D02*
X020345Y019475D01*
X020305Y019376D02*
X020565Y019376D01*
X020632Y019278D02*
X020238Y019278D01*
X020100Y019179D02*
X020770Y019179D01*
X021100Y019179D02*
X021770Y019179D01*
X021632Y019278D02*
X021238Y019278D01*
X021305Y019376D02*
X021565Y019376D01*
X021525Y019475D02*
X021345Y019475D01*
X021345Y019573D02*
X021525Y019573D01*
X021540Y019672D02*
X021330Y019672D01*
X021289Y019770D02*
X021581Y019770D01*
X021670Y019869D02*
X021200Y019869D01*
X019805Y020164D02*
X018415Y020164D01*
X018574Y020263D02*
X019647Y020263D01*
X019571Y020362D02*
X018649Y020362D01*
X018690Y020460D02*
X019530Y020460D01*
X019525Y020559D02*
X018695Y020559D01*
X018686Y020657D02*
X019534Y020657D01*
X019575Y020756D02*
X018645Y020756D01*
X018565Y020854D02*
X019655Y020854D01*
X019670Y019869D02*
X018200Y019869D01*
X018167Y019902D02*
X018017Y019964D01*
X017854Y019964D01*
X017703Y019902D01*
X017588Y019787D01*
X017525Y019636D01*
X017525Y019473D01*
X017588Y019322D01*
X017703Y019207D01*
X017854Y019144D01*
X018017Y019144D01*
X018167Y019207D01*
X018283Y019322D01*
X018345Y019473D01*
X018345Y019636D01*
X018283Y019787D01*
X018167Y019902D01*
X018289Y019770D02*
X019581Y019770D01*
X019540Y019672D02*
X018330Y019672D01*
X018345Y019573D02*
X019525Y019573D01*
X019525Y019475D02*
X018345Y019475D01*
X018305Y019376D02*
X019565Y019376D01*
X019632Y019278D02*
X018238Y019278D01*
X018100Y019179D02*
X019770Y019179D01*
X018155Y020164D02*
X017415Y020164D01*
X017574Y020263D02*
X017997Y020263D01*
X017921Y020362D02*
X017649Y020362D01*
X017690Y020460D02*
X017880Y020460D01*
X017875Y020559D02*
X017695Y020559D01*
X017686Y020657D02*
X017884Y020657D01*
X017925Y020756D02*
X017645Y020756D01*
X017565Y020854D02*
X018005Y020854D01*
X017005Y020854D02*
X016565Y020854D01*
X016645Y020756D02*
X016925Y020756D01*
X016884Y020657D02*
X016686Y020657D01*
X016695Y020559D02*
X016875Y020559D01*
X016880Y020460D02*
X016690Y020460D01*
X016649Y020362D02*
X016921Y020362D01*
X016997Y020263D02*
X016574Y020263D01*
X016415Y020164D02*
X017155Y020164D01*
X017017Y019964D02*
X016854Y019964D01*
X016703Y019902D01*
X016588Y019787D01*
X016525Y019636D01*
X016525Y019473D01*
X016588Y019322D01*
X016703Y019207D01*
X016854Y019144D01*
X017017Y019144D01*
X017167Y019207D01*
X017283Y019322D01*
X017345Y019473D01*
X017345Y019636D01*
X017283Y019787D01*
X017167Y019902D01*
X017017Y019964D01*
X017200Y019869D02*
X017670Y019869D01*
X017581Y019770D02*
X017289Y019770D01*
X017330Y019672D02*
X017540Y019672D01*
X017525Y019573D02*
X017345Y019573D01*
X017345Y019475D02*
X017525Y019475D01*
X017565Y019376D02*
X017305Y019376D01*
X017238Y019278D02*
X017632Y019278D01*
X017770Y019179D02*
X017100Y019179D01*
X016770Y019179D02*
X016100Y019179D01*
X016167Y019207D02*
X016283Y019322D01*
X016345Y019473D01*
X016345Y019636D01*
X016283Y019787D01*
X016167Y019902D01*
X016017Y019964D01*
X015854Y019964D01*
X015703Y019902D01*
X015588Y019787D01*
X015525Y019636D01*
X015525Y019473D01*
X015588Y019322D01*
X015703Y019207D01*
X015854Y019144D01*
X016017Y019144D01*
X016167Y019207D01*
X016238Y019278D02*
X016632Y019278D01*
X016565Y019376D02*
X016305Y019376D01*
X016345Y019475D02*
X016525Y019475D01*
X016525Y019573D02*
X016345Y019573D01*
X016330Y019672D02*
X016540Y019672D01*
X016581Y019770D02*
X016289Y019770D01*
X016200Y019869D02*
X016670Y019869D01*
X016155Y020164D02*
X015415Y020164D01*
X015574Y020263D02*
X015997Y020263D01*
X015921Y020362D02*
X015649Y020362D01*
X015690Y020460D02*
X015880Y020460D01*
X015875Y020559D02*
X015695Y020559D01*
X015686Y020657D02*
X015884Y020657D01*
X015925Y020756D02*
X015645Y020756D01*
X015565Y020854D02*
X016005Y020854D01*
X015005Y020854D02*
X014565Y020854D01*
X014645Y020756D02*
X014925Y020756D01*
X014884Y020657D02*
X014686Y020657D01*
X014695Y020559D02*
X014875Y020559D01*
X014880Y020460D02*
X014690Y020460D01*
X014649Y020362D02*
X014921Y020362D01*
X014997Y020263D02*
X014574Y020263D01*
X014415Y020164D02*
X015155Y020164D01*
X015017Y019964D02*
X014854Y019964D01*
X014703Y019902D01*
X014588Y019787D01*
X014525Y019636D01*
X014525Y019473D01*
X014588Y019322D01*
X014703Y019207D01*
X014854Y019144D01*
X015017Y019144D01*
X015167Y019207D01*
X015283Y019322D01*
X015345Y019473D01*
X015345Y019636D01*
X015283Y019787D01*
X015167Y019902D01*
X015017Y019964D01*
X015200Y019869D02*
X015670Y019869D01*
X015581Y019770D02*
X015289Y019770D01*
X015330Y019672D02*
X015540Y019672D01*
X015525Y019573D02*
X015345Y019573D01*
X015345Y019475D02*
X015525Y019475D01*
X015565Y019376D02*
X015305Y019376D01*
X015238Y019278D02*
X015632Y019278D01*
X015770Y019179D02*
X015100Y019179D01*
X014770Y019179D02*
X014100Y019179D01*
X014167Y019207D02*
X014017Y019144D01*
X013854Y019144D01*
X013703Y019207D01*
X013588Y019322D01*
X013525Y019473D01*
X013525Y019636D01*
X013588Y019787D01*
X013703Y019902D01*
X013854Y019964D01*
X014017Y019964D01*
X014167Y019902D01*
X014283Y019787D01*
X014345Y019636D01*
X014345Y019473D01*
X014283Y019322D01*
X014167Y019207D01*
X014238Y019278D02*
X014632Y019278D01*
X014565Y019376D02*
X014305Y019376D01*
X014345Y019475D02*
X014525Y019475D01*
X014525Y019573D02*
X014345Y019573D01*
X014330Y019672D02*
X014540Y019672D01*
X014581Y019770D02*
X014289Y019770D01*
X014200Y019869D02*
X014670Y019869D01*
X014155Y020164D02*
X013415Y020164D01*
X013574Y020263D02*
X013997Y020263D01*
X013921Y020362D02*
X013649Y020362D01*
X013690Y020460D02*
X013880Y020460D01*
X013875Y020559D02*
X013695Y020559D01*
X013686Y020657D02*
X013884Y020657D01*
X013925Y020756D02*
X013645Y020756D01*
X013565Y020854D02*
X014005Y020854D01*
X013155Y020164D02*
X012511Y020164D01*
X012630Y020263D02*
X012997Y020263D01*
X012921Y020362D02*
X012692Y020362D01*
X012726Y020460D02*
X012880Y020460D01*
X012335Y020756D02*
X012235Y020756D01*
X012235Y020854D02*
X012335Y020854D01*
X012335Y020953D02*
X012235Y020953D01*
X013200Y019869D02*
X013670Y019869D01*
X013581Y019770D02*
X013289Y019770D01*
X013330Y019672D02*
X013540Y019672D01*
X013525Y019573D02*
X013345Y019573D01*
X013345Y019475D02*
X013525Y019475D01*
X013565Y019376D02*
X013305Y019376D01*
X013238Y019278D02*
X013632Y019278D01*
X013770Y019179D02*
X013100Y019179D01*
X012770Y019179D02*
X012184Y019179D01*
X012290Y019278D02*
X012632Y019278D01*
X012565Y019376D02*
X012349Y019376D01*
X012378Y019475D02*
X012525Y019475D01*
X011985Y019475D02*
X011885Y019475D01*
X011885Y019376D02*
X011985Y019376D01*
X011985Y019278D02*
X011885Y019278D01*
X011885Y019179D02*
X011985Y019179D01*
X010670Y019869D02*
X009952Y019869D01*
X009763Y019770D02*
X010581Y019770D01*
X010540Y019672D02*
X008162Y019672D01*
X008190Y019573D02*
X010525Y019573D01*
X010525Y019475D02*
X008178Y019475D01*
X008117Y019376D02*
X010565Y019376D01*
X009111Y019179D02*
X007055Y019179D01*
X007046Y019080D02*
X009080Y019080D01*
X009089Y018982D02*
X006989Y018982D01*
X006612Y018982D02*
X002181Y018982D01*
X002181Y019080D02*
X006555Y019080D01*
X006545Y019179D02*
X002181Y019179D01*
X002180Y019278D02*
X006576Y019278D01*
X006670Y019376D02*
X002180Y019376D01*
X002180Y019475D02*
X007692Y019475D01*
X007680Y019504D02*
X007719Y019410D01*
X007680Y019504D02*
X007680Y019605D01*
X007719Y019699D01*
X007791Y019770D01*
X007790Y019770D02*
X002179Y019770D01*
X002179Y019672D02*
X007708Y019672D01*
X007680Y019573D02*
X002180Y019573D01*
X002182Y018686D02*
X027335Y018686D01*
X027335Y018588D02*
X002182Y018588D01*
X002182Y018489D02*
X027335Y018489D01*
X027335Y018391D02*
X002182Y018391D01*
X002183Y018292D02*
X027335Y018292D01*
X027335Y018194D02*
X002183Y018194D01*
X002183Y018095D02*
X027335Y018095D01*
X027335Y017996D02*
X002183Y017996D01*
X002184Y017898D02*
X027335Y017898D01*
X027335Y017799D02*
X002184Y017799D01*
X002184Y017701D02*
X027335Y017701D01*
X027335Y017602D02*
X002184Y017602D01*
X002185Y017504D02*
X027335Y017504D01*
X021300Y014153D02*
X019570Y014153D01*
X019590Y014055D02*
X021280Y014055D01*
X021300Y013956D02*
X019570Y013956D01*
X019499Y013858D02*
X021371Y013858D01*
X015878Y014350D02*
X002192Y014350D01*
X002192Y014449D02*
X015803Y014449D01*
X015780Y014547D02*
X002192Y014547D01*
X002191Y014646D02*
X015797Y014646D01*
X014702Y010901D02*
X014168Y010901D01*
X014266Y010803D02*
X014604Y010803D01*
X014553Y010704D02*
X014317Y010704D01*
X014345Y010606D02*
X014525Y010606D01*
X014525Y010507D02*
X014345Y010507D01*
X014319Y010409D02*
X014552Y010409D01*
X014599Y010310D02*
X014271Y010310D01*
X014172Y010212D02*
X014698Y010212D01*
X014737Y009916D02*
X014133Y009916D01*
X014252Y009817D02*
X014618Y009817D01*
X014560Y009719D02*
X014311Y009719D01*
X014345Y009620D02*
X014525Y009620D01*
X014525Y009522D02*
X014345Y009522D01*
X014325Y009423D02*
X014546Y009423D01*
X014586Y009325D02*
X014284Y009325D01*
X014187Y009226D02*
X014683Y009226D01*
X014772Y008931D02*
X014098Y008931D01*
X014237Y008832D02*
X014633Y008832D01*
X014566Y008733D02*
X014305Y008733D01*
X014345Y008635D02*
X014525Y008635D01*
X014525Y008536D02*
X014345Y008536D01*
X014331Y008438D02*
X014540Y008438D01*
X014580Y008339D02*
X014290Y008339D01*
X014201Y008241D02*
X014669Y008241D01*
X014807Y007945D02*
X014159Y007945D01*
X014279Y007847D02*
X014648Y007847D01*
X014572Y007748D02*
X014341Y007748D01*
X014376Y007649D02*
X014531Y007649D01*
X013985Y007649D02*
X013885Y007649D01*
X013885Y007748D02*
X013985Y007748D01*
X013985Y007847D02*
X013885Y007847D01*
X013885Y007945D02*
X013985Y007945D01*
X013985Y007354D02*
X013885Y007354D01*
X013885Y007255D02*
X013985Y007255D01*
X013985Y007157D02*
X013885Y007157D01*
X015331Y008438D02*
X023080Y008438D01*
X023093Y008536D02*
X015345Y008536D01*
X015345Y008635D02*
X023155Y008635D01*
X023109Y008733D02*
X015305Y008733D01*
X015237Y008832D02*
X023080Y008832D01*
X023091Y008931D02*
X015098Y008931D01*
X013772Y008931D02*
X002205Y008931D01*
X002206Y008832D02*
X013633Y008832D01*
X013566Y008733D02*
X002206Y008733D01*
X002206Y008635D02*
X013525Y008635D01*
X018995Y007255D02*
X019600Y007255D01*
X019672Y007157D02*
X019069Y007157D01*
X019090Y007058D02*
X021235Y007058D01*
X021235Y006960D02*
X019072Y006960D01*
X023060Y005777D02*
X024385Y005777D01*
X024385Y005679D02*
X023090Y005679D01*
X023080Y005580D02*
X024385Y005580D01*
X024385Y005481D02*
X023023Y005481D01*
X023515Y008635D02*
X024509Y008635D01*
X024480Y008733D02*
X023561Y008733D01*
X023590Y008832D02*
X024491Y008832D01*
X024551Y008931D02*
X023580Y008931D01*
X008080Y019770D02*
X007986Y019809D01*
X007884Y019809D01*
X007791Y019770D01*
X005780Y006960D02*
X002210Y006960D01*
X002210Y006861D02*
X005703Y006861D01*
X005680Y006763D02*
X002211Y006763D01*
X002211Y006664D02*
X005696Y006664D01*
X005486Y006565D02*
X002211Y006565D01*
X002211Y006467D02*
X005406Y006467D01*
X005380Y006368D02*
X002212Y006368D01*
X002212Y006270D02*
X005394Y006270D01*
X002982Y003314D02*
X002773Y003314D01*
X002615Y003314D02*
X002515Y003314D01*
X002515Y003215D02*
X002615Y003215D01*
X002615Y003116D02*
X002515Y003116D01*
X002515Y003018D02*
X002615Y003018D01*
X002615Y002919D02*
X003117Y002919D01*
X003064Y003018D02*
X003004Y003018D01*
X003025Y003116D02*
X002967Y003116D01*
X002998Y003215D02*
X002901Y003215D01*
X003006Y002821D02*
X003188Y002821D01*
X003279Y002722D02*
X002972Y002722D01*
X002910Y002624D02*
X003408Y002624D01*
X003611Y002525D02*
X002793Y002525D01*
X002615Y002525D02*
X002515Y002525D01*
X002515Y002624D02*
X002615Y002624D01*
X002615Y002722D02*
X002515Y002722D01*
X002515Y002821D02*
X002615Y002821D01*
X002338Y002525D02*
X002221Y002525D01*
X002221Y002427D02*
X004723Y002427D01*
X004548Y002328D02*
X002221Y002328D01*
X002222Y002230D02*
X004434Y002230D01*
X004348Y002131D02*
X002222Y002131D01*
X002222Y002032D02*
X004282Y002032D01*
X004233Y001934D02*
X002222Y001934D01*
X002223Y001835D02*
X004197Y001835D01*
X004173Y001737D02*
X002223Y001737D01*
X002297Y000949D02*
X004386Y000949D01*
X004485Y000850D02*
X002385Y000850D01*
X002219Y003215D02*
X002229Y003215D01*
X002219Y003314D02*
X002357Y003314D01*
D13*
X005435Y005854D03*
X005635Y006354D03*
X005935Y006754D03*
X005935Y007454D03*
X005935Y008254D03*
X004135Y008654D03*
X004935Y009954D03*
X008135Y012054D03*
X010435Y013654D03*
X011235Y013954D03*
X011935Y013954D03*
X013335Y012654D03*
X014935Y012254D03*
X017035Y012054D03*
X017435Y012154D03*
X017735Y011654D03*
X018535Y012054D03*
X019635Y011454D03*
X020135Y010954D03*
X020535Y010754D03*
X021335Y009954D03*
X020635Y009454D03*
X019835Y009654D03*
X018635Y010654D03*
X018135Y011154D03*
X017135Y009854D03*
X017435Y009354D03*
X020035Y007954D03*
X019835Y007354D03*
X018835Y007054D03*
X020235Y005754D03*
X018835Y005254D03*
X017335Y004554D03*
X015735Y004254D03*
X014835Y004354D03*
X013535Y003154D03*
X014135Y002754D03*
X011835Y002954D03*
X011235Y004754D03*
X012835Y004754D03*
X013912Y006087D03*
X014835Y006254D03*
X015635Y007154D03*
X012735Y010054D03*
X009235Y008254D03*
X008835Y007254D03*
X009935Y006054D03*
X009235Y005654D03*
X008235Y003754D03*
X006535Y005054D03*
X010735Y007254D03*
X016735Y003254D03*
X021235Y003254D03*
X023135Y004054D03*
X022835Y005654D03*
X022435Y005654D03*
X023895Y006184D03*
X023535Y006854D03*
X023975Y007404D03*
X023035Y007754D03*
X022735Y007454D03*
X022635Y007954D03*
X023335Y008454D03*
X023335Y008854D03*
X023335Y009254D03*
X023035Y009954D03*
X023035Y010454D03*
X022135Y009254D03*
X022235Y008554D03*
X021735Y008154D03*
X024735Y008754D03*
X026035Y009954D03*
X026605Y010834D03*
X026035Y011754D03*
X025335Y011654D03*
X025035Y011954D03*
X024735Y012254D03*
X024235Y012454D03*
X023835Y012254D03*
X022235Y012454D03*
X023235Y013854D03*
X024135Y013954D03*
X025935Y014254D03*
X026635Y014454D03*
X024135Y015954D03*
X023335Y016354D03*
X023135Y015854D03*
X022235Y014854D03*
X021535Y015254D03*
X021235Y014554D03*
X021535Y014054D03*
X019935Y013754D03*
X019335Y014054D03*
X019335Y014554D03*
X020135Y017054D03*
X021435Y018754D03*
X022435Y018754D03*
X023435Y018754D03*
X024435Y018754D03*
X018935Y019554D03*
X017435Y017554D03*
X016435Y017554D03*
X015435Y017554D03*
X014435Y017554D03*
X013435Y017554D03*
X011635Y018254D03*
X009335Y019054D03*
X008235Y018654D03*
X007635Y018454D03*
X008635Y018054D03*
X007535Y017154D03*
X008735Y017054D03*
X008835Y016454D03*
X010535Y016154D03*
X011835Y015954D03*
X012935Y016254D03*
X013935Y016254D03*
X014935Y016254D03*
X015935Y016254D03*
X015735Y014954D03*
X016035Y014554D03*
X009435Y014454D03*
X009035Y014054D03*
X005735Y015054D03*
X004835Y015054D03*
X004735Y015854D03*
X003835Y018354D03*
X006800Y019154D03*
X007935Y019554D03*
X007535Y021054D03*
X024735Y010654D03*
X024735Y010254D03*
X025335Y007654D03*
X024935Y006154D03*
X025535Y005754D03*
X026235Y005654D03*
X027135Y005954D03*
X027335Y004054D03*
X025635Y004054D03*
X026435Y002254D03*
X010435Y000954D03*
M02*
