%
M48
M72
T01C0.0150
T02C0.0354
T03C0.0400
T04C0.1180
T05C0.1300
%
T01
X6535Y5054
X5435Y5854
X5635Y6354
X5935Y6754
X5935Y7454
X5935Y8254
X4135Y8654
X4935Y9954
X8135Y12054
X10435Y13654
X11235Y13954
X11935Y13954
X13335Y12654
X14935Y12254
X17035Y12054
X17435Y12154
X17735Y11654
X18535Y12054
X19635Y11454
X20135Y10954
X20535Y10754
X21335Y9954
X20635Y9454
X19835Y9654
X18635Y10654
X18135Y11154
X17135Y9854
X17435Y9354
X20035Y7954
X19835Y7354
X18835Y7054
X20235Y5754
X18835Y5254
X17335Y4554
X15735Y4254
X14835Y4354
X13535Y3154
X14135Y2754
X11835Y2954
X11235Y4754
X12835Y4754
X13912Y6087
X14835Y6254
X15635Y7154
X12735Y10054
X9235Y8254
X8835Y7254
X9935Y6054
X9235Y5654
X8235Y3754
X10435Y954
X16735Y3254
X21235Y3254
X23135Y4054
X22835Y5654
X22435Y5654
X23895Y6184
X23535Y6854
X23975Y7404
X23035Y7754
X22735Y7454
X22635Y7954
X23335Y8454
X23335Y8854
X23335Y9254
X23035Y9954
X23035Y10454
X22135Y9254
X22235Y8554
X21735Y8154
X24735Y8754
X26035Y9954
X26605Y10834
X26035Y11754
X25335Y11654
X25035Y11954
X24735Y12254
X24235Y12454
X23835Y12254
X22235Y12454
X23235Y13854
X24135Y13954
X25935Y14254
X26635Y14454
X24135Y15954
X23335Y16354
X23135Y15854
X22235Y14854
X21535Y15254
X21235Y14554
X21535Y14054
X19935Y13754
X19335Y14054
X19335Y14554
X20135Y17054
X21435Y18754
X22435Y18754
X23435Y18754
X24435Y18754
X18935Y19554
X17435Y17554
X16435Y17554
X15435Y17554
X14435Y17554
X13435Y17554
X11635Y18254
X9335Y19054
X8235Y18654
X7635Y18454
X8635Y18054
X7535Y17154
X8735Y17054
X8835Y16454
X10535Y16154
X11835Y15954
X12935Y16254
X13935Y16254
X14935Y16254
X15935Y16254
X15735Y14954
X16035Y14554
X9435Y14454
X9035Y14054
X5735Y15054
X4835Y15054
X4735Y15854
X3835Y18354
X6800Y19154
X7935Y19554
X7535Y21054
X24735Y10654
X24735Y10254
X25335Y7654
X24935Y6154
X25535Y5754
X26235Y5654
X27135Y5954
X27335Y4054
X25635Y4054
X26435Y2254
X10735Y7254
T02
X4035Y8088
X4035Y9820
T03
X2565Y2914
X2565Y3914
X9933Y9550
X10933Y9550
X10933Y10550
X10933Y11550
X9933Y11550
X9933Y10550
X9933Y12550
X10933Y12550
X13935Y10554
X14935Y10554
X14935Y9554
X13935Y9554
X13935Y8554
X14935Y8554
X14935Y7554
X13935Y7554
X14935Y1554
X15935Y1554
X16935Y1554
X17935Y1554
X18935Y1554
X19935Y1554
X21935Y1554
X22935Y1554
X23935Y1554
X24935Y1554
X25935Y1554
X26935Y1554
X26935Y19554
X25935Y19554
X24935Y19554
X23935Y19554
X22935Y19554
X21935Y19554
X20935Y19554
X19935Y19554
X19935Y20554
X20935Y20554
X21935Y20554
X22935Y20554
X23935Y20554
X24935Y20554
X25935Y20554
X26935Y20554
X18285Y20554
X17285Y20554
X16285Y20554
X15285Y20554
X14285Y20554
X13285Y20554
X12285Y20554
X11285Y20554
X10935Y19554
X11935Y19554
X12935Y19554
X13935Y19554
X14935Y19554
X15935Y19554
X16935Y19554
X17935Y19554
T04
X6279Y3414
X3917Y3414
X5098Y1564
T05
X9435Y1554
X27935Y3254
X9435Y20554
M30
