G75*
G70*
%OFA0B0*%
%FSLAX24Y24*%
%IPPOS*%
%LPD*%
%AMOC8*
5,1,8,0,0,1.08239X$1,22.5*
%
%ADD10C,0.0600*%
%ADD11R,0.0394X0.0433*%
%ADD12R,0.0315X0.0315*%
%ADD13R,0.0394X0.1811*%
%ADD14R,0.0630X0.1339*%
%ADD15R,0.0118X0.0472*%
%ADD16R,0.0472X0.0118*%
%ADD17R,0.0394X0.0551*%
%ADD18R,0.0748X0.0433*%
%ADD19R,0.0984X0.0197*%
%ADD20R,0.0984X0.0787*%
%ADD21R,0.0394X0.0394*%
%ADD22C,0.1580*%
%ADD23C,0.0600*%
%ADD24R,0.0591X0.0472*%
%ADD25R,0.0110X0.0335*%
%ADD26C,0.0050*%
%ADD27R,0.0433X0.0394*%
%ADD28R,0.0600X0.0600*%
%ADD29OC8,0.0600*%
%ADD30R,0.0800X0.0394*%
%ADD31R,0.0315X0.0354*%
%ADD32R,0.0551X0.0709*%
%ADD33R,0.0748X0.0551*%
%ADD34R,0.0591X0.0315*%
%ADD35C,0.0100*%
%ADD36C,0.0290*%
%ADD37C,0.0080*%
%ADD38C,0.0160*%
%ADD39C,0.0320*%
%ADD40C,0.0240*%
D10*
X014935Y000954D02*
X014935Y001554D01*
X015935Y001554D02*
X015935Y000954D01*
X016935Y000954D02*
X016935Y001554D01*
X017935Y001554D02*
X017935Y000954D01*
X018935Y000954D02*
X018935Y001554D01*
X019935Y001554D02*
X019935Y000954D01*
X021935Y000954D02*
X021935Y001554D01*
X022935Y001554D02*
X022935Y000954D01*
X023935Y000954D02*
X023935Y001554D01*
X024935Y001554D02*
X024935Y000954D01*
X025935Y000954D02*
X025935Y001554D01*
X026935Y001554D02*
X026935Y000954D01*
X026935Y020554D02*
X026935Y021154D01*
X025935Y021154D02*
X025935Y020554D01*
X024935Y020554D02*
X024935Y021154D01*
X023935Y021154D02*
X023935Y020554D01*
X022935Y020554D02*
X022935Y021154D01*
X021935Y021154D02*
X021935Y020554D01*
X020935Y020554D02*
X020935Y021154D01*
X019935Y021154D02*
X019935Y020554D01*
X018285Y020554D02*
X018285Y021154D01*
X017285Y021154D02*
X017285Y020554D01*
X016285Y020554D02*
X016285Y021154D01*
X015285Y021154D02*
X015285Y020554D01*
X014285Y020554D02*
X014285Y021154D01*
X013285Y021154D02*
X013285Y020554D01*
X012285Y020554D02*
X012285Y021154D01*
X011285Y021154D02*
X011285Y020554D01*
D11*
X009970Y018354D03*
X009970Y017854D03*
X009970Y017354D03*
X009970Y016854D03*
X009970Y016354D03*
X009300Y016354D03*
X009300Y016854D03*
X009300Y017354D03*
X009300Y017854D03*
X009300Y018354D03*
X007170Y009254D03*
X007170Y008754D03*
X006500Y008754D03*
X006500Y009254D03*
X006500Y007754D03*
X006500Y007254D03*
X007170Y007254D03*
X007170Y007754D03*
X007170Y006754D03*
X007170Y006254D03*
X007170Y005754D03*
X006500Y005754D03*
X006500Y006254D03*
X006500Y006754D03*
X014200Y003304D03*
X014870Y003304D03*
X017835Y003530D03*
X017835Y004199D03*
X019335Y006320D03*
X019335Y006989D03*
X018370Y007154D03*
X017700Y007154D03*
X016870Y007154D03*
X016200Y007154D03*
X021235Y004459D03*
X021235Y003790D03*
X024815Y007650D03*
X024815Y008319D03*
X025335Y009920D03*
X025335Y010589D03*
D12*
X011830Y016554D03*
X011240Y016554D03*
X011240Y017054D03*
X011830Y017054D03*
X011530Y017754D03*
X010940Y017754D03*
D13*
X005174Y018604D03*
X004386Y018604D03*
D14*
X003441Y020651D03*
X006119Y020651D03*
D15*
X020169Y011501D03*
X020366Y011501D03*
X020562Y011501D03*
X020759Y011501D03*
X020956Y011501D03*
X021153Y011501D03*
X021350Y011501D03*
X021547Y011501D03*
X021744Y011501D03*
X021940Y011501D03*
X022137Y011501D03*
X022334Y011501D03*
X022531Y011501D03*
X022728Y011501D03*
X022925Y011501D03*
X023121Y011501D03*
X023121Y006847D03*
X022925Y006847D03*
X022728Y006847D03*
X022531Y006847D03*
X022334Y006847D03*
X022137Y006847D03*
X021940Y006847D03*
X021744Y006847D03*
X021547Y006847D03*
X021350Y006847D03*
X021153Y006847D03*
X020956Y006847D03*
X020759Y006847D03*
X020562Y006847D03*
X020366Y006847D03*
X020169Y006847D03*
D16*
X019308Y007708D03*
X019308Y007905D03*
X019308Y008102D03*
X019308Y008299D03*
X019308Y008495D03*
X019308Y008692D03*
X019308Y008889D03*
X019308Y009086D03*
X019308Y009283D03*
X019308Y009480D03*
X019308Y009676D03*
X019308Y009873D03*
X019308Y010070D03*
X019308Y010267D03*
X019308Y010464D03*
X019308Y010661D03*
X023972Y010661D03*
X023972Y010464D03*
X023972Y010267D03*
X023972Y010070D03*
X023972Y009873D03*
X023972Y009676D03*
X023972Y009480D03*
X023972Y009283D03*
X023972Y009086D03*
X023972Y008889D03*
X023972Y008692D03*
X023972Y008495D03*
X023972Y008299D03*
X023972Y008102D03*
X023972Y007905D03*
X023972Y007708D03*
D17*
X008659Y008187D03*
X007911Y008187D03*
X008285Y007321D03*
X008285Y006587D03*
X007911Y005721D03*
X008659Y005721D03*
D18*
X018857Y004437D03*
X018857Y003532D03*
X020313Y003532D03*
X020313Y004437D03*
D19*
X005019Y008324D03*
X005019Y008639D03*
X005019Y008954D03*
X005019Y009269D03*
X005019Y009584D03*
D20*
X005019Y010726D03*
X002854Y010726D03*
X002854Y007183D03*
X005019Y007183D03*
D21*
X011808Y001969D03*
X011808Y001339D03*
X013462Y001339D03*
X013462Y001969D03*
X016208Y005689D03*
X016208Y006319D03*
X017862Y006319D03*
X017862Y005689D03*
D22*
X006279Y003414D03*
X003917Y003414D03*
X005098Y001564D03*
D23*
X002565Y002914D03*
X002565Y003914D03*
X010935Y019554D03*
X011935Y019554D03*
X012935Y019554D03*
X013935Y019554D03*
X014935Y019554D03*
X015935Y019554D03*
X016935Y019554D03*
X019935Y019554D03*
X020935Y019554D03*
X021935Y019554D03*
X022935Y019554D03*
X023935Y019554D03*
X024935Y019554D03*
X025935Y019554D03*
D24*
X004606Y005854D03*
X003464Y005854D03*
D25*
X007518Y017957D03*
X007715Y017957D03*
X007912Y017957D03*
X008109Y017957D03*
X008306Y017957D03*
X008306Y019119D03*
X008109Y019119D03*
X007912Y019119D03*
X007715Y019119D03*
X007518Y019119D03*
D26*
X007420Y018833D02*
X008404Y018833D01*
X008404Y018243D01*
X007420Y018243D01*
X007420Y018833D01*
X007420Y018807D02*
X008404Y018807D01*
X008404Y018758D02*
X007420Y018758D01*
X007400Y018735D02*
X007400Y018656D01*
X007400Y018617D01*
X007203Y018617D01*
X007203Y018735D01*
X007400Y018735D01*
X007400Y018710D02*
X007203Y018710D01*
X007203Y018661D02*
X007400Y018661D01*
X007420Y018661D02*
X008404Y018661D01*
X008424Y018661D02*
X008621Y018661D01*
X008621Y018656D02*
X008621Y018617D01*
X008424Y018617D01*
X008424Y018735D01*
X008621Y018735D01*
X008621Y018656D01*
X008621Y018710D02*
X008424Y018710D01*
X008404Y018710D02*
X007420Y018710D01*
X007420Y018612D02*
X008404Y018612D01*
X008404Y018564D02*
X007420Y018564D01*
X007420Y018515D02*
X008404Y018515D01*
X008404Y018467D02*
X007420Y018467D01*
X007400Y018459D02*
X007400Y018341D01*
X007203Y018341D01*
X007203Y018459D01*
X007400Y018459D01*
X007400Y018418D02*
X007203Y018418D01*
X007203Y018370D02*
X007400Y018370D01*
X007420Y018370D02*
X008404Y018370D01*
X008424Y018370D02*
X008621Y018370D01*
X008621Y018341D02*
X008621Y018459D01*
X008424Y018459D01*
X008424Y018341D01*
X008621Y018341D01*
X008621Y018418D02*
X008424Y018418D01*
X008404Y018418D02*
X007420Y018418D01*
X007420Y018321D02*
X008404Y018321D01*
X008404Y018273D02*
X007420Y018273D01*
D27*
X007470Y020154D03*
X008085Y020220D03*
X008085Y020889D03*
X006800Y020154D03*
X019350Y012024D03*
X020020Y012024D03*
X023135Y014620D03*
X023135Y015289D03*
X024143Y015273D03*
X024143Y014603D03*
X025940Y014954D03*
X026610Y014954D03*
X026213Y006221D03*
X025544Y006221D03*
X023370Y006154D03*
X022700Y006154D03*
X015385Y006289D03*
X015385Y005620D03*
X010570Y006654D03*
X009900Y006654D03*
X007170Y008254D03*
X006500Y008254D03*
X006500Y009754D03*
X007170Y009754D03*
X010935Y001989D03*
X010935Y001320D03*
D28*
X017935Y019554D03*
X026935Y019554D03*
D29*
X014935Y010554D03*
X013935Y010554D03*
X013935Y009554D03*
X014935Y009554D03*
X014935Y008554D03*
X013935Y008554D03*
X013935Y007554D03*
X014935Y007554D03*
X010933Y009550D03*
X009933Y009550D03*
X009933Y010550D03*
X010933Y010550D03*
X010933Y011550D03*
X009933Y011550D03*
X009933Y012550D03*
X010933Y012550D03*
D30*
X010496Y003754D03*
X009174Y003754D03*
X011874Y003754D03*
X013196Y003754D03*
X015774Y003754D03*
X017096Y003754D03*
D31*
X013609Y005261D03*
X012861Y005261D03*
X012009Y005261D03*
X011261Y005261D03*
X011635Y006087D03*
X013235Y006087D03*
D32*
X008144Y014162D03*
X008144Y016406D03*
D33*
X002967Y017036D03*
X002573Y011859D03*
D34*
X004089Y013694D03*
X004246Y014127D03*
X004089Y014560D03*
X004010Y014993D03*
X004089Y015426D03*
X004010Y015859D03*
X004089Y016292D03*
X004089Y016725D03*
D35*
X002232Y001103D02*
X002252Y001032D01*
X002285Y000965D01*
X002328Y000905D01*
X002381Y000853D01*
X002442Y000811D01*
X002510Y000780D01*
X002581Y000761D01*
X002655Y000754D01*
X004619Y000754D01*
X004553Y000796D01*
X004470Y000862D01*
X004396Y000937D01*
X004330Y001019D01*
X004274Y001109D01*
X004228Y001204D01*
X004193Y001303D01*
X004170Y001406D01*
X004158Y001511D01*
X004158Y001514D01*
X005048Y001514D01*
X005048Y001614D01*
X005048Y002504D01*
X005045Y002504D01*
X004940Y002492D01*
X004837Y002469D01*
X004737Y002434D01*
X004642Y002388D01*
X004553Y002332D01*
X004470Y002266D01*
X004396Y002191D01*
X004330Y002109D01*
X004274Y002019D01*
X004228Y001924D01*
X004193Y001825D01*
X004170Y001722D01*
X004158Y001617D01*
X004158Y001614D01*
X005048Y001614D01*
X005148Y001614D01*
X006038Y001614D01*
X006038Y001617D01*
X006026Y001722D01*
X006002Y001825D01*
X005967Y001924D01*
X005922Y002019D01*
X005866Y002109D01*
X005800Y002191D01*
X005725Y002266D01*
X005643Y002332D01*
X005553Y002388D01*
X005458Y002434D01*
X005358Y002469D01*
X005255Y002492D01*
X005151Y002504D01*
X005148Y002504D01*
X005148Y001614D01*
X005148Y001514D01*
X006038Y001514D01*
X006038Y001511D01*
X006026Y001406D01*
X006002Y001303D01*
X005967Y001204D01*
X005922Y001109D01*
X005866Y001019D01*
X005800Y000937D01*
X005725Y000862D01*
X005643Y000796D01*
X005576Y000754D01*
X009145Y000754D01*
X008954Y000834D01*
X008715Y001073D01*
X008585Y001385D01*
X008585Y001723D01*
X008715Y002036D01*
X008954Y002275D01*
X009266Y002404D01*
X009604Y002404D01*
X009917Y002275D01*
X010156Y002036D01*
X010285Y001723D01*
X010285Y001385D01*
X010156Y001073D01*
X009917Y000834D01*
X009725Y000754D01*
X014531Y000754D01*
X014485Y000865D01*
X014485Y001149D01*
X013809Y001149D01*
X013809Y001080D01*
X013721Y000993D01*
X013203Y000993D01*
X013115Y001080D01*
X013115Y001598D01*
X013171Y001654D01*
X013115Y001710D01*
X013115Y002228D01*
X013203Y002316D01*
X013721Y002316D01*
X013809Y002228D01*
X013809Y001710D01*
X013753Y001654D01*
X013809Y001598D01*
X013809Y001529D01*
X014485Y001529D01*
X014485Y001644D01*
X014554Y001809D01*
X014680Y001936D01*
X014745Y001963D01*
X014745Y002938D01*
X014611Y002938D01*
X014535Y003013D01*
X014459Y002938D01*
X014369Y002938D01*
X014385Y002921D01*
X014430Y002813D01*
X014430Y002696D01*
X014385Y002587D01*
X014302Y002504D01*
X014194Y002459D01*
X014076Y002459D01*
X013968Y002504D01*
X013885Y002587D01*
X013840Y002696D01*
X013840Y002813D01*
X013885Y002921D01*
X013921Y002958D01*
X013854Y003026D01*
X013854Y003583D01*
X013941Y003671D01*
X014459Y003671D01*
X014535Y003595D01*
X014611Y003671D01*
X014645Y003671D01*
X014645Y004127D01*
X014585Y004187D01*
X014540Y004296D01*
X014540Y004413D01*
X014585Y004521D01*
X014668Y004604D01*
X014776Y004649D01*
X014894Y004649D01*
X014907Y004644D01*
X014600Y004951D01*
X013846Y004951D01*
X013829Y004933D01*
X013389Y004933D01*
X013302Y005021D01*
X013302Y005193D01*
X013299Y005199D01*
X013299Y005322D01*
X013302Y005328D01*
X013302Y005500D01*
X013389Y005588D01*
X013829Y005588D01*
X013846Y005571D01*
X014790Y005571D01*
X014904Y005523D01*
X014992Y005436D01*
X014992Y005436D01*
X015019Y005409D01*
X015019Y005879D01*
X015094Y005954D01*
X015023Y006025D01*
X015002Y006004D01*
X014894Y005959D01*
X014776Y005959D01*
X014668Y006004D01*
X014585Y006087D01*
X014540Y006196D01*
X014540Y006313D01*
X014585Y006421D01*
X014668Y006504D01*
X014776Y006549D01*
X014894Y006549D01*
X015002Y006504D01*
X015019Y006488D01*
X015019Y006548D01*
X015106Y006636D01*
X015664Y006636D01*
X015752Y006548D01*
X015752Y006030D01*
X015676Y005954D01*
X015751Y005879D01*
X015861Y005879D01*
X015861Y005948D01*
X015917Y006004D01*
X015861Y006060D01*
X015861Y006578D01*
X015949Y006666D01*
X016467Y006666D01*
X016555Y006578D01*
X016555Y006060D01*
X016499Y006004D01*
X016555Y005948D01*
X016555Y005430D01*
X016467Y005343D01*
X015949Y005343D01*
X015861Y005430D01*
X015861Y005499D01*
X015752Y005499D01*
X015752Y005361D01*
X015664Y005273D01*
X015155Y005273D01*
X015911Y004517D01*
X015911Y004517D01*
X015998Y004430D01*
X016045Y004316D01*
X016045Y004101D01*
X016236Y004101D01*
X016324Y004013D01*
X016324Y003495D01*
X016236Y003407D01*
X015312Y003407D01*
X015224Y003495D01*
X015224Y004013D01*
X015312Y004101D01*
X015425Y004101D01*
X015425Y004126D01*
X015124Y004427D01*
X015130Y004413D01*
X015130Y004296D01*
X015085Y004187D01*
X015025Y004127D01*
X015025Y003671D01*
X015129Y003671D01*
X015217Y003583D01*
X015217Y003026D01*
X015129Y002938D01*
X015125Y002938D01*
X015125Y001963D01*
X015190Y001936D01*
X015317Y001809D01*
X015385Y001644D01*
X015385Y000865D01*
X015339Y000754D01*
X015531Y000754D01*
X015485Y000865D01*
X015485Y001644D01*
X015554Y001809D01*
X015680Y001936D01*
X015846Y002004D01*
X016025Y002004D01*
X016190Y001936D01*
X016317Y001809D01*
X016385Y001644D01*
X016385Y000865D01*
X016339Y000754D01*
X016531Y000754D01*
X016485Y000865D01*
X016485Y001644D01*
X016554Y001809D01*
X016680Y001936D01*
X016846Y002004D01*
X017025Y002004D01*
X017190Y001936D01*
X017317Y001809D01*
X017385Y001644D01*
X017385Y000865D01*
X017339Y000754D01*
X017532Y000754D01*
X017518Y000782D01*
X017496Y000849D01*
X017485Y000919D01*
X017485Y001504D01*
X017885Y001504D01*
X017885Y001604D01*
X017487Y001604D01*
X017496Y001660D01*
X017518Y001727D01*
X017550Y001790D01*
X017592Y001847D01*
X017642Y001898D01*
X017699Y001939D01*
X017762Y001971D01*
X017830Y001993D01*
X017885Y002002D01*
X017885Y001604D01*
X017985Y001604D01*
X018383Y001604D01*
X018374Y001660D01*
X018352Y001727D01*
X018320Y001790D01*
X018278Y001847D01*
X018228Y001898D01*
X018171Y001939D01*
X018108Y001971D01*
X018040Y001993D01*
X017985Y002002D01*
X017985Y001604D01*
X017985Y001504D01*
X018385Y001504D01*
X018385Y000919D01*
X018374Y000849D01*
X018352Y000782D01*
X018338Y000754D01*
X018532Y000754D01*
X018518Y000782D01*
X018496Y000849D01*
X018485Y000919D01*
X018485Y001504D01*
X018885Y001504D01*
X018885Y001604D01*
X018487Y001604D01*
X018496Y001660D01*
X018518Y001727D01*
X018550Y001790D01*
X018592Y001847D01*
X018642Y001898D01*
X018699Y001939D01*
X018762Y001971D01*
X018830Y001993D01*
X018885Y002002D01*
X018885Y001604D01*
X018985Y001604D01*
X019383Y001604D01*
X019374Y001660D01*
X019352Y001727D01*
X019320Y001790D01*
X019278Y001847D01*
X019228Y001898D01*
X019171Y001939D01*
X019108Y001971D01*
X019040Y001993D01*
X018985Y002002D01*
X018985Y001604D01*
X018985Y001504D01*
X019385Y001504D01*
X019385Y000919D01*
X019374Y000849D01*
X019352Y000782D01*
X019338Y000754D01*
X019531Y000754D01*
X019485Y000865D01*
X019485Y001644D01*
X019554Y001809D01*
X019680Y001936D01*
X019846Y002004D01*
X020025Y002004D01*
X020190Y001936D01*
X020317Y001809D01*
X020385Y001644D01*
X020385Y000865D01*
X020339Y000754D01*
X021531Y000754D01*
X021485Y000865D01*
X021485Y001644D01*
X021554Y001809D01*
X021680Y001936D01*
X021745Y001963D01*
X021745Y002804D01*
X018185Y002804D01*
X018185Y003054D01*
X021635Y003054D01*
X021635Y004454D01*
X021582Y004507D01*
X021582Y004180D01*
X021526Y004124D01*
X021552Y004098D01*
X021572Y004064D01*
X021582Y004026D01*
X021582Y003838D01*
X021284Y003838D01*
X021284Y003741D01*
X021582Y003741D01*
X021582Y003553D01*
X021572Y003515D01*
X021552Y003481D01*
X021524Y003453D01*
X021490Y003433D01*
X021452Y003423D01*
X021284Y003423D01*
X021284Y003741D01*
X021187Y003741D01*
X021187Y003423D01*
X021019Y003423D01*
X020980Y003433D01*
X020946Y003453D01*
X020918Y003481D01*
X020899Y003515D01*
X020888Y003553D01*
X020888Y003741D01*
X021186Y003741D01*
X021186Y003838D01*
X020888Y003838D01*
X020888Y004026D01*
X020899Y004064D01*
X020918Y004098D01*
X020944Y004124D01*
X020888Y004180D01*
X020888Y004269D01*
X020837Y004269D01*
X020837Y004158D01*
X020750Y004071D01*
X019877Y004071D01*
X019825Y004123D01*
X019825Y003846D01*
X019877Y003898D01*
X020750Y003898D01*
X020837Y003810D01*
X020837Y003253D01*
X020750Y003165D01*
X019877Y003165D01*
X019789Y003253D01*
X019789Y003640D01*
X019625Y003476D01*
X019514Y003364D01*
X019381Y003364D01*
X019381Y003253D01*
X019293Y003165D01*
X018421Y003165D01*
X018333Y003253D01*
X018333Y003342D01*
X018182Y003342D01*
X018182Y003251D01*
X018094Y003163D01*
X017576Y003163D01*
X017488Y003251D01*
X017488Y003407D01*
X017145Y003407D01*
X017145Y003706D01*
X017048Y003706D01*
X017048Y003407D01*
X016676Y003407D01*
X016638Y003418D01*
X016604Y003437D01*
X016576Y003465D01*
X016556Y003500D01*
X016546Y003538D01*
X016546Y003706D01*
X017047Y003706D01*
X017047Y003803D01*
X016546Y003803D01*
X016546Y003971D01*
X016556Y004009D01*
X016576Y004043D01*
X016604Y004071D01*
X016638Y004091D01*
X016676Y004101D01*
X017048Y004101D01*
X017048Y003803D01*
X017145Y003803D01*
X017145Y004101D01*
X017488Y004101D01*
X017488Y004150D01*
X017786Y004150D01*
X017786Y004247D01*
X017488Y004247D01*
X017488Y004435D01*
X017499Y004473D01*
X017518Y004508D01*
X017546Y004536D01*
X017580Y004555D01*
X017619Y004565D01*
X017787Y004565D01*
X017787Y004248D01*
X017884Y004248D01*
X017884Y004565D01*
X018052Y004565D01*
X018090Y004555D01*
X018124Y004536D01*
X018152Y004508D01*
X018172Y004473D01*
X018182Y004435D01*
X018182Y004247D01*
X017884Y004247D01*
X017884Y004150D01*
X018182Y004150D01*
X018182Y003963D01*
X018172Y003925D01*
X018152Y003890D01*
X018126Y003864D01*
X018182Y003808D01*
X018182Y003722D01*
X018333Y003722D01*
X018333Y003810D01*
X018421Y003898D01*
X019293Y003898D01*
X019381Y003810D01*
X019381Y003769D01*
X019445Y003833D01*
X019445Y004833D01*
X019556Y004944D01*
X020476Y005864D01*
X019714Y005864D01*
X019130Y005281D01*
X019130Y005196D01*
X019085Y005087D01*
X019002Y005004D01*
X018894Y004959D01*
X018776Y004959D01*
X018668Y005004D01*
X018585Y005087D01*
X018540Y005196D01*
X018540Y005313D01*
X018585Y005421D01*
X018668Y005504D01*
X018776Y005549D01*
X018861Y005549D01*
X019265Y005953D01*
X019119Y005953D01*
X019080Y005963D01*
X019046Y005983D01*
X019018Y006011D01*
X018999Y006045D01*
X018988Y006083D01*
X018988Y006271D01*
X019286Y006271D01*
X019286Y006368D01*
X018988Y006368D01*
X018988Y006556D01*
X018999Y006594D01*
X019018Y006628D01*
X019044Y006654D01*
X018988Y006710D01*
X018988Y006799D01*
X018894Y006759D01*
X018776Y006759D01*
X018668Y006804D01*
X018657Y006816D01*
X018629Y006788D01*
X018111Y006788D01*
X018035Y006863D01*
X018025Y006853D01*
X018025Y006666D01*
X018121Y006666D01*
X018209Y006578D01*
X018209Y006060D01*
X018153Y006004D01*
X018209Y005948D01*
X018209Y005430D01*
X018121Y005343D01*
X017603Y005343D01*
X017515Y005430D01*
X017515Y005948D01*
X017571Y006004D01*
X017515Y006060D01*
X017515Y006578D01*
X017603Y006666D01*
X017645Y006666D01*
X017645Y006788D01*
X017441Y006788D01*
X017354Y006876D01*
X017354Y006964D01*
X017217Y006964D01*
X017217Y006876D01*
X017129Y006788D01*
X016611Y006788D01*
X016530Y006868D01*
X016517Y006846D01*
X016489Y006818D01*
X016455Y006798D01*
X016417Y006788D01*
X016249Y006788D01*
X016249Y007106D01*
X016152Y007106D01*
X015854Y007106D01*
X015854Y006918D01*
X015864Y006880D01*
X015884Y006846D01*
X015911Y006818D01*
X015946Y006798D01*
X015984Y006788D01*
X016152Y006788D01*
X016152Y007106D01*
X016152Y007203D01*
X015854Y007203D01*
X015854Y007364D01*
X015381Y007364D01*
X015121Y007104D01*
X014749Y007104D01*
X014485Y007368D01*
X014485Y007741D01*
X014609Y007864D01*
X014356Y007864D01*
X014245Y007976D01*
X014116Y008104D01*
X013749Y008104D01*
X013485Y008368D01*
X013485Y008741D01*
X013749Y009004D01*
X014121Y009004D01*
X014385Y008741D01*
X014385Y008373D01*
X014514Y008244D01*
X014609Y008244D01*
X014485Y008368D01*
X014485Y008741D01*
X014749Y009004D01*
X015116Y009004D01*
X015476Y009364D01*
X015381Y009364D01*
X015121Y009104D01*
X014749Y009104D01*
X014485Y009368D01*
X014485Y009741D01*
X014749Y010004D01*
X015121Y010004D01*
X015381Y009744D01*
X016756Y009744D01*
X016840Y009828D01*
X016840Y009913D01*
X016885Y010021D01*
X016968Y010104D01*
X017073Y010148D01*
X016956Y010264D01*
X016845Y010376D01*
X016845Y011827D01*
X016785Y011887D01*
X016740Y011996D01*
X016740Y012113D01*
X016785Y012221D01*
X016868Y012304D01*
X016976Y012349D01*
X017094Y012349D01*
X017182Y012313D01*
X017185Y012321D01*
X017268Y012404D01*
X017376Y012449D01*
X017494Y012449D01*
X017602Y012404D01*
X017685Y012321D01*
X017730Y012213D01*
X017730Y012096D01*
X017685Y011987D01*
X017627Y011929D01*
X017676Y011949D01*
X017794Y011949D01*
X017902Y011904D01*
X017985Y011821D01*
X018030Y011713D01*
X018030Y011596D01*
X017985Y011487D01*
X017925Y011427D01*
X017925Y011361D01*
X017968Y011404D01*
X018076Y011449D01*
X018194Y011449D01*
X018302Y011404D01*
X018385Y011321D01*
X018430Y011213D01*
X018430Y011096D01*
X018385Y010987D01*
X018325Y010927D01*
X018325Y010733D01*
X018342Y010716D01*
X018385Y010821D01*
X018468Y010904D01*
X018576Y010949D01*
X018694Y010949D01*
X018802Y010904D01*
X018885Y010821D01*
X018922Y010733D01*
X018922Y010782D01*
X019010Y010870D01*
X019451Y010870D01*
X018561Y011759D01*
X018476Y011759D01*
X018368Y011804D01*
X018285Y011887D01*
X018240Y011996D01*
X018240Y012113D01*
X018285Y012221D01*
X018368Y012304D01*
X018476Y012349D01*
X018594Y012349D01*
X018702Y012304D01*
X018785Y012221D01*
X018830Y012113D01*
X018830Y012028D01*
X018984Y011874D01*
X018984Y011976D01*
X019302Y011976D01*
X019302Y012073D01*
X019302Y012371D01*
X019114Y012371D01*
X019076Y012361D01*
X019042Y012341D01*
X019014Y012313D01*
X018994Y012279D01*
X018984Y012241D01*
X018984Y012073D01*
X019302Y012073D01*
X019399Y012073D01*
X019399Y012371D01*
X019587Y012371D01*
X019625Y012361D01*
X019659Y012341D01*
X019685Y012315D01*
X019741Y012371D01*
X020150Y012371D01*
X020056Y012464D01*
X014614Y012464D01*
X013225Y011076D01*
X013225Y009933D01*
X013414Y009744D01*
X013489Y009744D01*
X013749Y010004D01*
X014121Y010004D01*
X014385Y009741D01*
X014385Y009368D01*
X014121Y009104D01*
X013749Y009104D01*
X013489Y009364D01*
X013256Y009364D01*
X013145Y009476D01*
X012845Y009776D01*
X012845Y009933D01*
X012845Y010996D01*
X012625Y010776D01*
X012625Y009676D01*
X012514Y009564D01*
X011414Y008464D01*
X011256Y008464D01*
X009456Y008464D01*
X009356Y008564D01*
X008967Y008564D01*
X009006Y008525D01*
X009006Y007850D01*
X008918Y007762D01*
X008411Y007762D01*
X008396Y007747D01*
X008544Y007747D01*
X008632Y007659D01*
X008632Y007484D01*
X008648Y007484D01*
X008668Y007504D01*
X008776Y007549D01*
X008894Y007549D01*
X009002Y007504D01*
X009085Y007421D01*
X009130Y007313D01*
X009130Y007196D01*
X009085Y007087D01*
X009002Y007004D01*
X008894Y006959D01*
X008776Y006959D01*
X008668Y007004D01*
X008648Y007024D01*
X008632Y007024D01*
X008632Y006984D01*
X008603Y006954D01*
X008632Y006925D01*
X008632Y006250D01*
X008544Y006162D01*
X008026Y006162D01*
X007938Y006250D01*
X007938Y006564D01*
X007517Y006564D01*
X007517Y006533D01*
X007517Y006033D01*
X007517Y005944D01*
X007564Y005944D01*
X007564Y006059D01*
X007652Y006147D01*
X008170Y006147D01*
X008258Y006059D01*
X008258Y005384D01*
X008170Y005296D01*
X007652Y005296D01*
X007564Y005384D01*
X007564Y005564D01*
X007517Y005564D01*
X007517Y005476D01*
X007429Y005388D01*
X006911Y005388D01*
X006835Y005463D01*
X006759Y005388D01*
X006725Y005388D01*
X006725Y005281D01*
X006785Y005221D01*
X006830Y005113D01*
X006830Y004996D01*
X006785Y004887D01*
X006702Y004804D01*
X006594Y004759D01*
X006476Y004759D01*
X006368Y004804D01*
X006285Y004887D01*
X006240Y004996D01*
X006240Y005113D01*
X006285Y005221D01*
X006345Y005281D01*
X006345Y005388D01*
X006241Y005388D01*
X006154Y005476D01*
X006154Y006033D01*
X006154Y006124D01*
X005822Y006124D01*
X005802Y006104D01*
X005694Y006059D01*
X005668Y006059D01*
X005698Y006030D01*
X005745Y005916D01*
X005745Y005793D01*
X005698Y005679D01*
X005611Y005592D01*
X005497Y005544D01*
X005040Y005544D01*
X004963Y005468D01*
X004249Y005468D01*
X004161Y005556D01*
X004161Y006153D01*
X004249Y006241D01*
X004963Y006241D01*
X005040Y006164D01*
X005408Y006164D01*
X005385Y006187D01*
X005340Y006296D01*
X005340Y006413D01*
X005385Y006521D01*
X005468Y006604D01*
X005552Y006639D01*
X004465Y006639D01*
X004377Y006727D01*
X004377Y007639D01*
X004465Y007726D01*
X005574Y007726D01*
X005661Y007639D01*
X005661Y006904D01*
X005672Y006930D01*
X005759Y007017D01*
X005873Y007064D01*
X006154Y007064D01*
X006154Y007206D01*
X006452Y007206D01*
X006452Y007303D01*
X006154Y007303D01*
X006154Y007491D01*
X006154Y007983D01*
X006144Y008000D01*
X006134Y008038D01*
X006134Y008206D01*
X006452Y008206D01*
X006452Y008303D01*
X006134Y008303D01*
X006134Y008471D01*
X006144Y008509D01*
X006154Y008525D01*
X006154Y008564D01*
X006056Y008564D01*
X005945Y008676D01*
X005945Y008676D01*
X005856Y008764D01*
X005661Y008764D01*
X005661Y008479D01*
X005654Y008471D01*
X005661Y008443D01*
X005661Y008325D01*
X005020Y008325D01*
X005020Y008324D01*
X005661Y008324D01*
X005661Y008206D01*
X005651Y008168D01*
X005631Y008134D01*
X005604Y008106D01*
X005569Y008086D01*
X005531Y008076D01*
X005020Y008076D01*
X005020Y008324D01*
X005019Y008324D01*
X005019Y008076D01*
X004507Y008076D01*
X004469Y008086D01*
X004435Y008106D01*
X004412Y008129D01*
X004412Y008013D01*
X004355Y007875D01*
X004249Y007768D01*
X004110Y007711D01*
X003960Y007711D01*
X003821Y007768D01*
X003715Y007875D01*
X003658Y008013D01*
X003658Y008163D01*
X003715Y008302D01*
X003821Y008408D01*
X003960Y008465D01*
X004110Y008465D01*
X004249Y008408D01*
X004355Y008302D01*
X004377Y008248D01*
X004377Y008324D01*
X005019Y008324D01*
X005019Y008325D01*
X004377Y008325D01*
X004377Y008443D01*
X004385Y008471D01*
X004377Y008479D01*
X004377Y008794D01*
X004377Y009109D01*
X004377Y009430D01*
X004377Y009661D01*
X004355Y009607D01*
X004249Y009501D01*
X004110Y009443D01*
X003960Y009443D01*
X003821Y009501D01*
X003715Y009607D01*
X003658Y009745D01*
X003658Y009895D01*
X003715Y010034D01*
X003821Y010140D01*
X003960Y010198D01*
X004110Y010198D01*
X004249Y010140D01*
X004355Y010034D01*
X004412Y009895D01*
X004412Y009780D01*
X004465Y009833D01*
X004666Y009833D01*
X004640Y009896D01*
X004640Y010013D01*
X004685Y010121D01*
X004746Y010182D01*
X004465Y010182D01*
X004377Y010270D01*
X004377Y011182D01*
X004465Y011270D01*
X005574Y011270D01*
X005661Y011182D01*
X005661Y010270D01*
X005574Y010182D01*
X005124Y010182D01*
X005185Y010121D01*
X005230Y010013D01*
X005230Y009896D01*
X005204Y009833D01*
X005574Y009833D01*
X005661Y009745D01*
X005661Y009459D01*
X006154Y009459D01*
X006154Y009483D01*
X006144Y009500D01*
X006134Y009538D01*
X006134Y009706D01*
X006452Y009706D01*
X006452Y009803D01*
X006452Y010101D01*
X006264Y010101D01*
X006226Y010091D01*
X006192Y010071D01*
X006164Y010043D01*
X006144Y010009D01*
X006134Y009971D01*
X006134Y009803D01*
X006452Y009803D01*
X006549Y009803D01*
X006549Y010101D01*
X006737Y010101D01*
X006775Y010091D01*
X006809Y010071D01*
X006835Y010045D01*
X006891Y010101D01*
X007448Y010101D01*
X007536Y010013D01*
X007536Y009944D01*
X008656Y009944D01*
X008814Y009944D01*
X009714Y009044D01*
X011156Y009044D01*
X012045Y009933D01*
X012045Y010876D01*
X012045Y011033D01*
X014256Y013244D01*
X014414Y013244D01*
X020414Y013244D01*
X020525Y013133D01*
X020963Y012695D01*
X020963Y012958D01*
X020156Y013764D01*
X020045Y013876D01*
X020045Y016276D01*
X017856Y018464D01*
X017745Y018576D01*
X017745Y019104D01*
X017573Y019104D01*
X017485Y019192D01*
X017485Y019916D01*
X017573Y020004D01*
X018095Y020004D01*
X018095Y020146D01*
X018030Y020173D01*
X017904Y020299D01*
X017835Y020465D01*
X017835Y021244D01*
X017902Y021404D01*
X017669Y021404D01*
X017735Y021244D01*
X017735Y020465D01*
X017667Y020299D01*
X017540Y020173D01*
X017475Y020146D01*
X017475Y019983D01*
X017475Y019826D01*
X017358Y019709D01*
X017385Y019644D01*
X017385Y019465D01*
X017317Y019299D01*
X017190Y019173D01*
X017125Y019146D01*
X017125Y015533D01*
X020045Y015533D01*
X020045Y015631D02*
X017125Y015631D01*
X017125Y015533D02*
X017125Y015376D01*
X016330Y014581D01*
X016330Y014518D01*
X016556Y014744D01*
X016714Y014744D01*
X019108Y014744D01*
X019168Y014804D01*
X019276Y014849D01*
X019394Y014849D01*
X019502Y014804D01*
X019585Y014721D01*
X019630Y014613D01*
X019630Y014496D01*
X019585Y014387D01*
X019502Y014304D01*
X019585Y014221D01*
X019630Y014113D01*
X019630Y013996D01*
X019585Y013887D01*
X019502Y013804D01*
X019394Y013759D01*
X019276Y013759D01*
X019168Y013804D01*
X019108Y013864D01*
X015714Y013864D01*
X015556Y013864D01*
X015256Y014164D01*
X012142Y014164D01*
X012185Y014121D01*
X012230Y014013D01*
X012230Y013896D01*
X012185Y013787D01*
X012102Y013704D01*
X011994Y013659D01*
X011876Y013659D01*
X011768Y013704D01*
X011685Y013787D01*
X011640Y013896D01*
X011640Y013981D01*
X010556Y015064D01*
X006956Y015064D01*
X006845Y015176D01*
X006785Y015236D01*
X005071Y015236D01*
X005085Y015221D01*
X005130Y015113D01*
X005130Y014996D01*
X005085Y014887D01*
X005002Y014804D01*
X004894Y014759D01*
X004776Y014759D01*
X004671Y014803D01*
X004510Y014803D01*
X004534Y014779D01*
X004534Y014750D01*
X007062Y014750D01*
X007245Y014933D01*
X007356Y015044D01*
X010256Y015044D01*
X010414Y015044D01*
X011209Y014249D01*
X011294Y014249D01*
X011402Y014204D01*
X011485Y014121D01*
X011530Y014013D01*
X011530Y013896D01*
X011485Y013787D01*
X011402Y013704D01*
X011294Y013659D01*
X011176Y013659D01*
X011068Y013704D01*
X010985Y013787D01*
X010940Y013896D01*
X010940Y013981D01*
X010256Y014664D01*
X008484Y014664D01*
X008569Y014579D01*
X008569Y013857D01*
X008740Y014028D01*
X008740Y014113D01*
X008785Y014221D01*
X008868Y014304D01*
X008976Y014349D01*
X009094Y014349D01*
X009202Y014304D01*
X009285Y014221D01*
X009330Y014113D01*
X009330Y013996D01*
X009285Y013887D01*
X009202Y013804D01*
X009094Y013759D01*
X009009Y013759D01*
X008694Y013444D01*
X008856Y013444D01*
X009256Y013844D01*
X009414Y013844D01*
X010208Y013844D01*
X010268Y013904D01*
X010376Y013949D01*
X010494Y013949D01*
X010602Y013904D01*
X010685Y013821D01*
X010730Y013713D01*
X010730Y013596D01*
X010685Y013487D01*
X010602Y013404D01*
X010494Y013359D01*
X010376Y013359D01*
X010268Y013404D01*
X010208Y013464D01*
X009414Y013464D01*
X009014Y013064D01*
X008856Y013064D01*
X007656Y013064D01*
X007545Y013176D01*
X007217Y013504D01*
X004534Y013504D01*
X004534Y013474D01*
X004446Y013386D01*
X003731Y013386D01*
X003643Y013474D01*
X003643Y013913D01*
X003731Y014001D01*
X003801Y014001D01*
X003801Y014252D01*
X002192Y014252D01*
X002192Y014350D02*
X003643Y014350D01*
X003643Y014340D02*
X003731Y014252D01*
X003801Y014252D01*
X003801Y014153D02*
X002193Y014153D01*
X002193Y014055D02*
X003801Y014055D01*
X003686Y013956D02*
X002193Y013956D01*
X002193Y013858D02*
X003643Y013858D01*
X003643Y013759D02*
X002194Y013759D01*
X002194Y013661D02*
X003643Y013661D01*
X003643Y013562D02*
X002194Y013562D01*
X002194Y013464D02*
X003654Y013464D01*
X004523Y013464D02*
X007257Y013464D01*
X007356Y013365D02*
X002195Y013365D01*
X002195Y013266D02*
X007454Y013266D01*
X007553Y013168D02*
X002195Y013168D01*
X002195Y013069D02*
X007651Y013069D01*
X007968Y012304D02*
X007885Y012221D01*
X007840Y012113D01*
X007840Y011996D01*
X007885Y011887D01*
X007968Y011804D01*
X008076Y011759D01*
X008194Y011759D01*
X008302Y011804D01*
X008385Y011887D01*
X008430Y011996D01*
X008430Y012113D01*
X008385Y012221D01*
X008302Y012304D01*
X008194Y012349D01*
X008076Y012349D01*
X007968Y012304D01*
X007945Y012281D02*
X002980Y012281D01*
X002967Y012285D02*
X002623Y012285D01*
X002623Y011909D01*
X003097Y011909D01*
X003097Y012154D01*
X003087Y012193D01*
X003067Y012227D01*
X003039Y012255D01*
X003005Y012274D01*
X002967Y012285D01*
X003089Y012182D02*
X007869Y012182D01*
X007840Y012084D02*
X003097Y012084D01*
X003097Y011985D02*
X007844Y011985D01*
X007885Y011887D02*
X002623Y011887D01*
X002623Y011909D02*
X002623Y011809D01*
X003097Y011809D01*
X003097Y011564D01*
X003087Y011526D01*
X003067Y011491D01*
X003039Y011463D01*
X003005Y011444D01*
X002967Y011433D01*
X002623Y011433D01*
X002623Y011809D01*
X002523Y011809D01*
X002523Y011433D01*
X002199Y011433D01*
X002217Y004202D01*
X002310Y004296D01*
X002476Y004364D01*
X002577Y004364D01*
X003154Y004942D01*
X003154Y005468D01*
X003107Y005468D01*
X003019Y005556D01*
X003019Y006153D01*
X003107Y006241D01*
X003822Y006241D01*
X003909Y006153D01*
X003909Y005556D01*
X003822Y005468D01*
X003774Y005468D01*
X003774Y005124D01*
X004817Y005124D01*
X004940Y005124D01*
X005054Y005077D01*
X005869Y004262D01*
X006092Y004354D01*
X006466Y004354D01*
X006811Y004211D01*
X007076Y003947D01*
X007219Y003601D01*
X007219Y003227D01*
X007076Y002882D01*
X006811Y002617D01*
X006466Y002474D01*
X006092Y002474D01*
X005746Y002617D01*
X005482Y002882D01*
X005339Y003227D01*
X005339Y003601D01*
X005431Y003824D01*
X004750Y004504D01*
X003594Y004504D01*
X003015Y003926D01*
X003015Y003825D01*
X002947Y003659D01*
X002820Y003533D01*
X002655Y003464D01*
X002476Y003464D01*
X002310Y003533D01*
X002218Y003625D01*
X002219Y003204D01*
X002222Y003207D01*
X002272Y003258D01*
X002329Y003299D01*
X002392Y003331D01*
X002460Y003353D01*
X002515Y003362D01*
X002515Y002964D01*
X002615Y002964D01*
X003013Y002964D01*
X003004Y003020D01*
X002982Y003087D01*
X002950Y003150D01*
X002908Y003207D01*
X002858Y003258D01*
X002801Y003299D01*
X002738Y003331D01*
X002670Y003353D01*
X002615Y003362D01*
X002615Y002964D01*
X002615Y002864D01*
X002615Y002467D01*
X002670Y002475D01*
X002738Y002497D01*
X002801Y002529D01*
X002858Y002571D01*
X002908Y002621D01*
X002950Y002678D01*
X002982Y002742D01*
X003004Y002809D01*
X003013Y002864D01*
X002615Y002864D01*
X002515Y002864D01*
X002515Y002467D01*
X002460Y002475D01*
X002392Y002497D01*
X002329Y002529D01*
X002272Y002571D01*
X002222Y002621D01*
X002221Y002623D01*
X002224Y001177D01*
X002232Y001103D01*
X002227Y001146D02*
X004256Y001146D01*
X004214Y001244D02*
X002224Y001244D01*
X002224Y001343D02*
X004184Y001343D01*
X004166Y001441D02*
X002223Y001441D01*
X002223Y001540D02*
X005048Y001540D01*
X005048Y001638D02*
X005148Y001638D01*
X005148Y001540D02*
X008585Y001540D01*
X008585Y001638D02*
X006035Y001638D01*
X006022Y001737D02*
X008591Y001737D01*
X008632Y001835D02*
X005999Y001835D01*
X005963Y001934D02*
X008672Y001934D01*
X008713Y002032D02*
X005913Y002032D01*
X005848Y002131D02*
X008810Y002131D01*
X008908Y002230D02*
X005761Y002230D01*
X005647Y002328D02*
X009082Y002328D01*
X009788Y002328D02*
X010649Y002328D01*
X010656Y002336D02*
X010569Y002248D01*
X010569Y001730D01*
X010649Y001650D01*
X010626Y001637D01*
X010599Y001609D01*
X010579Y001574D01*
X010569Y001536D01*
X010569Y001368D01*
X010886Y001368D01*
X010886Y001271D01*
X010569Y001271D01*
X010569Y001103D01*
X010579Y001065D01*
X010599Y001031D01*
X010626Y001003D01*
X010661Y000983D01*
X010699Y000973D01*
X010887Y000973D01*
X010887Y001271D01*
X010984Y001271D01*
X010984Y001368D01*
X011302Y001368D01*
X011302Y001536D01*
X011291Y001574D01*
X011272Y001609D01*
X011244Y001637D01*
X011221Y001650D01*
X011302Y001730D01*
X011302Y001769D01*
X011461Y001769D01*
X011461Y001710D01*
X011517Y001654D01*
X011461Y001598D01*
X011461Y001080D01*
X011549Y000993D01*
X012067Y000993D01*
X012155Y001080D01*
X012155Y001598D01*
X012099Y001654D01*
X012155Y001710D01*
X012155Y002228D01*
X012067Y002316D01*
X011549Y002316D01*
X011461Y002228D01*
X011461Y002169D01*
X011302Y002169D01*
X011302Y002248D01*
X011214Y002336D01*
X010656Y002336D01*
X010569Y002230D02*
X009962Y002230D01*
X010060Y002131D02*
X010569Y002131D01*
X010569Y002032D02*
X010157Y002032D01*
X010198Y001934D02*
X010569Y001934D01*
X010569Y001835D02*
X010239Y001835D01*
X010280Y001737D02*
X010569Y001737D01*
X010630Y001638D02*
X010285Y001638D01*
X010285Y001540D02*
X010570Y001540D01*
X010569Y001441D02*
X010285Y001441D01*
X010267Y001343D02*
X010886Y001343D01*
X010984Y001343D02*
X011461Y001343D01*
X011461Y001441D02*
X011302Y001441D01*
X011301Y001540D02*
X011461Y001540D01*
X011501Y001638D02*
X011241Y001638D01*
X011302Y001737D02*
X011461Y001737D01*
X011808Y001969D02*
X010955Y001969D01*
X010935Y001989D01*
X011302Y002230D02*
X011463Y002230D01*
X011221Y002328D02*
X014745Y002328D01*
X014745Y002230D02*
X013807Y002230D01*
X013809Y002131D02*
X014745Y002131D01*
X014745Y002032D02*
X013809Y002032D01*
X013809Y001934D02*
X014678Y001934D01*
X014580Y001835D02*
X013809Y001835D01*
X013809Y001737D02*
X014524Y001737D01*
X014485Y001638D02*
X013769Y001638D01*
X013809Y001540D02*
X014485Y001540D01*
X014485Y001146D02*
X013809Y001146D01*
X013775Y001047D02*
X014485Y001047D01*
X014485Y000949D02*
X010031Y000949D01*
X010130Y001047D02*
X010589Y001047D01*
X010569Y001146D02*
X010186Y001146D01*
X010227Y001244D02*
X010569Y001244D01*
X010887Y001244D02*
X010984Y001244D01*
X010984Y001271D02*
X010984Y000973D01*
X011171Y000973D01*
X011210Y000983D01*
X011244Y001003D01*
X011272Y001031D01*
X011291Y001065D01*
X011302Y001103D01*
X011302Y001271D01*
X010984Y001271D01*
X010984Y001146D02*
X010887Y001146D01*
X010887Y001047D02*
X010984Y001047D01*
X011281Y001047D02*
X011495Y001047D01*
X011461Y001146D02*
X011302Y001146D01*
X011302Y001244D02*
X011461Y001244D01*
X012122Y001047D02*
X013148Y001047D01*
X013115Y001146D02*
X012155Y001146D01*
X012155Y001244D02*
X013115Y001244D01*
X013115Y001343D02*
X012155Y001343D01*
X012155Y001441D02*
X013115Y001441D01*
X013115Y001540D02*
X012155Y001540D01*
X012115Y001638D02*
X013155Y001638D01*
X013115Y001737D02*
X012155Y001737D01*
X012155Y001835D02*
X013115Y001835D01*
X013115Y001934D02*
X012155Y001934D01*
X012155Y002032D02*
X013115Y002032D01*
X013115Y002131D02*
X012155Y002131D01*
X012154Y002230D02*
X013116Y002230D01*
X013870Y002624D02*
X006818Y002624D01*
X006916Y002722D02*
X011650Y002722D01*
X011668Y002704D02*
X011776Y002659D01*
X011894Y002659D01*
X012002Y002704D01*
X012085Y002787D01*
X012130Y002896D01*
X012130Y003013D01*
X012085Y003121D01*
X012065Y003141D01*
X012065Y003407D01*
X012336Y003407D01*
X012424Y003495D01*
X012424Y004013D01*
X012336Y004101D01*
X012239Y004101D01*
X012239Y004944D01*
X012317Y005021D01*
X012317Y005500D01*
X012229Y005588D01*
X011789Y005588D01*
X011702Y005500D01*
X011702Y005021D01*
X011779Y004944D01*
X011779Y004101D01*
X011412Y004101D01*
X011324Y004013D01*
X011324Y003495D01*
X011412Y003407D01*
X011605Y003407D01*
X011605Y003141D01*
X011585Y003121D01*
X011540Y003013D01*
X011540Y002896D01*
X011585Y002787D01*
X011668Y002704D01*
X011571Y002821D02*
X007015Y002821D01*
X007091Y002919D02*
X011540Y002919D01*
X011542Y003018D02*
X007132Y003018D01*
X007173Y003116D02*
X011583Y003116D01*
X011605Y003215D02*
X007214Y003215D01*
X007219Y003314D02*
X011605Y003314D01*
X011407Y003412D02*
X010963Y003412D01*
X010958Y003407D02*
X011046Y003495D01*
X011046Y004013D01*
X010958Y004101D01*
X010845Y004101D01*
X010845Y004416D01*
X010798Y004530D01*
X010711Y004617D01*
X010245Y005083D01*
X010245Y005827D01*
X011349Y005827D01*
X011415Y005760D01*
X011855Y005760D01*
X011943Y005848D01*
X011943Y005857D01*
X012928Y005857D01*
X012928Y005848D01*
X013015Y005760D01*
X013455Y005760D01*
X013543Y005848D01*
X013543Y005857D01*
X013725Y005857D01*
X013745Y005837D01*
X013853Y005792D01*
X013971Y005792D01*
X014079Y005837D01*
X014162Y005920D01*
X014207Y006029D01*
X014207Y006146D01*
X014162Y006254D01*
X014079Y006337D01*
X013971Y006382D01*
X013853Y006382D01*
X013745Y006337D01*
X013725Y006317D01*
X013543Y006317D01*
X013543Y006327D01*
X013455Y006415D01*
X013015Y006415D01*
X012928Y006327D01*
X012928Y006317D01*
X011943Y006317D01*
X011943Y006327D01*
X011855Y006415D01*
X011415Y006415D01*
X011328Y006327D01*
X011328Y006287D01*
X010163Y006287D01*
X010163Y006307D01*
X010179Y006307D01*
X010235Y006363D01*
X010261Y006337D01*
X010295Y006318D01*
X010333Y006307D01*
X010521Y006307D01*
X010521Y006606D01*
X010618Y006606D01*
X010618Y006307D01*
X010806Y006307D01*
X010844Y006318D01*
X010878Y006337D01*
X010906Y006365D01*
X010926Y006400D01*
X010936Y006438D01*
X010936Y006606D01*
X010618Y006606D01*
X010618Y006703D01*
X010521Y006703D01*
X010521Y007001D01*
X010333Y007001D01*
X010295Y006991D01*
X010261Y006971D01*
X010235Y006945D01*
X010179Y007001D01*
X009622Y007001D01*
X009534Y006913D01*
X009534Y006395D01*
X009622Y006307D01*
X009703Y006307D01*
X009703Y006260D01*
X009672Y006230D01*
X009625Y006116D01*
X009625Y005016D01*
X009625Y004893D01*
X009672Y004779D01*
X010225Y004226D01*
X010225Y004101D01*
X010034Y004101D01*
X009946Y004013D01*
X009946Y003495D01*
X010034Y003407D01*
X010958Y003407D01*
X011046Y003511D02*
X011324Y003511D01*
X011324Y003609D02*
X011046Y003609D01*
X011046Y003708D02*
X011324Y003708D01*
X011324Y003806D02*
X011046Y003806D01*
X011046Y003905D02*
X011324Y003905D01*
X011324Y004003D02*
X011046Y004003D01*
X010845Y004102D02*
X011779Y004102D01*
X011779Y004200D02*
X010845Y004200D01*
X010845Y004299D02*
X011779Y004299D01*
X011779Y004398D02*
X010845Y004398D01*
X010812Y004496D02*
X011779Y004496D01*
X011779Y004595D02*
X010733Y004595D01*
X010635Y004693D02*
X011779Y004693D01*
X011779Y004792D02*
X010536Y004792D01*
X010438Y004890D02*
X011779Y004890D01*
X011734Y004989D02*
X011536Y004989D01*
X011539Y004991D02*
X011558Y005026D01*
X011569Y005064D01*
X011569Y005232D01*
X011290Y005232D01*
X011290Y005289D01*
X011569Y005289D01*
X011569Y005458D01*
X011558Y005496D01*
X011539Y005530D01*
X011511Y005558D01*
X011476Y005578D01*
X011438Y005588D01*
X011290Y005588D01*
X011290Y005290D01*
X011232Y005290D01*
X011232Y005588D01*
X011084Y005588D01*
X011046Y005578D01*
X011011Y005558D01*
X010984Y005530D01*
X010964Y005496D01*
X010954Y005458D01*
X010954Y005289D01*
X011232Y005289D01*
X011232Y005232D01*
X010954Y005232D01*
X010954Y005064D01*
X010964Y005026D01*
X010984Y004991D01*
X011011Y004963D01*
X011046Y004944D01*
X011084Y004933D01*
X011232Y004933D01*
X011232Y005232D01*
X011290Y005232D01*
X011290Y004933D01*
X011438Y004933D01*
X011476Y004944D01*
X011511Y004963D01*
X011539Y004991D01*
X011569Y005087D02*
X011702Y005087D01*
X011702Y005186D02*
X011569Y005186D01*
X011702Y005284D02*
X011290Y005284D01*
X011232Y005284D02*
X010245Y005284D01*
X010245Y005186D02*
X010954Y005186D01*
X010954Y005087D02*
X010245Y005087D01*
X010339Y004989D02*
X010986Y004989D01*
X011232Y004989D02*
X011290Y004989D01*
X011290Y005087D02*
X011232Y005087D01*
X011232Y005186D02*
X011290Y005186D01*
X011290Y005383D02*
X011232Y005383D01*
X011232Y005481D02*
X011290Y005481D01*
X011290Y005580D02*
X011232Y005580D01*
X011055Y005580D02*
X010245Y005580D01*
X010245Y005481D02*
X010960Y005481D01*
X010954Y005383D02*
X010245Y005383D01*
X010245Y005679D02*
X015019Y005679D01*
X015019Y005777D02*
X013472Y005777D01*
X013382Y005580D02*
X013067Y005580D01*
X013076Y005578D02*
X013038Y005588D01*
X012890Y005588D01*
X012890Y005290D01*
X012832Y005290D01*
X012832Y005588D01*
X012684Y005588D01*
X012646Y005578D01*
X012611Y005558D01*
X012584Y005530D01*
X012564Y005496D01*
X012554Y005458D01*
X012554Y005289D01*
X012832Y005289D01*
X012832Y005232D01*
X012554Y005232D01*
X012554Y005064D01*
X012564Y005026D01*
X012584Y004991D01*
X012611Y004963D01*
X012646Y004944D01*
X012684Y004933D01*
X012832Y004933D01*
X012832Y005232D01*
X012890Y005232D01*
X012890Y005289D01*
X013169Y005289D01*
X013169Y005458D01*
X013158Y005496D01*
X013139Y005530D01*
X013111Y005558D01*
X013076Y005578D01*
X013162Y005481D02*
X013302Y005481D01*
X013302Y005383D02*
X013169Y005383D01*
X013169Y005232D02*
X012890Y005232D01*
X012890Y004933D01*
X013038Y004933D01*
X013076Y004944D01*
X013111Y004963D01*
X013139Y004991D01*
X013158Y005026D01*
X013169Y005064D01*
X013169Y005232D01*
X013169Y005186D02*
X013302Y005186D01*
X013299Y005284D02*
X012890Y005284D01*
X012832Y005284D02*
X012317Y005284D01*
X012317Y005186D02*
X012554Y005186D01*
X012554Y005087D02*
X012317Y005087D01*
X012284Y004989D02*
X012586Y004989D01*
X012832Y004989D02*
X012890Y004989D01*
X012890Y005087D02*
X012832Y005087D01*
X012832Y005186D02*
X012890Y005186D01*
X012890Y005383D02*
X012832Y005383D01*
X012832Y005481D02*
X012890Y005481D01*
X012890Y005580D02*
X012832Y005580D01*
X012655Y005580D02*
X012236Y005580D01*
X012317Y005481D02*
X012560Y005481D01*
X012554Y005383D02*
X012317Y005383D01*
X012239Y004890D02*
X014661Y004890D01*
X014759Y004792D02*
X012239Y004792D01*
X012239Y004693D02*
X014858Y004693D01*
X014658Y004595D02*
X012239Y004595D01*
X012239Y004496D02*
X014575Y004496D01*
X014540Y004398D02*
X012239Y004398D01*
X012239Y004299D02*
X014540Y004299D01*
X014580Y004200D02*
X012239Y004200D01*
X012239Y004102D02*
X014645Y004102D01*
X014645Y004003D02*
X013737Y004003D01*
X013736Y004009D02*
X013716Y004043D01*
X013688Y004071D01*
X013654Y004091D01*
X013616Y004101D01*
X013245Y004101D01*
X013245Y003803D01*
X013746Y003803D01*
X013746Y003971D01*
X013736Y004009D01*
X013746Y003905D02*
X014645Y003905D01*
X014645Y003806D02*
X013746Y003806D01*
X013746Y003706D02*
X013245Y003706D01*
X013245Y003803D01*
X013148Y003803D01*
X013148Y004101D01*
X012776Y004101D01*
X012738Y004091D01*
X012704Y004071D01*
X012676Y004043D01*
X012656Y004009D01*
X012646Y003971D01*
X012646Y003803D01*
X013147Y003803D01*
X013147Y003706D01*
X012646Y003706D01*
X012646Y003538D01*
X012656Y003500D01*
X012676Y003465D01*
X012704Y003437D01*
X012738Y003418D01*
X012776Y003407D01*
X013148Y003407D01*
X013148Y003706D01*
X013245Y003706D01*
X013245Y003407D01*
X013616Y003407D01*
X013654Y003418D01*
X013688Y003437D01*
X013716Y003465D01*
X013736Y003500D01*
X013746Y003538D01*
X013746Y003706D01*
X013746Y003609D02*
X013880Y003609D01*
X013854Y003511D02*
X013739Y003511D01*
X013633Y003412D02*
X013854Y003412D01*
X013854Y003314D02*
X012065Y003314D01*
X012065Y003215D02*
X013854Y003215D01*
X013854Y003116D02*
X012087Y003116D01*
X012128Y003018D02*
X013861Y003018D01*
X013884Y002919D02*
X012130Y002919D01*
X012099Y002821D02*
X013843Y002821D01*
X013840Y002722D02*
X012020Y002722D01*
X012341Y003412D02*
X012759Y003412D01*
X012653Y003511D02*
X012424Y003511D01*
X012424Y003609D02*
X012646Y003609D01*
X012646Y003806D02*
X012424Y003806D01*
X012424Y003708D02*
X013147Y003708D01*
X013245Y003708D02*
X014645Y003708D01*
X014549Y003609D02*
X014521Y003609D01*
X015025Y003708D02*
X015224Y003708D01*
X015224Y003806D02*
X015025Y003806D01*
X015025Y003905D02*
X015224Y003905D01*
X015224Y004003D02*
X015025Y004003D01*
X015025Y004102D02*
X015425Y004102D01*
X015351Y004200D02*
X015091Y004200D01*
X015130Y004299D02*
X015252Y004299D01*
X015154Y004398D02*
X015130Y004398D01*
X015636Y004792D02*
X018409Y004792D01*
X018421Y004804D02*
X018333Y004716D01*
X018333Y004158D01*
X018421Y004071D01*
X019293Y004071D01*
X019381Y004158D01*
X019381Y004716D01*
X019293Y004804D01*
X018421Y004804D01*
X018333Y004693D02*
X015735Y004693D01*
X015833Y004595D02*
X018333Y004595D01*
X018333Y004496D02*
X018159Y004496D01*
X018182Y004398D02*
X018333Y004398D01*
X018333Y004299D02*
X018182Y004299D01*
X018333Y004200D02*
X017884Y004200D01*
X017786Y004200D02*
X016045Y004200D01*
X016045Y004102D02*
X017488Y004102D01*
X017488Y004299D02*
X016045Y004299D01*
X016011Y004398D02*
X017488Y004398D01*
X017512Y004496D02*
X015932Y004496D01*
X015538Y004890D02*
X019502Y004890D01*
X019445Y004792D02*
X019305Y004792D01*
X019381Y004693D02*
X019445Y004693D01*
X019445Y004595D02*
X019381Y004595D01*
X019381Y004496D02*
X019445Y004496D01*
X019445Y004398D02*
X019381Y004398D01*
X019381Y004299D02*
X019445Y004299D01*
X019445Y004200D02*
X019381Y004200D01*
X019324Y004102D02*
X019445Y004102D01*
X019445Y004003D02*
X018182Y004003D01*
X018182Y004102D02*
X018389Y004102D01*
X018333Y003806D02*
X018182Y003806D01*
X018160Y003905D02*
X019445Y003905D01*
X019418Y003806D02*
X019381Y003806D01*
X019660Y003511D02*
X019789Y003511D01*
X019789Y003609D02*
X019759Y003609D01*
X019789Y003412D02*
X019562Y003412D01*
X019381Y003314D02*
X019789Y003314D01*
X019827Y003215D02*
X019343Y003215D01*
X018880Y003554D02*
X018857Y003532D01*
X018333Y003314D02*
X018182Y003314D01*
X018146Y003215D02*
X018371Y003215D01*
X018185Y003018D02*
X015209Y003018D01*
X015217Y003116D02*
X021635Y003116D01*
X021635Y003215D02*
X020800Y003215D01*
X020837Y003314D02*
X021635Y003314D01*
X021635Y003412D02*
X020837Y003412D01*
X020837Y003511D02*
X020901Y003511D01*
X020888Y003609D02*
X020837Y003609D01*
X020837Y003708D02*
X020888Y003708D01*
X020837Y003806D02*
X021186Y003806D01*
X021284Y003806D02*
X021635Y003806D01*
X021635Y003708D02*
X021582Y003708D01*
X021582Y003609D02*
X021635Y003609D01*
X021635Y003511D02*
X021569Y003511D01*
X021284Y003511D02*
X021187Y003511D01*
X021187Y003609D02*
X021284Y003609D01*
X021284Y003708D02*
X021187Y003708D01*
X020888Y003905D02*
X019825Y003905D01*
X019825Y004003D02*
X020888Y004003D01*
X020922Y004102D02*
X020781Y004102D01*
X020837Y004200D02*
X020888Y004200D01*
X021235Y004459D02*
X021335Y004459D01*
X021582Y004496D02*
X021593Y004496D01*
X021582Y004398D02*
X021635Y004398D01*
X021635Y004299D02*
X021582Y004299D01*
X021582Y004200D02*
X021635Y004200D01*
X021635Y004102D02*
X021548Y004102D01*
X021582Y004003D02*
X021635Y004003D01*
X021635Y003905D02*
X021582Y003905D01*
X022725Y003933D02*
X022725Y004876D01*
X022725Y005033D01*
X022327Y005431D01*
X022327Y006304D01*
X022334Y006304D01*
X022334Y005895D01*
X022422Y005807D01*
X022579Y005807D01*
X022540Y005713D01*
X022540Y005596D01*
X022585Y005487D01*
X022668Y005404D01*
X022776Y005359D01*
X022894Y005359D01*
X023002Y005404D01*
X023085Y005487D01*
X023130Y005596D01*
X023130Y005713D01*
X023085Y005821D01*
X023080Y005827D01*
X023095Y005818D01*
X023133Y005807D01*
X023321Y005807D01*
X023321Y006106D01*
X023418Y006106D01*
X023418Y005807D01*
X023606Y005807D01*
X023644Y005818D01*
X023678Y005837D01*
X023706Y005865D01*
X023726Y005900D01*
X023736Y005938D01*
X023736Y006106D01*
X023418Y006106D01*
X023418Y006203D01*
X023736Y006203D01*
X023736Y006304D01*
X024385Y006304D01*
X024385Y005254D01*
X027266Y005254D01*
X025856Y003844D01*
X025745Y003733D01*
X025745Y001963D01*
X025680Y001936D01*
X025554Y001809D01*
X025485Y001644D01*
X025485Y000865D01*
X025531Y000754D01*
X025339Y000754D01*
X025385Y000865D01*
X025385Y001644D01*
X025317Y001809D01*
X025190Y001936D01*
X025125Y001963D01*
X025125Y002833D01*
X025014Y002944D01*
X024514Y003444D01*
X024356Y003444D01*
X023214Y003444D01*
X022725Y003933D01*
X022753Y003905D02*
X025917Y003905D01*
X026015Y004003D02*
X022725Y004003D01*
X022725Y004102D02*
X026114Y004102D01*
X026213Y004200D02*
X022725Y004200D01*
X022725Y004299D02*
X026311Y004299D01*
X026410Y004398D02*
X022725Y004398D01*
X022725Y004496D02*
X026508Y004496D01*
X026607Y004595D02*
X022725Y004595D01*
X022725Y004693D02*
X026705Y004693D01*
X026804Y004792D02*
X022725Y004792D01*
X022725Y004890D02*
X026902Y004890D01*
X027001Y004989D02*
X022725Y004989D01*
X022671Y005087D02*
X027099Y005087D01*
X027198Y005186D02*
X022572Y005186D01*
X022474Y005284D02*
X024385Y005284D01*
X024385Y005383D02*
X022951Y005383D01*
X023079Y005481D02*
X024385Y005481D01*
X024385Y005580D02*
X023124Y005580D01*
X023130Y005679D02*
X024385Y005679D01*
X024385Y005777D02*
X023104Y005777D01*
X023321Y005876D02*
X023418Y005876D01*
X023418Y005974D02*
X023321Y005974D01*
X023321Y006073D02*
X023418Y006073D01*
X023435Y006020D02*
X023370Y006154D01*
X023418Y006171D02*
X024385Y006171D01*
X024385Y006073D02*
X023736Y006073D01*
X023736Y005974D02*
X024385Y005974D01*
X024385Y005876D02*
X023712Y005876D01*
X023736Y006270D02*
X024385Y006270D01*
X024785Y006270D02*
X025177Y006270D01*
X025177Y006368D02*
X024785Y006368D01*
X024785Y006467D02*
X025177Y006467D01*
X025177Y006480D02*
X025177Y005962D01*
X025265Y005874D01*
X025240Y005813D01*
X025240Y005696D01*
X025285Y005587D01*
X025368Y005504D01*
X025476Y005459D01*
X025594Y005459D01*
X025702Y005504D01*
X025785Y005587D01*
X025830Y005696D01*
X025830Y005813D01*
X025805Y005874D01*
X025823Y005874D01*
X025879Y005930D01*
X025905Y005904D01*
X025939Y005884D01*
X025977Y005874D01*
X026165Y005874D01*
X026165Y006172D01*
X026262Y006172D01*
X026262Y006269D01*
X026580Y006269D01*
X026580Y006437D01*
X026570Y006475D01*
X026550Y006509D01*
X026522Y006537D01*
X026488Y006557D01*
X026450Y006567D01*
X026262Y006567D01*
X026262Y006269D01*
X026165Y006269D01*
X026165Y006567D01*
X025977Y006567D01*
X025939Y006557D01*
X025905Y006537D01*
X025879Y006511D01*
X025823Y006567D01*
X025265Y006567D01*
X025177Y006480D01*
X025263Y006565D02*
X024785Y006565D01*
X024785Y006664D02*
X026957Y006664D01*
X027055Y006565D02*
X026457Y006565D01*
X026572Y006467D02*
X027154Y006467D01*
X027252Y006368D02*
X026580Y006368D01*
X026580Y006270D02*
X027335Y006270D01*
X027335Y006286D02*
X027335Y005454D01*
X024785Y005454D01*
X024785Y007254D01*
X024232Y007254D01*
X024270Y007346D01*
X024270Y007463D01*
X024255Y007499D01*
X024271Y007499D01*
X024358Y007587D01*
X024358Y007826D01*
X024358Y007905D01*
X024358Y007912D01*
X024361Y007912D01*
X024479Y008030D01*
X024524Y007984D01*
X024498Y007958D01*
X024479Y007924D01*
X024468Y007886D01*
X024468Y007698D01*
X024766Y007698D01*
X024766Y007601D01*
X024468Y007601D01*
X024468Y007413D01*
X024479Y007375D01*
X024498Y007341D01*
X024526Y007313D01*
X024560Y007293D01*
X024599Y007283D01*
X024767Y007283D01*
X024767Y007601D01*
X024864Y007601D01*
X024864Y007698D01*
X025162Y007698D01*
X025162Y007886D01*
X025152Y007924D01*
X025132Y007958D01*
X025106Y007984D01*
X025162Y008040D01*
X025162Y008459D01*
X027335Y006286D01*
X027335Y006171D02*
X026580Y006171D01*
X026580Y006172D02*
X026262Y006172D01*
X026262Y005874D01*
X026450Y005874D01*
X026488Y005884D01*
X026522Y005904D01*
X026550Y005932D01*
X026570Y005966D01*
X026580Y006004D01*
X026580Y006172D01*
X026580Y006073D02*
X027335Y006073D01*
X027335Y005974D02*
X026572Y005974D01*
X026457Y005876D02*
X027335Y005876D01*
X027335Y005777D02*
X025830Y005777D01*
X025823Y005679D02*
X027335Y005679D01*
X027335Y005580D02*
X025778Y005580D01*
X025647Y005481D02*
X027335Y005481D01*
X028025Y005481D02*
X028835Y005481D01*
X028835Y005383D02*
X028025Y005383D01*
X028025Y005284D02*
X028835Y005284D01*
X028835Y005186D02*
X028025Y005186D01*
X028025Y005233D02*
X028025Y006433D01*
X027914Y006544D01*
X027704Y006754D01*
X028835Y006754D01*
X028835Y002754D01*
X027435Y001854D01*
X027435Y000754D01*
X027339Y000754D01*
X027385Y000865D01*
X027385Y001644D01*
X027317Y001809D01*
X027190Y001936D01*
X027125Y001963D01*
X027125Y002989D01*
X027215Y002773D01*
X027454Y002534D01*
X027766Y002404D01*
X028104Y002404D01*
X028417Y002534D01*
X028656Y002773D01*
X028785Y003085D01*
X028785Y003423D01*
X028656Y003736D01*
X028417Y003975D01*
X028104Y004104D01*
X027766Y004104D01*
X027454Y003975D01*
X027215Y003736D01*
X027125Y003520D01*
X027125Y004176D01*
X028025Y005076D01*
X028025Y005233D01*
X028025Y005087D02*
X028835Y005087D01*
X028835Y004989D02*
X027938Y004989D01*
X027840Y004890D02*
X028835Y004890D01*
X028835Y004792D02*
X027741Y004792D01*
X027643Y004693D02*
X028835Y004693D01*
X028835Y004595D02*
X027544Y004595D01*
X027446Y004496D02*
X028835Y004496D01*
X028835Y004398D02*
X027347Y004398D01*
X027248Y004299D02*
X028835Y004299D01*
X028835Y004200D02*
X027150Y004200D01*
X027125Y004102D02*
X027760Y004102D01*
X027522Y004003D02*
X027125Y004003D01*
X027125Y003905D02*
X027384Y003905D01*
X027285Y003806D02*
X027125Y003806D01*
X027125Y003708D02*
X027203Y003708D01*
X027162Y003609D02*
X027125Y003609D01*
X026745Y003609D02*
X026159Y003609D01*
X026125Y003576D02*
X026745Y004196D01*
X026745Y001963D01*
X026680Y001936D01*
X026554Y001809D01*
X026485Y001644D01*
X026485Y000865D01*
X026531Y000754D01*
X026339Y000754D01*
X026385Y000865D01*
X026385Y001644D01*
X026317Y001809D01*
X026190Y001936D01*
X026125Y001963D01*
X026125Y003576D01*
X026125Y003511D02*
X026745Y003511D01*
X026745Y003412D02*
X026125Y003412D01*
X026125Y003314D02*
X026745Y003314D01*
X026745Y003215D02*
X026125Y003215D01*
X026125Y003116D02*
X026745Y003116D01*
X026745Y003018D02*
X026125Y003018D01*
X026125Y002919D02*
X026745Y002919D01*
X026745Y002821D02*
X026125Y002821D01*
X026125Y002722D02*
X026745Y002722D01*
X026745Y002624D02*
X026125Y002624D01*
X026125Y002525D02*
X026745Y002525D01*
X026745Y002427D02*
X026125Y002427D01*
X026125Y002328D02*
X026745Y002328D01*
X026745Y002230D02*
X026125Y002230D01*
X026125Y002131D02*
X026745Y002131D01*
X026745Y002032D02*
X026125Y002032D01*
X026192Y001934D02*
X026678Y001934D01*
X026580Y001835D02*
X026290Y001835D01*
X026347Y001737D02*
X026524Y001737D01*
X026485Y001638D02*
X026385Y001638D01*
X026385Y001540D02*
X026485Y001540D01*
X026485Y001441D02*
X026385Y001441D01*
X026385Y001343D02*
X026485Y001343D01*
X026485Y001244D02*
X026385Y001244D01*
X026385Y001146D02*
X026485Y001146D01*
X026485Y001047D02*
X026385Y001047D01*
X026385Y000949D02*
X026485Y000949D01*
X026491Y000850D02*
X026379Y000850D01*
X025491Y000850D02*
X025379Y000850D01*
X025385Y000949D02*
X025485Y000949D01*
X025485Y001047D02*
X025385Y001047D01*
X025385Y001146D02*
X025485Y001146D01*
X025485Y001244D02*
X025385Y001244D01*
X025385Y001343D02*
X025485Y001343D01*
X025485Y001441D02*
X025385Y001441D01*
X025385Y001540D02*
X025485Y001540D01*
X025485Y001638D02*
X025385Y001638D01*
X025347Y001737D02*
X025524Y001737D01*
X025580Y001835D02*
X025290Y001835D01*
X025192Y001934D02*
X025678Y001934D01*
X025745Y002032D02*
X025125Y002032D01*
X025125Y002131D02*
X025745Y002131D01*
X025745Y002230D02*
X025125Y002230D01*
X025125Y002328D02*
X025745Y002328D01*
X025745Y002427D02*
X025125Y002427D01*
X025125Y002525D02*
X025745Y002525D01*
X025745Y002624D02*
X025125Y002624D01*
X025125Y002722D02*
X025745Y002722D01*
X025745Y002821D02*
X025125Y002821D01*
X025039Y002919D02*
X025745Y002919D01*
X025745Y003018D02*
X024940Y003018D01*
X024842Y003116D02*
X025745Y003116D01*
X025745Y003215D02*
X024743Y003215D01*
X024645Y003314D02*
X025745Y003314D01*
X025745Y003412D02*
X024546Y003412D01*
X025745Y003511D02*
X023147Y003511D01*
X023049Y003609D02*
X025745Y003609D01*
X025745Y003708D02*
X022950Y003708D01*
X022852Y003806D02*
X025818Y003806D01*
X026257Y003708D02*
X026745Y003708D01*
X026745Y003806D02*
X026356Y003806D01*
X026454Y003905D02*
X026745Y003905D01*
X026745Y004003D02*
X026553Y004003D01*
X026651Y004102D02*
X026745Y004102D01*
X028110Y004102D02*
X028835Y004102D01*
X028835Y004003D02*
X028348Y004003D01*
X028487Y003905D02*
X028835Y003905D01*
X028835Y003806D02*
X028585Y003806D01*
X028667Y003708D02*
X028835Y003708D01*
X028835Y003609D02*
X028708Y003609D01*
X028749Y003511D02*
X028835Y003511D01*
X028835Y003412D02*
X028785Y003412D01*
X028785Y003314D02*
X028835Y003314D01*
X028835Y003215D02*
X028785Y003215D01*
X028785Y003116D02*
X028835Y003116D01*
X028835Y003018D02*
X028757Y003018D01*
X028716Y002919D02*
X028835Y002919D01*
X028835Y002821D02*
X028676Y002821D01*
X028605Y002722D02*
X028785Y002722D01*
X028632Y002624D02*
X028507Y002624D01*
X028479Y002525D02*
X028396Y002525D01*
X028325Y002427D02*
X028158Y002427D01*
X028172Y002328D02*
X027125Y002328D01*
X027125Y002230D02*
X028019Y002230D01*
X027866Y002131D02*
X027125Y002131D01*
X027125Y002032D02*
X027712Y002032D01*
X027559Y001934D02*
X027192Y001934D01*
X027290Y001835D02*
X027435Y001835D01*
X027435Y001737D02*
X027347Y001737D01*
X027385Y001638D02*
X027435Y001638D01*
X027435Y001540D02*
X027385Y001540D01*
X027385Y001441D02*
X027435Y001441D01*
X027435Y001343D02*
X027385Y001343D01*
X027385Y001244D02*
X027435Y001244D01*
X027435Y001146D02*
X027385Y001146D01*
X027385Y001047D02*
X027435Y001047D01*
X027435Y000949D02*
X027385Y000949D01*
X027379Y000850D02*
X027435Y000850D01*
X027712Y002427D02*
X027125Y002427D01*
X027125Y002525D02*
X027474Y002525D01*
X027364Y002624D02*
X027125Y002624D01*
X027125Y002722D02*
X027265Y002722D01*
X027195Y002821D02*
X027125Y002821D01*
X027125Y002919D02*
X027154Y002919D01*
X028025Y005580D02*
X028835Y005580D01*
X028835Y005679D02*
X028025Y005679D01*
X028025Y005777D02*
X028835Y005777D01*
X028835Y005876D02*
X028025Y005876D01*
X028025Y005974D02*
X028835Y005974D01*
X028835Y006073D02*
X028025Y006073D01*
X028025Y006171D02*
X028835Y006171D01*
X028835Y006270D02*
X028025Y006270D01*
X028025Y006368D02*
X028835Y006368D01*
X028835Y006467D02*
X027991Y006467D01*
X027893Y006565D02*
X028835Y006565D01*
X028835Y006664D02*
X027794Y006664D01*
X027335Y007123D02*
X024985Y009473D01*
X024828Y009473D01*
X024358Y009473D01*
X024358Y009555D01*
X024358Y009794D01*
X024358Y009873D01*
X024283Y009873D01*
X024283Y009873D01*
X024283Y009873D01*
X024358Y009873D01*
X024358Y009949D01*
X024358Y010146D01*
X024358Y010385D01*
X024358Y010464D01*
X024358Y010471D01*
X024502Y010471D01*
X024568Y010404D01*
X024676Y010359D01*
X024794Y010359D01*
X024902Y010404D01*
X024962Y010464D01*
X024988Y010464D01*
X024988Y010310D01*
X025044Y010254D01*
X025018Y010228D01*
X024999Y010194D01*
X024988Y010156D01*
X024988Y009968D01*
X025286Y009968D01*
X025286Y009871D01*
X024988Y009871D01*
X024988Y009683D01*
X024999Y009645D01*
X025018Y009611D01*
X025046Y009583D01*
X025080Y009563D01*
X025119Y009553D01*
X025287Y009553D01*
X025287Y009871D01*
X025384Y009871D01*
X025384Y009968D01*
X025682Y009968D01*
X025682Y010156D01*
X025672Y010194D01*
X025652Y010228D01*
X025626Y010254D01*
X025682Y010310D01*
X027335Y010310D01*
X027335Y010212D02*
X025662Y010212D01*
X025682Y010310D02*
X025682Y010868D01*
X025594Y010955D01*
X025076Y010955D01*
X024988Y010868D01*
X024988Y010844D01*
X024962Y010844D01*
X024902Y010904D01*
X024794Y010949D01*
X024676Y010949D01*
X024568Y010904D01*
X024514Y010851D01*
X024290Y010851D01*
X024271Y010870D01*
X023674Y010870D01*
X023586Y010782D01*
X023586Y010543D01*
X023586Y010541D01*
X023586Y010539D01*
X023586Y010464D01*
X023662Y010464D01*
X023661Y010464D01*
X023662Y010464D02*
X023662Y010464D01*
X023661Y010464D02*
X023586Y010464D01*
X023586Y010385D01*
X023586Y010146D01*
X023586Y009949D01*
X023586Y009873D01*
X023586Y009794D01*
X023586Y009555D01*
X023586Y009419D01*
X023585Y009421D01*
X023502Y009504D01*
X023394Y009549D01*
X023276Y009549D01*
X023225Y009528D01*
X023225Y009727D01*
X023285Y009787D01*
X023330Y009896D01*
X023330Y010013D01*
X023285Y010121D01*
X023202Y010204D01*
X023285Y010287D01*
X023330Y010396D01*
X023330Y010513D01*
X023285Y010621D01*
X023202Y010704D01*
X023586Y010704D01*
X023586Y010606D02*
X023292Y010606D01*
X023330Y010507D02*
X023586Y010507D01*
X023586Y010409D02*
X023330Y010409D01*
X023295Y010310D02*
X023586Y010310D01*
X023586Y010212D02*
X023209Y010212D01*
X023289Y010113D02*
X023586Y010113D01*
X023586Y010014D02*
X023329Y010014D01*
X023330Y009916D02*
X023586Y009916D01*
X023586Y009873D02*
X023662Y009873D01*
X023661Y009873D01*
X023586Y009873D01*
X023586Y009817D02*
X023298Y009817D01*
X023225Y009719D02*
X023586Y009719D01*
X023586Y009620D02*
X023225Y009620D01*
X023460Y009522D02*
X023586Y009522D01*
X023583Y009423D02*
X023586Y009423D01*
X023662Y009873D02*
X023662Y009873D01*
X023972Y009873D02*
X024354Y009873D01*
X024735Y010254D01*
X024526Y010464D01*
X023972Y010464D01*
X024283Y010464D02*
X024283Y010464D01*
X024358Y010464D01*
X024283Y010464D01*
X024283Y010464D01*
X024358Y010409D02*
X024564Y010409D01*
X024358Y010310D02*
X024988Y010310D01*
X024988Y010409D02*
X024907Y010409D01*
X025009Y010212D02*
X024358Y010212D01*
X024358Y010113D02*
X024988Y010113D01*
X024988Y010014D02*
X024358Y010014D01*
X024358Y009916D02*
X025286Y009916D01*
X025384Y009916D02*
X027335Y009916D01*
X027335Y010014D02*
X025682Y010014D01*
X025682Y010113D02*
X027335Y010113D01*
X027335Y010409D02*
X025682Y010409D01*
X025682Y010507D02*
X027335Y010507D01*
X027335Y010606D02*
X026794Y010606D01*
X026772Y010584D02*
X026855Y010667D01*
X026900Y010776D01*
X026900Y010893D01*
X026855Y011001D01*
X026772Y011084D01*
X026664Y011129D01*
X026629Y011129D01*
X026364Y011394D01*
X027335Y011394D01*
X027335Y011296D02*
X026463Y011296D01*
X026561Y011197D02*
X027335Y011197D01*
X027335Y011098D02*
X026738Y011098D01*
X026856Y011000D02*
X027335Y011000D01*
X027335Y010901D02*
X026897Y010901D01*
X026900Y010803D02*
X027335Y010803D01*
X027335Y010704D02*
X026871Y010704D01*
X026772Y010584D02*
X026664Y010539D01*
X026546Y010539D01*
X026438Y010584D01*
X026355Y010667D01*
X026310Y010776D01*
X026310Y010893D01*
X026315Y010905D01*
X026156Y011064D01*
X024456Y011064D01*
X024345Y011176D01*
X024345Y011176D01*
X024209Y011311D01*
X023331Y011311D01*
X023331Y011203D01*
X023243Y011115D01*
X023115Y011115D01*
X023115Y010823D01*
X023115Y010741D01*
X023202Y010704D01*
X023115Y010803D02*
X023607Y010803D01*
X023115Y010901D02*
X024565Y010901D01*
X024422Y011098D02*
X023115Y011098D01*
X023115Y011000D02*
X026221Y011000D01*
X026314Y010901D02*
X025648Y010901D01*
X025682Y010803D02*
X026310Y010803D01*
X026340Y010704D02*
X025682Y010704D01*
X025682Y010606D02*
X026416Y010606D01*
X025682Y009871D02*
X025384Y009871D01*
X025384Y009553D01*
X025552Y009553D01*
X025590Y009563D01*
X025624Y009583D01*
X025652Y009611D01*
X025672Y009645D01*
X025682Y009683D01*
X025682Y009871D01*
X025682Y009817D02*
X027335Y009817D01*
X027335Y009719D02*
X025682Y009719D01*
X025657Y009620D02*
X027335Y009620D01*
X027335Y009522D02*
X024358Y009522D01*
X024358Y009620D02*
X025013Y009620D01*
X024988Y009719D02*
X024358Y009719D01*
X024358Y009817D02*
X024988Y009817D01*
X025287Y009817D02*
X025384Y009817D01*
X025384Y009719D02*
X025287Y009719D01*
X025287Y009620D02*
X025384Y009620D01*
X025133Y009325D02*
X027335Y009325D01*
X027335Y009423D02*
X025035Y009423D01*
X025232Y009226D02*
X027335Y009226D01*
X027335Y009128D02*
X025331Y009128D01*
X025429Y009029D02*
X027335Y009029D01*
X027335Y008931D02*
X025528Y008931D01*
X025626Y008832D02*
X027335Y008832D01*
X027335Y008733D02*
X025725Y008733D01*
X025823Y008635D02*
X027335Y008635D01*
X027335Y008536D02*
X025922Y008536D01*
X026020Y008438D02*
X027335Y008438D01*
X027335Y008339D02*
X026119Y008339D01*
X026217Y008241D02*
X027335Y008241D01*
X027335Y008142D02*
X026316Y008142D01*
X026414Y008044D02*
X027335Y008044D01*
X027335Y007945D02*
X026513Y007945D01*
X026612Y007847D02*
X027335Y007847D01*
X027335Y007748D02*
X026710Y007748D01*
X026809Y007649D02*
X027335Y007649D01*
X027335Y007551D02*
X026907Y007551D01*
X027006Y007452D02*
X027335Y007452D01*
X027335Y007354D02*
X027104Y007354D01*
X027203Y007255D02*
X027335Y007255D01*
X027335Y007157D02*
X027301Y007157D01*
X027335Y007123D02*
X027335Y019142D01*
X027297Y019104D01*
X027125Y019104D01*
X027125Y018276D01*
X027014Y018164D01*
X025525Y016676D01*
X025525Y011881D01*
X025585Y011821D01*
X025630Y011713D01*
X025630Y011596D01*
X025585Y011487D01*
X025542Y011444D01*
X026156Y011444D01*
X026314Y011444D01*
X026364Y011394D01*
X026364Y011394D01*
X025628Y011591D02*
X027335Y011591D01*
X027335Y011493D02*
X025587Y011493D01*
X025630Y011690D02*
X027335Y011690D01*
X027335Y011788D02*
X025599Y011788D01*
X025525Y011887D02*
X027335Y011887D01*
X027335Y011985D02*
X025525Y011985D01*
X025525Y012084D02*
X027335Y012084D01*
X027335Y012182D02*
X025525Y012182D01*
X025525Y012281D02*
X027335Y012281D01*
X027335Y012380D02*
X025525Y012380D01*
X025525Y012478D02*
X027335Y012478D01*
X027335Y012577D02*
X025525Y012577D01*
X025525Y012675D02*
X027335Y012675D01*
X027335Y012774D02*
X025525Y012774D01*
X025525Y012872D02*
X027335Y012872D01*
X027335Y012971D02*
X025525Y012971D01*
X025525Y013069D02*
X027335Y013069D01*
X027335Y013168D02*
X025525Y013168D01*
X025525Y013266D02*
X027335Y013266D01*
X027335Y013365D02*
X025525Y013365D01*
X025525Y013464D02*
X027335Y013464D01*
X027335Y013562D02*
X025525Y013562D01*
X025525Y013661D02*
X027335Y013661D01*
X027335Y013759D02*
X025525Y013759D01*
X025525Y013858D02*
X027335Y013858D01*
X027335Y013956D02*
X025525Y013956D01*
X025525Y014055D02*
X025717Y014055D01*
X025685Y014087D02*
X025768Y014004D01*
X025876Y013959D01*
X025994Y013959D01*
X026102Y014004D01*
X026185Y014087D01*
X026230Y014196D01*
X026230Y014313D01*
X026185Y014421D01*
X026125Y014481D01*
X026125Y014607D01*
X026219Y014607D01*
X026275Y014663D01*
X026301Y014637D01*
X026335Y014618D01*
X026373Y014607D01*
X026561Y014607D01*
X026561Y014906D01*
X026658Y014906D01*
X026658Y014607D01*
X026846Y014607D01*
X026884Y014618D01*
X026918Y014637D01*
X026946Y014665D01*
X026966Y014700D01*
X026976Y014738D01*
X026976Y014906D01*
X026658Y014906D01*
X026658Y015003D01*
X026561Y015003D01*
X026561Y015301D01*
X026373Y015301D01*
X026335Y015291D01*
X026301Y015271D01*
X026275Y015245D01*
X026219Y015301D01*
X025662Y015301D01*
X025574Y015213D01*
X025574Y014695D01*
X025662Y014607D01*
X025745Y014607D01*
X025745Y014481D01*
X025685Y014421D01*
X025640Y014313D01*
X025640Y014196D01*
X025685Y014087D01*
X025658Y014153D02*
X025525Y014153D01*
X025525Y014252D02*
X025640Y014252D01*
X025656Y014350D02*
X025525Y014350D01*
X025525Y014449D02*
X025713Y014449D01*
X025745Y014547D02*
X025525Y014547D01*
X025525Y014646D02*
X025623Y014646D01*
X025574Y014745D02*
X025525Y014745D01*
X025525Y014843D02*
X025574Y014843D01*
X025574Y014942D02*
X025525Y014942D01*
X025525Y015040D02*
X025574Y015040D01*
X025574Y015139D02*
X025525Y015139D01*
X025525Y015237D02*
X025598Y015237D01*
X025525Y015336D02*
X027335Y015336D01*
X027335Y015434D02*
X025525Y015434D01*
X025525Y015533D02*
X027335Y015533D01*
X027335Y015631D02*
X025525Y015631D01*
X025525Y015730D02*
X027335Y015730D01*
X027335Y015829D02*
X025525Y015829D01*
X025525Y015927D02*
X027335Y015927D01*
X027335Y016026D02*
X025525Y016026D01*
X025525Y016124D02*
X027335Y016124D01*
X027335Y016223D02*
X025525Y016223D01*
X025525Y016321D02*
X027335Y016321D01*
X027335Y016420D02*
X025525Y016420D01*
X025525Y016518D02*
X027335Y016518D01*
X027335Y016617D02*
X025525Y016617D01*
X025565Y016715D02*
X027335Y016715D01*
X027335Y016814D02*
X025663Y016814D01*
X025762Y016913D02*
X027335Y016913D01*
X027335Y017011D02*
X025861Y017011D01*
X025959Y017110D02*
X027335Y017110D01*
X027335Y017208D02*
X026058Y017208D01*
X026156Y017307D02*
X027335Y017307D01*
X027335Y017405D02*
X026255Y017405D01*
X026353Y017504D02*
X027335Y017504D01*
X027335Y017602D02*
X026452Y017602D01*
X026550Y017701D02*
X027335Y017701D01*
X027335Y017799D02*
X026649Y017799D01*
X026747Y017898D02*
X027335Y017898D01*
X027335Y017996D02*
X026846Y017996D01*
X026945Y018095D02*
X027335Y018095D01*
X027335Y018194D02*
X027043Y018194D01*
X027125Y018292D02*
X027335Y018292D01*
X027335Y018391D02*
X027125Y018391D01*
X027125Y018489D02*
X027335Y018489D01*
X027335Y018588D02*
X027125Y018588D01*
X027125Y018686D02*
X027335Y018686D01*
X027335Y018785D02*
X027125Y018785D01*
X027125Y018883D02*
X027335Y018883D01*
X027335Y018982D02*
X027125Y018982D01*
X027125Y019080D02*
X027335Y019080D01*
X024745Y019080D02*
X024125Y019080D01*
X024125Y019146D02*
X024190Y019173D01*
X024317Y019299D01*
X024385Y019465D01*
X024385Y019644D01*
X024317Y019809D01*
X024190Y019936D01*
X024125Y019963D01*
X024125Y020146D01*
X024190Y020173D01*
X024317Y020299D01*
X024385Y020465D01*
X024385Y021244D01*
X024319Y021404D01*
X024552Y021404D01*
X024485Y021244D01*
X024485Y020465D01*
X024554Y020299D01*
X024680Y020173D01*
X024745Y020146D01*
X024745Y019963D01*
X024680Y019936D01*
X024554Y019809D01*
X024485Y019644D01*
X024485Y019465D01*
X024554Y019299D01*
X024680Y019173D01*
X024745Y019146D01*
X024745Y018433D01*
X024545Y018233D01*
X024545Y018076D01*
X024545Y012481D01*
X024485Y012421D01*
X024440Y012313D01*
X024440Y012196D01*
X024485Y012087D01*
X024568Y012004D01*
X024676Y011959D01*
X024740Y011959D01*
X024740Y011896D01*
X024785Y011787D01*
X024868Y011704D01*
X024976Y011659D01*
X025040Y011659D01*
X025040Y011596D01*
X025085Y011487D01*
X025128Y011444D01*
X024614Y011444D01*
X024367Y011691D01*
X024209Y011691D01*
X023331Y011691D01*
X023331Y011800D01*
X023243Y011888D01*
X023046Y011888D01*
X022849Y011888D01*
X022652Y011888D01*
X022637Y011888D01*
X022914Y012164D01*
X023025Y012276D01*
X023025Y013647D01*
X023068Y013604D01*
X023176Y013559D01*
X023294Y013559D01*
X023402Y013604D01*
X023445Y013647D01*
X023445Y012533D01*
X023445Y012376D01*
X023540Y012281D01*
X023025Y012281D01*
X023025Y012380D02*
X023445Y012380D01*
X023445Y012478D02*
X023025Y012478D01*
X023025Y012577D02*
X023445Y012577D01*
X023445Y012675D02*
X023025Y012675D01*
X023025Y012774D02*
X023445Y012774D01*
X023445Y012872D02*
X023025Y012872D01*
X023025Y012971D02*
X023445Y012971D01*
X023445Y013069D02*
X023025Y013069D01*
X023025Y013168D02*
X023445Y013168D01*
X023445Y013266D02*
X023025Y013266D01*
X023025Y013365D02*
X023445Y013365D01*
X023445Y013464D02*
X023025Y013464D01*
X023025Y013562D02*
X023170Y013562D01*
X023300Y013562D02*
X023445Y013562D01*
X023825Y013562D02*
X024545Y013562D01*
X024545Y013464D02*
X023825Y013464D01*
X023825Y013365D02*
X024545Y013365D01*
X024545Y013266D02*
X023825Y013266D01*
X023825Y013168D02*
X024545Y013168D01*
X024545Y013069D02*
X023825Y013069D01*
X023825Y012971D02*
X024545Y012971D01*
X024545Y012872D02*
X023825Y012872D01*
X023825Y012774D02*
X024545Y012774D01*
X024545Y012675D02*
X023825Y012675D01*
X023825Y012577D02*
X024545Y012577D01*
X024542Y012478D02*
X024029Y012478D01*
X024002Y012504D02*
X023894Y012549D01*
X023825Y012549D01*
X023825Y014295D01*
X023864Y014256D01*
X023945Y014256D01*
X023945Y014181D01*
X023885Y014121D01*
X023840Y014013D01*
X023840Y013896D01*
X023885Y013787D01*
X023968Y013704D01*
X024076Y013659D01*
X024194Y013659D01*
X024302Y013704D01*
X024385Y013787D01*
X024430Y013896D01*
X024430Y014013D01*
X024385Y014121D01*
X024325Y014181D01*
X024325Y014256D01*
X024421Y014256D01*
X024509Y014344D01*
X024509Y014862D01*
X024429Y014943D01*
X024451Y014956D01*
X024479Y014984D01*
X024499Y015018D01*
X024509Y015056D01*
X024509Y015224D01*
X024191Y015224D01*
X024191Y015321D01*
X024094Y015321D01*
X024094Y015619D01*
X023907Y015619D01*
X023868Y015609D01*
X023834Y015589D01*
X023825Y015580D01*
X023825Y018361D01*
X024135Y018671D01*
X024135Y018837D01*
X024125Y018847D01*
X024125Y019146D01*
X024196Y019179D02*
X024674Y019179D01*
X024575Y019278D02*
X024295Y019278D01*
X024348Y019376D02*
X024522Y019376D01*
X024485Y019475D02*
X024385Y019475D01*
X024385Y019573D02*
X024485Y019573D01*
X024497Y019672D02*
X024374Y019672D01*
X024333Y019770D02*
X024538Y019770D01*
X024613Y019869D02*
X024257Y019869D01*
X024125Y019967D02*
X024745Y019967D01*
X024745Y020066D02*
X024125Y020066D01*
X024170Y020164D02*
X024700Y020164D01*
X024590Y020263D02*
X024280Y020263D01*
X024342Y020362D02*
X024528Y020362D01*
X024487Y020460D02*
X024383Y020460D01*
X024385Y020559D02*
X024485Y020559D01*
X024485Y020657D02*
X024385Y020657D01*
X024385Y020756D02*
X024485Y020756D01*
X024485Y020854D02*
X024385Y020854D01*
X024385Y020953D02*
X024485Y020953D01*
X024485Y021051D02*
X024385Y021051D01*
X024385Y021150D02*
X024485Y021150D01*
X024487Y021248D02*
X024383Y021248D01*
X024342Y021347D02*
X024528Y021347D01*
X023552Y021404D02*
X023485Y021244D01*
X023485Y020465D01*
X023554Y020299D01*
X023680Y020173D01*
X023745Y020146D01*
X023745Y019963D01*
X023680Y019936D01*
X023554Y019809D01*
X023485Y019644D01*
X023485Y019465D01*
X023554Y019299D01*
X023680Y019173D01*
X023745Y019146D01*
X023745Y018847D01*
X023435Y018537D01*
X023435Y018371D01*
X023445Y018361D01*
X023445Y015604D01*
X023414Y015636D01*
X023334Y015636D01*
X023385Y015687D01*
X023430Y015796D01*
X023430Y015913D01*
X023385Y016021D01*
X023302Y016104D01*
X023194Y016149D01*
X023076Y016149D01*
X022968Y016104D01*
X022885Y016021D01*
X022840Y015913D01*
X022840Y015796D01*
X022885Y015687D01*
X022936Y015636D01*
X022856Y015636D01*
X022769Y015548D01*
X022769Y015030D01*
X022844Y014954D01*
X022769Y014879D01*
X022769Y014361D01*
X022856Y014273D01*
X023045Y014273D01*
X023045Y014081D01*
X023011Y014047D01*
X022725Y014333D01*
X022725Y015976D01*
X023125Y016376D01*
X023125Y016533D01*
X023125Y019146D01*
X023190Y019173D01*
X023317Y019299D01*
X023385Y019465D01*
X023385Y019644D01*
X023317Y019809D01*
X023190Y019936D01*
X023125Y019963D01*
X023125Y020146D01*
X023190Y020173D01*
X023317Y020299D01*
X023385Y020465D01*
X023385Y021244D01*
X023319Y021404D01*
X023552Y021404D01*
X023528Y021347D02*
X023342Y021347D01*
X023383Y021248D02*
X023487Y021248D01*
X023485Y021150D02*
X023385Y021150D01*
X023385Y021051D02*
X023485Y021051D01*
X023485Y020953D02*
X023385Y020953D01*
X023385Y020854D02*
X023485Y020854D01*
X023485Y020756D02*
X023385Y020756D01*
X023385Y020657D02*
X023485Y020657D01*
X023485Y020559D02*
X023385Y020559D01*
X023383Y020460D02*
X023487Y020460D01*
X023528Y020362D02*
X023342Y020362D01*
X023280Y020263D02*
X023590Y020263D01*
X023700Y020164D02*
X023170Y020164D01*
X023125Y020066D02*
X023745Y020066D01*
X023745Y019967D02*
X023125Y019967D01*
X023257Y019869D02*
X023613Y019869D01*
X023538Y019770D02*
X023333Y019770D01*
X023374Y019672D02*
X023497Y019672D01*
X023485Y019573D02*
X023385Y019573D01*
X023385Y019475D02*
X023485Y019475D01*
X023522Y019376D02*
X023348Y019376D01*
X023295Y019278D02*
X023575Y019278D01*
X023674Y019179D02*
X023196Y019179D01*
X023125Y019080D02*
X023745Y019080D01*
X023745Y018982D02*
X023125Y018982D01*
X023125Y018883D02*
X023745Y018883D01*
X023683Y018785D02*
X023125Y018785D01*
X023125Y018686D02*
X023584Y018686D01*
X023486Y018588D02*
X023125Y018588D01*
X023125Y018489D02*
X023435Y018489D01*
X023435Y018391D02*
X023125Y018391D01*
X023125Y018292D02*
X023445Y018292D01*
X023445Y018194D02*
X023125Y018194D01*
X023125Y018095D02*
X023445Y018095D01*
X023445Y017996D02*
X023125Y017996D01*
X023125Y017898D02*
X023445Y017898D01*
X023445Y017799D02*
X023125Y017799D01*
X023125Y017701D02*
X023445Y017701D01*
X023445Y017602D02*
X023125Y017602D01*
X023125Y017504D02*
X023445Y017504D01*
X023445Y017405D02*
X023125Y017405D01*
X023125Y017307D02*
X023445Y017307D01*
X023445Y017208D02*
X023125Y017208D01*
X023125Y017110D02*
X023445Y017110D01*
X023445Y017011D02*
X023125Y017011D01*
X023125Y016913D02*
X023445Y016913D01*
X023445Y016814D02*
X023125Y016814D01*
X023125Y016715D02*
X023445Y016715D01*
X023445Y016617D02*
X023125Y016617D01*
X023125Y016518D02*
X023445Y016518D01*
X023445Y016420D02*
X023125Y016420D01*
X023071Y016321D02*
X023445Y016321D01*
X023445Y016223D02*
X022972Y016223D01*
X023016Y016124D02*
X022874Y016124D01*
X022889Y016026D02*
X022775Y016026D01*
X022725Y015927D02*
X022846Y015927D01*
X022840Y015829D02*
X022725Y015829D01*
X022725Y015730D02*
X022867Y015730D01*
X022852Y015631D02*
X022725Y015631D01*
X022725Y015533D02*
X022769Y015533D01*
X022769Y015434D02*
X022725Y015434D01*
X022725Y015336D02*
X022769Y015336D01*
X022769Y015237D02*
X022725Y015237D01*
X022725Y015139D02*
X022769Y015139D01*
X022769Y015040D02*
X022725Y015040D01*
X022725Y014942D02*
X022832Y014942D01*
X022769Y014843D02*
X022725Y014843D01*
X022725Y014745D02*
X022769Y014745D01*
X022769Y014646D02*
X022725Y014646D01*
X022725Y014547D02*
X022769Y014547D01*
X022769Y014449D02*
X022725Y014449D01*
X022725Y014350D02*
X022779Y014350D01*
X022806Y014252D02*
X023045Y014252D01*
X023045Y014153D02*
X022905Y014153D01*
X023003Y014055D02*
X023018Y014055D01*
X023235Y014520D02*
X023135Y014620D01*
X023825Y014252D02*
X023945Y014252D01*
X023917Y014153D02*
X023825Y014153D01*
X023825Y014055D02*
X023857Y014055D01*
X023840Y013956D02*
X023825Y013956D01*
X023825Y013858D02*
X023856Y013858D01*
X023825Y013759D02*
X023913Y013759D01*
X023825Y013661D02*
X024073Y013661D01*
X024197Y013661D02*
X024545Y013661D01*
X024545Y013759D02*
X024357Y013759D01*
X024414Y013858D02*
X024545Y013858D01*
X024545Y013956D02*
X024430Y013956D01*
X024413Y014055D02*
X024545Y014055D01*
X024545Y014153D02*
X024353Y014153D01*
X024325Y014252D02*
X024545Y014252D01*
X024545Y014350D02*
X024509Y014350D01*
X024509Y014449D02*
X024545Y014449D01*
X024545Y014547D02*
X024509Y014547D01*
X024509Y014646D02*
X024545Y014646D01*
X024545Y014745D02*
X024509Y014745D01*
X024509Y014843D02*
X024545Y014843D01*
X024545Y014942D02*
X024430Y014942D01*
X024505Y015040D02*
X024545Y015040D01*
X024545Y015139D02*
X024509Y015139D01*
X024545Y015237D02*
X024191Y015237D01*
X024191Y015321D02*
X024509Y015321D01*
X024509Y015489D01*
X024499Y015527D01*
X024479Y015561D01*
X024451Y015589D01*
X024417Y015609D01*
X024379Y015619D01*
X024191Y015619D01*
X024191Y015321D01*
X024191Y015336D02*
X024094Y015336D01*
X024094Y015434D02*
X024191Y015434D01*
X024191Y015533D02*
X024094Y015533D01*
X023825Y015631D02*
X024545Y015631D01*
X024545Y015533D02*
X024496Y015533D01*
X024509Y015434D02*
X024545Y015434D01*
X024545Y015336D02*
X024509Y015336D01*
X024545Y015730D02*
X023825Y015730D01*
X023825Y015829D02*
X024545Y015829D01*
X024545Y015927D02*
X023825Y015927D01*
X023825Y016026D02*
X024545Y016026D01*
X024545Y016124D02*
X023825Y016124D01*
X023825Y016223D02*
X024545Y016223D01*
X024545Y016321D02*
X023825Y016321D01*
X023825Y016420D02*
X024545Y016420D01*
X024545Y016518D02*
X023825Y016518D01*
X023825Y016617D02*
X024545Y016617D01*
X024545Y016715D02*
X023825Y016715D01*
X023825Y016814D02*
X024545Y016814D01*
X024545Y016913D02*
X023825Y016913D01*
X023825Y017011D02*
X024545Y017011D01*
X024545Y017110D02*
X023825Y017110D01*
X023825Y017208D02*
X024545Y017208D01*
X024545Y017307D02*
X023825Y017307D01*
X023825Y017405D02*
X024545Y017405D01*
X024545Y017504D02*
X023825Y017504D01*
X023825Y017602D02*
X024545Y017602D01*
X024545Y017701D02*
X023825Y017701D01*
X023825Y017799D02*
X024545Y017799D01*
X024545Y017898D02*
X023825Y017898D01*
X023825Y017996D02*
X024545Y017996D01*
X024545Y018095D02*
X023825Y018095D01*
X023825Y018194D02*
X024545Y018194D01*
X024604Y018292D02*
X023825Y018292D01*
X023854Y018391D02*
X024703Y018391D01*
X024745Y018489D02*
X023953Y018489D01*
X024051Y018588D02*
X024745Y018588D01*
X024745Y018686D02*
X024135Y018686D01*
X024135Y018785D02*
X024745Y018785D01*
X024745Y018883D02*
X024125Y018883D01*
X024125Y018982D02*
X024745Y018982D01*
X023935Y018754D02*
X023635Y018454D01*
X022745Y018489D02*
X022125Y018489D01*
X022125Y018391D02*
X022745Y018391D01*
X022745Y018292D02*
X022125Y018292D01*
X022125Y018194D02*
X022745Y018194D01*
X022745Y018095D02*
X022125Y018095D01*
X022125Y017996D02*
X022745Y017996D01*
X022745Y017898D02*
X022125Y017898D01*
X022125Y017799D02*
X022745Y017799D01*
X022745Y017701D02*
X022125Y017701D01*
X022125Y017602D02*
X022745Y017602D01*
X022745Y017504D02*
X022125Y017504D01*
X022125Y017405D02*
X022745Y017405D01*
X022745Y017307D02*
X022125Y017307D01*
X022125Y017208D02*
X022745Y017208D01*
X022745Y017110D02*
X022125Y017110D01*
X022125Y017011D02*
X022745Y017011D01*
X022745Y016913D02*
X022125Y016913D01*
X022125Y016814D02*
X022745Y016814D01*
X022745Y016715D02*
X022125Y016715D01*
X022125Y016617D02*
X022745Y016617D01*
X022745Y016533D02*
X022345Y016133D01*
X022345Y015976D01*
X022345Y014313D01*
X022125Y014533D01*
X022125Y019146D01*
X022190Y019173D01*
X022317Y019299D01*
X022385Y019465D01*
X022385Y019644D01*
X022317Y019809D01*
X022190Y019936D01*
X022125Y019963D01*
X022125Y020146D01*
X022190Y020173D01*
X022317Y020299D01*
X022385Y020465D01*
X022385Y021244D01*
X022319Y021404D01*
X022552Y021404D01*
X022485Y021244D01*
X022485Y020465D01*
X022554Y020299D01*
X022680Y020173D01*
X022745Y020146D01*
X022745Y019963D01*
X022680Y019936D01*
X022554Y019809D01*
X022485Y019644D01*
X022485Y019465D01*
X022554Y019299D01*
X022680Y019173D01*
X022745Y019146D01*
X022745Y016533D01*
X022730Y016518D02*
X022125Y016518D01*
X022125Y016420D02*
X022632Y016420D01*
X022533Y016321D02*
X022125Y016321D01*
X022125Y016223D02*
X022435Y016223D01*
X022345Y016124D02*
X022125Y016124D01*
X022125Y016026D02*
X022345Y016026D01*
X022345Y015927D02*
X022125Y015927D01*
X022125Y015829D02*
X022345Y015829D01*
X022345Y015730D02*
X022125Y015730D01*
X022125Y015631D02*
X022345Y015631D01*
X022345Y015533D02*
X022125Y015533D01*
X022125Y015434D02*
X022345Y015434D01*
X022345Y015336D02*
X022125Y015336D01*
X022125Y015237D02*
X022345Y015237D01*
X022345Y015139D02*
X022125Y015139D01*
X022125Y015040D02*
X022345Y015040D01*
X022345Y014942D02*
X022125Y014942D01*
X022125Y014843D02*
X022345Y014843D01*
X022345Y014745D02*
X022125Y014745D01*
X022125Y014646D02*
X022345Y014646D01*
X022345Y014547D02*
X022125Y014547D01*
X022209Y014449D02*
X022345Y014449D01*
X022345Y014350D02*
X022308Y014350D01*
X022066Y014055D02*
X021830Y014055D01*
X021830Y014028D02*
X021830Y014113D01*
X021785Y014221D01*
X021702Y014304D01*
X021594Y014349D01*
X021476Y014349D01*
X021427Y014329D01*
X021485Y014387D01*
X021530Y014496D01*
X021530Y014613D01*
X021485Y014721D01*
X021402Y014804D01*
X021294Y014849D01*
X021176Y014849D01*
X021125Y014828D01*
X021125Y019146D01*
X021190Y019173D01*
X021317Y019299D01*
X021385Y019465D01*
X021385Y019644D01*
X021317Y019809D01*
X021190Y019936D01*
X021125Y019963D01*
X021125Y020146D01*
X021190Y020173D01*
X021317Y020299D01*
X021385Y020465D01*
X021385Y021244D01*
X021319Y021404D01*
X021552Y021404D01*
X021485Y021244D01*
X021485Y020465D01*
X021554Y020299D01*
X021680Y020173D01*
X021745Y020146D01*
X021745Y019963D01*
X021680Y019936D01*
X021554Y019809D01*
X021485Y019644D01*
X021485Y019465D01*
X021554Y019299D01*
X021680Y019173D01*
X021745Y019146D01*
X021745Y014376D01*
X021856Y014264D01*
X022445Y013676D01*
X022445Y012533D01*
X022130Y012218D01*
X022130Y013570D01*
X022130Y013728D01*
X021830Y014028D01*
X021902Y013956D02*
X022164Y013956D01*
X022263Y013858D02*
X022000Y013858D01*
X022099Y013759D02*
X022362Y013759D01*
X022445Y013661D02*
X022130Y013661D01*
X022130Y013562D02*
X022445Y013562D01*
X022445Y013464D02*
X022130Y013464D01*
X022130Y013365D02*
X022445Y013365D01*
X022445Y013266D02*
X022130Y013266D01*
X022130Y013168D02*
X022445Y013168D01*
X022445Y013069D02*
X022130Y013069D01*
X022130Y012971D02*
X022445Y012971D01*
X022445Y012872D02*
X022130Y012872D01*
X022130Y012774D02*
X022445Y012774D01*
X022445Y012675D02*
X022130Y012675D01*
X022130Y012577D02*
X022445Y012577D01*
X022390Y012478D02*
X022130Y012478D01*
X022130Y012380D02*
X022292Y012380D01*
X022193Y012281D02*
X022130Y012281D01*
X022735Y011985D02*
X023714Y011985D01*
X023668Y012004D02*
X023776Y011959D01*
X023894Y011959D01*
X024002Y012004D01*
X024085Y012087D01*
X024130Y012196D01*
X024130Y012313D01*
X024085Y012421D01*
X024002Y012504D01*
X024103Y012380D02*
X024468Y012380D01*
X024440Y012281D02*
X024130Y012281D01*
X024125Y012182D02*
X024446Y012182D01*
X024488Y012084D02*
X024082Y012084D01*
X023957Y011985D02*
X024614Y011985D01*
X024744Y011887D02*
X023244Y011887D01*
X023331Y011788D02*
X024785Y011788D01*
X024903Y011690D02*
X024368Y011690D01*
X024467Y011591D02*
X025042Y011591D01*
X025083Y011493D02*
X024565Y011493D01*
X024324Y011197D02*
X023324Y011197D01*
X023331Y011296D02*
X024225Y011296D01*
X024905Y010901D02*
X025022Y010901D01*
X025270Y010654D02*
X025335Y010589D01*
X023668Y012004D02*
X023585Y012087D01*
X023540Y012196D01*
X023540Y012281D01*
X023546Y012182D02*
X022932Y012182D01*
X022833Y012084D02*
X023588Y012084D01*
X022227Y011115D02*
X022062Y011115D01*
X021865Y011115D01*
X021668Y011115D01*
X021471Y011115D01*
X021274Y011115D01*
X021077Y011115D01*
X020880Y011115D01*
X020684Y011115D01*
X020444Y011115D01*
X020388Y011115D01*
X020430Y011013D01*
X020430Y010896D01*
X020385Y010787D01*
X020302Y010704D01*
X020197Y010661D01*
X020325Y010533D01*
X020325Y010376D01*
X020325Y008876D01*
X020214Y008764D01*
X019952Y008502D01*
X019794Y008502D01*
X019694Y008502D01*
X019694Y008488D01*
X020001Y008488D01*
X020445Y008933D01*
X020445Y009227D01*
X020385Y009287D01*
X020340Y009396D01*
X020340Y009513D01*
X020385Y009621D01*
X020468Y009704D01*
X020576Y009749D01*
X020694Y009749D01*
X020802Y009704D01*
X020885Y009621D01*
X020930Y009513D01*
X020930Y009396D01*
X020885Y009287D01*
X020825Y009227D01*
X020825Y008933D01*
X020825Y008776D01*
X020158Y008109D01*
X020001Y008109D01*
X019694Y008109D01*
X019694Y007984D01*
X019694Y007905D01*
X019619Y007905D01*
X019618Y007905D01*
X019619Y007905D01*
X019694Y007905D01*
X019694Y007826D01*
X019694Y007615D01*
X019776Y007649D01*
X019861Y007649D01*
X019956Y007744D01*
X020114Y007744D01*
X021256Y007744D01*
X021414Y007744D01*
X021656Y007744D01*
X021771Y007859D01*
X021676Y007859D01*
X021568Y007904D01*
X021485Y007987D01*
X021440Y008096D01*
X021440Y008213D01*
X021485Y008321D01*
X021545Y008381D01*
X021545Y009747D01*
X021502Y009704D01*
X021394Y009659D01*
X021276Y009659D01*
X021168Y009704D01*
X021085Y009787D01*
X021040Y009896D01*
X021040Y010013D01*
X021085Y010121D01*
X021168Y010204D01*
X021276Y010249D01*
X021361Y010249D01*
X022227Y011115D01*
X022211Y011098D02*
X020395Y011098D01*
X020366Y011141D02*
X020365Y011141D01*
X020365Y011191D01*
X020366Y011191D01*
X020366Y011141D01*
X020366Y011144D02*
X020435Y011054D01*
X020435Y010954D01*
X020535Y010754D01*
X020392Y010803D02*
X021915Y010803D01*
X022014Y010901D02*
X020430Y010901D01*
X020430Y011000D02*
X022112Y011000D01*
X021816Y010704D02*
X020302Y010704D01*
X020252Y010606D02*
X021718Y010606D01*
X021619Y010507D02*
X020325Y010507D01*
X020325Y010409D02*
X021521Y010409D01*
X021422Y010310D02*
X020325Y010310D01*
X020325Y010212D02*
X021185Y010212D01*
X021082Y010113D02*
X020325Y010113D01*
X020325Y010014D02*
X021041Y010014D01*
X021040Y009916D02*
X020325Y009916D01*
X020325Y009817D02*
X021073Y009817D01*
X021153Y009719D02*
X020767Y009719D01*
X020886Y009620D02*
X021545Y009620D01*
X021545Y009522D02*
X020926Y009522D01*
X020930Y009423D02*
X021545Y009423D01*
X021545Y009325D02*
X020901Y009325D01*
X020825Y009226D02*
X021545Y009226D01*
X021545Y009128D02*
X020825Y009128D01*
X020825Y009029D02*
X021545Y009029D01*
X021545Y008931D02*
X020825Y008931D01*
X020825Y008832D02*
X021545Y008832D01*
X021545Y008733D02*
X020783Y008733D01*
X020684Y008635D02*
X021545Y008635D01*
X021545Y008536D02*
X020586Y008536D01*
X020487Y008438D02*
X021545Y008438D01*
X021503Y008339D02*
X020389Y008339D01*
X020290Y008241D02*
X021452Y008241D01*
X021440Y008142D02*
X020192Y008142D01*
X020035Y007954D02*
X019986Y007905D01*
X019308Y007905D01*
X019694Y007945D02*
X021527Y007945D01*
X021462Y008044D02*
X019694Y008044D01*
X019694Y007847D02*
X021759Y007847D01*
X021660Y007748D02*
X019694Y007748D01*
X019694Y007649D02*
X019862Y007649D01*
X019960Y006657D02*
X019629Y006657D01*
X019626Y006654D01*
X019652Y006628D01*
X019672Y006594D01*
X019682Y006556D01*
X019682Y006368D01*
X019384Y006368D01*
X019384Y006271D01*
X019682Y006271D01*
X019682Y006244D01*
X019714Y006244D01*
X020456Y006244D01*
X020569Y006357D01*
X020569Y006461D01*
X020441Y006461D01*
X020244Y006461D01*
X020048Y006461D01*
X019960Y006549D01*
X019960Y006657D01*
X019960Y006565D02*
X019679Y006565D01*
X019682Y006467D02*
X020042Y006467D01*
X019682Y006368D02*
X020569Y006368D01*
X020482Y006270D02*
X019682Y006270D01*
X019627Y005777D02*
X020389Y005777D01*
X020291Y005679D02*
X019528Y005679D01*
X019430Y005580D02*
X020192Y005580D01*
X020094Y005481D02*
X019331Y005481D01*
X019232Y005383D02*
X019995Y005383D01*
X019897Y005284D02*
X019134Y005284D01*
X019126Y005186D02*
X019798Y005186D01*
X019699Y005087D02*
X019085Y005087D01*
X018965Y004989D02*
X019601Y004989D01*
X020335Y004954D02*
X020335Y004459D01*
X020313Y004437D01*
X019846Y004102D02*
X019825Y004102D01*
X018705Y004989D02*
X015439Y004989D01*
X015340Y005087D02*
X018585Y005087D01*
X018544Y005186D02*
X015242Y005186D01*
X015675Y005284D02*
X018540Y005284D01*
X018569Y005383D02*
X018161Y005383D01*
X018209Y005481D02*
X018645Y005481D01*
X018892Y005580D02*
X018209Y005580D01*
X018209Y005679D02*
X018991Y005679D01*
X019089Y005777D02*
X018209Y005777D01*
X018209Y005876D02*
X019188Y005876D01*
X019062Y005974D02*
X018183Y005974D01*
X018209Y006073D02*
X018991Y006073D01*
X018988Y006171D02*
X018209Y006171D01*
X018209Y006270D02*
X018988Y006270D01*
X018988Y006368D02*
X018209Y006368D01*
X018209Y006467D02*
X018988Y006467D01*
X018991Y006565D02*
X018209Y006565D01*
X018123Y006664D02*
X019035Y006664D01*
X018988Y006763D02*
X018902Y006763D01*
X018769Y006763D02*
X018025Y006763D01*
X018033Y006861D02*
X018037Y006861D01*
X017645Y006763D02*
X010936Y006763D01*
X010936Y006703D02*
X010936Y006871D01*
X010926Y006909D01*
X010906Y006943D01*
X010878Y006971D01*
X010844Y006991D01*
X010806Y007001D01*
X010618Y007001D01*
X010618Y006703D01*
X010936Y006703D01*
X010936Y006565D02*
X015036Y006565D01*
X014631Y006467D02*
X010936Y006467D01*
X010908Y006368D02*
X011369Y006368D01*
X011901Y006368D02*
X012969Y006368D01*
X013501Y006368D02*
X013820Y006368D01*
X014004Y006368D02*
X014563Y006368D01*
X014540Y006270D02*
X014147Y006270D01*
X014197Y006171D02*
X014550Y006171D01*
X014599Y006073D02*
X014207Y006073D01*
X014184Y005974D02*
X014740Y005974D01*
X014930Y005974D02*
X015074Y005974D01*
X015019Y005876D02*
X014117Y005876D01*
X013836Y005580D02*
X015019Y005580D01*
X015019Y005481D02*
X014946Y005481D01*
X015696Y005974D02*
X015887Y005974D01*
X015861Y006073D02*
X015752Y006073D01*
X015752Y006171D02*
X015861Y006171D01*
X015861Y006270D02*
X015752Y006270D01*
X015752Y006368D02*
X015861Y006368D01*
X015861Y006467D02*
X015752Y006467D01*
X015734Y006565D02*
X015861Y006565D01*
X015947Y006664D02*
X010618Y006664D01*
X010618Y006763D02*
X010521Y006763D01*
X010521Y006861D02*
X010618Y006861D01*
X010618Y006960D02*
X010521Y006960D01*
X010250Y006960D02*
X010221Y006960D01*
X010521Y006565D02*
X010618Y006565D01*
X010618Y006467D02*
X010521Y006467D01*
X010521Y006368D02*
X010618Y006368D01*
X010936Y006861D02*
X015875Y006861D01*
X015854Y006960D02*
X010890Y006960D01*
X009703Y006270D02*
X008632Y006270D01*
X008632Y006368D02*
X009561Y006368D01*
X009534Y006467D02*
X008632Y006467D01*
X008632Y006565D02*
X009534Y006565D01*
X009534Y006664D02*
X008632Y006664D01*
X008632Y006763D02*
X009534Y006763D01*
X009534Y006861D02*
X008632Y006861D01*
X008608Y006960D02*
X008776Y006960D01*
X008895Y006960D02*
X009580Y006960D01*
X009114Y007157D02*
X013696Y007157D01*
X013749Y007104D02*
X013485Y007368D01*
X013485Y007504D01*
X013885Y007504D01*
X013985Y007504D01*
X013985Y007104D01*
X014121Y007104D01*
X014385Y007368D01*
X014385Y007504D01*
X013985Y007504D01*
X013985Y007604D01*
X014385Y007604D01*
X014385Y007741D01*
X014121Y008004D01*
X013985Y008004D01*
X013985Y007604D01*
X013885Y007604D01*
X013885Y007504D01*
X013885Y007104D01*
X013749Y007104D01*
X013885Y007157D02*
X013985Y007157D01*
X013985Y007255D02*
X013885Y007255D01*
X013885Y007354D02*
X013985Y007354D01*
X013985Y007452D02*
X013885Y007452D01*
X013885Y007551D02*
X008632Y007551D01*
X008632Y007649D02*
X013485Y007649D01*
X013485Y007604D02*
X013885Y007604D01*
X013885Y008004D01*
X013749Y008004D01*
X013485Y007741D01*
X013485Y007604D01*
X013492Y007748D02*
X008397Y007748D01*
X009003Y007847D02*
X013591Y007847D01*
X013689Y007945D02*
X009006Y007945D01*
X009006Y008044D02*
X014177Y008044D01*
X014181Y007945D02*
X014276Y007945D01*
X014279Y007847D02*
X014591Y007847D01*
X014492Y007748D02*
X014378Y007748D01*
X014385Y007649D02*
X014485Y007649D01*
X014485Y007551D02*
X013985Y007551D01*
X013985Y007649D02*
X013885Y007649D01*
X013885Y007748D02*
X013985Y007748D01*
X013985Y007847D02*
X013885Y007847D01*
X013885Y007945D02*
X013985Y007945D01*
X013711Y008142D02*
X009006Y008142D01*
X009006Y008241D02*
X013612Y008241D01*
X013514Y008339D02*
X009006Y008339D01*
X009006Y008438D02*
X013485Y008438D01*
X013485Y008536D02*
X011486Y008536D01*
X011584Y008635D02*
X013485Y008635D01*
X013485Y008733D02*
X011683Y008733D01*
X011781Y008832D02*
X013576Y008832D01*
X013675Y008931D02*
X011880Y008931D01*
X011979Y009029D02*
X015141Y009029D01*
X015145Y009128D02*
X015240Y009128D01*
X015243Y009226D02*
X015338Y009226D01*
X015342Y009325D02*
X015437Y009325D01*
X015308Y009817D02*
X016829Y009817D01*
X016841Y009916D02*
X015210Y009916D01*
X015121Y010104D02*
X015385Y010368D01*
X015385Y010741D01*
X015121Y011004D01*
X014749Y011004D01*
X014485Y010741D01*
X014485Y010368D01*
X014749Y010104D01*
X015121Y010104D01*
X015130Y010113D02*
X016989Y010113D01*
X017009Y010212D02*
X015229Y010212D01*
X015327Y010310D02*
X016911Y010310D01*
X016845Y010409D02*
X015385Y010409D01*
X015385Y010507D02*
X016845Y010507D01*
X016845Y010606D02*
X015385Y010606D01*
X015385Y010704D02*
X016845Y010704D01*
X016845Y010803D02*
X015323Y010803D01*
X015224Y010901D02*
X016845Y010901D01*
X016845Y011000D02*
X015126Y011000D01*
X014744Y011000D02*
X014126Y011000D01*
X014121Y011004D02*
X013749Y011004D01*
X013485Y010741D01*
X013485Y010368D01*
X013749Y010104D01*
X014121Y010104D01*
X014385Y010368D01*
X014385Y010741D01*
X014121Y011004D01*
X014224Y010901D02*
X014646Y010901D01*
X014547Y010803D02*
X014323Y010803D01*
X014385Y010704D02*
X014485Y010704D01*
X014485Y010606D02*
X014385Y010606D01*
X014385Y010507D02*
X014485Y010507D01*
X014485Y010409D02*
X014385Y010409D01*
X014327Y010310D02*
X014543Y010310D01*
X014641Y010212D02*
X014229Y010212D01*
X014130Y010113D02*
X014740Y010113D01*
X014660Y009916D02*
X014210Y009916D01*
X014308Y009817D02*
X014562Y009817D01*
X014485Y009719D02*
X014385Y009719D01*
X014385Y009620D02*
X014485Y009620D01*
X014485Y009522D02*
X014385Y009522D01*
X014385Y009423D02*
X014485Y009423D01*
X014528Y009325D02*
X014342Y009325D01*
X014243Y009226D02*
X014627Y009226D01*
X014725Y009128D02*
X014145Y009128D01*
X014195Y008931D02*
X014675Y008931D01*
X014576Y008832D02*
X014294Y008832D01*
X014385Y008733D02*
X014485Y008733D01*
X014485Y008635D02*
X014385Y008635D01*
X014385Y008536D02*
X014485Y008536D01*
X014485Y008438D02*
X014385Y008438D01*
X014419Y008339D02*
X014514Y008339D01*
X013725Y009128D02*
X012077Y009128D01*
X012176Y009226D02*
X013627Y009226D01*
X013528Y009325D02*
X012274Y009325D01*
X012373Y009423D02*
X013197Y009423D01*
X013099Y009522D02*
X012471Y009522D01*
X012570Y009620D02*
X013000Y009620D01*
X012902Y009719D02*
X012625Y009719D01*
X012625Y009817D02*
X012845Y009817D01*
X012845Y009916D02*
X012625Y009916D01*
X012625Y010014D02*
X012845Y010014D01*
X012845Y010113D02*
X012625Y010113D01*
X012625Y010212D02*
X012845Y010212D01*
X012845Y010310D02*
X012625Y010310D01*
X012625Y010409D02*
X012845Y010409D01*
X012845Y010507D02*
X012625Y010507D01*
X012625Y010606D02*
X012845Y010606D01*
X012845Y010704D02*
X012625Y010704D01*
X012652Y010803D02*
X012845Y010803D01*
X012845Y010901D02*
X012751Y010901D01*
X013225Y010901D02*
X013646Y010901D01*
X013547Y010803D02*
X013225Y010803D01*
X013225Y010704D02*
X013485Y010704D01*
X013485Y010606D02*
X013225Y010606D01*
X013225Y010507D02*
X013485Y010507D01*
X013485Y010409D02*
X013225Y010409D01*
X013225Y010310D02*
X013543Y010310D01*
X013641Y010212D02*
X013225Y010212D01*
X013225Y010113D02*
X013740Y010113D01*
X013660Y009916D02*
X013242Y009916D01*
X013225Y010014D02*
X016882Y010014D01*
X016845Y011098D02*
X013248Y011098D01*
X013225Y011000D02*
X013744Y011000D01*
X013445Y011296D02*
X016845Y011296D01*
X016845Y011394D02*
X013544Y011394D01*
X013642Y011493D02*
X016845Y011493D01*
X016845Y011591D02*
X013741Y011591D01*
X013839Y011690D02*
X016845Y011690D01*
X016845Y011788D02*
X013938Y011788D01*
X014036Y011887D02*
X016785Y011887D01*
X016744Y011985D02*
X014135Y011985D01*
X014233Y012084D02*
X016740Y012084D01*
X016769Y012182D02*
X014332Y012182D01*
X014430Y012281D02*
X016845Y012281D01*
X017243Y012380D02*
X014529Y012380D01*
X013884Y012872D02*
X011247Y012872D01*
X011345Y012774D02*
X013786Y012774D01*
X013687Y012675D02*
X011383Y012675D01*
X011383Y012736D02*
X011383Y012364D01*
X011119Y012100D01*
X010746Y012100D01*
X010483Y012364D01*
X010483Y012736D01*
X010746Y013000D01*
X011119Y013000D01*
X011383Y012736D01*
X011383Y012577D02*
X013589Y012577D01*
X013490Y012478D02*
X011383Y012478D01*
X011383Y012380D02*
X013392Y012380D01*
X013293Y012281D02*
X011300Y012281D01*
X011202Y012182D02*
X013195Y012182D01*
X013096Y012084D02*
X010243Y012084D01*
X010243Y012182D02*
X010664Y012182D01*
X010565Y012281D02*
X010300Y012281D01*
X010243Y012224D02*
X010383Y012364D01*
X010383Y012736D01*
X010119Y013000D01*
X009746Y013000D01*
X009483Y012736D01*
X009483Y012364D01*
X009623Y012224D01*
X009623Y011876D01*
X009483Y011736D01*
X009483Y011364D01*
X009623Y011224D01*
X009623Y010876D01*
X009483Y010736D01*
X009483Y010364D01*
X009623Y010224D01*
X009623Y009876D01*
X009483Y009736D01*
X009483Y009364D01*
X009746Y009100D01*
X010119Y009100D01*
X010383Y009364D01*
X010383Y009736D01*
X010243Y009876D01*
X010243Y010224D01*
X010383Y010364D01*
X010383Y010736D01*
X010243Y010876D01*
X010243Y011224D01*
X010383Y011364D01*
X010383Y011736D01*
X010243Y011876D01*
X010243Y012224D01*
X010383Y012380D02*
X010483Y012380D01*
X010483Y012478D02*
X010383Y012478D01*
X010383Y012577D02*
X010483Y012577D01*
X010483Y012675D02*
X010383Y012675D01*
X010345Y012774D02*
X010520Y012774D01*
X010619Y012872D02*
X010247Y012872D01*
X010148Y012971D02*
X010717Y012971D01*
X011148Y012971D02*
X013983Y012971D01*
X014081Y013069D02*
X009019Y013069D01*
X009117Y013168D02*
X014180Y013168D01*
X015267Y014153D02*
X012153Y014153D01*
X012213Y014055D02*
X015366Y014055D01*
X015464Y013956D02*
X012230Y013956D01*
X012214Y013858D02*
X019115Y013858D01*
X019556Y013858D02*
X020063Y013858D01*
X020045Y013956D02*
X019614Y013956D01*
X019630Y014055D02*
X020045Y014055D01*
X020045Y014153D02*
X019613Y014153D01*
X019555Y014252D02*
X020045Y014252D01*
X020045Y014350D02*
X019548Y014350D01*
X019611Y014449D02*
X020045Y014449D01*
X020045Y014547D02*
X019630Y014547D01*
X019616Y014646D02*
X020045Y014646D01*
X020045Y014745D02*
X019562Y014745D01*
X019409Y014843D02*
X020045Y014843D01*
X020045Y014942D02*
X016691Y014942D01*
X016790Y015040D02*
X020045Y015040D01*
X020045Y015139D02*
X016888Y015139D01*
X016987Y015237D02*
X020045Y015237D01*
X020045Y015336D02*
X017085Y015336D01*
X017125Y015434D02*
X020045Y015434D01*
X020045Y015730D02*
X017125Y015730D01*
X017125Y015829D02*
X020045Y015829D01*
X020045Y015927D02*
X017125Y015927D01*
X017125Y016026D02*
X020045Y016026D01*
X020045Y016124D02*
X017125Y016124D01*
X017125Y016223D02*
X020045Y016223D01*
X019999Y016321D02*
X017125Y016321D01*
X017125Y016420D02*
X019901Y016420D01*
X019802Y016518D02*
X017125Y016518D01*
X017125Y016617D02*
X019704Y016617D01*
X019605Y016715D02*
X017125Y016715D01*
X017125Y016814D02*
X019507Y016814D01*
X019408Y016913D02*
X017125Y016913D01*
X017125Y017011D02*
X019310Y017011D01*
X019211Y017110D02*
X017125Y017110D01*
X017125Y017208D02*
X019113Y017208D01*
X019014Y017307D02*
X017125Y017307D01*
X017125Y017405D02*
X018915Y017405D01*
X018817Y017504D02*
X017125Y017504D01*
X017125Y017602D02*
X018718Y017602D01*
X018620Y017701D02*
X017125Y017701D01*
X017125Y017799D02*
X018521Y017799D01*
X018423Y017898D02*
X017125Y017898D01*
X017125Y017996D02*
X018324Y017996D01*
X018226Y018095D02*
X017125Y018095D01*
X017125Y018194D02*
X018127Y018194D01*
X018029Y018292D02*
X017125Y018292D01*
X017125Y018391D02*
X017930Y018391D01*
X017831Y018489D02*
X017125Y018489D01*
X017125Y018588D02*
X017745Y018588D01*
X017745Y018686D02*
X017125Y018686D01*
X017125Y018785D02*
X017745Y018785D01*
X017745Y018883D02*
X017125Y018883D01*
X017125Y018982D02*
X017745Y018982D01*
X017745Y019080D02*
X017125Y019080D01*
X017196Y019179D02*
X017498Y019179D01*
X017485Y019278D02*
X017295Y019278D01*
X017348Y019376D02*
X017485Y019376D01*
X017485Y019475D02*
X017385Y019475D01*
X017385Y019573D02*
X017485Y019573D01*
X017485Y019672D02*
X017374Y019672D01*
X017420Y019770D02*
X017485Y019770D01*
X017475Y019869D02*
X017485Y019869D01*
X017475Y019967D02*
X017536Y019967D01*
X017475Y020066D02*
X018095Y020066D01*
X018050Y020164D02*
X017520Y020164D01*
X017630Y020263D02*
X017940Y020263D01*
X017878Y020362D02*
X017692Y020362D01*
X017733Y020460D02*
X017837Y020460D01*
X017835Y020559D02*
X017735Y020559D01*
X017735Y020657D02*
X017835Y020657D01*
X017835Y020756D02*
X017735Y020756D01*
X017735Y020854D02*
X017835Y020854D01*
X017835Y020953D02*
X017735Y020953D01*
X017735Y021051D02*
X017835Y021051D01*
X017835Y021150D02*
X017735Y021150D01*
X017733Y021248D02*
X017837Y021248D01*
X017878Y021347D02*
X017692Y021347D01*
X016902Y021404D02*
X016835Y021244D01*
X016835Y020465D01*
X016904Y020299D01*
X017030Y020173D01*
X017095Y020146D01*
X017095Y019983D01*
X017089Y019977D01*
X017025Y020004D01*
X016846Y020004D01*
X016680Y019936D01*
X016554Y019809D01*
X016485Y019644D01*
X016485Y019465D01*
X016554Y019299D01*
X016680Y019173D01*
X016745Y019146D01*
X016745Y015533D01*
X011225Y015533D01*
X011127Y015631D02*
X016745Y015631D01*
X016745Y015533D02*
X016061Y014849D01*
X015976Y014849D01*
X015868Y014804D01*
X015785Y014721D01*
X015740Y014613D01*
X015740Y014518D01*
X015625Y014633D01*
X015514Y014744D01*
X012014Y014744D01*
X010925Y015833D01*
X010814Y015944D01*
X010742Y015944D01*
X010785Y015987D01*
X010830Y016096D01*
X010830Y016213D01*
X010785Y016321D01*
X010946Y016321D01*
X010932Y016335D02*
X011020Y016247D01*
X011459Y016247D01*
X011535Y016323D01*
X011611Y016247D01*
X011640Y016247D01*
X011640Y016177D01*
X011585Y016121D01*
X011540Y016013D01*
X011540Y015896D01*
X011585Y015787D01*
X011668Y015704D01*
X011776Y015659D01*
X011894Y015659D01*
X012002Y015704D01*
X012085Y015787D01*
X012130Y015896D01*
X012130Y016013D01*
X012085Y016121D01*
X012020Y016186D01*
X012020Y016247D01*
X012050Y016247D01*
X012138Y016335D01*
X012138Y016774D01*
X012107Y016804D01*
X012138Y016835D01*
X012138Y017274D01*
X012050Y017362D01*
X011611Y017362D01*
X011535Y017286D01*
X011459Y017362D01*
X011020Y017362D01*
X010958Y017300D01*
X010825Y017433D01*
X010825Y017447D01*
X011159Y017447D01*
X011240Y017527D01*
X011253Y017505D01*
X011281Y017477D01*
X011315Y017457D01*
X011353Y017447D01*
X011502Y017447D01*
X011502Y017725D01*
X011559Y017725D01*
X011559Y017447D01*
X011708Y017447D01*
X011746Y017457D01*
X011780Y017477D01*
X011808Y017505D01*
X011828Y017539D01*
X011838Y017577D01*
X011838Y017726D01*
X011559Y017726D01*
X011559Y017783D01*
X011502Y017783D01*
X011502Y018062D01*
X011353Y018062D01*
X011315Y018052D01*
X011281Y018032D01*
X011253Y018004D01*
X011240Y017981D01*
X011159Y018062D01*
X011125Y018062D01*
X011125Y018133D01*
X011014Y018244D01*
X010714Y018544D01*
X010556Y018544D01*
X010317Y018544D01*
X010317Y018633D01*
X010229Y018721D01*
X009711Y018721D01*
X009635Y018645D01*
X009559Y018721D01*
X009525Y018721D01*
X009525Y018827D01*
X009585Y018887D01*
X009630Y018996D01*
X009630Y019113D01*
X009585Y019221D01*
X009502Y019304D01*
X009394Y019349D01*
X009276Y019349D01*
X009168Y019304D01*
X009085Y019221D01*
X009040Y019113D01*
X009040Y018996D01*
X009085Y018887D01*
X009145Y018827D01*
X009145Y018721D01*
X009041Y018721D01*
X008954Y018633D01*
X008954Y018133D01*
X008954Y018044D01*
X008756Y018044D01*
X008645Y017933D01*
X008511Y017799D01*
X008512Y017799D01*
X008511Y017799D02*
X008511Y017957D01*
X008314Y017957D01*
X008314Y017957D01*
X008511Y017957D01*
X008511Y018102D01*
X008575Y018166D01*
X008693Y018166D01*
X008796Y018268D01*
X008796Y018532D01*
X008789Y018538D01*
X008796Y018544D01*
X008796Y018728D01*
X008796Y018807D01*
X008693Y018910D01*
X008575Y018910D01*
X008511Y018974D01*
X008511Y019348D01*
X008496Y019363D01*
X008496Y019505D01*
X008496Y019663D01*
X008325Y019833D01*
X008325Y019873D01*
X008364Y019873D01*
X008452Y019961D01*
X008452Y020479D01*
X008371Y020559D01*
X008394Y020572D01*
X008422Y020600D01*
X008441Y020634D01*
X008452Y020672D01*
X008452Y020840D01*
X008134Y020840D01*
X008134Y020937D01*
X008452Y020937D01*
X008452Y021106D01*
X008441Y021144D01*
X008422Y021178D01*
X008394Y021206D01*
X008360Y021226D01*
X008321Y021236D01*
X008134Y021236D01*
X008134Y020938D01*
X008037Y020938D01*
X008037Y021236D01*
X007849Y021236D01*
X007811Y021226D01*
X007776Y021206D01*
X007749Y021178D01*
X007729Y021144D01*
X007719Y021106D01*
X007719Y020937D01*
X008036Y020937D01*
X008036Y020840D01*
X007719Y020840D01*
X007719Y020672D01*
X007729Y020634D01*
X007749Y020600D01*
X007776Y020572D01*
X007799Y020559D01*
X007741Y020501D01*
X007191Y020501D01*
X007135Y020445D01*
X007079Y020501D01*
X006584Y020501D01*
X006584Y021383D01*
X006562Y021404D01*
X010902Y021404D01*
X010835Y021244D01*
X010835Y020465D01*
X010904Y020299D01*
X011030Y020173D01*
X011095Y020146D01*
X011095Y019983D01*
X011090Y019977D01*
X011025Y020004D01*
X010846Y020004D01*
X010680Y019936D01*
X010554Y019809D01*
X010485Y019644D01*
X010485Y019465D01*
X010554Y019299D01*
X010680Y019173D01*
X010846Y019104D01*
X011025Y019104D01*
X011190Y019173D01*
X011317Y019299D01*
X011385Y019465D01*
X011385Y019644D01*
X011358Y019709D01*
X011475Y019826D01*
X011475Y019983D01*
X011475Y020146D01*
X011540Y020173D01*
X011667Y020299D01*
X011735Y020465D01*
X011735Y021244D01*
X011669Y021404D01*
X011911Y021404D01*
X011900Y021390D01*
X011868Y021327D01*
X011846Y021260D01*
X011835Y021190D01*
X011835Y020604D01*
X012235Y020604D01*
X012235Y020504D01*
X012335Y020504D01*
X012335Y020107D01*
X012390Y020115D01*
X012458Y020137D01*
X012521Y020169D01*
X012578Y020211D01*
X012628Y020261D01*
X012670Y020318D01*
X012702Y020382D01*
X012724Y020449D01*
X012733Y020504D01*
X012335Y020504D01*
X012335Y020604D01*
X012735Y020604D01*
X012735Y021190D01*
X012724Y021260D01*
X012702Y021327D01*
X012670Y021390D01*
X012660Y021404D01*
X012902Y021404D01*
X012835Y021244D01*
X012835Y020465D01*
X012904Y020299D01*
X013030Y020173D01*
X013095Y020146D01*
X013095Y019983D01*
X013089Y019977D01*
X013025Y020004D01*
X012846Y020004D01*
X012680Y019936D01*
X012554Y019809D01*
X012485Y019644D01*
X012485Y019465D01*
X012554Y019299D01*
X012680Y019173D01*
X012745Y019146D01*
X012745Y016481D01*
X012685Y016421D01*
X012640Y016313D01*
X012640Y016196D01*
X012685Y016087D01*
X012768Y016004D01*
X012876Y015959D01*
X012994Y015959D01*
X013102Y016004D01*
X013185Y016087D01*
X013230Y016196D01*
X013230Y016313D01*
X013185Y016421D01*
X013125Y016481D01*
X013125Y019146D01*
X013190Y019173D01*
X013317Y019299D01*
X013385Y019465D01*
X013385Y019644D01*
X013358Y019709D01*
X013475Y019826D01*
X013475Y019983D01*
X013475Y020146D01*
X013540Y020173D01*
X013667Y020299D01*
X013735Y020465D01*
X013735Y021244D01*
X013669Y021404D01*
X013902Y021404D01*
X013835Y021244D01*
X013835Y020465D01*
X013904Y020299D01*
X014030Y020173D01*
X014095Y020146D01*
X014095Y019983D01*
X014089Y019977D01*
X014025Y020004D01*
X013846Y020004D01*
X013680Y019936D01*
X013554Y019809D01*
X013485Y019644D01*
X013485Y019465D01*
X013554Y019299D01*
X013680Y019173D01*
X013745Y019146D01*
X013745Y016481D01*
X013685Y016421D01*
X013640Y016313D01*
X013640Y016196D01*
X013685Y016087D01*
X013768Y016004D01*
X013876Y015959D01*
X013994Y015959D01*
X014102Y016004D01*
X014185Y016087D01*
X014230Y016196D01*
X014230Y016313D01*
X014185Y016421D01*
X014125Y016481D01*
X014125Y019146D01*
X014190Y019173D01*
X014317Y019299D01*
X014385Y019465D01*
X014385Y019644D01*
X014358Y019709D01*
X014475Y019826D01*
X014475Y019983D01*
X014475Y020146D01*
X014540Y020173D01*
X014667Y020299D01*
X014735Y020465D01*
X014735Y021244D01*
X014669Y021404D01*
X014902Y021404D01*
X014835Y021244D01*
X014835Y020465D01*
X014904Y020299D01*
X015030Y020173D01*
X015095Y020146D01*
X015095Y019983D01*
X015090Y019977D01*
X015025Y020004D01*
X014846Y020004D01*
X014680Y019936D01*
X014554Y019809D01*
X014485Y019644D01*
X014485Y019465D01*
X014554Y019299D01*
X014680Y019173D01*
X014745Y019146D01*
X014745Y016481D01*
X014685Y016421D01*
X014640Y016313D01*
X014640Y016196D01*
X014685Y016087D01*
X014768Y016004D01*
X014876Y015959D01*
X014994Y015959D01*
X015102Y016004D01*
X015185Y016087D01*
X015230Y016196D01*
X015230Y016313D01*
X015185Y016421D01*
X015125Y016481D01*
X015125Y019146D01*
X015190Y019173D01*
X015317Y019299D01*
X015385Y019465D01*
X015385Y019644D01*
X015358Y019709D01*
X015475Y019826D01*
X015475Y019983D01*
X015475Y020146D01*
X015540Y020173D01*
X015667Y020299D01*
X015735Y020465D01*
X015735Y021244D01*
X015669Y021404D01*
X015902Y021404D01*
X015835Y021244D01*
X015835Y020465D01*
X015904Y020299D01*
X016030Y020173D01*
X016095Y020146D01*
X016095Y019983D01*
X016090Y019977D01*
X016025Y020004D01*
X015846Y020004D01*
X015680Y019936D01*
X015554Y019809D01*
X015485Y019644D01*
X015485Y019465D01*
X015554Y019299D01*
X015680Y019173D01*
X015745Y019146D01*
X015745Y016481D01*
X015685Y016421D01*
X015640Y016313D01*
X015640Y016196D01*
X015685Y016087D01*
X015768Y016004D01*
X015876Y015959D01*
X015994Y015959D01*
X016102Y016004D01*
X016185Y016087D01*
X016230Y016196D01*
X016230Y016313D01*
X016185Y016421D01*
X016125Y016481D01*
X016125Y019146D01*
X016190Y019173D01*
X016317Y019299D01*
X016385Y019465D01*
X016385Y019644D01*
X016358Y019709D01*
X016475Y019826D01*
X016475Y019983D01*
X016475Y020146D01*
X016540Y020173D01*
X016667Y020299D01*
X016735Y020465D01*
X016735Y021244D01*
X016669Y021404D01*
X016902Y021404D01*
X016878Y021347D02*
X016692Y021347D01*
X016733Y021248D02*
X016837Y021248D01*
X016835Y021150D02*
X016735Y021150D01*
X016735Y021051D02*
X016835Y021051D01*
X016835Y020953D02*
X016735Y020953D01*
X016735Y020854D02*
X016835Y020854D01*
X016835Y020756D02*
X016735Y020756D01*
X016735Y020657D02*
X016835Y020657D01*
X016835Y020559D02*
X016735Y020559D01*
X016733Y020460D02*
X016837Y020460D01*
X016878Y020362D02*
X016692Y020362D01*
X016630Y020263D02*
X016940Y020263D01*
X017050Y020164D02*
X016520Y020164D01*
X016475Y020066D02*
X017095Y020066D01*
X016756Y019967D02*
X016475Y019967D01*
X016475Y019869D02*
X016613Y019869D01*
X016538Y019770D02*
X016420Y019770D01*
X016374Y019672D02*
X016497Y019672D01*
X016485Y019573D02*
X016385Y019573D01*
X016385Y019475D02*
X016485Y019475D01*
X016522Y019376D02*
X016348Y019376D01*
X016295Y019278D02*
X016575Y019278D01*
X016674Y019179D02*
X016196Y019179D01*
X016125Y019080D02*
X016745Y019080D01*
X016745Y018982D02*
X016125Y018982D01*
X016125Y018883D02*
X016745Y018883D01*
X016745Y018785D02*
X016125Y018785D01*
X016125Y018686D02*
X016745Y018686D01*
X016745Y018588D02*
X016125Y018588D01*
X016125Y018489D02*
X016745Y018489D01*
X016745Y018391D02*
X016125Y018391D01*
X016125Y018292D02*
X016745Y018292D01*
X016745Y018194D02*
X016125Y018194D01*
X016125Y018095D02*
X016745Y018095D01*
X016745Y017996D02*
X016125Y017996D01*
X016125Y017898D02*
X016745Y017898D01*
X016745Y017799D02*
X016125Y017799D01*
X016125Y017701D02*
X016745Y017701D01*
X016745Y017602D02*
X016125Y017602D01*
X016125Y017504D02*
X016745Y017504D01*
X016745Y017405D02*
X016125Y017405D01*
X016125Y017307D02*
X016745Y017307D01*
X016745Y017208D02*
X016125Y017208D01*
X016125Y017110D02*
X016745Y017110D01*
X016745Y017011D02*
X016125Y017011D01*
X016125Y016913D02*
X016745Y016913D01*
X016745Y016814D02*
X016125Y016814D01*
X016125Y016715D02*
X016745Y016715D01*
X016745Y016617D02*
X016125Y016617D01*
X016125Y016518D02*
X016745Y016518D01*
X016745Y016420D02*
X016186Y016420D01*
X016227Y016321D02*
X016745Y016321D01*
X016745Y016223D02*
X016230Y016223D01*
X016200Y016124D02*
X016745Y016124D01*
X016745Y016026D02*
X016124Y016026D01*
X015747Y016026D02*
X015124Y016026D01*
X015200Y016124D02*
X015670Y016124D01*
X015640Y016223D02*
X015230Y016223D01*
X015227Y016321D02*
X015644Y016321D01*
X015684Y016420D02*
X015186Y016420D01*
X015125Y016518D02*
X015745Y016518D01*
X015745Y016617D02*
X015125Y016617D01*
X015125Y016715D02*
X015745Y016715D01*
X015745Y016814D02*
X015125Y016814D01*
X015125Y016913D02*
X015745Y016913D01*
X015745Y017011D02*
X015125Y017011D01*
X015125Y017110D02*
X015745Y017110D01*
X015745Y017208D02*
X015125Y017208D01*
X015125Y017307D02*
X015745Y017307D01*
X015745Y017405D02*
X015125Y017405D01*
X015125Y017504D02*
X015745Y017504D01*
X015745Y017602D02*
X015125Y017602D01*
X015125Y017701D02*
X015745Y017701D01*
X015745Y017799D02*
X015125Y017799D01*
X015125Y017898D02*
X015745Y017898D01*
X015745Y017996D02*
X015125Y017996D01*
X015125Y018095D02*
X015745Y018095D01*
X015745Y018194D02*
X015125Y018194D01*
X015125Y018292D02*
X015745Y018292D01*
X015745Y018391D02*
X015125Y018391D01*
X015125Y018489D02*
X015745Y018489D01*
X015745Y018588D02*
X015125Y018588D01*
X015125Y018686D02*
X015745Y018686D01*
X015745Y018785D02*
X015125Y018785D01*
X015125Y018883D02*
X015745Y018883D01*
X015745Y018982D02*
X015125Y018982D01*
X015125Y019080D02*
X015745Y019080D01*
X015674Y019179D02*
X015196Y019179D01*
X015295Y019278D02*
X015575Y019278D01*
X015522Y019376D02*
X015348Y019376D01*
X015385Y019475D02*
X015485Y019475D01*
X015485Y019573D02*
X015385Y019573D01*
X015374Y019672D02*
X015497Y019672D01*
X015538Y019770D02*
X015420Y019770D01*
X015475Y019869D02*
X015613Y019869D01*
X015475Y019967D02*
X015756Y019967D01*
X015475Y020066D02*
X016095Y020066D01*
X016050Y020164D02*
X015520Y020164D01*
X015630Y020263D02*
X015940Y020263D01*
X015878Y020362D02*
X015692Y020362D01*
X015733Y020460D02*
X015837Y020460D01*
X015835Y020559D02*
X015735Y020559D01*
X015735Y020657D02*
X015835Y020657D01*
X015835Y020756D02*
X015735Y020756D01*
X015735Y020854D02*
X015835Y020854D01*
X015835Y020953D02*
X015735Y020953D01*
X015735Y021051D02*
X015835Y021051D01*
X015835Y021150D02*
X015735Y021150D01*
X015733Y021248D02*
X015837Y021248D01*
X015878Y021347D02*
X015692Y021347D01*
X014878Y021347D02*
X014692Y021347D01*
X014733Y021248D02*
X014837Y021248D01*
X014835Y021150D02*
X014735Y021150D01*
X014735Y021051D02*
X014835Y021051D01*
X014835Y020953D02*
X014735Y020953D01*
X014735Y020854D02*
X014835Y020854D01*
X014835Y020756D02*
X014735Y020756D01*
X014735Y020657D02*
X014835Y020657D01*
X014835Y020559D02*
X014735Y020559D01*
X014733Y020460D02*
X014837Y020460D01*
X014878Y020362D02*
X014692Y020362D01*
X014630Y020263D02*
X014940Y020263D01*
X015050Y020164D02*
X014520Y020164D01*
X014475Y020066D02*
X015095Y020066D01*
X014756Y019967D02*
X014475Y019967D01*
X014475Y019869D02*
X014613Y019869D01*
X014538Y019770D02*
X014420Y019770D01*
X014374Y019672D02*
X014497Y019672D01*
X014485Y019573D02*
X014385Y019573D01*
X014385Y019475D02*
X014485Y019475D01*
X014522Y019376D02*
X014348Y019376D01*
X014295Y019278D02*
X014575Y019278D01*
X014674Y019179D02*
X014196Y019179D01*
X014125Y019080D02*
X014745Y019080D01*
X014745Y018982D02*
X014125Y018982D01*
X014125Y018883D02*
X014745Y018883D01*
X014745Y018785D02*
X014125Y018785D01*
X014125Y018686D02*
X014745Y018686D01*
X014745Y018588D02*
X014125Y018588D01*
X014125Y018489D02*
X014745Y018489D01*
X014745Y018391D02*
X014125Y018391D01*
X014125Y018292D02*
X014745Y018292D01*
X014745Y018194D02*
X014125Y018194D01*
X014125Y018095D02*
X014745Y018095D01*
X014745Y017996D02*
X014125Y017996D01*
X014125Y017898D02*
X014745Y017898D01*
X014745Y017799D02*
X014125Y017799D01*
X014125Y017701D02*
X014745Y017701D01*
X014745Y017602D02*
X014125Y017602D01*
X014125Y017504D02*
X014745Y017504D01*
X014745Y017405D02*
X014125Y017405D01*
X014125Y017307D02*
X014745Y017307D01*
X014745Y017208D02*
X014125Y017208D01*
X014125Y017110D02*
X014745Y017110D01*
X014745Y017011D02*
X014125Y017011D01*
X014125Y016913D02*
X014745Y016913D01*
X014745Y016814D02*
X014125Y016814D01*
X014125Y016715D02*
X014745Y016715D01*
X014745Y016617D02*
X014125Y016617D01*
X014125Y016518D02*
X014745Y016518D01*
X014684Y016420D02*
X014186Y016420D01*
X014227Y016321D02*
X014644Y016321D01*
X014640Y016223D02*
X014230Y016223D01*
X014200Y016124D02*
X014670Y016124D01*
X014747Y016026D02*
X014124Y016026D01*
X013747Y016026D02*
X013124Y016026D01*
X013200Y016124D02*
X013670Y016124D01*
X013640Y016223D02*
X013230Y016223D01*
X013227Y016321D02*
X013644Y016321D01*
X013684Y016420D02*
X013186Y016420D01*
X013125Y016518D02*
X013745Y016518D01*
X013745Y016617D02*
X013125Y016617D01*
X013125Y016715D02*
X013745Y016715D01*
X013745Y016814D02*
X013125Y016814D01*
X013125Y016913D02*
X013745Y016913D01*
X013745Y017011D02*
X013125Y017011D01*
X013125Y017110D02*
X013745Y017110D01*
X013745Y017208D02*
X013125Y017208D01*
X013125Y017307D02*
X013745Y017307D01*
X013745Y017405D02*
X013125Y017405D01*
X013125Y017504D02*
X013745Y017504D01*
X013745Y017602D02*
X013125Y017602D01*
X013125Y017701D02*
X013745Y017701D01*
X013745Y017799D02*
X013125Y017799D01*
X013125Y017898D02*
X013745Y017898D01*
X013745Y017996D02*
X013125Y017996D01*
X013125Y018095D02*
X013745Y018095D01*
X013745Y018194D02*
X013125Y018194D01*
X013125Y018292D02*
X013745Y018292D01*
X013745Y018391D02*
X013125Y018391D01*
X013125Y018489D02*
X013745Y018489D01*
X013745Y018588D02*
X013125Y018588D01*
X013125Y018686D02*
X013745Y018686D01*
X013745Y018785D02*
X013125Y018785D01*
X013125Y018883D02*
X013745Y018883D01*
X013745Y018982D02*
X013125Y018982D01*
X013125Y019080D02*
X013745Y019080D01*
X013674Y019179D02*
X013196Y019179D01*
X013295Y019278D02*
X013575Y019278D01*
X013522Y019376D02*
X013348Y019376D01*
X013385Y019475D02*
X013485Y019475D01*
X013485Y019573D02*
X013385Y019573D01*
X013374Y019672D02*
X013497Y019672D01*
X013538Y019770D02*
X013420Y019770D01*
X013475Y019869D02*
X013613Y019869D01*
X013475Y019967D02*
X013756Y019967D01*
X013475Y020066D02*
X014095Y020066D01*
X014050Y020164D02*
X013520Y020164D01*
X013630Y020263D02*
X013940Y020263D01*
X013878Y020362D02*
X013692Y020362D01*
X013733Y020460D02*
X013837Y020460D01*
X013835Y020559D02*
X013735Y020559D01*
X013735Y020657D02*
X013835Y020657D01*
X013835Y020756D02*
X013735Y020756D01*
X013735Y020854D02*
X013835Y020854D01*
X013835Y020953D02*
X013735Y020953D01*
X013735Y021051D02*
X013835Y021051D01*
X013835Y021150D02*
X013735Y021150D01*
X013733Y021248D02*
X013837Y021248D01*
X013878Y021347D02*
X013692Y021347D01*
X012878Y021347D02*
X012692Y021347D01*
X012726Y021248D02*
X012837Y021248D01*
X012835Y021150D02*
X012735Y021150D01*
X012735Y021051D02*
X012835Y021051D01*
X012835Y020953D02*
X012735Y020953D01*
X012735Y020854D02*
X012835Y020854D01*
X012835Y020756D02*
X012735Y020756D01*
X012735Y020657D02*
X012835Y020657D01*
X012835Y020559D02*
X012335Y020559D01*
X012335Y020460D02*
X012235Y020460D01*
X012235Y020504D02*
X012235Y020107D01*
X012180Y020115D01*
X012112Y020137D01*
X012049Y020169D01*
X011992Y020211D01*
X011942Y020261D01*
X011900Y020318D01*
X011868Y020382D01*
X011846Y020449D01*
X011837Y020504D01*
X012235Y020504D01*
X012235Y020559D02*
X011735Y020559D01*
X011735Y020657D02*
X011835Y020657D01*
X011835Y020756D02*
X011735Y020756D01*
X011735Y020854D02*
X011835Y020854D01*
X011835Y020953D02*
X011735Y020953D01*
X011735Y021051D02*
X011835Y021051D01*
X011835Y021150D02*
X011735Y021150D01*
X011733Y021248D02*
X011844Y021248D01*
X011878Y021347D02*
X011692Y021347D01*
X010878Y021347D02*
X009743Y021347D01*
X009604Y021404D02*
X009917Y021275D01*
X010156Y021036D01*
X010285Y020723D01*
X010285Y020385D01*
X010156Y020073D01*
X009917Y019834D01*
X009604Y019704D01*
X009266Y019704D01*
X008954Y019834D01*
X008715Y020073D01*
X008585Y020385D01*
X008585Y020723D01*
X008715Y021036D01*
X008954Y021275D01*
X009266Y021404D01*
X009604Y021404D01*
X009943Y021248D02*
X010837Y021248D01*
X010835Y021150D02*
X010042Y021150D01*
X010140Y021051D02*
X010835Y021051D01*
X010835Y020953D02*
X010190Y020953D01*
X010231Y020854D02*
X010835Y020854D01*
X010835Y020756D02*
X010272Y020756D01*
X010285Y020657D02*
X010835Y020657D01*
X010835Y020559D02*
X010285Y020559D01*
X010285Y020460D02*
X010837Y020460D01*
X010878Y020362D02*
X010275Y020362D01*
X010234Y020263D02*
X010940Y020263D01*
X011050Y020164D02*
X010194Y020164D01*
X010149Y020066D02*
X011095Y020066D01*
X010756Y019967D02*
X010050Y019967D01*
X009952Y019869D02*
X010613Y019869D01*
X010538Y019770D02*
X009763Y019770D01*
X009529Y019278D02*
X010575Y019278D01*
X010522Y019376D02*
X008496Y019376D01*
X008496Y019475D02*
X010485Y019475D01*
X010485Y019573D02*
X008496Y019573D01*
X008486Y019672D02*
X010497Y019672D01*
X010674Y019179D02*
X009603Y019179D01*
X009630Y019080D02*
X012745Y019080D01*
X012745Y018982D02*
X009624Y018982D01*
X009581Y018883D02*
X012745Y018883D01*
X012745Y018785D02*
X009525Y018785D01*
X009594Y018686D02*
X009676Y018686D01*
X010263Y018686D02*
X012745Y018686D01*
X012745Y018588D02*
X010317Y018588D01*
X010769Y018489D02*
X012745Y018489D01*
X012745Y018391D02*
X010867Y018391D01*
X010966Y018292D02*
X012745Y018292D01*
X012745Y018194D02*
X011065Y018194D01*
X011125Y018095D02*
X012745Y018095D01*
X012745Y017996D02*
X011812Y017996D01*
X011808Y018004D02*
X011780Y018032D01*
X011746Y018052D01*
X011708Y018062D01*
X011559Y018062D01*
X011559Y017783D01*
X011838Y017783D01*
X011838Y017932D01*
X011828Y017970D01*
X011808Y018004D01*
X011838Y017898D02*
X012745Y017898D01*
X012745Y017799D02*
X011838Y017799D01*
X011838Y017701D02*
X012745Y017701D01*
X012745Y017602D02*
X011838Y017602D01*
X011807Y017504D02*
X012745Y017504D01*
X012745Y017405D02*
X010853Y017405D01*
X010951Y017307D02*
X010965Y017307D01*
X011216Y017504D02*
X011254Y017504D01*
X011502Y017504D02*
X011559Y017504D01*
X011559Y017602D02*
X011502Y017602D01*
X011502Y017701D02*
X011559Y017701D01*
X011559Y017799D02*
X011502Y017799D01*
X011502Y017898D02*
X011559Y017898D01*
X011559Y017996D02*
X011502Y017996D01*
X011249Y017996D02*
X011225Y017996D01*
X011515Y017307D02*
X011556Y017307D01*
X012105Y017307D02*
X012745Y017307D01*
X012745Y017208D02*
X012138Y017208D01*
X012138Y017110D02*
X012745Y017110D01*
X012745Y017011D02*
X012138Y017011D01*
X012138Y016913D02*
X012745Y016913D01*
X012745Y016814D02*
X012117Y016814D01*
X012138Y016715D02*
X012745Y016715D01*
X012745Y016617D02*
X012138Y016617D01*
X012138Y016518D02*
X012745Y016518D01*
X012684Y016420D02*
X012138Y016420D01*
X012124Y016321D02*
X012644Y016321D01*
X012640Y016223D02*
X012020Y016223D01*
X012082Y016124D02*
X012670Y016124D01*
X012747Y016026D02*
X012125Y016026D01*
X012130Y015927D02*
X016745Y015927D01*
X016745Y015829D02*
X012102Y015829D01*
X012028Y015730D02*
X016745Y015730D01*
X016646Y015434D02*
X011324Y015434D01*
X011422Y015336D02*
X016548Y015336D01*
X016449Y015237D02*
X011521Y015237D01*
X011619Y015139D02*
X016351Y015139D01*
X016252Y015040D02*
X011718Y015040D01*
X011816Y014942D02*
X016154Y014942D01*
X015962Y014843D02*
X011915Y014843D01*
X012014Y014745D02*
X015808Y014745D01*
X015754Y014646D02*
X015612Y014646D01*
X015711Y014547D02*
X015740Y014547D01*
X016330Y014547D02*
X016360Y014547D01*
X016396Y014646D02*
X016458Y014646D01*
X016494Y014745D02*
X019108Y014745D01*
X019262Y014843D02*
X016593Y014843D01*
X019847Y017011D02*
X020345Y017011D01*
X020345Y016913D02*
X019946Y016913D01*
X020044Y016814D02*
X020345Y016814D01*
X020345Y016715D02*
X020143Y016715D01*
X020241Y016617D02*
X020345Y016617D01*
X020340Y016518D02*
X020345Y016518D01*
X020345Y016513D02*
X018125Y018733D01*
X018125Y019104D01*
X018297Y019104D01*
X018385Y019192D01*
X018385Y019736D01*
X018475Y019826D01*
X018475Y019983D01*
X018475Y020146D01*
X018540Y020173D01*
X018667Y020299D01*
X018735Y020465D01*
X018735Y021244D01*
X018669Y021404D01*
X019552Y021404D01*
X019485Y021244D01*
X019485Y020465D01*
X019554Y020299D01*
X019680Y020173D01*
X019745Y020146D01*
X019745Y019963D01*
X019680Y019936D01*
X019554Y019809D01*
X019485Y019644D01*
X019485Y019465D01*
X019554Y019299D01*
X019680Y019173D01*
X019745Y019146D01*
X019745Y017976D01*
X019856Y017864D01*
X020345Y017376D01*
X020345Y016513D01*
X021125Y016518D02*
X021745Y016518D01*
X021745Y016420D02*
X021125Y016420D01*
X021125Y016321D02*
X021745Y016321D01*
X021745Y016223D02*
X021125Y016223D01*
X021125Y016124D02*
X021745Y016124D01*
X021745Y016026D02*
X021125Y016026D01*
X021125Y015927D02*
X021745Y015927D01*
X021745Y015829D02*
X021125Y015829D01*
X021125Y015730D02*
X021745Y015730D01*
X021745Y015631D02*
X021125Y015631D01*
X021125Y015533D02*
X021745Y015533D01*
X021745Y015434D02*
X021125Y015434D01*
X021125Y015336D02*
X021745Y015336D01*
X021745Y015237D02*
X021125Y015237D01*
X021125Y015139D02*
X021745Y015139D01*
X021745Y015040D02*
X021125Y015040D01*
X021125Y014942D02*
X021745Y014942D01*
X021745Y014843D02*
X021309Y014843D01*
X021162Y014843D02*
X021125Y014843D01*
X021462Y014745D02*
X021745Y014745D01*
X021745Y014646D02*
X021516Y014646D01*
X021530Y014547D02*
X021745Y014547D01*
X021745Y014449D02*
X021511Y014449D01*
X021448Y014350D02*
X021770Y014350D01*
X021755Y014252D02*
X021869Y014252D01*
X021813Y014153D02*
X021967Y014153D01*
X020753Y013168D02*
X020490Y013168D01*
X020589Y013069D02*
X020851Y013069D01*
X020950Y012971D02*
X020687Y012971D01*
X020786Y012872D02*
X020963Y012872D01*
X020963Y012774D02*
X020884Y012774D01*
X020654Y013266D02*
X009216Y013266D01*
X009314Y013365D02*
X010363Y013365D01*
X010507Y013365D02*
X020556Y013365D01*
X020457Y013464D02*
X010661Y013464D01*
X010716Y013562D02*
X020359Y013562D01*
X020260Y013661D02*
X011997Y013661D01*
X011873Y013661D02*
X011297Y013661D01*
X011173Y013661D02*
X010730Y013661D01*
X010711Y013759D02*
X011013Y013759D01*
X010956Y013858D02*
X010649Y013858D01*
X010866Y014055D02*
X009330Y014055D01*
X009313Y014153D02*
X010767Y014153D01*
X010669Y014252D02*
X009255Y014252D01*
X008815Y014252D02*
X008569Y014252D01*
X008569Y014350D02*
X010570Y014350D01*
X010472Y014449D02*
X008569Y014449D01*
X008569Y014547D02*
X010373Y014547D01*
X010275Y014646D02*
X008502Y014646D01*
X008569Y014153D02*
X008757Y014153D01*
X008740Y014055D02*
X008569Y014055D01*
X008569Y013956D02*
X008668Y013956D01*
X008570Y013858D02*
X008569Y013858D01*
X008910Y013661D02*
X009073Y013661D01*
X009009Y013759D02*
X009171Y013759D01*
X009256Y013858D02*
X010221Y013858D01*
X010209Y013464D02*
X009413Y013464D01*
X008974Y013562D02*
X008811Y013562D01*
X008876Y013464D02*
X008713Y013464D01*
X009314Y013956D02*
X010940Y013956D01*
X011453Y014153D02*
X011467Y014153D01*
X011513Y014055D02*
X011566Y014055D01*
X011530Y013956D02*
X011640Y013956D01*
X011656Y013858D02*
X011514Y013858D01*
X011457Y013759D02*
X011713Y013759D01*
X012157Y013759D02*
X020162Y013759D01*
X020141Y012380D02*
X017627Y012380D01*
X017702Y012281D02*
X018345Y012281D01*
X018269Y012182D02*
X017730Y012182D01*
X017725Y012084D02*
X018240Y012084D01*
X018244Y011985D02*
X017683Y011985D01*
X017920Y011887D02*
X018285Y011887D01*
X018407Y011788D02*
X017999Y011788D01*
X018030Y011690D02*
X018631Y011690D01*
X018730Y011591D02*
X018028Y011591D01*
X017987Y011493D02*
X018828Y011493D01*
X018927Y011394D02*
X018312Y011394D01*
X018396Y011296D02*
X019025Y011296D01*
X019124Y011197D02*
X018430Y011197D01*
X018430Y011098D02*
X019222Y011098D01*
X019321Y011000D02*
X018390Y011000D01*
X018325Y010901D02*
X018465Y010901D01*
X018377Y010803D02*
X018325Y010803D01*
X018805Y010901D02*
X019419Y010901D01*
X019760Y011098D02*
X019876Y011098D01*
X019885Y011121D02*
X019842Y011016D01*
X019181Y011677D01*
X019302Y011677D01*
X019302Y011976D01*
X019399Y011976D01*
X019399Y011677D01*
X019587Y011677D01*
X019625Y011688D01*
X019659Y011707D01*
X019685Y011733D01*
X019741Y011677D01*
X019960Y011677D01*
X019960Y011203D01*
X019963Y011200D01*
X019885Y011121D01*
X019961Y011197D02*
X019661Y011197D01*
X019563Y011296D02*
X019960Y011296D01*
X019960Y011394D02*
X019464Y011394D01*
X019365Y011493D02*
X019960Y011493D01*
X019960Y011591D02*
X019267Y011591D01*
X019302Y011690D02*
X019399Y011690D01*
X019399Y011788D02*
X019302Y011788D01*
X019302Y011887D02*
X019399Y011887D01*
X019302Y011985D02*
X018873Y011985D01*
X018830Y012084D02*
X018984Y012084D01*
X018984Y012182D02*
X018801Y012182D01*
X018726Y012281D02*
X018995Y012281D01*
X019302Y012281D02*
X019399Y012281D01*
X019399Y012182D02*
X019302Y012182D01*
X019302Y012084D02*
X019399Y012084D01*
X018984Y011887D02*
X018971Y011887D01*
X019628Y011690D02*
X019729Y011690D01*
X020366Y011501D02*
X020366Y011144D01*
X020366Y011191D02*
X020366Y011191D01*
X018943Y010803D02*
X018893Y010803D01*
X017958Y011394D02*
X017925Y011394D01*
X016845Y011197D02*
X013346Y011197D01*
X012800Y011788D02*
X011331Y011788D01*
X011383Y011736D02*
X011119Y012000D01*
X010746Y012000D01*
X010483Y011736D01*
X010483Y011364D01*
X010746Y011100D01*
X011119Y011100D01*
X011383Y011364D01*
X011383Y011736D01*
X011383Y011690D02*
X012702Y011690D01*
X012603Y011591D02*
X011383Y011591D01*
X011383Y011493D02*
X012505Y011493D01*
X012406Y011394D02*
X011383Y011394D01*
X011315Y011296D02*
X012308Y011296D01*
X012209Y011197D02*
X011216Y011197D01*
X011119Y011000D02*
X010746Y011000D01*
X010483Y010736D01*
X010483Y010364D01*
X010746Y010100D01*
X011119Y010100D01*
X011383Y010364D01*
X011383Y010736D01*
X011119Y011000D01*
X011218Y010901D02*
X012045Y010901D01*
X012045Y010803D02*
X011316Y010803D01*
X011383Y010704D02*
X012045Y010704D01*
X012045Y010606D02*
X011383Y010606D01*
X011383Y010507D02*
X012045Y010507D01*
X012045Y010409D02*
X011383Y010409D01*
X011329Y010310D02*
X012045Y010310D01*
X012045Y010212D02*
X011231Y010212D01*
X011132Y010113D02*
X012045Y010113D01*
X012045Y010014D02*
X010243Y010014D01*
X010243Y009916D02*
X010662Y009916D01*
X010746Y010000D02*
X010483Y009736D01*
X010483Y009364D01*
X010746Y009100D01*
X011119Y009100D01*
X011383Y009364D01*
X011383Y009736D01*
X011119Y010000D01*
X010746Y010000D01*
X010733Y010113D02*
X010243Y010113D01*
X010243Y010212D02*
X010635Y010212D01*
X010536Y010310D02*
X010329Y010310D01*
X010383Y010409D02*
X010483Y010409D01*
X010483Y010507D02*
X010383Y010507D01*
X010383Y010606D02*
X010483Y010606D01*
X010483Y010704D02*
X010383Y010704D01*
X010316Y010803D02*
X010549Y010803D01*
X010648Y010901D02*
X010243Y010901D01*
X010243Y011000D02*
X012045Y011000D01*
X012111Y011098D02*
X010243Y011098D01*
X010243Y011197D02*
X010649Y011197D01*
X010551Y011296D02*
X010315Y011296D01*
X010383Y011394D02*
X010483Y011394D01*
X010483Y011493D02*
X010383Y011493D01*
X010383Y011591D02*
X010483Y011591D01*
X010483Y011690D02*
X010383Y011690D01*
X010331Y011788D02*
X010535Y011788D01*
X010633Y011887D02*
X010243Y011887D01*
X010243Y011985D02*
X010732Y011985D01*
X011134Y011985D02*
X012997Y011985D01*
X012899Y011887D02*
X011232Y011887D01*
X009717Y012971D02*
X002196Y012971D01*
X002196Y012872D02*
X009619Y012872D01*
X009520Y012774D02*
X002196Y012774D01*
X002196Y012675D02*
X009483Y012675D01*
X009483Y012577D02*
X002196Y012577D01*
X002197Y012478D02*
X009483Y012478D01*
X009483Y012380D02*
X002197Y012380D01*
X002197Y012285D02*
X002176Y021047D01*
X002183Y021117D01*
X002203Y021184D01*
X002237Y021246D01*
X002282Y021301D01*
X002336Y021345D01*
X002399Y021378D01*
X002466Y021398D01*
X002537Y021404D01*
X002998Y021404D01*
X002976Y021383D01*
X002976Y019920D01*
X003064Y019832D01*
X003819Y019832D01*
X003906Y019920D01*
X003906Y021383D01*
X003885Y021404D01*
X005675Y021404D01*
X005654Y021383D01*
X005654Y019920D01*
X005741Y019832D01*
X006496Y019832D01*
X006497Y019833D01*
X006522Y019807D01*
X006530Y019807D01*
X006530Y019424D01*
X005521Y019424D01*
X005521Y019572D01*
X005433Y019659D01*
X004915Y019659D01*
X004827Y019572D01*
X004827Y017636D01*
X004915Y017548D01*
X005433Y017548D01*
X005521Y017636D01*
X005521Y018884D01*
X006681Y018884D01*
X006742Y018859D01*
X006859Y018859D01*
X006968Y018904D01*
X007018Y018954D01*
X007294Y018954D01*
X007249Y018910D01*
X007131Y018910D01*
X007028Y018807D01*
X007028Y018662D01*
X007028Y018544D01*
X007034Y018538D01*
X007028Y018532D01*
X007028Y018413D01*
X007028Y018268D01*
X007131Y018166D01*
X007249Y018166D01*
X007313Y018102D01*
X007313Y017728D01*
X007328Y017713D01*
X007328Y017365D01*
X007285Y017321D01*
X007240Y017213D01*
X007240Y017096D01*
X007285Y016987D01*
X007368Y016904D01*
X007476Y016859D01*
X007594Y016859D01*
X007702Y016904D01*
X007785Y016987D01*
X007830Y017096D01*
X007830Y017213D01*
X007785Y017321D01*
X007708Y017398D01*
X007708Y017640D01*
X007722Y017640D01*
X007722Y017499D01*
X007833Y017388D01*
X007833Y017388D01*
X007945Y017276D01*
X007945Y017276D01*
X008056Y017164D01*
X008461Y017164D01*
X008440Y017113D01*
X008440Y016996D01*
X008475Y016911D01*
X007806Y016911D01*
X007718Y016823D01*
X007718Y016040D01*
X006843Y016915D01*
X006686Y016915D01*
X004534Y016915D01*
X004534Y016945D01*
X004446Y017033D01*
X003731Y017033D01*
X003643Y016945D01*
X003643Y016506D01*
X003643Y016149D01*
X003623Y016137D01*
X003595Y016109D01*
X003575Y016074D01*
X003565Y016036D01*
X003565Y015888D01*
X003981Y015888D01*
X003981Y015830D01*
X003565Y015830D01*
X003565Y015682D01*
X003575Y015644D01*
X003595Y015609D01*
X003623Y015582D01*
X003643Y015570D01*
X003643Y015291D01*
X003565Y015213D01*
X003565Y014773D01*
X003643Y014695D01*
X003643Y014340D01*
X003643Y014449D02*
X002192Y014449D01*
X002192Y014547D02*
X003643Y014547D01*
X003643Y014646D02*
X002191Y014646D01*
X002191Y014745D02*
X003593Y014745D01*
X003565Y014843D02*
X002191Y014843D01*
X002191Y014942D02*
X003565Y014942D01*
X003565Y015040D02*
X002191Y015040D01*
X002190Y015139D02*
X003565Y015139D01*
X003589Y015237D02*
X002190Y015237D01*
X002190Y015336D02*
X003643Y015336D01*
X003643Y015434D02*
X002190Y015434D01*
X002189Y015533D02*
X003643Y015533D01*
X003582Y015631D02*
X002189Y015631D01*
X002189Y015730D02*
X003565Y015730D01*
X003565Y015829D02*
X002189Y015829D01*
X002188Y015927D02*
X003565Y015927D01*
X003565Y016026D02*
X002188Y016026D01*
X002188Y016124D02*
X003610Y016124D01*
X003643Y016223D02*
X002188Y016223D01*
X002187Y016321D02*
X003643Y016321D01*
X003643Y016420D02*
X002187Y016420D01*
X002187Y016518D02*
X003643Y016518D01*
X003643Y016617D02*
X003384Y016617D01*
X003399Y016621D02*
X003433Y016641D01*
X003461Y016669D01*
X003480Y016703D01*
X003491Y016741D01*
X003491Y016986D01*
X003017Y016986D01*
X003017Y017086D01*
X003491Y017086D01*
X003491Y017332D01*
X003480Y017370D01*
X003461Y017404D01*
X003433Y017432D01*
X003399Y017452D01*
X003360Y017462D01*
X003016Y017462D01*
X003016Y017086D01*
X002917Y017086D01*
X002917Y017462D01*
X002573Y017462D01*
X002535Y017452D01*
X002500Y017432D01*
X002473Y017404D01*
X002453Y017370D01*
X002443Y017332D01*
X002443Y017086D01*
X002916Y017086D01*
X002916Y016986D01*
X002443Y016986D01*
X002443Y016741D01*
X002453Y016703D01*
X002473Y016669D01*
X002500Y016641D01*
X002535Y016621D01*
X002573Y016611D01*
X002917Y016611D01*
X002917Y016986D01*
X003016Y016986D01*
X003016Y016611D01*
X003360Y016611D01*
X003399Y016621D01*
X003484Y016715D02*
X003643Y016715D01*
X003643Y016814D02*
X003491Y016814D01*
X003491Y016913D02*
X003643Y016913D01*
X003710Y017011D02*
X003017Y017011D01*
X003016Y016913D02*
X002917Y016913D01*
X002916Y017011D02*
X002186Y017011D01*
X002186Y016913D02*
X002443Y016913D01*
X002443Y016814D02*
X002186Y016814D01*
X002186Y016715D02*
X002449Y016715D01*
X002549Y016617D02*
X002187Y016617D01*
X002186Y017110D02*
X002443Y017110D01*
X002443Y017208D02*
X002185Y017208D01*
X002185Y017307D02*
X002443Y017307D01*
X002474Y017405D02*
X002185Y017405D01*
X002185Y017504D02*
X007328Y017504D01*
X007328Y017602D02*
X005487Y017602D01*
X005521Y017701D02*
X007328Y017701D01*
X007313Y017799D02*
X005521Y017799D01*
X005521Y017898D02*
X007313Y017898D01*
X007313Y017996D02*
X005521Y017996D01*
X005521Y018095D02*
X007313Y018095D01*
X007103Y018194D02*
X005521Y018194D01*
X005521Y018292D02*
X007028Y018292D01*
X007028Y018391D02*
X005521Y018391D01*
X005521Y018489D02*
X007028Y018489D01*
X007028Y018588D02*
X005521Y018588D01*
X005521Y018686D02*
X007028Y018686D01*
X007028Y018785D02*
X005521Y018785D01*
X005521Y018883D02*
X006684Y018883D01*
X006917Y018883D02*
X007104Y018883D01*
X006800Y019154D02*
X007482Y019154D01*
X007518Y019119D01*
X007715Y019119D01*
X008511Y019080D02*
X009040Y019080D01*
X009046Y018982D02*
X008511Y018982D01*
X008511Y019179D02*
X009067Y019179D01*
X009141Y019278D02*
X008511Y019278D01*
X008719Y018883D02*
X009089Y018883D01*
X009145Y018785D02*
X008796Y018785D01*
X008796Y018686D02*
X009007Y018686D01*
X008954Y018588D02*
X008796Y018588D01*
X008796Y018489D02*
X008954Y018489D01*
X008954Y018391D02*
X008796Y018391D01*
X008796Y018292D02*
X008954Y018292D01*
X008954Y018194D02*
X008721Y018194D01*
X008709Y017996D02*
X008511Y017996D01*
X008511Y017898D02*
X008610Y017898D01*
X008511Y018095D02*
X008954Y018095D01*
X007914Y017307D02*
X007791Y017307D01*
X007815Y017405D02*
X007708Y017405D01*
X007708Y017504D02*
X007722Y017504D01*
X007708Y017602D02*
X007722Y017602D01*
X007830Y017208D02*
X008013Y017208D01*
X007830Y017110D02*
X008440Y017110D01*
X008440Y017011D02*
X007795Y017011D01*
X007710Y016913D02*
X008475Y016913D01*
X008569Y016804D02*
X008676Y016759D01*
X008761Y016759D01*
X008856Y016664D01*
X008954Y016664D01*
X008954Y016591D01*
X008954Y016403D01*
X009252Y016403D01*
X009252Y016306D01*
X008954Y016306D01*
X008954Y016118D01*
X008964Y016080D01*
X008984Y016046D01*
X009011Y016018D01*
X009046Y015998D01*
X009084Y015988D01*
X009252Y015988D01*
X009252Y016306D01*
X009349Y016306D01*
X009349Y015988D01*
X009517Y015988D01*
X009555Y015998D01*
X009589Y016018D01*
X009617Y016046D01*
X009630Y016068D01*
X009711Y015988D01*
X010229Y015988D01*
X010268Y016027D01*
X010285Y015987D01*
X010328Y015944D01*
X008524Y015944D01*
X008569Y015990D01*
X008569Y016804D01*
X008569Y016715D02*
X008805Y016715D01*
X008954Y016617D02*
X008569Y016617D01*
X008569Y016518D02*
X008954Y016518D01*
X008954Y016420D02*
X008569Y016420D01*
X008569Y016321D02*
X009252Y016321D01*
X009252Y016223D02*
X009349Y016223D01*
X009349Y016124D02*
X009252Y016124D01*
X009252Y016026D02*
X009349Y016026D01*
X009597Y016026D02*
X009673Y016026D01*
X010267Y016026D02*
X010269Y016026D01*
X010801Y016026D02*
X011545Y016026D01*
X011540Y015927D02*
X010831Y015927D01*
X010930Y015829D02*
X011568Y015829D01*
X011642Y015730D02*
X011028Y015730D01*
X010830Y016124D02*
X011588Y016124D01*
X011640Y016223D02*
X010826Y016223D01*
X010785Y016321D02*
X010725Y016381D01*
X010725Y016496D01*
X010745Y016476D01*
X010856Y016364D01*
X010932Y016364D01*
X010932Y016335D01*
X010801Y016420D02*
X010725Y016420D01*
X011534Y016321D02*
X011536Y016321D01*
X010581Y015040D02*
X010418Y015040D01*
X010516Y014942D02*
X010679Y014942D01*
X010615Y014843D02*
X010778Y014843D01*
X010714Y014745D02*
X010876Y014745D01*
X010812Y014646D02*
X010975Y014646D01*
X010911Y014547D02*
X011073Y014547D01*
X011009Y014449D02*
X011172Y014449D01*
X011108Y014350D02*
X011270Y014350D01*
X011206Y014252D02*
X011369Y014252D01*
X009004Y016026D02*
X008569Y016026D01*
X008569Y016124D02*
X008954Y016124D01*
X008954Y016223D02*
X008569Y016223D01*
X007718Y016223D02*
X007535Y016223D01*
X007437Y016321D02*
X007718Y016321D01*
X007718Y016420D02*
X007338Y016420D01*
X007240Y016518D02*
X007718Y016518D01*
X007718Y016617D02*
X007141Y016617D01*
X007043Y016715D02*
X007718Y016715D01*
X007718Y016814D02*
X006944Y016814D01*
X006846Y016913D02*
X007360Y016913D01*
X007275Y017011D02*
X004468Y017011D01*
X004435Y017548D02*
X004603Y017548D01*
X004641Y017559D01*
X004675Y017578D01*
X004703Y017606D01*
X004723Y017641D01*
X004733Y017679D01*
X004733Y018555D01*
X004435Y018555D01*
X004435Y017548D01*
X004435Y017602D02*
X004338Y017602D01*
X004338Y017548D02*
X004338Y018555D01*
X004435Y018555D01*
X004435Y018652D01*
X004733Y018652D01*
X004733Y019529D01*
X004723Y019567D01*
X004703Y019602D01*
X004675Y019629D01*
X004641Y019649D01*
X004603Y019659D01*
X004435Y019659D01*
X004435Y018653D01*
X004338Y018653D01*
X004338Y019659D01*
X004170Y019659D01*
X004132Y019649D01*
X004097Y019629D01*
X004069Y019602D01*
X004050Y019567D01*
X004039Y019529D01*
X004039Y018652D01*
X004338Y018652D01*
X004338Y018555D01*
X004039Y018555D01*
X004039Y017679D01*
X004050Y017641D01*
X004069Y017606D01*
X004097Y017578D01*
X004132Y017559D01*
X004170Y017548D01*
X004338Y017548D01*
X004338Y017701D02*
X004435Y017701D01*
X004435Y017799D02*
X004338Y017799D01*
X004338Y017898D02*
X004435Y017898D01*
X004435Y017996D02*
X004338Y017996D01*
X004338Y018095D02*
X004435Y018095D01*
X004435Y018194D02*
X004338Y018194D01*
X004338Y018292D02*
X004435Y018292D01*
X004435Y018391D02*
X004338Y018391D01*
X004338Y018489D02*
X004435Y018489D01*
X004435Y018588D02*
X004827Y018588D01*
X004827Y018686D02*
X004733Y018686D01*
X004733Y018785D02*
X004827Y018785D01*
X004827Y018883D02*
X004733Y018883D01*
X004733Y018982D02*
X004827Y018982D01*
X004827Y019080D02*
X004733Y019080D01*
X004733Y019179D02*
X004827Y019179D01*
X004827Y019278D02*
X004733Y019278D01*
X004733Y019376D02*
X004827Y019376D01*
X004827Y019475D02*
X004733Y019475D01*
X004720Y019573D02*
X004828Y019573D01*
X004435Y019573D02*
X004338Y019573D01*
X004338Y019475D02*
X004435Y019475D01*
X004435Y019376D02*
X004338Y019376D01*
X004338Y019278D02*
X004435Y019278D01*
X004435Y019179D02*
X004338Y019179D01*
X004338Y019080D02*
X004435Y019080D01*
X004435Y018982D02*
X004338Y018982D01*
X004338Y018883D02*
X004435Y018883D01*
X004435Y018785D02*
X004338Y018785D01*
X004338Y018686D02*
X004435Y018686D01*
X004338Y018588D02*
X002182Y018588D01*
X002182Y018686D02*
X004039Y018686D01*
X004039Y018785D02*
X002181Y018785D01*
X002181Y018883D02*
X004039Y018883D01*
X004039Y018982D02*
X002181Y018982D01*
X002181Y019080D02*
X004039Y019080D01*
X004039Y019179D02*
X002181Y019179D01*
X002180Y019278D02*
X004039Y019278D01*
X004039Y019376D02*
X002180Y019376D01*
X002180Y019475D02*
X004039Y019475D01*
X004053Y019573D02*
X002180Y019573D01*
X002179Y019672D02*
X006530Y019672D01*
X006530Y019770D02*
X002179Y019770D01*
X002179Y019869D02*
X003027Y019869D01*
X002976Y019967D02*
X002179Y019967D01*
X002178Y020066D02*
X002976Y020066D01*
X002976Y020164D02*
X002178Y020164D01*
X002178Y020263D02*
X002976Y020263D01*
X002976Y020362D02*
X002178Y020362D01*
X002177Y020460D02*
X002976Y020460D01*
X002976Y020559D02*
X002177Y020559D01*
X002177Y020657D02*
X002976Y020657D01*
X002976Y020756D02*
X002177Y020756D01*
X002176Y020854D02*
X002976Y020854D01*
X002976Y020953D02*
X002176Y020953D01*
X002176Y021051D02*
X002976Y021051D01*
X002976Y021150D02*
X002193Y021150D01*
X002238Y021248D02*
X002976Y021248D01*
X002976Y021347D02*
X002339Y021347D01*
X003906Y021347D02*
X005654Y021347D01*
X005654Y021248D02*
X003906Y021248D01*
X003906Y021150D02*
X005654Y021150D01*
X005654Y021051D02*
X003906Y021051D01*
X003906Y020953D02*
X005654Y020953D01*
X005654Y020854D02*
X003906Y020854D01*
X003906Y020756D02*
X005654Y020756D01*
X005654Y020657D02*
X003906Y020657D01*
X003906Y020559D02*
X005654Y020559D01*
X005654Y020460D02*
X003906Y020460D01*
X003906Y020362D02*
X005654Y020362D01*
X005654Y020263D02*
X003906Y020263D01*
X003906Y020164D02*
X005654Y020164D01*
X005654Y020066D02*
X003906Y020066D01*
X003906Y019967D02*
X005654Y019967D01*
X005705Y019869D02*
X003855Y019869D01*
X005519Y019573D02*
X006530Y019573D01*
X006530Y019475D02*
X005521Y019475D01*
X006584Y020559D02*
X007799Y020559D01*
X007723Y020657D02*
X006584Y020657D01*
X006584Y020756D02*
X007719Y020756D01*
X007719Y020953D02*
X006584Y020953D01*
X006584Y021051D02*
X007719Y021051D01*
X007732Y021150D02*
X006584Y021150D01*
X006584Y021248D02*
X008927Y021248D01*
X008829Y021150D02*
X008438Y021150D01*
X008452Y021051D02*
X008730Y021051D01*
X008680Y020953D02*
X008452Y020953D01*
X008452Y020756D02*
X008599Y020756D01*
X008585Y020657D02*
X008448Y020657D01*
X008372Y020559D02*
X008585Y020559D01*
X008585Y020460D02*
X008452Y020460D01*
X008452Y020362D02*
X008595Y020362D01*
X008636Y020263D02*
X008452Y020263D01*
X008452Y020164D02*
X008677Y020164D01*
X008721Y020066D02*
X008452Y020066D01*
X008452Y019967D02*
X008820Y019967D01*
X008919Y019869D02*
X008325Y019869D01*
X008388Y019770D02*
X009107Y019770D01*
X008639Y020854D02*
X008134Y020854D01*
X008036Y020854D02*
X006584Y020854D01*
X006584Y021347D02*
X009128Y021347D01*
X008134Y021150D02*
X008037Y021150D01*
X008037Y021051D02*
X008134Y021051D01*
X008134Y020953D02*
X008037Y020953D01*
X007150Y020460D02*
X007120Y020460D01*
X004827Y018489D02*
X004733Y018489D01*
X004733Y018391D02*
X004827Y018391D01*
X004827Y018292D02*
X004733Y018292D01*
X004733Y018194D02*
X004827Y018194D01*
X004827Y018095D02*
X004733Y018095D01*
X004733Y017996D02*
X004827Y017996D01*
X004827Y017898D02*
X004733Y017898D01*
X004733Y017799D02*
X004827Y017799D01*
X004827Y017701D02*
X004733Y017701D01*
X004699Y017602D02*
X004861Y017602D01*
X004073Y017602D02*
X002184Y017602D01*
X002184Y017701D02*
X004039Y017701D01*
X004039Y017799D02*
X002184Y017799D01*
X002184Y017898D02*
X004039Y017898D01*
X004039Y017996D02*
X002183Y017996D01*
X002183Y018095D02*
X004039Y018095D01*
X004039Y018194D02*
X002183Y018194D01*
X002183Y018292D02*
X004039Y018292D01*
X004039Y018391D02*
X002182Y018391D01*
X002182Y018489D02*
X004039Y018489D01*
X003459Y017405D02*
X007328Y017405D01*
X007279Y017307D02*
X003491Y017307D01*
X003491Y017208D02*
X007240Y017208D01*
X007240Y017110D02*
X003491Y017110D01*
X003016Y017110D02*
X002917Y017110D01*
X002917Y017208D02*
X003016Y017208D01*
X003016Y017307D02*
X002917Y017307D01*
X002917Y017405D02*
X003016Y017405D01*
X003016Y016814D02*
X002917Y016814D01*
X002917Y016715D02*
X003016Y016715D01*
X003016Y016617D02*
X002917Y016617D01*
X004039Y015888D02*
X004455Y015888D01*
X004455Y015994D01*
X004534Y016072D01*
X004534Y016102D01*
X006219Y016102D01*
X006705Y015616D01*
X004534Y015616D01*
X004534Y015646D01*
X004455Y015724D01*
X004455Y015830D01*
X004039Y015830D01*
X004039Y015888D01*
X004455Y015927D02*
X006394Y015927D01*
X006492Y015829D02*
X004455Y015829D01*
X004455Y015730D02*
X006591Y015730D01*
X006689Y015631D02*
X004534Y015631D01*
X004487Y016026D02*
X006295Y016026D01*
X006882Y015139D02*
X005119Y015139D01*
X005130Y015040D02*
X007352Y015040D01*
X007254Y014942D02*
X005108Y014942D01*
X005041Y014843D02*
X007155Y014843D01*
X007634Y016124D02*
X007718Y016124D01*
X011196Y019179D02*
X011686Y019179D01*
X011699Y019169D02*
X011762Y019137D01*
X011830Y019115D01*
X011885Y019107D01*
X011885Y019504D01*
X011985Y019504D01*
X011985Y019107D01*
X012040Y019115D01*
X012108Y019137D01*
X012171Y019169D01*
X012228Y019211D01*
X012278Y019261D01*
X012320Y019318D01*
X012352Y019382D01*
X012374Y019449D01*
X012383Y019504D01*
X011985Y019504D01*
X011985Y019604D01*
X012383Y019604D01*
X012374Y019660D01*
X012352Y019727D01*
X012320Y019790D01*
X012278Y019847D01*
X012228Y019898D01*
X012171Y019939D01*
X012108Y019971D01*
X012040Y019993D01*
X011985Y020002D01*
X011985Y019604D01*
X011885Y019604D01*
X011885Y019504D01*
X011487Y019504D01*
X011496Y019449D01*
X011518Y019382D01*
X011550Y019318D01*
X011592Y019261D01*
X011642Y019211D01*
X011699Y019169D01*
X011580Y019278D02*
X011295Y019278D01*
X011348Y019376D02*
X011521Y019376D01*
X011492Y019475D02*
X011385Y019475D01*
X011385Y019573D02*
X011885Y019573D01*
X011885Y019604D02*
X011487Y019604D01*
X011496Y019660D01*
X011518Y019727D01*
X011550Y019790D01*
X011592Y019847D01*
X011642Y019898D01*
X011699Y019939D01*
X011762Y019971D01*
X011830Y019993D01*
X011885Y020002D01*
X011885Y019604D01*
X011885Y019672D02*
X011985Y019672D01*
X011985Y019770D02*
X011885Y019770D01*
X011885Y019869D02*
X011985Y019869D01*
X011985Y019967D02*
X011885Y019967D01*
X011755Y019967D02*
X011475Y019967D01*
X011475Y019869D02*
X011613Y019869D01*
X011540Y019770D02*
X011420Y019770D01*
X011374Y019672D02*
X011500Y019672D01*
X011475Y020066D02*
X013095Y020066D01*
X013050Y020164D02*
X012511Y020164D01*
X012630Y020263D02*
X012940Y020263D01*
X012878Y020362D02*
X012692Y020362D01*
X012726Y020460D02*
X012837Y020460D01*
X012756Y019967D02*
X012116Y019967D01*
X012257Y019869D02*
X012613Y019869D01*
X012538Y019770D02*
X012330Y019770D01*
X012370Y019672D02*
X012497Y019672D01*
X012485Y019573D02*
X011985Y019573D01*
X011985Y019475D02*
X011885Y019475D01*
X011885Y019376D02*
X011985Y019376D01*
X011985Y019278D02*
X011885Y019278D01*
X011885Y019179D02*
X011985Y019179D01*
X012184Y019179D02*
X012674Y019179D01*
X012575Y019278D02*
X012290Y019278D01*
X012349Y019376D02*
X012522Y019376D01*
X012485Y019475D02*
X012378Y019475D01*
X012335Y020164D02*
X012235Y020164D01*
X012235Y020263D02*
X012335Y020263D01*
X012335Y020362D02*
X012235Y020362D01*
X012059Y020164D02*
X011520Y020164D01*
X011630Y020263D02*
X011941Y020263D01*
X011878Y020362D02*
X011692Y020362D01*
X011733Y020460D02*
X011844Y020460D01*
X018125Y019080D02*
X019745Y019080D01*
X019745Y018982D02*
X018125Y018982D01*
X018125Y018883D02*
X019745Y018883D01*
X019745Y018785D02*
X018125Y018785D01*
X018172Y018686D02*
X019745Y018686D01*
X019745Y018588D02*
X018270Y018588D01*
X018369Y018489D02*
X019745Y018489D01*
X019745Y018391D02*
X018467Y018391D01*
X018566Y018292D02*
X019745Y018292D01*
X019745Y018194D02*
X018665Y018194D01*
X018763Y018095D02*
X019745Y018095D01*
X019745Y017996D02*
X018862Y017996D01*
X018960Y017898D02*
X019823Y017898D01*
X019921Y017799D02*
X019059Y017799D01*
X019157Y017701D02*
X020020Y017701D01*
X020118Y017602D02*
X019256Y017602D01*
X019354Y017504D02*
X020217Y017504D01*
X020315Y017405D02*
X019453Y017405D01*
X019551Y017307D02*
X020345Y017307D01*
X020345Y017208D02*
X019650Y017208D01*
X019749Y017110D02*
X020345Y017110D01*
X021125Y017110D02*
X021745Y017110D01*
X021745Y017208D02*
X021125Y017208D01*
X021125Y017307D02*
X021745Y017307D01*
X021745Y017405D02*
X021125Y017405D01*
X021125Y017504D02*
X021745Y017504D01*
X021745Y017602D02*
X021125Y017602D01*
X021125Y017701D02*
X021745Y017701D01*
X021745Y017799D02*
X021125Y017799D01*
X021125Y017898D02*
X021745Y017898D01*
X021745Y017996D02*
X021125Y017996D01*
X021125Y018095D02*
X021745Y018095D01*
X021745Y018194D02*
X021125Y018194D01*
X021125Y018292D02*
X021745Y018292D01*
X021745Y018391D02*
X021125Y018391D01*
X021125Y018489D02*
X021745Y018489D01*
X021745Y018588D02*
X021125Y018588D01*
X021125Y018686D02*
X021745Y018686D01*
X021745Y018785D02*
X021125Y018785D01*
X021125Y018883D02*
X021745Y018883D01*
X021745Y018982D02*
X021125Y018982D01*
X021125Y019080D02*
X021745Y019080D01*
X021674Y019179D02*
X021196Y019179D01*
X021295Y019278D02*
X021575Y019278D01*
X021522Y019376D02*
X021348Y019376D01*
X021385Y019475D02*
X021485Y019475D01*
X021485Y019573D02*
X021385Y019573D01*
X021374Y019672D02*
X021497Y019672D01*
X021538Y019770D02*
X021333Y019770D01*
X021257Y019869D02*
X021613Y019869D01*
X021745Y019967D02*
X021125Y019967D01*
X021125Y020066D02*
X021745Y020066D01*
X021700Y020164D02*
X021170Y020164D01*
X021280Y020263D02*
X021590Y020263D01*
X021528Y020362D02*
X021342Y020362D01*
X021383Y020460D02*
X021487Y020460D01*
X021485Y020559D02*
X021385Y020559D01*
X021385Y020657D02*
X021485Y020657D01*
X021485Y020756D02*
X021385Y020756D01*
X021385Y020854D02*
X021485Y020854D01*
X021485Y020953D02*
X021385Y020953D01*
X021385Y021051D02*
X021485Y021051D01*
X021485Y021150D02*
X021385Y021150D01*
X021383Y021248D02*
X021487Y021248D01*
X021528Y021347D02*
X021342Y021347D01*
X022342Y021347D02*
X022528Y021347D01*
X022487Y021248D02*
X022383Y021248D01*
X022385Y021150D02*
X022485Y021150D01*
X022485Y021051D02*
X022385Y021051D01*
X022385Y020953D02*
X022485Y020953D01*
X022485Y020854D02*
X022385Y020854D01*
X022385Y020756D02*
X022485Y020756D01*
X022485Y020657D02*
X022385Y020657D01*
X022385Y020559D02*
X022485Y020559D01*
X022487Y020460D02*
X022383Y020460D01*
X022342Y020362D02*
X022528Y020362D01*
X022590Y020263D02*
X022280Y020263D01*
X022170Y020164D02*
X022700Y020164D01*
X022745Y020066D02*
X022125Y020066D01*
X022125Y019967D02*
X022745Y019967D01*
X022613Y019869D02*
X022257Y019869D01*
X022333Y019770D02*
X022538Y019770D01*
X022497Y019672D02*
X022374Y019672D01*
X022385Y019573D02*
X022485Y019573D01*
X022485Y019475D02*
X022385Y019475D01*
X022348Y019376D02*
X022522Y019376D01*
X022575Y019278D02*
X022295Y019278D01*
X022196Y019179D02*
X022674Y019179D01*
X022745Y019080D02*
X022125Y019080D01*
X022125Y018982D02*
X022745Y018982D01*
X022745Y018883D02*
X022125Y018883D01*
X022125Y018785D02*
X022745Y018785D01*
X022745Y018686D02*
X022125Y018686D01*
X022125Y018588D02*
X022745Y018588D01*
X021745Y017011D02*
X021125Y017011D01*
X021125Y016913D02*
X021745Y016913D01*
X021745Y016814D02*
X021125Y016814D01*
X021125Y016715D02*
X021745Y016715D01*
X021745Y016617D02*
X021125Y016617D01*
X023254Y016124D02*
X023445Y016124D01*
X023445Y016026D02*
X023381Y016026D01*
X023424Y015927D02*
X023445Y015927D01*
X023445Y015829D02*
X023430Y015829D01*
X023445Y015730D02*
X023403Y015730D01*
X023418Y015631D02*
X023445Y015631D01*
X024143Y014603D02*
X024135Y014496D01*
X025935Y014749D02*
X025940Y014954D01*
X026258Y014646D02*
X026293Y014646D01*
X026125Y014547D02*
X027335Y014547D01*
X027335Y014449D02*
X026158Y014449D01*
X026215Y014350D02*
X027335Y014350D01*
X027335Y014252D02*
X026230Y014252D01*
X026213Y014153D02*
X027335Y014153D01*
X027335Y014055D02*
X026153Y014055D01*
X026635Y014454D02*
X026635Y014729D01*
X026610Y014954D01*
X026658Y014942D02*
X027335Y014942D01*
X027335Y015040D02*
X026976Y015040D01*
X026976Y015003D02*
X026976Y015171D01*
X026966Y015209D01*
X026946Y015243D01*
X026918Y015271D01*
X026884Y015291D01*
X026846Y015301D01*
X026658Y015301D01*
X026658Y015003D01*
X026976Y015003D01*
X026976Y015139D02*
X027335Y015139D01*
X027335Y015237D02*
X026950Y015237D01*
X026658Y015237D02*
X026561Y015237D01*
X026561Y015139D02*
X026658Y015139D01*
X026658Y015040D02*
X026561Y015040D01*
X026561Y014843D02*
X026658Y014843D01*
X026658Y014745D02*
X026561Y014745D01*
X026561Y014646D02*
X026658Y014646D01*
X026927Y014646D02*
X027335Y014646D01*
X027335Y014745D02*
X026976Y014745D01*
X026976Y014843D02*
X027335Y014843D01*
X022742Y009892D02*
X022785Y009787D01*
X022845Y009727D01*
X022845Y008276D01*
X022956Y008164D01*
X023045Y008076D01*
X023045Y008076D01*
X023071Y008049D01*
X022976Y008049D01*
X022868Y008004D01*
X022785Y007921D01*
X022740Y007813D01*
X022740Y007749D01*
X022676Y007749D01*
X022568Y007704D01*
X022485Y007621D01*
X022440Y007513D01*
X022440Y007396D01*
X022485Y007287D01*
X022518Y007254D01*
X021540Y007254D01*
X021540Y007364D01*
X021814Y007364D01*
X021925Y007476D01*
X022725Y008276D01*
X022725Y008433D01*
X022725Y009876D01*
X022742Y009892D01*
X022725Y009817D02*
X022773Y009817D01*
X022725Y009719D02*
X022845Y009719D01*
X022845Y009620D02*
X022725Y009620D01*
X022725Y009522D02*
X022845Y009522D01*
X022845Y009423D02*
X022725Y009423D01*
X022725Y009325D02*
X022845Y009325D01*
X022845Y009226D02*
X022725Y009226D01*
X022725Y009128D02*
X022845Y009128D01*
X022845Y009029D02*
X022725Y009029D01*
X022725Y008931D02*
X022845Y008931D01*
X022845Y008832D02*
X022725Y008832D01*
X022725Y008733D02*
X022845Y008733D01*
X022845Y008635D02*
X022725Y008635D01*
X022725Y008536D02*
X022845Y008536D01*
X022845Y008438D02*
X022725Y008438D01*
X022725Y008339D02*
X022845Y008339D01*
X022880Y008241D02*
X022690Y008241D01*
X022592Y008142D02*
X022979Y008142D01*
X022963Y008044D02*
X022493Y008044D01*
X022395Y007945D02*
X022809Y007945D01*
X022754Y007847D02*
X022296Y007847D01*
X022197Y007748D02*
X022673Y007748D01*
X022513Y007649D02*
X022099Y007649D01*
X022000Y007551D02*
X022456Y007551D01*
X022440Y007452D02*
X021902Y007452D01*
X021540Y007354D02*
X022457Y007354D01*
X022517Y007255D02*
X021540Y007255D01*
X022334Y006847D02*
X022334Y005855D01*
X022327Y005876D02*
X022354Y005876D01*
X022334Y005974D02*
X022327Y005974D01*
X022327Y006073D02*
X022334Y006073D01*
X022327Y006171D02*
X022334Y006171D01*
X022327Y006270D02*
X022334Y006270D01*
X022327Y005777D02*
X022567Y005777D01*
X022540Y005679D02*
X022327Y005679D01*
X022327Y005580D02*
X022547Y005580D01*
X022591Y005481D02*
X022327Y005481D01*
X022375Y005383D02*
X022719Y005383D01*
X023528Y006847D02*
X023535Y006854D01*
X024233Y007255D02*
X026365Y007255D01*
X026267Y007354D02*
X025139Y007354D01*
X025132Y007341D02*
X025152Y007375D01*
X025162Y007413D01*
X025162Y007601D01*
X024864Y007601D01*
X024864Y007283D01*
X025032Y007283D01*
X025070Y007293D01*
X025104Y007313D01*
X025132Y007341D01*
X025162Y007452D02*
X026168Y007452D01*
X026070Y007551D02*
X025162Y007551D01*
X025162Y007748D02*
X025873Y007748D01*
X025971Y007649D02*
X024864Y007649D01*
X024815Y007650D02*
X024810Y007654D01*
X024435Y007654D01*
X024435Y007854D01*
X024385Y007905D01*
X023972Y007905D01*
X024283Y007905D02*
X024283Y007905D01*
X024358Y007905D01*
X024283Y007905D01*
X024283Y007905D01*
X024358Y007847D02*
X024468Y007847D01*
X024468Y007748D02*
X024358Y007748D01*
X024358Y007649D02*
X024766Y007649D01*
X024767Y007551D02*
X024864Y007551D01*
X024864Y007452D02*
X024767Y007452D01*
X024767Y007354D02*
X024864Y007354D01*
X024785Y007157D02*
X026464Y007157D01*
X026563Y007058D02*
X024785Y007058D01*
X024785Y006960D02*
X026661Y006960D01*
X026760Y006861D02*
X024785Y006861D01*
X024785Y006763D02*
X026858Y006763D01*
X026262Y006565D02*
X026165Y006565D01*
X026165Y006467D02*
X026262Y006467D01*
X026262Y006368D02*
X026165Y006368D01*
X026165Y006270D02*
X026262Y006270D01*
X026262Y006171D02*
X026165Y006171D01*
X026165Y006073D02*
X026262Y006073D01*
X026262Y005974D02*
X026165Y005974D01*
X026165Y005876D02*
X026262Y005876D01*
X025970Y005876D02*
X025825Y005876D01*
X025423Y005481D02*
X024785Y005481D01*
X024785Y005580D02*
X025292Y005580D01*
X025247Y005679D02*
X024785Y005679D01*
X024785Y005777D02*
X025240Y005777D01*
X025263Y005876D02*
X024785Y005876D01*
X024785Y005974D02*
X025177Y005974D01*
X025177Y006073D02*
X024785Y006073D01*
X024785Y006171D02*
X025177Y006171D01*
X025825Y006565D02*
X025970Y006565D01*
X024491Y007354D02*
X024270Y007354D01*
X024270Y007452D02*
X024468Y007452D01*
X024468Y007551D02*
X024323Y007551D01*
X024395Y007945D02*
X024491Y007945D01*
X024735Y008199D02*
X024815Y008319D01*
X025162Y008339D02*
X025281Y008339D01*
X025183Y008438D02*
X025162Y008438D01*
X025162Y008241D02*
X025380Y008241D01*
X025479Y008142D02*
X025162Y008142D01*
X025162Y008044D02*
X025577Y008044D01*
X025676Y007945D02*
X025140Y007945D01*
X025162Y007847D02*
X025774Y007847D01*
X022735Y007454D02*
X022728Y007447D01*
X022054Y008142D02*
X022030Y008142D01*
X022030Y008118D02*
X022030Y008213D01*
X021985Y008321D01*
X021925Y008381D01*
X021925Y009047D01*
X021968Y009004D01*
X022076Y008959D01*
X022194Y008959D01*
X022302Y009004D01*
X022345Y009047D01*
X022345Y008433D01*
X022030Y008118D01*
X022019Y008241D02*
X022153Y008241D01*
X022251Y008339D02*
X021967Y008339D01*
X021925Y008438D02*
X022345Y008438D01*
X022345Y008536D02*
X021925Y008536D01*
X021925Y008635D02*
X022345Y008635D01*
X022345Y008733D02*
X021925Y008733D01*
X021925Y008832D02*
X022345Y008832D01*
X022345Y008931D02*
X021925Y008931D01*
X021925Y009029D02*
X021943Y009029D01*
X022327Y009029D02*
X022345Y009029D01*
X021545Y009719D02*
X021517Y009719D01*
X020503Y009719D02*
X020325Y009719D01*
X020325Y009620D02*
X020385Y009620D01*
X020344Y009522D02*
X020325Y009522D01*
X020325Y009423D02*
X020340Y009423D01*
X020325Y009325D02*
X020369Y009325D01*
X020325Y009226D02*
X020445Y009226D01*
X020445Y009128D02*
X020325Y009128D01*
X020325Y009029D02*
X020445Y009029D01*
X020443Y008931D02*
X020325Y008931D01*
X020344Y008832D02*
X020281Y008832D01*
X020246Y008733D02*
X020183Y008733D01*
X020147Y008635D02*
X020084Y008635D01*
X020048Y008536D02*
X019986Y008536D01*
X017354Y006960D02*
X017217Y006960D01*
X017202Y006861D02*
X017368Y006861D01*
X017601Y006664D02*
X016469Y006664D01*
X016555Y006565D02*
X017515Y006565D01*
X017515Y006467D02*
X016555Y006467D01*
X016555Y006368D02*
X017515Y006368D01*
X017515Y006270D02*
X016555Y006270D01*
X016555Y006171D02*
X017515Y006171D01*
X017515Y006073D02*
X016555Y006073D01*
X016529Y005974D02*
X017541Y005974D01*
X017515Y005876D02*
X016555Y005876D01*
X016555Y005777D02*
X017515Y005777D01*
X017515Y005679D02*
X016555Y005679D01*
X016555Y005580D02*
X017515Y005580D01*
X017515Y005481D02*
X016555Y005481D01*
X016508Y005383D02*
X017562Y005383D01*
X017787Y004496D02*
X017884Y004496D01*
X017884Y004398D02*
X017787Y004398D01*
X017787Y004299D02*
X017884Y004299D01*
X017145Y004003D02*
X017048Y004003D01*
X017048Y003905D02*
X017145Y003905D01*
X017145Y003806D02*
X017048Y003806D01*
X017047Y003708D02*
X016324Y003708D01*
X016324Y003806D02*
X016546Y003806D01*
X016546Y003905D02*
X016324Y003905D01*
X016324Y004003D02*
X016555Y004003D01*
X016546Y003609D02*
X016324Y003609D01*
X016324Y003511D02*
X016553Y003511D01*
X016659Y003412D02*
X016241Y003412D01*
X017048Y003412D02*
X017145Y003412D01*
X017145Y003511D02*
X017048Y003511D01*
X017048Y003609D02*
X017145Y003609D01*
X017488Y003314D02*
X015217Y003314D01*
X015217Y003412D02*
X015307Y003412D01*
X015224Y003511D02*
X015217Y003511D01*
X015224Y003609D02*
X015190Y003609D01*
X015217Y003215D02*
X017524Y003215D01*
X017835Y003530D02*
X017837Y003532D01*
X018185Y002919D02*
X015125Y002919D01*
X015125Y002821D02*
X018185Y002821D01*
X018178Y001934D02*
X018692Y001934D01*
X018583Y001835D02*
X018287Y001835D01*
X018347Y001737D02*
X018523Y001737D01*
X018493Y001638D02*
X018377Y001638D01*
X018385Y001441D02*
X018485Y001441D01*
X018485Y001343D02*
X018385Y001343D01*
X018385Y001244D02*
X018485Y001244D01*
X018485Y001146D02*
X018385Y001146D01*
X018385Y001047D02*
X018485Y001047D01*
X018485Y000949D02*
X018385Y000949D01*
X018374Y000850D02*
X018496Y000850D01*
X019374Y000850D02*
X019491Y000850D01*
X019485Y000949D02*
X019385Y000949D01*
X019385Y001047D02*
X019485Y001047D01*
X019485Y001146D02*
X019385Y001146D01*
X019385Y001244D02*
X019485Y001244D01*
X019485Y001343D02*
X019385Y001343D01*
X019385Y001441D02*
X019485Y001441D01*
X019485Y001540D02*
X018985Y001540D01*
X018985Y001638D02*
X018885Y001638D01*
X018885Y001540D02*
X017985Y001540D01*
X017985Y001638D02*
X017885Y001638D01*
X017885Y001540D02*
X017385Y001540D01*
X017385Y001638D02*
X017493Y001638D01*
X017523Y001737D02*
X017347Y001737D01*
X017290Y001835D02*
X017583Y001835D01*
X017692Y001934D02*
X017192Y001934D01*
X016678Y001934D02*
X016192Y001934D01*
X016290Y001835D02*
X016580Y001835D01*
X016524Y001737D02*
X016347Y001737D01*
X016385Y001638D02*
X016485Y001638D01*
X016485Y001540D02*
X016385Y001540D01*
X016385Y001441D02*
X016485Y001441D01*
X016485Y001343D02*
X016385Y001343D01*
X016385Y001244D02*
X016485Y001244D01*
X016485Y001146D02*
X016385Y001146D01*
X016385Y001047D02*
X016485Y001047D01*
X016485Y000949D02*
X016385Y000949D01*
X016379Y000850D02*
X016491Y000850D01*
X017379Y000850D02*
X017496Y000850D01*
X017485Y000949D02*
X017385Y000949D01*
X017385Y001047D02*
X017485Y001047D01*
X017485Y001146D02*
X017385Y001146D01*
X017385Y001244D02*
X017485Y001244D01*
X017485Y001343D02*
X017385Y001343D01*
X017385Y001441D02*
X017485Y001441D01*
X017885Y001737D02*
X017985Y001737D01*
X017985Y001835D02*
X017885Y001835D01*
X017885Y001934D02*
X017985Y001934D01*
X018885Y001934D02*
X018985Y001934D01*
X018985Y001835D02*
X018885Y001835D01*
X018885Y001737D02*
X018985Y001737D01*
X019178Y001934D02*
X019678Y001934D01*
X019580Y001835D02*
X019287Y001835D01*
X019347Y001737D02*
X019524Y001737D01*
X019485Y001638D02*
X019377Y001638D01*
X020192Y001934D02*
X021678Y001934D01*
X021745Y002032D02*
X015125Y002032D01*
X015125Y002131D02*
X021745Y002131D01*
X021745Y002230D02*
X015125Y002230D01*
X015125Y002328D02*
X021745Y002328D01*
X021745Y002427D02*
X015125Y002427D01*
X015125Y002525D02*
X021745Y002525D01*
X021745Y002624D02*
X015125Y002624D01*
X015125Y002722D02*
X021745Y002722D01*
X021580Y001835D02*
X020290Y001835D01*
X020347Y001737D02*
X021524Y001737D01*
X021485Y001638D02*
X020385Y001638D01*
X020385Y001540D02*
X021485Y001540D01*
X021485Y001441D02*
X020385Y001441D01*
X020385Y001343D02*
X021485Y001343D01*
X021485Y001244D02*
X020385Y001244D01*
X020385Y001146D02*
X021485Y001146D01*
X021485Y001047D02*
X020385Y001047D01*
X020385Y000949D02*
X021485Y000949D01*
X021491Y000850D02*
X020379Y000850D01*
X015678Y001934D02*
X015192Y001934D01*
X015290Y001835D02*
X015580Y001835D01*
X015524Y001737D02*
X015347Y001737D01*
X015385Y001638D02*
X015485Y001638D01*
X015485Y001540D02*
X015385Y001540D01*
X015385Y001441D02*
X015485Y001441D01*
X015485Y001343D02*
X015385Y001343D01*
X015385Y001244D02*
X015485Y001244D01*
X015485Y001146D02*
X015385Y001146D01*
X015385Y001047D02*
X015485Y001047D01*
X015485Y000949D02*
X015385Y000949D01*
X015379Y000850D02*
X015491Y000850D01*
X014491Y000850D02*
X009933Y000850D01*
X008937Y000850D02*
X005710Y000850D01*
X005809Y000949D02*
X008839Y000949D01*
X008740Y001047D02*
X005883Y001047D01*
X005940Y001146D02*
X008684Y001146D01*
X008644Y001244D02*
X005982Y001244D01*
X006011Y001343D02*
X008603Y001343D01*
X008585Y001441D02*
X006030Y001441D01*
X005148Y001737D02*
X005048Y001737D01*
X005048Y001835D02*
X005148Y001835D01*
X005148Y001934D02*
X005048Y001934D01*
X005048Y002032D02*
X005148Y002032D01*
X005148Y002131D02*
X005048Y002131D01*
X005048Y002230D02*
X005148Y002230D01*
X005148Y002328D02*
X005048Y002328D01*
X005048Y002427D02*
X005148Y002427D01*
X005473Y002427D02*
X014745Y002427D01*
X014745Y002525D02*
X014323Y002525D01*
X014400Y002624D02*
X014745Y002624D01*
X014745Y002722D02*
X014430Y002722D01*
X014427Y002821D02*
X014745Y002821D01*
X014745Y002919D02*
X014386Y002919D01*
X013947Y002525D02*
X006589Y002525D01*
X005969Y002525D02*
X004222Y002525D01*
X004177Y002510D02*
X004277Y002545D01*
X004372Y002590D01*
X004461Y002646D01*
X004544Y002712D01*
X004619Y002787D01*
X004684Y002869D01*
X004741Y002959D01*
X004786Y003054D01*
X004821Y003154D01*
X004845Y003257D01*
X004857Y003361D01*
X004857Y003364D01*
X003967Y003364D01*
X003967Y003464D01*
X004857Y003464D01*
X004857Y003467D01*
X004845Y003572D01*
X004821Y003675D01*
X004786Y003775D01*
X004741Y003870D01*
X004684Y003959D01*
X004619Y004042D01*
X004544Y004116D01*
X004461Y004182D01*
X004372Y004238D01*
X004277Y004284D01*
X004177Y004319D01*
X004074Y004342D01*
X003969Y004354D01*
X003967Y004354D01*
X003967Y003464D01*
X003867Y003464D01*
X003867Y004354D01*
X003864Y004354D01*
X003759Y004342D01*
X003656Y004319D01*
X003556Y004284D01*
X003461Y004238D01*
X003372Y004182D01*
X003289Y004116D01*
X003215Y004042D01*
X003149Y003959D01*
X003093Y003870D01*
X003047Y003775D01*
X003012Y003675D01*
X002988Y003572D01*
X002977Y003467D01*
X002977Y003464D01*
X003866Y003464D01*
X003866Y003364D01*
X002977Y003364D01*
X002977Y003361D01*
X002988Y003257D01*
X003012Y003154D01*
X003047Y003054D01*
X003093Y002959D01*
X003149Y002869D01*
X003215Y002787D01*
X003289Y002712D01*
X003372Y002646D01*
X003461Y002590D01*
X003556Y002545D01*
X003656Y002510D01*
X003759Y002486D01*
X003864Y002474D01*
X003867Y002474D01*
X003867Y003364D01*
X003967Y003364D01*
X003967Y002474D01*
X003969Y002474D01*
X004074Y002486D01*
X004177Y002510D01*
X003967Y002525D02*
X003867Y002525D01*
X003867Y002624D02*
X003967Y002624D01*
X003967Y002722D02*
X003867Y002722D01*
X003867Y002821D02*
X003967Y002821D01*
X003967Y002919D02*
X003867Y002919D01*
X003867Y003018D02*
X003967Y003018D01*
X003967Y003116D02*
X003867Y003116D01*
X003867Y003215D02*
X003967Y003215D01*
X003967Y003314D02*
X003867Y003314D01*
X003866Y003412D02*
X002219Y003412D01*
X002219Y003314D02*
X002357Y003314D01*
X002515Y003314D02*
X002615Y003314D01*
X002615Y003215D02*
X002515Y003215D01*
X002515Y003116D02*
X002615Y003116D01*
X002615Y003018D02*
X002515Y003018D01*
X002615Y002919D02*
X003117Y002919D01*
X003064Y003018D02*
X003004Y003018D01*
X003025Y003116D02*
X002967Y003116D01*
X002998Y003215D02*
X002901Y003215D01*
X002982Y003314D02*
X002773Y003314D01*
X002766Y003511D02*
X002982Y003511D01*
X002997Y003609D02*
X002896Y003609D01*
X002967Y003708D02*
X003023Y003708D01*
X003007Y003806D02*
X003062Y003806D01*
X003015Y003905D02*
X003115Y003905D01*
X003092Y004003D02*
X003184Y004003D01*
X003191Y004102D02*
X003275Y004102D01*
X003290Y004200D02*
X003401Y004200D01*
X003388Y004299D02*
X003599Y004299D01*
X003487Y004398D02*
X004857Y004398D01*
X004759Y004496D02*
X003585Y004496D01*
X003867Y004299D02*
X003967Y004299D01*
X003967Y004200D02*
X003867Y004200D01*
X003867Y004102D02*
X003967Y004102D01*
X003967Y004003D02*
X003867Y004003D01*
X003867Y003905D02*
X003967Y003905D01*
X003967Y003806D02*
X003867Y003806D01*
X003867Y003708D02*
X003967Y003708D01*
X003967Y003609D02*
X003867Y003609D01*
X003867Y003511D02*
X003967Y003511D01*
X003967Y003412D02*
X005339Y003412D01*
X005339Y003314D02*
X004851Y003314D01*
X004835Y003215D02*
X005344Y003215D01*
X005385Y003116D02*
X004808Y003116D01*
X004769Y003018D02*
X005426Y003018D01*
X005466Y002919D02*
X004716Y002919D01*
X004646Y002821D02*
X005543Y002821D01*
X005641Y002722D02*
X004554Y002722D01*
X004425Y002624D02*
X005740Y002624D01*
X004723Y002427D02*
X002221Y002427D01*
X002221Y002525D02*
X002338Y002525D01*
X002515Y002525D02*
X002615Y002525D01*
X002615Y002624D02*
X002515Y002624D01*
X002515Y002722D02*
X002615Y002722D01*
X002615Y002821D02*
X002515Y002821D01*
X002793Y002525D02*
X003611Y002525D01*
X003408Y002624D02*
X002910Y002624D01*
X002972Y002722D02*
X003279Y002722D01*
X003188Y002821D02*
X003006Y002821D01*
X002229Y003215D02*
X002219Y003215D01*
X002218Y003511D02*
X002364Y003511D01*
X002234Y003609D02*
X002218Y003609D01*
X002217Y004299D02*
X002318Y004299D01*
X002216Y004398D02*
X002610Y004398D01*
X002709Y004496D02*
X002216Y004496D01*
X002216Y004595D02*
X002807Y004595D01*
X002906Y004693D02*
X002216Y004693D01*
X002215Y004792D02*
X003004Y004792D01*
X003103Y004890D02*
X002215Y004890D01*
X002215Y004989D02*
X003154Y004989D01*
X003154Y005087D02*
X002215Y005087D01*
X002214Y005186D02*
X003154Y005186D01*
X003154Y005284D02*
X002214Y005284D01*
X002214Y005383D02*
X003154Y005383D01*
X003093Y005481D02*
X002214Y005481D01*
X002213Y005580D02*
X003019Y005580D01*
X003019Y005679D02*
X002213Y005679D01*
X002213Y005777D02*
X003019Y005777D01*
X003019Y005876D02*
X002213Y005876D01*
X002212Y005974D02*
X003019Y005974D01*
X003019Y006073D02*
X002212Y006073D01*
X002212Y006171D02*
X003038Y006171D01*
X003408Y006639D02*
X002300Y006639D01*
X002212Y006727D01*
X002212Y007639D01*
X002300Y007726D01*
X003408Y007726D01*
X003496Y007639D01*
X003496Y006727D01*
X003408Y006639D01*
X003433Y006664D02*
X004440Y006664D01*
X004377Y006763D02*
X003496Y006763D01*
X003496Y006861D02*
X004377Y006861D01*
X004377Y006960D02*
X003496Y006960D01*
X003496Y007058D02*
X004377Y007058D01*
X004377Y007157D02*
X003496Y007157D01*
X003496Y007255D02*
X004377Y007255D01*
X004377Y007354D02*
X003496Y007354D01*
X003496Y007452D02*
X004377Y007452D01*
X004377Y007551D02*
X003496Y007551D01*
X003485Y007649D02*
X004388Y007649D01*
X004327Y007847D02*
X006154Y007847D01*
X006154Y007945D02*
X004384Y007945D01*
X004412Y008044D02*
X006134Y008044D01*
X006134Y008142D02*
X005636Y008142D01*
X005661Y008241D02*
X006452Y008241D01*
X006134Y008339D02*
X005661Y008339D01*
X005661Y008438D02*
X006134Y008438D01*
X006154Y008536D02*
X005661Y008536D01*
X005661Y008635D02*
X005986Y008635D01*
X005887Y008733D02*
X005661Y008733D01*
X005019Y008241D02*
X005020Y008241D01*
X005019Y008142D02*
X005020Y008142D01*
X004377Y008339D02*
X004317Y008339D01*
X004377Y008438D02*
X004177Y008438D01*
X004377Y008536D02*
X002206Y008536D01*
X002206Y008438D02*
X003894Y008438D01*
X003753Y008339D02*
X002207Y008339D01*
X002207Y008241D02*
X003690Y008241D01*
X003658Y008142D02*
X002207Y008142D01*
X002207Y008044D02*
X003658Y008044D01*
X003686Y007945D02*
X002208Y007945D01*
X002208Y007847D02*
X003743Y007847D01*
X003871Y007748D02*
X002208Y007748D01*
X002208Y007649D02*
X002223Y007649D01*
X002209Y007551D02*
X002212Y007551D01*
X002209Y007452D02*
X002212Y007452D01*
X002209Y007354D02*
X002212Y007354D01*
X002209Y007255D02*
X002212Y007255D01*
X002210Y007157D02*
X002212Y007157D01*
X002210Y007058D02*
X002212Y007058D01*
X002210Y006960D02*
X002212Y006960D01*
X002210Y006861D02*
X002212Y006861D01*
X002211Y006763D02*
X002212Y006763D01*
X002211Y006664D02*
X002275Y006664D01*
X002211Y006565D02*
X005429Y006565D01*
X005362Y006467D02*
X002211Y006467D01*
X002212Y006368D02*
X005340Y006368D01*
X005351Y006270D02*
X002212Y006270D01*
X003774Y005383D02*
X006345Y005383D01*
X006345Y005284D02*
X003774Y005284D01*
X003774Y005186D02*
X006270Y005186D01*
X006240Y005087D02*
X005030Y005087D01*
X005143Y004989D02*
X006243Y004989D01*
X006284Y004890D02*
X005241Y004890D01*
X005340Y004792D02*
X006398Y004792D01*
X006672Y004792D02*
X009667Y004792D01*
X009626Y004890D02*
X006786Y004890D01*
X006827Y004989D02*
X009625Y004989D01*
X009625Y005087D02*
X006830Y005087D01*
X006800Y005186D02*
X009625Y005186D01*
X009625Y005284D02*
X006725Y005284D01*
X006725Y005383D02*
X007565Y005383D01*
X007564Y005481D02*
X007517Y005481D01*
X007517Y005974D02*
X007564Y005974D01*
X007578Y006073D02*
X007517Y006073D01*
X007517Y006171D02*
X008017Y006171D01*
X007938Y006270D02*
X007517Y006270D01*
X007517Y006368D02*
X007938Y006368D01*
X007938Y006467D02*
X007517Y006467D01*
X008244Y006073D02*
X008333Y006073D01*
X008342Y006089D02*
X008323Y006055D01*
X008312Y006017D01*
X008312Y005770D01*
X008610Y005770D01*
X008610Y005673D01*
X008312Y005673D01*
X008312Y005426D01*
X008323Y005388D01*
X008342Y005354D01*
X008370Y005326D01*
X008404Y005306D01*
X008443Y005296D01*
X008611Y005296D01*
X008611Y005673D01*
X008708Y005673D01*
X008708Y005770D01*
X009006Y005770D01*
X009006Y006017D01*
X008996Y006055D01*
X008976Y006089D01*
X008948Y006117D01*
X008914Y006137D01*
X008876Y006147D01*
X008708Y006147D01*
X008708Y005770D01*
X008611Y005770D01*
X008611Y006147D01*
X008443Y006147D01*
X008404Y006137D01*
X008370Y006117D01*
X008342Y006089D01*
X008312Y005974D02*
X008258Y005974D01*
X008258Y005876D02*
X008312Y005876D01*
X008312Y005777D02*
X008258Y005777D01*
X008258Y005679D02*
X008610Y005679D01*
X008708Y005673D02*
X008708Y005296D01*
X008876Y005296D01*
X008914Y005306D01*
X008948Y005326D01*
X008976Y005354D01*
X008996Y005388D01*
X009006Y005426D01*
X009006Y005673D01*
X008708Y005673D01*
X008708Y005679D02*
X009625Y005679D01*
X009625Y005777D02*
X009006Y005777D01*
X009006Y005876D02*
X009625Y005876D01*
X009625Y005974D02*
X009006Y005974D01*
X008985Y006073D02*
X009625Y006073D01*
X009648Y006171D02*
X008554Y006171D01*
X008611Y006073D02*
X008708Y006073D01*
X008708Y005974D02*
X008611Y005974D01*
X008611Y005876D02*
X008708Y005876D01*
X008708Y005777D02*
X008611Y005777D01*
X008611Y005580D02*
X008708Y005580D01*
X008708Y005481D02*
X008611Y005481D01*
X008611Y005383D02*
X008708Y005383D01*
X008993Y005383D02*
X009625Y005383D01*
X009625Y005481D02*
X009006Y005481D01*
X009006Y005580D02*
X009625Y005580D01*
X010245Y005777D02*
X011399Y005777D01*
X011467Y005580D02*
X011782Y005580D01*
X011702Y005481D02*
X011562Y005481D01*
X011569Y005383D02*
X011702Y005383D01*
X011872Y005777D02*
X012999Y005777D01*
X013169Y005087D02*
X013302Y005087D01*
X013334Y004989D02*
X013136Y004989D01*
X013148Y004003D02*
X013245Y004003D01*
X013245Y003905D02*
X013148Y003905D01*
X013148Y003806D02*
X013245Y003806D01*
X013245Y003609D02*
X013148Y003609D01*
X013148Y003511D02*
X013245Y003511D01*
X013245Y003412D02*
X013148Y003412D01*
X012646Y003905D02*
X012424Y003905D01*
X012424Y004003D02*
X012655Y004003D01*
X010225Y004102D02*
X006921Y004102D01*
X007019Y004003D02*
X008633Y004003D01*
X008634Y004009D02*
X008624Y003971D01*
X008624Y003803D01*
X009125Y003803D01*
X009125Y003706D01*
X008624Y003706D01*
X008624Y003538D01*
X008634Y003500D01*
X008654Y003465D01*
X008682Y003437D01*
X008716Y003418D01*
X008754Y003407D01*
X009126Y003407D01*
X009126Y003706D01*
X009223Y003706D01*
X009223Y003803D01*
X009724Y003803D01*
X009724Y003971D01*
X009714Y004009D01*
X009694Y004043D01*
X009666Y004071D01*
X009632Y004091D01*
X009594Y004101D01*
X009223Y004101D01*
X009223Y003803D01*
X009126Y003803D01*
X009126Y004101D01*
X008754Y004101D01*
X008716Y004091D01*
X008682Y004071D01*
X008654Y004043D01*
X008634Y004009D01*
X008624Y003905D02*
X007093Y003905D01*
X007134Y003806D02*
X008624Y003806D01*
X008624Y003609D02*
X007216Y003609D01*
X007219Y003511D02*
X008631Y003511D01*
X008737Y003412D02*
X007219Y003412D01*
X007175Y003708D02*
X009125Y003708D01*
X009223Y003706D02*
X009223Y003407D01*
X009594Y003407D01*
X009632Y003418D01*
X009666Y003437D01*
X009694Y003465D01*
X009714Y003500D01*
X009724Y003538D01*
X009724Y003706D01*
X009223Y003706D01*
X009223Y003708D02*
X009946Y003708D01*
X009946Y003806D02*
X009724Y003806D01*
X009724Y003905D02*
X009946Y003905D01*
X009946Y004003D02*
X009715Y004003D01*
X010152Y004299D02*
X006599Y004299D01*
X006822Y004200D02*
X010225Y004200D01*
X010054Y004398D02*
X005734Y004398D01*
X005635Y004496D02*
X009955Y004496D01*
X009856Y004595D02*
X005537Y004595D01*
X005438Y004693D02*
X009758Y004693D01*
X009223Y004003D02*
X009126Y004003D01*
X009126Y003905D02*
X009223Y003905D01*
X009223Y003806D02*
X009126Y003806D01*
X009126Y003609D02*
X009223Y003609D01*
X009223Y003511D02*
X009126Y003511D01*
X009126Y003412D02*
X009223Y003412D01*
X009611Y003412D02*
X010029Y003412D01*
X009946Y003511D02*
X009717Y003511D01*
X009724Y003609D02*
X009946Y003609D01*
X008325Y005383D02*
X008257Y005383D01*
X008258Y005481D02*
X008312Y005481D01*
X008312Y005580D02*
X008258Y005580D01*
X006154Y005580D02*
X005583Y005580D01*
X005698Y005679D02*
X006154Y005679D01*
X006154Y005777D02*
X005739Y005777D01*
X005745Y005876D02*
X006154Y005876D01*
X006154Y005974D02*
X005721Y005974D01*
X005726Y006073D02*
X006154Y006073D01*
X006154Y005481D02*
X004977Y005481D01*
X004235Y005481D02*
X003835Y005481D01*
X003909Y005580D02*
X004161Y005580D01*
X004161Y005679D02*
X003909Y005679D01*
X003909Y005777D02*
X004161Y005777D01*
X004161Y005876D02*
X003909Y005876D01*
X003909Y005974D02*
X004161Y005974D01*
X004161Y006073D02*
X003909Y006073D01*
X003891Y006171D02*
X004179Y006171D01*
X005033Y006171D02*
X005401Y006171D01*
X005661Y006960D02*
X005702Y006960D01*
X005661Y007058D02*
X005859Y007058D01*
X005661Y007157D02*
X006154Y007157D01*
X006154Y007354D02*
X005661Y007354D01*
X005661Y007452D02*
X006154Y007452D01*
X006154Y007551D02*
X005661Y007551D01*
X005651Y007649D02*
X006154Y007649D01*
X006154Y007748D02*
X004199Y007748D01*
X004377Y008635D02*
X002206Y008635D01*
X002206Y008733D02*
X004377Y008733D01*
X004377Y008832D02*
X002206Y008832D01*
X002205Y008931D02*
X004377Y008931D01*
X004377Y009029D02*
X002205Y009029D01*
X002205Y009128D02*
X004377Y009128D01*
X004377Y009226D02*
X002205Y009226D01*
X002204Y009325D02*
X004377Y009325D01*
X004377Y009423D02*
X002204Y009423D01*
X002204Y009522D02*
X003800Y009522D01*
X003710Y009620D02*
X002204Y009620D01*
X002203Y009719D02*
X003669Y009719D01*
X003658Y009817D02*
X002203Y009817D01*
X002203Y009916D02*
X003666Y009916D01*
X003707Y010014D02*
X002203Y010014D01*
X002202Y010113D02*
X003794Y010113D01*
X003496Y010270D02*
X003408Y010182D01*
X002300Y010182D01*
X002212Y010270D01*
X002212Y011182D01*
X002300Y011270D01*
X003408Y011270D01*
X003496Y011182D01*
X003496Y010270D01*
X003496Y010310D02*
X004377Y010310D01*
X004377Y010409D02*
X003496Y010409D01*
X003496Y010507D02*
X004377Y010507D01*
X004377Y010606D02*
X003496Y010606D01*
X003496Y010704D02*
X004377Y010704D01*
X004377Y010803D02*
X003496Y010803D01*
X003496Y010901D02*
X004377Y010901D01*
X004377Y011000D02*
X003496Y011000D01*
X003496Y011098D02*
X004377Y011098D01*
X004392Y011197D02*
X003481Y011197D01*
X003068Y011493D02*
X009483Y011493D01*
X009483Y011591D02*
X003097Y011591D01*
X003097Y011690D02*
X009483Y011690D01*
X009535Y011788D02*
X008264Y011788D01*
X008385Y011887D02*
X009623Y011887D01*
X009623Y011985D02*
X008426Y011985D01*
X008430Y012084D02*
X009623Y012084D01*
X009623Y012182D02*
X008401Y012182D01*
X008326Y012281D02*
X009565Y012281D01*
X009483Y011394D02*
X002199Y011394D01*
X002200Y011296D02*
X009551Y011296D01*
X009623Y011197D02*
X005646Y011197D01*
X005661Y011098D02*
X009623Y011098D01*
X009623Y011000D02*
X005661Y011000D01*
X005661Y010901D02*
X009623Y010901D01*
X009549Y010803D02*
X005661Y010803D01*
X005661Y010704D02*
X009483Y010704D01*
X009483Y010606D02*
X005661Y010606D01*
X005661Y010507D02*
X009483Y010507D01*
X009483Y010409D02*
X005661Y010409D01*
X005661Y010310D02*
X009536Y010310D01*
X009623Y010212D02*
X005603Y010212D01*
X005229Y010014D02*
X006147Y010014D01*
X006134Y009916D02*
X005230Y009916D01*
X005189Y010113D02*
X009623Y010113D01*
X009623Y010014D02*
X007535Y010014D01*
X006549Y010014D02*
X006452Y010014D01*
X006452Y009916D02*
X006549Y009916D01*
X006549Y009817D02*
X006452Y009817D01*
X006452Y009719D02*
X005661Y009719D01*
X005661Y009620D02*
X006134Y009620D01*
X006138Y009522D02*
X005661Y009522D01*
X005589Y009817D02*
X006134Y009817D01*
X004682Y010113D02*
X004276Y010113D01*
X004363Y010014D02*
X004641Y010014D01*
X004640Y009916D02*
X004404Y009916D01*
X004412Y009817D02*
X004450Y009817D01*
X004377Y009620D02*
X004360Y009620D01*
X004377Y009522D02*
X004270Y009522D01*
X004436Y010212D02*
X003438Y010212D01*
X002270Y010212D02*
X002202Y010212D01*
X002202Y010310D02*
X002212Y010310D01*
X002202Y010409D02*
X002212Y010409D01*
X002201Y010507D02*
X002212Y010507D01*
X002201Y010606D02*
X002212Y010606D01*
X002201Y010704D02*
X002212Y010704D01*
X002201Y010803D02*
X002212Y010803D01*
X002201Y010901D02*
X002212Y010901D01*
X002200Y011000D02*
X002212Y011000D01*
X002200Y011098D02*
X002212Y011098D01*
X002200Y011197D02*
X002227Y011197D01*
X002523Y011493D02*
X002623Y011493D01*
X002623Y011591D02*
X002523Y011591D01*
X002523Y011690D02*
X002623Y011690D01*
X002623Y011788D02*
X002523Y011788D01*
X002523Y011909D02*
X002523Y012285D01*
X002197Y012285D01*
X002523Y012281D02*
X002623Y012281D01*
X002623Y012182D02*
X002523Y012182D01*
X002523Y012084D02*
X002623Y012084D01*
X002623Y011985D02*
X002523Y011985D01*
X002523Y011909D02*
X002623Y011909D01*
X003097Y011788D02*
X008007Y011788D01*
X008842Y009916D02*
X009623Y009916D01*
X009564Y009817D02*
X008941Y009817D01*
X009039Y009719D02*
X009483Y009719D01*
X009483Y009620D02*
X009138Y009620D01*
X009236Y009522D02*
X009483Y009522D01*
X009483Y009423D02*
X009335Y009423D01*
X009433Y009325D02*
X009522Y009325D01*
X009532Y009226D02*
X009620Y009226D01*
X009631Y009128D02*
X009719Y009128D01*
X010147Y009128D02*
X010719Y009128D01*
X010620Y009226D02*
X010245Y009226D01*
X010344Y009325D02*
X010522Y009325D01*
X010483Y009423D02*
X010383Y009423D01*
X010383Y009522D02*
X010483Y009522D01*
X010483Y009620D02*
X010383Y009620D01*
X010383Y009719D02*
X010483Y009719D01*
X010564Y009817D02*
X010302Y009817D01*
X011203Y009916D02*
X012028Y009916D01*
X011929Y009817D02*
X011302Y009817D01*
X011383Y009719D02*
X011831Y009719D01*
X011732Y009620D02*
X011383Y009620D01*
X011383Y009522D02*
X011634Y009522D01*
X011535Y009423D02*
X011383Y009423D01*
X011344Y009325D02*
X011437Y009325D01*
X011338Y009226D02*
X011245Y009226D01*
X011240Y009128D02*
X011147Y009128D01*
X009384Y008536D02*
X008995Y008536D01*
X009054Y007452D02*
X013485Y007452D01*
X013499Y007354D02*
X009113Y007354D01*
X009130Y007255D02*
X013598Y007255D01*
X014174Y007157D02*
X014696Y007157D01*
X014598Y007255D02*
X014272Y007255D01*
X014371Y007354D02*
X014499Y007354D01*
X014485Y007452D02*
X014385Y007452D01*
X015174Y007157D02*
X016152Y007157D01*
X016152Y007058D02*
X016249Y007058D01*
X016249Y006960D02*
X016152Y006960D01*
X016152Y006861D02*
X016249Y006861D01*
X016526Y006861D02*
X016537Y006861D01*
X015854Y007058D02*
X009056Y007058D01*
X006452Y007255D02*
X005661Y007255D01*
X005833Y004299D02*
X005958Y004299D01*
X005350Y003905D02*
X004719Y003905D01*
X004771Y003806D02*
X005424Y003806D01*
X005383Y003708D02*
X004810Y003708D01*
X004836Y003609D02*
X005342Y003609D01*
X005339Y003511D02*
X004852Y003511D01*
X004649Y004003D02*
X005251Y004003D01*
X005153Y004102D02*
X004558Y004102D01*
X004432Y004200D02*
X005054Y004200D01*
X004956Y004299D02*
X004234Y004299D01*
X004548Y002328D02*
X002221Y002328D01*
X002222Y002230D02*
X004434Y002230D01*
X004348Y002131D02*
X002222Y002131D01*
X002222Y002032D02*
X004282Y002032D01*
X004233Y001934D02*
X002222Y001934D01*
X002223Y001835D02*
X004197Y001835D01*
X004173Y001737D02*
X002223Y001737D01*
X002223Y001638D02*
X004160Y001638D01*
X004312Y001047D02*
X002248Y001047D01*
X002297Y000949D02*
X004386Y000949D01*
X004485Y000850D02*
X002385Y000850D01*
X015272Y007255D02*
X015854Y007255D01*
X015854Y007354D02*
X015371Y007354D01*
X015752Y005481D02*
X015861Y005481D01*
X015909Y005383D02*
X015752Y005383D01*
X013562Y009817D02*
X013341Y009817D01*
X018372Y019179D02*
X019674Y019179D01*
X019575Y019278D02*
X018385Y019278D01*
X018385Y019376D02*
X019522Y019376D01*
X019485Y019475D02*
X018385Y019475D01*
X018385Y019573D02*
X019485Y019573D01*
X019497Y019672D02*
X018385Y019672D01*
X018420Y019770D02*
X019538Y019770D01*
X019613Y019869D02*
X018475Y019869D01*
X018475Y019967D02*
X019745Y019967D01*
X019745Y020066D02*
X018475Y020066D01*
X018520Y020164D02*
X019700Y020164D01*
X019590Y020263D02*
X018630Y020263D01*
X018692Y020362D02*
X019528Y020362D01*
X019487Y020460D02*
X018733Y020460D01*
X018735Y020559D02*
X019485Y020559D01*
X019485Y020657D02*
X018735Y020657D01*
X018735Y020756D02*
X019485Y020756D01*
X019485Y020854D02*
X018735Y020854D01*
X018735Y020953D02*
X019485Y020953D01*
X019485Y021051D02*
X018735Y021051D01*
X018735Y021150D02*
X019485Y021150D01*
X019487Y021248D02*
X018733Y021248D01*
X018692Y021347D02*
X019528Y021347D01*
D36*
X018935Y019554D03*
X021435Y018754D03*
X022435Y018754D03*
X023435Y018754D03*
X024435Y018754D03*
X023335Y016354D03*
X023135Y015854D03*
X024135Y015954D03*
X022235Y014854D03*
X021535Y015254D03*
X021235Y014554D03*
X021535Y014054D03*
X019935Y013754D03*
X019335Y014054D03*
X019335Y014554D03*
X022235Y012454D03*
X023835Y012254D03*
X024235Y012454D03*
X024735Y012254D03*
X025035Y011954D03*
X025335Y011654D03*
X026035Y011754D03*
X026605Y010834D03*
X026035Y009954D03*
X024735Y010254D03*
X024735Y010654D03*
X023035Y010454D03*
X023035Y009954D03*
X023335Y009254D03*
X023335Y008854D03*
X023335Y008454D03*
X022635Y007954D03*
X023035Y007754D03*
X022735Y007454D03*
X023535Y006854D03*
X023975Y007404D03*
X025335Y007654D03*
X024735Y008754D03*
X022235Y008554D03*
X021735Y008154D03*
X022135Y009254D03*
X021335Y009954D03*
X020635Y009454D03*
X019835Y009654D03*
X018635Y010654D03*
X018135Y011154D03*
X017735Y011654D03*
X017435Y012154D03*
X017035Y012054D03*
X018535Y012054D03*
X019635Y011454D03*
X020135Y010954D03*
X020535Y010754D03*
X017435Y009354D03*
X017135Y009854D03*
X020035Y007954D03*
X019835Y007354D03*
X018835Y007054D03*
X020235Y005754D03*
X018835Y005254D03*
X017335Y004554D03*
X015735Y004254D03*
X014835Y004354D03*
X013535Y003154D03*
X014135Y002754D03*
X011835Y002954D03*
X011235Y004754D03*
X012835Y004754D03*
X013912Y006087D03*
X014835Y006254D03*
X015635Y007154D03*
X012735Y010054D03*
X014935Y012254D03*
X013335Y012654D03*
X011935Y013954D03*
X011235Y013954D03*
X010435Y013654D03*
X009435Y014454D03*
X009035Y014054D03*
X011835Y015954D03*
X012935Y016254D03*
X013935Y016254D03*
X014935Y016254D03*
X015935Y016254D03*
X015735Y014954D03*
X016035Y014554D03*
X020135Y017054D03*
X017435Y017554D03*
X016435Y017554D03*
X015435Y017554D03*
X014435Y017554D03*
X013435Y017554D03*
X011635Y018254D03*
X009335Y019054D03*
X008235Y018654D03*
X007635Y018454D03*
X008635Y018054D03*
X007535Y017154D03*
X008735Y017054D03*
X008835Y016454D03*
X010535Y016154D03*
X006800Y019154D03*
X007935Y019554D03*
X007535Y021054D03*
X003835Y018354D03*
X004735Y015854D03*
X004835Y015054D03*
X005735Y015054D03*
X008135Y012054D03*
X004935Y009954D03*
X004135Y008654D03*
X005935Y008254D03*
X005935Y007454D03*
X005935Y006754D03*
X005635Y006354D03*
X005435Y005854D03*
X006535Y005054D03*
X008235Y003754D03*
X009235Y005654D03*
X009935Y006054D03*
X010735Y007254D03*
X009235Y008254D03*
X008835Y007254D03*
X016735Y003254D03*
X021235Y003254D03*
X023135Y004054D03*
X022835Y005654D03*
X022435Y005654D03*
X023895Y006184D03*
X024935Y006154D03*
X025535Y005754D03*
X026235Y005654D03*
X027135Y005954D03*
X027335Y004054D03*
X025635Y004054D03*
X026435Y002254D03*
X010435Y000954D03*
X023235Y013854D03*
X024135Y013954D03*
X025935Y014254D03*
X026635Y014454D03*
D37*
X025935Y014254D02*
X025935Y014749D01*
X024135Y014496D02*
X024135Y013954D01*
X023235Y013854D02*
X023235Y014520D01*
X022835Y013954D02*
X022535Y014254D01*
X022535Y016054D01*
X022935Y016454D01*
X022935Y019554D01*
X022935Y020554D01*
X021935Y020554D02*
X021935Y019554D01*
X021935Y014454D01*
X022635Y013754D01*
X022635Y012454D01*
X022137Y011956D01*
X022137Y011501D01*
X021940Y011501D02*
X021940Y013649D01*
X021535Y014054D01*
X021235Y013854D02*
X021235Y014554D01*
X021235Y013854D02*
X021744Y013346D01*
X021744Y011501D01*
X021547Y011501D02*
X021547Y013243D01*
X020935Y013854D01*
X020935Y019554D01*
X020935Y020554D01*
X019935Y020554D02*
X019935Y019554D01*
X019935Y018054D01*
X020535Y017454D01*
X020535Y013954D01*
X021350Y013140D01*
X021350Y011501D01*
X021153Y011501D02*
X021153Y013036D01*
X020235Y013954D01*
X020235Y016354D01*
X017935Y018654D01*
X017935Y019554D01*
X018285Y019904D01*
X018285Y020554D01*
X017285Y020554D02*
X017285Y019904D01*
X016935Y019554D01*
X016935Y015454D01*
X016035Y014554D01*
X015735Y014254D02*
X015435Y014554D01*
X011935Y014554D01*
X010735Y015754D01*
X007735Y015754D01*
X006764Y016725D01*
X004089Y016725D01*
X004089Y016292D02*
X006297Y016292D01*
X007035Y015554D01*
X010635Y015554D01*
X011835Y014354D01*
X015335Y014354D01*
X015635Y014054D01*
X019335Y014054D01*
X019335Y014554D02*
X016635Y014554D01*
X016335Y014254D01*
X015735Y014254D01*
X014335Y013054D02*
X012235Y010954D01*
X012235Y009854D01*
X011235Y008854D01*
X009635Y008854D01*
X008735Y009754D01*
X007170Y009754D01*
X007170Y009254D01*
X007170Y008754D02*
X009435Y008754D01*
X009535Y008654D01*
X011335Y008654D01*
X012435Y009754D01*
X012435Y010854D01*
X014435Y012854D01*
X020235Y012854D01*
X020759Y012330D01*
X020759Y011501D01*
X020562Y011501D02*
X020562Y012227D01*
X020135Y012654D01*
X014535Y012654D01*
X013035Y011154D01*
X013035Y009854D01*
X013335Y009554D01*
X013935Y009554D01*
X014935Y009554D02*
X016835Y009554D01*
X017135Y009854D01*
X017035Y010454D02*
X017035Y012054D01*
X017435Y012154D02*
X017435Y010454D01*
X018016Y009873D01*
X019308Y009873D01*
X019308Y009676D02*
X017813Y009676D01*
X017035Y010454D01*
X017735Y010554D02*
X017735Y011654D01*
X018535Y012054D02*
X020135Y010454D01*
X020135Y008954D01*
X019873Y008692D01*
X019308Y008692D01*
X019308Y008495D02*
X018576Y008495D01*
X017735Y007654D01*
X017735Y007189D01*
X017700Y007154D01*
X017835Y007154D01*
X017835Y006319D01*
X017862Y006319D01*
X017700Y007154D02*
X016870Y007154D01*
X016535Y007554D02*
X018264Y009283D01*
X019308Y009283D01*
X019308Y009480D02*
X018060Y009480D01*
X016635Y008054D01*
X014435Y008054D01*
X013935Y008554D01*
X014935Y008554D02*
X015735Y009354D01*
X017435Y009354D01*
X018219Y010070D02*
X017735Y010554D01*
X018135Y010654D02*
X018135Y011154D01*
X018135Y010654D02*
X018522Y010267D01*
X019308Y010267D01*
X019308Y010070D02*
X018219Y010070D01*
X018635Y010654D02*
X018826Y010464D01*
X019308Y010464D01*
X019308Y010661D02*
X019629Y010661D01*
X019835Y010454D01*
X019835Y009654D01*
X020635Y009454D02*
X020635Y008854D01*
X020079Y008299D01*
X019308Y008299D01*
X019308Y008102D02*
X018782Y008102D01*
X018335Y007654D01*
X018335Y007189D01*
X018370Y007154D01*
X018835Y007054D02*
X019270Y007054D01*
X019335Y006989D01*
X019308Y007016D01*
X019308Y007708D01*
X019835Y007354D02*
X020035Y007554D01*
X021335Y007554D01*
X021350Y007540D01*
X021350Y006847D01*
X021547Y006847D02*
X021547Y005043D01*
X021935Y004654D01*
X021935Y001554D01*
X022935Y001554D02*
X022935Y002454D01*
X022135Y003254D01*
X022135Y004754D01*
X021744Y005146D01*
X021744Y006847D01*
X021940Y006847D02*
X021940Y005249D01*
X022335Y004854D01*
X022335Y003654D01*
X023935Y002054D01*
X023935Y001554D01*
X024935Y001554D02*
X024935Y002754D01*
X024435Y003254D01*
X023135Y003254D01*
X022535Y003854D01*
X022535Y004954D01*
X022137Y005352D01*
X022137Y006847D01*
X022531Y006847D02*
X022531Y006324D01*
X022700Y006154D01*
X022835Y006020D01*
X022835Y005654D01*
X021335Y004459D02*
X020335Y004459D01*
X020335Y004954D02*
X021153Y005772D01*
X021153Y006847D01*
X020956Y006847D02*
X020956Y006075D01*
X019635Y004754D01*
X019635Y003754D01*
X019435Y003554D01*
X018880Y003554D01*
X018857Y003532D02*
X017837Y003532D01*
X018835Y005254D02*
X019635Y006054D01*
X020535Y006054D01*
X020759Y006279D01*
X020759Y006847D01*
X020169Y006847D02*
X019477Y006847D01*
X019335Y006989D01*
X021335Y007554D02*
X021735Y007554D01*
X022535Y008354D01*
X022535Y009954D01*
X023035Y010454D01*
X022925Y010744D02*
X022135Y009954D01*
X022135Y009254D01*
X021735Y009954D02*
X021735Y008154D01*
X022728Y007447D02*
X022728Y006847D01*
X022925Y006847D02*
X022925Y007244D01*
X023035Y007354D01*
X023035Y007754D01*
X023235Y008154D02*
X023435Y008154D01*
X023579Y008299D01*
X023972Y008299D01*
X023972Y008495D02*
X023376Y008495D01*
X023335Y008454D01*
X023497Y008692D02*
X023335Y008854D01*
X023497Y008692D02*
X023972Y008692D01*
X023972Y008889D02*
X023700Y008889D01*
X023335Y009254D01*
X023972Y009283D02*
X024907Y009283D01*
X027835Y006354D01*
X027835Y005154D01*
X026935Y004254D01*
X026935Y001554D01*
X025935Y001554D02*
X025935Y003654D01*
X027635Y005354D01*
X027635Y006254D01*
X024804Y009086D01*
X023972Y009086D01*
X024735Y008754D02*
X024735Y008199D01*
X024815Y008319D02*
X024780Y008354D01*
X024535Y008354D01*
X024282Y008102D01*
X023972Y008102D01*
X023972Y007708D02*
X023972Y007407D01*
X023975Y007404D01*
X023528Y006847D02*
X023121Y006847D01*
X023235Y008154D02*
X023035Y008354D01*
X023035Y009954D01*
X023972Y010661D02*
X024729Y010661D01*
X024735Y010654D01*
X025270Y010654D01*
X024535Y011254D02*
X026235Y011254D01*
X026285Y011204D01*
X026605Y010884D01*
X026605Y010834D01*
X025335Y011654D02*
X025335Y016754D01*
X026935Y018354D01*
X026935Y019554D01*
X026935Y020554D01*
X025935Y020554D02*
X025935Y019554D01*
X025935Y018054D01*
X025035Y017154D01*
X025035Y011954D01*
X024735Y012254D02*
X024735Y018154D01*
X024935Y018354D01*
X024935Y019554D01*
X024935Y020554D01*
X023935Y020554D02*
X023935Y019554D01*
X023935Y018754D01*
X023635Y018454D02*
X023635Y012454D01*
X023835Y012254D01*
X022835Y012354D02*
X022835Y013954D01*
X023135Y015289D02*
X023135Y015854D01*
X020335Y013054D02*
X014335Y013054D01*
X011935Y013954D02*
X010635Y015254D01*
X007035Y015254D01*
X006863Y015426D01*
X004089Y015426D01*
X004010Y014993D02*
X004774Y014993D01*
X004835Y015054D01*
X004089Y014560D02*
X007141Y014560D01*
X007435Y014854D01*
X010335Y014854D01*
X011235Y013954D01*
X010435Y013654D02*
X009335Y013654D01*
X008935Y013254D01*
X007735Y013254D01*
X007296Y013694D01*
X004089Y013694D01*
X004246Y014127D02*
X007263Y014127D01*
X007835Y013554D01*
X008535Y013554D01*
X009035Y014054D01*
X011830Y015959D02*
X011835Y015954D01*
X011830Y015959D02*
X011830Y016554D01*
X011830Y017054D01*
X011240Y017054D02*
X010935Y017054D01*
X010635Y017354D01*
X010635Y017654D01*
X010435Y017854D01*
X009970Y017854D01*
X009970Y017354D02*
X010435Y017354D01*
X010535Y017254D01*
X010535Y016954D01*
X010935Y016554D01*
X011240Y016554D01*
X010535Y016654D02*
X010535Y016154D01*
X009970Y016354D02*
X009735Y016354D01*
X009635Y016454D01*
X009635Y016754D01*
X009535Y016854D01*
X009300Y016854D01*
X008935Y016854D01*
X008735Y017054D01*
X009300Y017354D02*
X008135Y017354D01*
X007912Y017578D01*
X007912Y017957D01*
X008109Y017957D02*
X008109Y017681D01*
X008235Y017554D01*
X008535Y017554D01*
X008835Y017854D01*
X009300Y017854D01*
X009300Y018354D02*
X009335Y018389D01*
X009335Y019054D01*
X009970Y018354D02*
X010635Y018354D01*
X010935Y018054D01*
X010935Y017759D01*
X010940Y017754D01*
X010335Y016854D02*
X009970Y016854D01*
X010335Y016854D02*
X010535Y016654D01*
X012935Y016254D02*
X012935Y019554D01*
X013285Y019904D01*
X013285Y020554D01*
X014285Y020554D02*
X014285Y019904D01*
X013935Y019554D01*
X013935Y016254D01*
X014935Y016254D02*
X014935Y019554D01*
X015285Y019904D01*
X015285Y020554D01*
X016285Y020554D02*
X016285Y019904D01*
X015935Y019554D01*
X015935Y016254D01*
X020335Y013054D02*
X020956Y012433D01*
X020956Y011501D01*
X020169Y011501D02*
X020169Y010988D01*
X020135Y010954D01*
X020169Y011501D02*
X020169Y011905D01*
X020020Y012024D01*
X022334Y011853D02*
X022334Y011501D01*
X022531Y011501D02*
X022531Y011150D01*
X021335Y009954D01*
X021735Y009954D02*
X022728Y010947D01*
X022728Y011501D01*
X022925Y011501D02*
X022925Y010744D01*
X023121Y011501D02*
X024288Y011501D01*
X024535Y011254D01*
X022835Y012354D02*
X022334Y011853D01*
X016535Y007554D02*
X014935Y007554D01*
X014870Y006289D02*
X014835Y006254D01*
X014870Y006289D02*
X015385Y006289D01*
X015455Y005689D02*
X015385Y005620D01*
X015455Y005689D02*
X016208Y005689D01*
X014835Y004354D02*
X014835Y003339D01*
X014870Y003304D01*
X014935Y003239D01*
X014935Y001554D01*
X014720Y001339D01*
X013462Y001339D01*
X014135Y002754D02*
X014135Y003239D01*
X014200Y003304D01*
X008285Y006587D02*
X008118Y006754D01*
X007170Y006754D01*
X007170Y007254D01*
X007270Y007354D01*
X007535Y007354D01*
X007935Y007754D01*
X008135Y007754D01*
X008235Y007854D01*
X008235Y008054D01*
X008368Y008187D01*
X008659Y008187D01*
X007911Y008187D02*
X007878Y008154D01*
X007635Y008154D01*
X007535Y008054D01*
X007535Y007854D01*
X007435Y007754D01*
X007170Y007754D01*
X006835Y007954D02*
X006835Y008154D01*
X006935Y008254D01*
X007170Y008254D01*
X007170Y008754D01*
X006500Y008754D02*
X006135Y008754D01*
X005935Y008954D01*
X005019Y008954D01*
X005019Y009269D02*
X006486Y009269D01*
X006500Y009254D01*
X006835Y007954D02*
X006635Y007754D01*
X006500Y007754D01*
X007170Y006254D02*
X007170Y005754D01*
X007878Y005754D01*
X007911Y005721D01*
X006535Y005720D02*
X006535Y005054D01*
X006535Y005720D02*
X006500Y005754D01*
X007535Y017154D02*
X007518Y017171D01*
X007518Y017957D01*
X007715Y017957D01*
X007912Y019119D02*
X007912Y019531D01*
X007935Y019554D01*
X008135Y019754D02*
X008135Y020170D01*
X008085Y020220D01*
X008020Y020154D01*
X007470Y020154D01*
X008135Y019754D02*
X008306Y019584D01*
X008306Y019119D01*
X010935Y019554D02*
X011285Y019904D01*
X011285Y020554D01*
X025544Y006221D02*
X025544Y005763D01*
X025535Y005754D01*
D38*
X013915Y006084D02*
X013912Y006087D01*
X013235Y006087D01*
X011635Y006087D01*
X011604Y006057D01*
X009933Y006057D01*
X009935Y006054D01*
X009933Y006057D02*
X009933Y006622D01*
X009900Y006654D01*
X008835Y007254D02*
X008285Y007254D01*
X008285Y007321D01*
X006500Y006354D02*
X006500Y006254D01*
X006500Y006354D02*
X005635Y006354D01*
X005019Y009584D02*
X004935Y009584D01*
X004935Y009954D01*
X012009Y005261D02*
X012009Y003889D01*
X011874Y003754D01*
X011835Y003715D01*
X011835Y002954D01*
D39*
X010535Y003793D02*
X010496Y003754D01*
X010535Y003793D02*
X010535Y004354D01*
X009935Y004954D01*
X009935Y006054D01*
X006500Y006754D02*
X005935Y006754D01*
X005435Y005854D02*
X004606Y005854D01*
X004879Y004814D02*
X003465Y004814D01*
X003464Y004815D01*
X003464Y005854D01*
X003465Y004814D02*
X002565Y003914D01*
X004879Y004814D02*
X006279Y003414D01*
X013609Y005261D02*
X014729Y005261D01*
X015735Y004254D01*
X015735Y003793D01*
X015774Y003754D01*
X009933Y009550D02*
X009933Y010550D01*
X009933Y011550D01*
X009933Y012550D01*
D40*
X005174Y018604D02*
X005135Y018604D01*
X005135Y019154D01*
X006800Y019154D01*
X006800Y020154D01*
M02*
