G75*
G70*
%OFA0B0*%
%FSLAX24Y24*%
%IPPOS*%
%LPD*%
%AMOC8*
5,1,8,0,0,1.08239X$1,22.5*
%
%ADD10C,0.0600*%
%ADD11C,0.1580*%
%ADD12C,0.0290*%
%ADD13C,0.0100*%
%ADD14C,0.0240*%
%ADD15C,0.0320*%
D10*
X002565Y002914D03*
X002565Y003914D03*
X009933Y009550D03*
X010933Y009550D03*
X010933Y010550D03*
X010933Y011550D03*
X009933Y011550D03*
X009933Y010550D03*
X009933Y012550D03*
X010933Y012550D03*
X013935Y010554D03*
X014935Y010554D03*
X014935Y009554D03*
X013935Y009554D03*
X013935Y008554D03*
X014935Y008554D03*
X014935Y007554D03*
X013935Y007554D03*
X014935Y001554D03*
X015935Y001554D03*
X016935Y001554D03*
X017935Y001554D03*
X018935Y001554D03*
X019935Y001554D03*
X021935Y001554D03*
X022935Y001554D03*
X023935Y001554D03*
X024935Y001554D03*
X025935Y001554D03*
X026935Y001554D03*
X026935Y019554D03*
X025935Y019554D03*
X024935Y019554D03*
X023935Y019554D03*
X022935Y019554D03*
X021935Y019554D03*
X020935Y019554D03*
X019935Y019554D03*
X019935Y020554D03*
X020935Y020554D03*
X021935Y020554D03*
X022935Y020554D03*
X023935Y020554D03*
X024935Y020554D03*
X025935Y020554D03*
X026935Y020554D03*
X018285Y020554D03*
X017285Y020554D03*
X016285Y020554D03*
X015285Y020554D03*
X014285Y020554D03*
X013285Y020554D03*
X012285Y020554D03*
X011285Y020554D03*
X010935Y019554D03*
X011935Y019554D03*
X012935Y019554D03*
X013935Y019554D03*
X014935Y019554D03*
X015935Y019554D03*
X016935Y019554D03*
X017935Y019554D03*
D11*
X006279Y003414D03*
X003917Y003414D03*
X005098Y001564D03*
D12*
X008235Y003754D03*
X006535Y005054D03*
X005435Y005854D03*
X005635Y006354D03*
X005935Y006754D03*
X005935Y007454D03*
X005935Y008254D03*
X004135Y008654D03*
X004935Y009954D03*
X008135Y012054D03*
X010435Y013654D03*
X011235Y013954D03*
X011935Y013954D03*
X013335Y012654D03*
X014935Y012254D03*
X017035Y012054D03*
X017435Y012154D03*
X017735Y011654D03*
X018535Y012054D03*
X019635Y011454D03*
X020135Y010954D03*
X020535Y010754D03*
X021335Y009954D03*
X020635Y009454D03*
X019835Y009654D03*
X018635Y010654D03*
X018135Y011154D03*
X017135Y009854D03*
X017435Y009354D03*
X020035Y007954D03*
X019835Y007354D03*
X018835Y007054D03*
X020235Y005754D03*
X018835Y005254D03*
X017335Y004554D03*
X015735Y004254D03*
X014835Y004354D03*
X013535Y003154D03*
X014135Y002754D03*
X011835Y002954D03*
X011235Y004754D03*
X012835Y004754D03*
X013912Y006087D03*
X014835Y006254D03*
X015635Y007154D03*
X012735Y010054D03*
X009235Y008254D03*
X008835Y007254D03*
X009935Y006054D03*
X009235Y005654D03*
X010735Y007254D03*
X016735Y003254D03*
X021235Y003254D03*
X023135Y004054D03*
X022835Y005654D03*
X022435Y005654D03*
X023895Y006184D03*
X023535Y006854D03*
X023975Y007404D03*
X023035Y007754D03*
X022735Y007454D03*
X022635Y007954D03*
X023335Y008454D03*
X023335Y008854D03*
X023335Y009254D03*
X023035Y009954D03*
X023035Y010454D03*
X022135Y009254D03*
X022235Y008554D03*
X021735Y008154D03*
X024735Y008754D03*
X026035Y009954D03*
X026605Y010834D03*
X026035Y011754D03*
X025335Y011654D03*
X025035Y011954D03*
X024735Y012254D03*
X024235Y012454D03*
X023835Y012254D03*
X022235Y012454D03*
X023235Y013854D03*
X024135Y013954D03*
X025935Y014254D03*
X026635Y014454D03*
X024135Y015954D03*
X023335Y016354D03*
X023135Y015854D03*
X022235Y014854D03*
X021535Y015254D03*
X021235Y014554D03*
X021535Y014054D03*
X019935Y013754D03*
X019335Y014054D03*
X019335Y014554D03*
X020135Y017054D03*
X021435Y018754D03*
X022435Y018754D03*
X023435Y018754D03*
X024435Y018754D03*
X018935Y019554D03*
X017435Y017554D03*
X016435Y017554D03*
X015435Y017554D03*
X014435Y017554D03*
X013435Y017554D03*
X011635Y018254D03*
X009335Y019054D03*
X008235Y018654D03*
X007635Y018454D03*
X008635Y018054D03*
X007535Y017154D03*
X008735Y017054D03*
X008835Y016454D03*
X010535Y016154D03*
X011835Y015954D03*
X012935Y016254D03*
X013935Y016254D03*
X014935Y016254D03*
X015935Y016254D03*
X015735Y014954D03*
X016035Y014554D03*
X009435Y014454D03*
X009035Y014054D03*
X005735Y015054D03*
X004835Y015054D03*
X004735Y015854D03*
X003835Y018354D03*
X006800Y019154D03*
X007935Y019554D03*
X007535Y021054D03*
X024735Y010654D03*
X024735Y010254D03*
X025335Y007654D03*
X024935Y006154D03*
X025535Y005754D03*
X026235Y005654D03*
X027135Y005954D03*
X027335Y004054D03*
X025635Y004054D03*
X026435Y002254D03*
X010435Y000954D03*
D13*
X002250Y001031D02*
X002231Y001103D01*
X002224Y001177D01*
X002221Y002622D01*
X002310Y002533D01*
X002476Y002464D01*
X002655Y002464D01*
X002820Y002533D01*
X002947Y002659D01*
X003015Y002825D01*
X003015Y003004D01*
X002947Y003169D01*
X002820Y003296D01*
X002655Y003364D01*
X002476Y003364D01*
X002310Y003296D01*
X002219Y003205D01*
X002218Y003625D01*
X002310Y003533D01*
X002476Y003464D01*
X002655Y003464D01*
X002820Y003533D01*
X002947Y003659D01*
X003015Y003825D01*
X003015Y004004D01*
X002947Y004169D01*
X002820Y004296D01*
X002655Y004364D01*
X002476Y004364D01*
X002310Y004296D01*
X002217Y004202D01*
X002176Y021047D01*
X002183Y021117D01*
X002204Y021184D01*
X002238Y021246D01*
X002283Y021300D01*
X002337Y021344D01*
X002399Y021377D01*
X002467Y021397D01*
X002537Y021404D01*
X010435Y021404D01*
X010435Y019054D01*
X021311Y019022D01*
X021268Y019004D01*
X021185Y018921D01*
X021140Y018813D01*
X021140Y018696D01*
X021185Y018587D01*
X021268Y018504D01*
X021376Y018459D01*
X021494Y018459D01*
X021602Y018504D01*
X021685Y018587D01*
X021730Y018696D01*
X021730Y018813D01*
X021685Y018921D01*
X021602Y019004D01*
X021561Y019021D01*
X022304Y019019D01*
X022268Y019004D01*
X022185Y018921D01*
X022140Y018813D01*
X022140Y018696D01*
X022185Y018587D01*
X022268Y018504D01*
X022376Y018459D01*
X022494Y018459D01*
X022602Y018504D01*
X022685Y018587D01*
X022730Y018696D01*
X022730Y018813D01*
X022685Y018921D01*
X022602Y019004D01*
X022568Y019018D01*
X023297Y019016D01*
X023268Y019004D01*
X023185Y018921D01*
X023140Y018813D01*
X023140Y018696D01*
X023185Y018587D01*
X023268Y018504D01*
X023376Y018459D01*
X023494Y018459D01*
X023602Y018504D01*
X023685Y018587D01*
X023730Y018696D01*
X023730Y018813D01*
X023685Y018921D01*
X023602Y019004D01*
X023575Y019015D01*
X024290Y019013D01*
X024268Y019004D01*
X024185Y018921D01*
X024140Y018813D01*
X024140Y018696D01*
X024185Y018587D01*
X024268Y018504D01*
X024376Y018459D01*
X024494Y018459D01*
X024602Y018504D01*
X024685Y018587D01*
X024730Y018696D01*
X024730Y018813D01*
X024685Y018921D01*
X024602Y019004D01*
X024583Y019012D01*
X027335Y019004D01*
X027285Y015304D01*
X027331Y006175D01*
X027302Y006204D01*
X027194Y006249D01*
X027076Y006249D01*
X026968Y006204D01*
X026885Y006121D01*
X026840Y006013D01*
X026840Y005896D01*
X026885Y005787D01*
X026968Y005704D01*
X027076Y005659D01*
X027194Y005659D01*
X027302Y005704D01*
X027334Y005736D01*
X027335Y005454D01*
X026452Y005454D01*
X026485Y005487D01*
X026530Y005596D01*
X026530Y005713D01*
X026485Y005821D01*
X026402Y005904D01*
X026294Y005949D01*
X026176Y005949D01*
X026068Y005904D01*
X025985Y005821D01*
X025940Y005713D01*
X025940Y005596D01*
X025985Y005487D01*
X026018Y005454D01*
X024785Y005454D01*
X024785Y005897D01*
X024876Y005859D01*
X024994Y005859D01*
X025102Y005904D01*
X025185Y005987D01*
X025230Y006096D01*
X025230Y006213D01*
X025185Y006321D01*
X025102Y006404D01*
X024994Y006449D01*
X024876Y006449D01*
X024785Y006411D01*
X024785Y006554D01*
X022735Y006554D01*
X022735Y007154D01*
X021235Y007154D01*
X021235Y004854D01*
X015335Y004854D01*
X015044Y004563D01*
X015002Y004604D01*
X014894Y004649D01*
X014776Y004649D01*
X014668Y004604D01*
X014585Y004521D01*
X014540Y004413D01*
X014540Y004296D01*
X014585Y004187D01*
X014668Y004104D01*
X014776Y004059D01*
X014894Y004059D01*
X014985Y004097D01*
X014985Y002704D01*
X016385Y002054D01*
X016385Y000744D01*
X010646Y000748D01*
X010685Y000787D01*
X010730Y000896D01*
X010730Y001013D01*
X010685Y001121D01*
X010602Y001204D01*
X010494Y001249D01*
X010376Y001249D01*
X010268Y001204D01*
X010185Y001121D01*
X010140Y001013D01*
X010140Y000896D01*
X010185Y000787D01*
X010224Y000749D01*
X009712Y000749D01*
X009917Y000834D01*
X010156Y001073D01*
X010285Y001385D01*
X010285Y001723D01*
X010156Y002036D01*
X009917Y002275D01*
X009604Y002404D01*
X009266Y002404D01*
X008954Y002275D01*
X008715Y002036D01*
X008585Y001723D01*
X008585Y001385D01*
X008715Y001073D01*
X008954Y000834D01*
X009157Y000749D01*
X005594Y000752D01*
X005630Y000767D01*
X005895Y001031D01*
X006038Y001377D01*
X006038Y001751D01*
X005895Y002096D01*
X005630Y002361D01*
X005285Y002504D01*
X004911Y002504D01*
X004565Y002361D01*
X004301Y002096D01*
X004158Y001751D01*
X004158Y001377D01*
X004301Y001031D01*
X004565Y000767D01*
X004600Y000753D01*
X002655Y000754D01*
X002581Y000759D01*
X002508Y000778D01*
X002440Y000808D01*
X002379Y000850D01*
X002326Y000903D01*
X002282Y000963D01*
X002250Y001031D01*
X002246Y001047D02*
X004294Y001047D01*
X004254Y001146D02*
X002227Y001146D01*
X002224Y001244D02*
X004213Y001244D01*
X004172Y001343D02*
X002224Y001343D01*
X002223Y001441D02*
X004158Y001441D01*
X004158Y001540D02*
X002223Y001540D01*
X002223Y001638D02*
X004158Y001638D01*
X004158Y001737D02*
X002223Y001737D01*
X002223Y001835D02*
X004193Y001835D01*
X004234Y001934D02*
X002222Y001934D01*
X002222Y002032D02*
X004274Y002032D01*
X004335Y002131D02*
X002222Y002131D01*
X002222Y002230D02*
X004434Y002230D01*
X004533Y002328D02*
X002221Y002328D01*
X002221Y002427D02*
X004724Y002427D01*
X004455Y002624D02*
X005740Y002624D01*
X005746Y002617D02*
X006092Y002474D01*
X006466Y002474D01*
X006811Y002617D01*
X007076Y002882D01*
X007219Y003227D01*
X007219Y003601D01*
X007076Y003947D01*
X006811Y004211D01*
X006466Y004354D01*
X006092Y004354D01*
X005746Y004211D01*
X005482Y003947D01*
X005339Y003601D01*
X005339Y003227D01*
X005482Y002882D01*
X005746Y002617D01*
X005641Y002722D02*
X004554Y002722D01*
X004652Y002821D02*
X005543Y002821D01*
X005466Y002919D02*
X004729Y002919D01*
X004713Y002882D02*
X004857Y003227D01*
X004857Y003601D01*
X004713Y003947D01*
X004449Y004211D01*
X004104Y004354D01*
X003730Y004354D01*
X003384Y004211D01*
X003120Y003947D01*
X002977Y003601D01*
X002977Y003227D01*
X003120Y002882D01*
X003384Y002617D01*
X003730Y002474D01*
X004104Y002474D01*
X004449Y002617D01*
X004713Y002882D01*
X004770Y003018D02*
X005426Y003018D01*
X005385Y003116D02*
X004811Y003116D01*
X004851Y003215D02*
X005344Y003215D01*
X005339Y003314D02*
X004857Y003314D01*
X004857Y003412D02*
X005339Y003412D01*
X005339Y003511D02*
X004857Y003511D01*
X004853Y003609D02*
X005342Y003609D01*
X005383Y003708D02*
X004813Y003708D01*
X004772Y003806D02*
X005424Y003806D01*
X005465Y003905D02*
X004731Y003905D01*
X004657Y004003D02*
X005539Y004003D01*
X005637Y004102D02*
X004558Y004102D01*
X004460Y004200D02*
X005736Y004200D01*
X005958Y004299D02*
X004237Y004299D01*
X003596Y004299D02*
X002812Y004299D01*
X002915Y004200D02*
X003373Y004200D01*
X003275Y004102D02*
X002974Y004102D01*
X003015Y004003D02*
X003176Y004003D01*
X003102Y003905D02*
X003015Y003905D01*
X003007Y003806D02*
X003062Y003806D01*
X003021Y003708D02*
X002967Y003708D01*
X002980Y003609D02*
X002896Y003609D01*
X002977Y003511D02*
X002766Y003511D01*
X002777Y003314D02*
X002977Y003314D01*
X002977Y003412D02*
X002219Y003412D01*
X002219Y003314D02*
X002353Y003314D01*
X002229Y003215D02*
X002219Y003215D01*
X002218Y003511D02*
X002364Y003511D01*
X002234Y003609D02*
X002218Y003609D01*
X002217Y004299D02*
X002318Y004299D01*
X002216Y004398D02*
X014540Y004398D01*
X014540Y004299D02*
X006599Y004299D01*
X006822Y004200D02*
X014580Y004200D01*
X014674Y004102D02*
X006921Y004102D01*
X007019Y004003D02*
X008067Y004003D01*
X008068Y004004D02*
X007985Y003921D01*
X007940Y003813D01*
X007940Y003696D01*
X007985Y003587D01*
X008068Y003504D01*
X008176Y003459D01*
X008294Y003459D01*
X008402Y003504D01*
X008485Y003587D01*
X008530Y003696D01*
X008530Y003813D01*
X008485Y003921D01*
X008402Y004004D01*
X008294Y004049D01*
X008176Y004049D01*
X008068Y004004D01*
X007978Y003905D02*
X007093Y003905D01*
X007134Y003806D02*
X007940Y003806D01*
X007940Y003708D02*
X007175Y003708D01*
X007216Y003609D02*
X007976Y003609D01*
X008062Y003511D02*
X007219Y003511D01*
X007219Y003412D02*
X013387Y003412D01*
X013368Y003404D02*
X013285Y003321D01*
X013240Y003213D01*
X013240Y003096D01*
X013285Y002987D01*
X013368Y002904D01*
X013476Y002859D01*
X013594Y002859D01*
X013702Y002904D01*
X013785Y002987D01*
X013830Y003096D01*
X013830Y003213D01*
X013785Y003321D01*
X013702Y003404D01*
X013594Y003449D01*
X013476Y003449D01*
X013368Y003404D01*
X013282Y003314D02*
X007219Y003314D01*
X007214Y003215D02*
X013241Y003215D01*
X013240Y003116D02*
X007173Y003116D01*
X007132Y003018D02*
X013272Y003018D01*
X013353Y002919D02*
X007091Y002919D01*
X007015Y002821D02*
X014985Y002821D01*
X014985Y002919D02*
X013717Y002919D01*
X013798Y003018D02*
X014985Y003018D01*
X014985Y003116D02*
X013830Y003116D01*
X013829Y003215D02*
X014985Y003215D01*
X014985Y003314D02*
X013788Y003314D01*
X013684Y003412D02*
X014985Y003412D01*
X014985Y003511D02*
X008409Y003511D01*
X008494Y003609D02*
X014985Y003609D01*
X014985Y003708D02*
X008530Y003708D01*
X008530Y003806D02*
X014985Y003806D01*
X014985Y003905D02*
X008492Y003905D01*
X008403Y004003D02*
X014985Y004003D01*
X015435Y004003D02*
X017329Y004003D01*
X017399Y003905D02*
X015435Y003905D01*
X015435Y003806D02*
X017469Y003806D01*
X017540Y003708D02*
X015512Y003708D01*
X015435Y003804D02*
X015435Y004554D01*
X016935Y004554D01*
X018185Y002804D01*
X021885Y002804D01*
X021885Y004554D01*
X021485Y004954D01*
X021485Y006304D01*
X023669Y006304D01*
X023640Y006235D01*
X023640Y006134D01*
X023679Y006040D01*
X023751Y005968D01*
X023844Y005929D01*
X023946Y005929D01*
X024040Y005968D01*
X024111Y006040D01*
X024150Y006134D01*
X024150Y006235D01*
X024121Y006304D01*
X024385Y006304D01*
X024385Y005254D01*
X027535Y005254D01*
X027535Y006754D01*
X028835Y006754D01*
X028835Y002754D01*
X027435Y001854D01*
X027435Y001054D01*
X021685Y001054D01*
X021685Y001225D01*
X021703Y001207D01*
X021854Y001144D01*
X022017Y001144D01*
X022167Y001207D01*
X022283Y001322D01*
X022345Y001473D01*
X022345Y001636D01*
X022283Y001787D01*
X022167Y001902D01*
X022017Y001964D01*
X021854Y001964D01*
X021703Y001902D01*
X021685Y001884D01*
X021685Y002304D01*
X016635Y002304D01*
X015435Y003804D01*
X015591Y003609D02*
X017610Y003609D01*
X017681Y003511D02*
X015670Y003511D01*
X015749Y003412D02*
X016532Y003412D01*
X016519Y003399D02*
X016480Y003305D01*
X016480Y003204D01*
X016519Y003110D01*
X016591Y003038D01*
X016684Y002999D01*
X016786Y002999D01*
X016880Y003038D01*
X016951Y003110D01*
X016990Y003204D01*
X016990Y003305D01*
X016951Y003399D01*
X016880Y003470D01*
X016786Y003509D01*
X016684Y003509D01*
X016591Y003470D01*
X016519Y003399D01*
X016484Y003314D02*
X015828Y003314D01*
X015907Y003215D02*
X016480Y003215D01*
X016516Y003116D02*
X015985Y003116D01*
X016064Y003018D02*
X016639Y003018D01*
X016831Y003018D02*
X018033Y003018D01*
X018103Y002919D02*
X016143Y002919D01*
X016222Y002821D02*
X018173Y002821D01*
X017962Y003116D02*
X016954Y003116D01*
X016990Y003215D02*
X017892Y003215D01*
X017821Y003314D02*
X016987Y003314D01*
X016938Y003412D02*
X017751Y003412D01*
X017258Y004102D02*
X015435Y004102D01*
X015435Y004200D02*
X017188Y004200D01*
X017117Y004299D02*
X015435Y004299D01*
X015435Y004398D02*
X017047Y004398D01*
X016977Y004496D02*
X015435Y004496D01*
X015174Y004693D02*
X013129Y004693D01*
X013130Y004696D02*
X013085Y004587D01*
X013002Y004504D01*
X012894Y004459D01*
X012776Y004459D01*
X012668Y004504D01*
X012585Y004587D01*
X012540Y004696D01*
X012540Y004813D01*
X012585Y004921D01*
X012668Y005004D01*
X012776Y005049D01*
X012894Y005049D01*
X013002Y005004D01*
X013085Y004921D01*
X013130Y004813D01*
X013130Y004696D01*
X013130Y004792D02*
X015272Y004792D01*
X015075Y004595D02*
X015012Y004595D01*
X014658Y004595D02*
X013088Y004595D01*
X012982Y004496D02*
X014575Y004496D01*
X013098Y004890D02*
X021235Y004890D01*
X021235Y004989D02*
X018965Y004989D01*
X019002Y005004D02*
X019085Y005087D01*
X019130Y005196D01*
X019130Y005313D01*
X019085Y005421D01*
X019002Y005504D01*
X018894Y005549D01*
X018776Y005549D01*
X018668Y005504D01*
X018585Y005421D01*
X018540Y005313D01*
X018540Y005196D01*
X018585Y005087D01*
X018668Y005004D01*
X018776Y004959D01*
X018894Y004959D01*
X019002Y005004D01*
X019085Y005087D02*
X021235Y005087D01*
X021235Y005186D02*
X019126Y005186D01*
X019130Y005284D02*
X021235Y005284D01*
X021235Y005383D02*
X019101Y005383D01*
X019025Y005481D02*
X020123Y005481D01*
X020176Y005459D02*
X020068Y005504D01*
X019985Y005587D01*
X019940Y005696D01*
X019940Y005813D01*
X019985Y005921D01*
X020068Y006004D01*
X020176Y006049D01*
X020294Y006049D01*
X020402Y006004D01*
X020485Y005921D01*
X020530Y005813D01*
X020530Y005696D01*
X020485Y005587D01*
X020402Y005504D01*
X020294Y005459D01*
X020176Y005459D01*
X020347Y005481D02*
X021235Y005481D01*
X021235Y005580D02*
X020478Y005580D01*
X020523Y005679D02*
X021235Y005679D01*
X021235Y005777D02*
X020530Y005777D01*
X020504Y005876D02*
X021235Y005876D01*
X021235Y005974D02*
X020432Y005974D01*
X020038Y005974D02*
X014184Y005974D01*
X014162Y005920D02*
X014207Y006029D01*
X014207Y006146D01*
X014162Y006254D01*
X014079Y006337D01*
X013971Y006382D01*
X013853Y006382D01*
X013745Y006337D01*
X013662Y006254D01*
X013617Y006146D01*
X013617Y006029D01*
X013662Y005920D01*
X013745Y005837D01*
X013853Y005792D01*
X013971Y005792D01*
X014079Y005837D01*
X014162Y005920D01*
X014117Y005876D02*
X019966Y005876D01*
X019940Y005777D02*
X010076Y005777D01*
X010111Y005792D02*
X010198Y005879D01*
X010245Y005993D01*
X010245Y006116D01*
X010243Y006122D01*
X010243Y009224D01*
X010314Y009295D01*
X010383Y009460D01*
X010383Y009639D01*
X010314Y009805D01*
X010188Y009931D01*
X010022Y010000D01*
X009843Y010000D01*
X009678Y009931D01*
X009551Y009805D01*
X009483Y009639D01*
X009483Y009460D01*
X009551Y009295D01*
X009623Y009224D01*
X009623Y006118D01*
X009623Y005995D01*
X009670Y005881D01*
X009759Y005792D01*
X009873Y005744D01*
X009997Y005744D01*
X010111Y005792D01*
X010195Y005876D02*
X013707Y005876D01*
X013640Y005974D02*
X010237Y005974D01*
X010245Y006073D02*
X013617Y006073D01*
X013628Y006171D02*
X010243Y006171D01*
X010243Y006270D02*
X013677Y006270D01*
X013820Y006368D02*
X010243Y006368D01*
X010243Y006467D02*
X021235Y006467D01*
X021235Y006565D02*
X010243Y006565D01*
X010243Y006664D02*
X021235Y006664D01*
X021235Y006763D02*
X010243Y006763D01*
X010243Y006861D02*
X015572Y006861D01*
X015576Y006859D02*
X015694Y006859D01*
X015802Y006904D01*
X015885Y006987D01*
X015930Y007096D01*
X015930Y007213D01*
X015885Y007321D01*
X015802Y007404D01*
X015694Y007449D01*
X015576Y007449D01*
X015468Y007404D01*
X015385Y007321D01*
X015340Y007213D01*
X015340Y007096D01*
X015385Y006987D01*
X015468Y006904D01*
X015576Y006859D01*
X015698Y006861D02*
X021235Y006861D01*
X021235Y006960D02*
X015858Y006960D01*
X015915Y007058D02*
X021235Y007058D01*
X021235Y006368D02*
X014004Y006368D01*
X014147Y006270D02*
X021235Y006270D01*
X021235Y006171D02*
X014197Y006171D01*
X014207Y006073D02*
X021235Y006073D01*
X021485Y006073D02*
X023665Y006073D01*
X023640Y006171D02*
X021485Y006171D01*
X021485Y006270D02*
X023655Y006270D01*
X023594Y006559D02*
X023702Y006604D01*
X023785Y006687D01*
X023830Y006796D01*
X023830Y006913D01*
X023785Y007021D01*
X023702Y007104D01*
X023594Y007149D01*
X023476Y007149D01*
X023368Y007104D01*
X023285Y007021D01*
X023240Y006913D01*
X023240Y006796D01*
X023285Y006687D01*
X023368Y006604D01*
X023476Y006559D01*
X023594Y006559D01*
X023609Y006565D02*
X027329Y006565D01*
X027330Y006467D02*
X024785Y006467D01*
X025138Y006368D02*
X027330Y006368D01*
X027331Y006270D02*
X025207Y006270D01*
X025230Y006171D02*
X026935Y006171D01*
X026865Y006073D02*
X025221Y006073D01*
X025172Y005974D02*
X026840Y005974D01*
X026848Y005876D02*
X026431Y005876D01*
X026504Y005777D02*
X026895Y005777D01*
X027030Y005679D02*
X026530Y005679D01*
X026524Y005580D02*
X027334Y005580D01*
X027335Y005481D02*
X026479Y005481D01*
X025991Y005481D02*
X024785Y005481D01*
X024785Y005580D02*
X025947Y005580D01*
X025940Y005679D02*
X024785Y005679D01*
X024785Y005777D02*
X025967Y005777D01*
X026039Y005876D02*
X025033Y005876D01*
X024837Y005876D02*
X024785Y005876D01*
X024385Y005876D02*
X022567Y005876D01*
X022580Y005870D02*
X022486Y005909D01*
X022384Y005909D01*
X022291Y005870D01*
X022219Y005799D01*
X022180Y005705D01*
X022180Y005604D01*
X022219Y005510D01*
X022291Y005438D01*
X022384Y005399D01*
X022486Y005399D01*
X022580Y005438D01*
X022651Y005510D01*
X022690Y005604D01*
X022690Y005705D01*
X022651Y005799D01*
X022580Y005870D01*
X022660Y005777D02*
X024385Y005777D01*
X024385Y005679D02*
X022690Y005679D01*
X022680Y005580D02*
X024385Y005580D01*
X024385Y005481D02*
X022623Y005481D01*
X022247Y005481D02*
X021485Y005481D01*
X021485Y005383D02*
X024385Y005383D01*
X024385Y005284D02*
X021485Y005284D01*
X021485Y005186D02*
X028835Y005186D01*
X028835Y005284D02*
X027535Y005284D01*
X027535Y005383D02*
X028835Y005383D01*
X028835Y005481D02*
X027535Y005481D01*
X027535Y005580D02*
X028835Y005580D01*
X028835Y005679D02*
X027535Y005679D01*
X027535Y005777D02*
X028835Y005777D01*
X028835Y005876D02*
X027535Y005876D01*
X027535Y005974D02*
X028835Y005974D01*
X028835Y006073D02*
X027535Y006073D01*
X027535Y006171D02*
X028835Y006171D01*
X028835Y006270D02*
X027535Y006270D01*
X027535Y006368D02*
X028835Y006368D01*
X028835Y006467D02*
X027535Y006467D01*
X027535Y006565D02*
X028835Y006565D01*
X028835Y006664D02*
X027535Y006664D01*
X027329Y006664D02*
X023762Y006664D01*
X023816Y006763D02*
X027328Y006763D01*
X027328Y006861D02*
X023830Y006861D01*
X023811Y006960D02*
X027327Y006960D01*
X027327Y007058D02*
X023748Y007058D01*
X023808Y007154D02*
X023916Y007109D01*
X024034Y007109D01*
X024142Y007154D01*
X024225Y007237D01*
X024270Y007346D01*
X024270Y007463D01*
X024225Y007571D01*
X024142Y007654D01*
X024034Y007699D01*
X023916Y007699D01*
X023808Y007654D01*
X023725Y007571D01*
X023680Y007463D01*
X023680Y007346D01*
X023725Y007237D01*
X023808Y007154D01*
X023806Y007157D02*
X020055Y007157D01*
X020085Y007187D02*
X020130Y007296D01*
X020130Y007413D01*
X020085Y007521D01*
X020002Y007604D01*
X019894Y007649D01*
X019776Y007649D01*
X019668Y007604D01*
X019585Y007521D01*
X019540Y007413D01*
X019540Y007296D01*
X019585Y007187D01*
X019668Y007104D01*
X019776Y007059D01*
X019894Y007059D01*
X020002Y007104D01*
X020085Y007187D01*
X020113Y007255D02*
X022517Y007255D01*
X022485Y007287D02*
X022568Y007204D01*
X022676Y007159D01*
X022794Y007159D01*
X022902Y007204D01*
X022985Y007287D01*
X023030Y007396D01*
X023030Y007459D01*
X023094Y007459D01*
X023202Y007504D01*
X023285Y007587D01*
X023330Y007696D01*
X023330Y007813D01*
X023285Y007921D01*
X023202Y008004D01*
X023094Y008049D01*
X022976Y008049D01*
X022924Y008028D01*
X022885Y008121D01*
X022802Y008204D01*
X022694Y008249D01*
X022576Y008249D01*
X022468Y008204D01*
X022385Y008121D01*
X022340Y008013D01*
X022340Y007896D01*
X022385Y007787D01*
X022468Y007704D01*
X022539Y007675D01*
X022485Y007621D01*
X022440Y007513D01*
X022440Y007396D01*
X022485Y007287D01*
X022457Y007354D02*
X020130Y007354D01*
X020114Y007452D02*
X022440Y007452D01*
X022456Y007551D02*
X020056Y007551D01*
X020094Y007659D02*
X020202Y007704D01*
X020285Y007787D01*
X020330Y007896D01*
X020330Y008013D01*
X020285Y008121D01*
X020202Y008204D01*
X020094Y008249D01*
X019976Y008249D01*
X019868Y008204D01*
X019785Y008121D01*
X019740Y008013D01*
X019740Y007896D01*
X019785Y007787D01*
X019868Y007704D01*
X019976Y007659D01*
X020094Y007659D01*
X020246Y007748D02*
X022424Y007748D01*
X022360Y007847D02*
X020310Y007847D01*
X020330Y007945D02*
X021527Y007945D01*
X021568Y007904D02*
X021676Y007859D01*
X021794Y007859D01*
X021902Y007904D01*
X021985Y007987D01*
X022030Y008096D01*
X022030Y008213D01*
X021985Y008321D01*
X021902Y008404D01*
X021794Y008449D01*
X021676Y008449D01*
X021568Y008404D01*
X021485Y008321D01*
X021440Y008213D01*
X021440Y008096D01*
X021485Y007987D01*
X021568Y007904D01*
X021462Y008044D02*
X020317Y008044D01*
X020264Y008142D02*
X021440Y008142D01*
X021452Y008241D02*
X020115Y008241D01*
X019956Y008241D02*
X015258Y008241D01*
X015317Y008299D02*
X015385Y008465D01*
X015385Y008644D01*
X015317Y008809D01*
X015190Y008936D01*
X015025Y009004D01*
X014846Y009004D01*
X014680Y008936D01*
X014554Y008809D01*
X014485Y008644D01*
X014485Y008465D01*
X014554Y008299D01*
X014680Y008173D01*
X014846Y008104D01*
X015025Y008104D01*
X015190Y008173D01*
X015317Y008299D01*
X015333Y008339D02*
X021503Y008339D01*
X021649Y008438D02*
X015374Y008438D01*
X015385Y008536D02*
X021940Y008536D01*
X021940Y008496D02*
X021940Y008613D01*
X021985Y008721D01*
X022068Y008804D01*
X022176Y008849D01*
X022294Y008849D01*
X022402Y008804D01*
X022485Y008721D01*
X022530Y008613D01*
X022530Y008496D01*
X022485Y008387D01*
X022402Y008304D01*
X022294Y008259D01*
X022176Y008259D01*
X022068Y008304D01*
X021985Y008387D01*
X021940Y008496D01*
X021964Y008438D02*
X021822Y008438D01*
X021967Y008339D02*
X022033Y008339D01*
X022019Y008241D02*
X022556Y008241D01*
X022437Y008339D02*
X023063Y008339D01*
X023085Y008287D02*
X023040Y008396D01*
X023040Y008513D01*
X023085Y008621D01*
X023118Y008654D01*
X023085Y008687D01*
X023040Y008796D01*
X023040Y008913D01*
X023085Y009021D01*
X023118Y009054D01*
X023085Y009087D01*
X023040Y009196D01*
X023040Y009313D01*
X023085Y009421D01*
X023168Y009504D01*
X023276Y009549D01*
X023394Y009549D01*
X023502Y009504D01*
X023585Y009421D01*
X023630Y009313D01*
X023630Y009196D01*
X023585Y009087D01*
X023552Y009054D01*
X023585Y009021D01*
X023630Y008913D01*
X023630Y008796D01*
X023585Y008687D01*
X023552Y008654D01*
X023585Y008621D01*
X023630Y008513D01*
X023630Y008396D01*
X023585Y008287D01*
X023502Y008204D01*
X023394Y008159D01*
X023276Y008159D01*
X023168Y008204D01*
X023085Y008287D01*
X023132Y008241D02*
X022715Y008241D01*
X022864Y008142D02*
X027321Y008142D01*
X027322Y008044D02*
X023107Y008044D01*
X022963Y008044D02*
X022917Y008044D01*
X023261Y007945D02*
X025266Y007945D01*
X025276Y007949D02*
X025168Y007904D01*
X025085Y007821D01*
X025040Y007713D01*
X025040Y007596D01*
X025085Y007487D01*
X025168Y007404D01*
X025276Y007359D01*
X025394Y007359D01*
X025502Y007404D01*
X025585Y007487D01*
X025630Y007596D01*
X025630Y007713D01*
X025585Y007821D01*
X025502Y007904D01*
X025394Y007949D01*
X025276Y007949D01*
X025404Y007945D02*
X027322Y007945D01*
X027323Y007847D02*
X025560Y007847D01*
X025616Y007748D02*
X027323Y007748D01*
X027324Y007649D02*
X025630Y007649D01*
X025612Y007551D02*
X027324Y007551D01*
X027325Y007452D02*
X025550Y007452D01*
X025120Y007452D02*
X024270Y007452D01*
X024270Y007354D02*
X027325Y007354D01*
X027326Y007255D02*
X024233Y007255D01*
X024145Y007157D02*
X027326Y007157D01*
X027321Y008241D02*
X023539Y008241D01*
X023607Y008339D02*
X027320Y008339D01*
X027320Y008438D02*
X023630Y008438D01*
X023620Y008536D02*
X027319Y008536D01*
X027319Y008635D02*
X023572Y008635D01*
X023604Y008733D02*
X027318Y008733D01*
X027318Y008832D02*
X023630Y008832D01*
X023623Y008931D02*
X027317Y008931D01*
X027317Y009029D02*
X023578Y009029D01*
X023602Y009128D02*
X027316Y009128D01*
X027316Y009226D02*
X023630Y009226D01*
X023625Y009325D02*
X027315Y009325D01*
X027315Y009423D02*
X023583Y009423D01*
X023460Y009522D02*
X027314Y009522D01*
X027314Y009620D02*
X020886Y009620D01*
X020885Y009621D02*
X020802Y009704D01*
X020694Y009749D01*
X020576Y009749D01*
X020468Y009704D01*
X020385Y009621D01*
X020340Y009513D01*
X020340Y009396D01*
X020385Y009287D01*
X020468Y009204D01*
X020576Y009159D01*
X020694Y009159D01*
X020802Y009204D01*
X020885Y009287D01*
X020930Y009396D01*
X020930Y009513D01*
X020885Y009621D01*
X020926Y009522D02*
X022010Y009522D01*
X021968Y009504D02*
X021885Y009421D01*
X021840Y009313D01*
X021840Y009196D01*
X021885Y009087D01*
X021968Y009004D01*
X022076Y008959D01*
X022194Y008959D01*
X022302Y009004D01*
X022385Y009087D01*
X022430Y009196D01*
X022430Y009313D01*
X022385Y009421D01*
X022302Y009504D01*
X022194Y009549D01*
X022076Y009549D01*
X021968Y009504D01*
X021887Y009423D02*
X020930Y009423D01*
X020901Y009325D02*
X021845Y009325D01*
X021840Y009226D02*
X020824Y009226D01*
X020446Y009226D02*
X017701Y009226D01*
X017685Y009187D02*
X017730Y009296D01*
X017730Y009413D01*
X017685Y009521D01*
X017602Y009604D01*
X017494Y009649D01*
X017376Y009649D01*
X017327Y009629D01*
X017385Y009687D01*
X017430Y009796D01*
X017430Y009913D01*
X017385Y010021D01*
X017302Y010104D01*
X017194Y010149D01*
X017076Y010149D01*
X016968Y010104D01*
X016885Y010021D01*
X016840Y009913D01*
X016840Y009796D01*
X016885Y009687D01*
X016968Y009604D01*
X017076Y009559D01*
X017194Y009559D01*
X017244Y009580D01*
X017185Y009521D01*
X017140Y009413D01*
X017140Y009296D01*
X017185Y009187D01*
X017268Y009104D01*
X017376Y009059D01*
X017494Y009059D01*
X017602Y009104D01*
X017685Y009187D01*
X017626Y009128D02*
X021868Y009128D01*
X021943Y009029D02*
X010243Y009029D01*
X010243Y008931D02*
X013675Y008931D01*
X013680Y008936D02*
X013554Y008809D01*
X013485Y008644D01*
X013485Y008465D01*
X013554Y008299D01*
X013680Y008173D01*
X013846Y008104D01*
X014025Y008104D01*
X014190Y008173D01*
X014317Y008299D01*
X014385Y008465D01*
X014385Y008644D01*
X014317Y008809D01*
X014190Y008936D01*
X014025Y009004D01*
X013846Y009004D01*
X013680Y008936D01*
X013576Y008832D02*
X010243Y008832D01*
X010243Y008733D02*
X013522Y008733D01*
X013485Y008635D02*
X010243Y008635D01*
X010243Y008536D02*
X013485Y008536D01*
X013496Y008438D02*
X010243Y008438D01*
X010243Y008339D02*
X013537Y008339D01*
X013612Y008241D02*
X010243Y008241D01*
X010243Y008142D02*
X013754Y008142D01*
X013846Y008004D02*
X013680Y007936D01*
X013554Y007809D01*
X013485Y007644D01*
X013485Y007465D01*
X013554Y007299D01*
X013680Y007173D01*
X013846Y007104D01*
X014025Y007104D01*
X014190Y007173D01*
X014317Y007299D01*
X014385Y007465D01*
X014385Y007644D01*
X014317Y007809D01*
X014190Y007936D01*
X014025Y008004D01*
X013846Y008004D01*
X013703Y007945D02*
X010243Y007945D01*
X010243Y007847D02*
X013591Y007847D01*
X013528Y007748D02*
X010243Y007748D01*
X010243Y007649D02*
X013487Y007649D01*
X013485Y007551D02*
X010243Y007551D01*
X010243Y007452D02*
X010516Y007452D01*
X010485Y007421D02*
X010568Y007504D01*
X010676Y007549D01*
X010794Y007549D01*
X010902Y007504D01*
X010985Y007421D01*
X011030Y007313D01*
X011030Y007196D01*
X010985Y007087D01*
X010902Y007004D01*
X010794Y006959D01*
X010676Y006959D01*
X010568Y007004D01*
X010485Y007087D01*
X010440Y007196D01*
X010440Y007313D01*
X010485Y007421D01*
X010457Y007354D02*
X010243Y007354D01*
X010243Y007255D02*
X010440Y007255D01*
X010456Y007157D02*
X010243Y007157D01*
X010243Y007058D02*
X010514Y007058D01*
X010676Y006960D02*
X010243Y006960D01*
X010795Y006960D02*
X015413Y006960D01*
X015356Y007058D02*
X010956Y007058D01*
X011014Y007157D02*
X013719Y007157D01*
X013598Y007255D02*
X011030Y007255D01*
X011013Y007354D02*
X013531Y007354D01*
X013490Y007452D02*
X010954Y007452D01*
X010243Y008044D02*
X019753Y008044D01*
X019740Y007945D02*
X015168Y007945D01*
X015190Y007936D02*
X015025Y008004D01*
X014846Y008004D01*
X014680Y007936D01*
X014554Y007809D01*
X014485Y007644D01*
X014485Y007465D01*
X014554Y007299D01*
X014680Y007173D01*
X014846Y007104D01*
X015025Y007104D01*
X015190Y007173D01*
X015317Y007299D01*
X015385Y007465D01*
X015385Y007644D01*
X015317Y007809D01*
X015190Y007936D01*
X015279Y007847D02*
X019760Y007847D01*
X019824Y007748D02*
X015342Y007748D01*
X015383Y007649D02*
X022513Y007649D01*
X023030Y007452D02*
X023680Y007452D01*
X023680Y007354D02*
X023013Y007354D01*
X022953Y007255D02*
X023718Y007255D01*
X023717Y007551D02*
X023249Y007551D01*
X023311Y007649D02*
X023803Y007649D01*
X024147Y007649D02*
X025040Y007649D01*
X025059Y007551D02*
X024234Y007551D01*
X025055Y007748D02*
X023330Y007748D01*
X023316Y007847D02*
X025110Y007847D01*
X023462Y006565D02*
X022735Y006565D01*
X022735Y006664D02*
X023308Y006664D01*
X023254Y006763D02*
X022735Y006763D01*
X022735Y006861D02*
X023240Y006861D01*
X023259Y006960D02*
X022735Y006960D01*
X022735Y007058D02*
X023322Y007058D01*
X024136Y006270D02*
X024385Y006270D01*
X024385Y006171D02*
X024150Y006171D01*
X024125Y006073D02*
X024385Y006073D01*
X024385Y005974D02*
X024046Y005974D01*
X023745Y005974D02*
X021485Y005974D01*
X021485Y005876D02*
X022303Y005876D01*
X022210Y005777D02*
X021485Y005777D01*
X021485Y005679D02*
X022180Y005679D01*
X022190Y005580D02*
X021485Y005580D01*
X021485Y005087D02*
X028835Y005087D01*
X028835Y004989D02*
X021485Y004989D01*
X021549Y004890D02*
X028835Y004890D01*
X028835Y004792D02*
X021648Y004792D01*
X021746Y004693D02*
X028835Y004693D01*
X028835Y004595D02*
X021845Y004595D01*
X021885Y004496D02*
X028835Y004496D01*
X028835Y004398D02*
X021885Y004398D01*
X021885Y004299D02*
X023059Y004299D01*
X023084Y004309D02*
X022991Y004270D01*
X022919Y004199D01*
X022880Y004105D01*
X022880Y004004D01*
X022919Y003910D01*
X022991Y003838D01*
X023084Y003799D01*
X023186Y003799D01*
X023280Y003838D01*
X023351Y003910D01*
X023390Y004004D01*
X023390Y004105D01*
X023351Y004199D01*
X023280Y004270D01*
X023186Y004309D01*
X023084Y004309D01*
X023211Y004299D02*
X025559Y004299D01*
X025584Y004309D02*
X025491Y004270D01*
X025419Y004199D01*
X025380Y004105D01*
X025380Y004004D01*
X025419Y003910D01*
X025491Y003838D01*
X025584Y003799D01*
X025686Y003799D01*
X025780Y003838D01*
X025851Y003910D01*
X025890Y004004D01*
X025890Y004105D01*
X025851Y004199D01*
X025780Y004270D01*
X025686Y004309D01*
X025584Y004309D01*
X025711Y004299D02*
X027259Y004299D01*
X027284Y004309D02*
X027191Y004270D01*
X027119Y004199D01*
X027080Y004105D01*
X027080Y004004D01*
X027119Y003910D01*
X027191Y003838D01*
X027280Y003801D01*
X027215Y003736D01*
X027085Y003423D01*
X027085Y003085D01*
X027215Y002773D01*
X027454Y002534D01*
X027766Y002404D01*
X028104Y002404D01*
X028417Y002534D01*
X028656Y002773D01*
X028785Y003085D01*
X028785Y003423D01*
X028656Y003736D01*
X028417Y003975D01*
X028104Y004104D01*
X027766Y004104D01*
X027590Y004031D01*
X027590Y004105D01*
X027551Y004199D01*
X027480Y004270D01*
X027386Y004309D01*
X027284Y004309D01*
X027411Y004299D02*
X028835Y004299D01*
X028835Y004200D02*
X027550Y004200D01*
X027590Y004102D02*
X027760Y004102D01*
X028110Y004102D02*
X028835Y004102D01*
X028835Y004003D02*
X028348Y004003D01*
X028487Y003905D02*
X028835Y003905D01*
X028835Y003806D02*
X028585Y003806D01*
X028667Y003708D02*
X028835Y003708D01*
X028835Y003609D02*
X028708Y003609D01*
X028749Y003511D02*
X028835Y003511D01*
X028835Y003412D02*
X028785Y003412D01*
X028785Y003314D02*
X028835Y003314D01*
X028835Y003215D02*
X028785Y003215D01*
X028785Y003116D02*
X028835Y003116D01*
X028835Y003018D02*
X028757Y003018D01*
X028716Y002919D02*
X028835Y002919D01*
X028835Y002821D02*
X028676Y002821D01*
X028605Y002722D02*
X028785Y002722D01*
X028632Y002624D02*
X028507Y002624D01*
X028479Y002525D02*
X028396Y002525D01*
X028325Y002427D02*
X028158Y002427D01*
X028172Y002328D02*
X026681Y002328D01*
X026690Y002305D02*
X026651Y002399D01*
X026580Y002470D01*
X026486Y002509D01*
X026384Y002509D01*
X026291Y002470D01*
X026219Y002399D01*
X026180Y002305D01*
X026180Y002204D01*
X026219Y002110D01*
X026291Y002038D01*
X026384Y001999D01*
X026486Y001999D01*
X026580Y002038D01*
X026651Y002110D01*
X026690Y002204D01*
X026690Y002305D01*
X026690Y002230D02*
X028019Y002230D01*
X027866Y002131D02*
X026660Y002131D01*
X026566Y002032D02*
X027712Y002032D01*
X027559Y001934D02*
X027090Y001934D01*
X027017Y001964D02*
X026854Y001964D01*
X026703Y001902D01*
X026588Y001787D01*
X026525Y001636D01*
X026525Y001473D01*
X026588Y001322D01*
X026703Y001207D01*
X026854Y001144D01*
X027017Y001144D01*
X027167Y001207D01*
X027283Y001322D01*
X027345Y001473D01*
X027345Y001636D01*
X027283Y001787D01*
X027167Y001902D01*
X027017Y001964D01*
X026780Y001934D02*
X026090Y001934D01*
X026017Y001964D02*
X025854Y001964D01*
X025703Y001902D01*
X025588Y001787D01*
X025525Y001636D01*
X025525Y001473D01*
X025588Y001322D01*
X025703Y001207D01*
X025854Y001144D01*
X026017Y001144D01*
X026167Y001207D01*
X026283Y001322D01*
X026345Y001473D01*
X026345Y001636D01*
X026283Y001787D01*
X026167Y001902D01*
X026017Y001964D01*
X025780Y001934D02*
X025090Y001934D01*
X025017Y001964D02*
X025167Y001902D01*
X025283Y001787D01*
X025345Y001636D01*
X025345Y001473D01*
X025283Y001322D01*
X025167Y001207D01*
X025017Y001144D01*
X024854Y001144D01*
X024703Y001207D01*
X024588Y001322D01*
X024525Y001473D01*
X024525Y001636D01*
X024588Y001787D01*
X024703Y001902D01*
X024854Y001964D01*
X025017Y001964D01*
X024780Y001934D02*
X024090Y001934D01*
X024017Y001964D02*
X024167Y001902D01*
X024283Y001787D01*
X024345Y001636D01*
X024345Y001473D01*
X024283Y001322D01*
X024167Y001207D01*
X024017Y001144D01*
X023854Y001144D01*
X023703Y001207D01*
X023588Y001322D01*
X023525Y001473D01*
X023525Y001636D01*
X023588Y001787D01*
X023703Y001902D01*
X023854Y001964D01*
X024017Y001964D01*
X023780Y001934D02*
X023090Y001934D01*
X023017Y001964D02*
X022854Y001964D01*
X022703Y001902D01*
X022588Y001787D01*
X022525Y001636D01*
X022525Y001473D01*
X022588Y001322D01*
X022703Y001207D01*
X022854Y001144D01*
X023017Y001144D01*
X023167Y001207D01*
X023283Y001322D01*
X023345Y001473D01*
X023345Y001636D01*
X023283Y001787D01*
X023167Y001902D01*
X023017Y001964D01*
X022780Y001934D02*
X022090Y001934D01*
X022234Y001835D02*
X022636Y001835D01*
X022567Y001737D02*
X022303Y001737D01*
X022344Y001638D02*
X022526Y001638D01*
X022525Y001540D02*
X022345Y001540D01*
X022332Y001441D02*
X022538Y001441D01*
X022579Y001343D02*
X022291Y001343D01*
X022205Y001244D02*
X022665Y001244D01*
X022850Y001146D02*
X022020Y001146D01*
X021850Y001146D02*
X021685Y001146D01*
X021685Y001934D02*
X021780Y001934D01*
X021685Y002032D02*
X026304Y002032D01*
X026210Y002131D02*
X021685Y002131D01*
X021685Y002230D02*
X026180Y002230D01*
X026190Y002328D02*
X016616Y002328D01*
X016537Y002427D02*
X026247Y002427D01*
X026623Y002427D02*
X027712Y002427D01*
X027474Y002525D02*
X016458Y002525D01*
X016380Y002624D02*
X027364Y002624D01*
X027265Y002722D02*
X016301Y002722D01*
X016008Y002230D02*
X009962Y002230D01*
X010060Y002131D02*
X016220Y002131D01*
X016385Y002032D02*
X010157Y002032D01*
X010198Y001934D02*
X014678Y001934D01*
X014680Y001936D02*
X014554Y001809D01*
X014485Y001644D01*
X014485Y001465D01*
X014554Y001299D01*
X014680Y001173D01*
X014846Y001104D01*
X015025Y001104D01*
X015190Y001173D01*
X015317Y001299D01*
X015385Y001465D01*
X015385Y001644D01*
X015317Y001809D01*
X015190Y001936D01*
X015025Y002004D01*
X014846Y002004D01*
X014680Y001936D01*
X014580Y001835D02*
X010239Y001835D01*
X010280Y001737D02*
X014524Y001737D01*
X014485Y001638D02*
X010285Y001638D01*
X010285Y001540D02*
X014485Y001540D01*
X014495Y001441D02*
X010285Y001441D01*
X010267Y001343D02*
X014536Y001343D01*
X014609Y001244D02*
X010506Y001244D01*
X010364Y001244D02*
X010227Y001244D01*
X010209Y001146D02*
X010186Y001146D01*
X010154Y001047D02*
X010130Y001047D01*
X010140Y000949D02*
X010031Y000949D01*
X009933Y000850D02*
X010159Y000850D01*
X010221Y000751D02*
X009718Y000751D01*
X009152Y000751D02*
X006317Y000751D01*
X005901Y001047D02*
X008740Y001047D01*
X008684Y001146D02*
X005942Y001146D01*
X005983Y001244D02*
X008644Y001244D01*
X008603Y001343D02*
X006023Y001343D01*
X006038Y001441D02*
X008585Y001441D01*
X008585Y001540D02*
X006038Y001540D01*
X006038Y001638D02*
X008585Y001638D01*
X008591Y001737D02*
X006038Y001737D01*
X006003Y001835D02*
X008632Y001835D01*
X008672Y001934D02*
X005962Y001934D01*
X005921Y002032D02*
X008713Y002032D01*
X008810Y002131D02*
X005860Y002131D01*
X005761Y002230D02*
X008908Y002230D01*
X009082Y002328D02*
X005663Y002328D01*
X005471Y002427D02*
X015583Y002427D01*
X015371Y002525D02*
X006589Y002525D01*
X006818Y002624D02*
X015159Y002624D01*
X014985Y002722D02*
X006916Y002722D01*
X005969Y002525D02*
X004226Y002525D01*
X003607Y002525D02*
X002802Y002525D01*
X002911Y002624D02*
X003378Y002624D01*
X003279Y002722D02*
X002973Y002722D01*
X003013Y002821D02*
X003181Y002821D01*
X003104Y002919D02*
X003015Y002919D01*
X003009Y003018D02*
X003063Y003018D01*
X003023Y003116D02*
X002968Y003116D01*
X002982Y003215D02*
X002901Y003215D01*
X002329Y002525D02*
X002221Y002525D01*
X002293Y000949D02*
X004384Y000949D01*
X004482Y000850D02*
X002380Y000850D01*
X005713Y000850D02*
X008937Y000850D01*
X008839Y000949D02*
X005812Y000949D01*
X009788Y002328D02*
X015795Y002328D01*
X015830Y001993D02*
X015762Y001971D01*
X015699Y001939D01*
X015642Y001898D01*
X015592Y001847D01*
X015550Y001790D01*
X015518Y001727D01*
X015496Y001660D01*
X015487Y001604D01*
X015885Y001604D01*
X015885Y001504D01*
X015985Y001504D01*
X015985Y001107D01*
X016040Y001115D01*
X016108Y001137D01*
X016171Y001169D01*
X016228Y001211D01*
X016278Y001261D01*
X016320Y001318D01*
X016352Y001382D01*
X016374Y001449D01*
X016383Y001504D01*
X015985Y001504D01*
X015985Y001604D01*
X016383Y001604D01*
X016374Y001660D01*
X016352Y001727D01*
X016320Y001790D01*
X016278Y001847D01*
X016228Y001898D01*
X016171Y001939D01*
X016108Y001971D01*
X016040Y001993D01*
X015985Y002002D01*
X015985Y001604D01*
X015885Y001604D01*
X015885Y002002D01*
X015830Y001993D01*
X015885Y001934D02*
X015985Y001934D01*
X015985Y001835D02*
X015885Y001835D01*
X015885Y001737D02*
X015985Y001737D01*
X015985Y001638D02*
X015885Y001638D01*
X015885Y001540D02*
X015385Y001540D01*
X015385Y001638D02*
X015493Y001638D01*
X015523Y001737D02*
X015347Y001737D01*
X015290Y001835D02*
X015583Y001835D01*
X015692Y001934D02*
X015192Y001934D01*
X015487Y001504D02*
X015496Y001449D01*
X015518Y001382D01*
X015550Y001318D01*
X015592Y001261D01*
X015642Y001211D01*
X015699Y001169D01*
X015762Y001137D01*
X015830Y001115D01*
X015885Y001107D01*
X015885Y001504D01*
X015487Y001504D01*
X015499Y001441D02*
X015375Y001441D01*
X015334Y001343D02*
X015538Y001343D01*
X015609Y001244D02*
X015261Y001244D01*
X015124Y001146D02*
X015746Y001146D01*
X015885Y001146D02*
X015985Y001146D01*
X015985Y001244D02*
X015885Y001244D01*
X015885Y001343D02*
X015985Y001343D01*
X015985Y001441D02*
X015885Y001441D01*
X015985Y001540D02*
X016385Y001540D01*
X016377Y001638D02*
X016385Y001638D01*
X016385Y001737D02*
X016347Y001737D01*
X016385Y001835D02*
X016287Y001835D01*
X016385Y001934D02*
X016178Y001934D01*
X016371Y001441D02*
X016385Y001441D01*
X016385Y001343D02*
X016332Y001343D01*
X016385Y001244D02*
X016261Y001244D01*
X016385Y001146D02*
X016124Y001146D01*
X016385Y001047D02*
X010716Y001047D01*
X010730Y000949D02*
X016385Y000949D01*
X016385Y000850D02*
X010711Y000850D01*
X010649Y000751D02*
X016385Y000751D01*
X014746Y001146D02*
X010661Y001146D01*
X011176Y004459D02*
X011294Y004459D01*
X011402Y004504D01*
X011485Y004587D01*
X011530Y004696D01*
X011530Y004813D01*
X011485Y004921D01*
X011402Y005004D01*
X011294Y005049D01*
X011176Y005049D01*
X011068Y005004D01*
X010985Y004921D01*
X010940Y004813D01*
X010940Y004696D01*
X010985Y004587D01*
X011068Y004504D01*
X011176Y004459D01*
X011088Y004496D02*
X002216Y004496D01*
X002216Y004595D02*
X010982Y004595D01*
X010941Y004693D02*
X002216Y004693D01*
X002215Y004792D02*
X006398Y004792D01*
X006368Y004804D02*
X006476Y004759D01*
X006594Y004759D01*
X006702Y004804D01*
X006785Y004887D01*
X006830Y004996D01*
X006830Y005113D01*
X006785Y005221D01*
X006702Y005304D01*
X006594Y005349D01*
X006476Y005349D01*
X006368Y005304D01*
X006285Y005221D01*
X006240Y005113D01*
X006240Y004996D01*
X006285Y004887D01*
X006368Y004804D01*
X006284Y004890D02*
X002215Y004890D01*
X002215Y004989D02*
X006243Y004989D01*
X006240Y005087D02*
X002215Y005087D01*
X002214Y005186D02*
X006270Y005186D01*
X006348Y005284D02*
X002214Y005284D01*
X002214Y005383D02*
X009119Y005383D01*
X009068Y005404D02*
X009176Y005359D01*
X009294Y005359D01*
X009402Y005404D01*
X009485Y005487D01*
X009530Y005596D01*
X009530Y005713D01*
X009485Y005821D01*
X009402Y005904D01*
X009294Y005949D01*
X009176Y005949D01*
X009068Y005904D01*
X008985Y005821D01*
X008940Y005713D01*
X008940Y005596D01*
X008985Y005487D01*
X009068Y005404D01*
X008991Y005481D02*
X002214Y005481D01*
X002213Y005580D02*
X005326Y005580D01*
X005376Y005559D02*
X005494Y005559D01*
X005602Y005604D01*
X005685Y005687D01*
X005730Y005796D01*
X005730Y005913D01*
X005685Y006021D01*
X005602Y006104D01*
X005494Y006149D01*
X005376Y006149D01*
X005268Y006104D01*
X005185Y006021D01*
X005140Y005913D01*
X005140Y005796D01*
X005185Y005687D01*
X005268Y005604D01*
X005376Y005559D01*
X005544Y005580D02*
X008947Y005580D01*
X008940Y005679D02*
X005677Y005679D01*
X005722Y005777D02*
X008967Y005777D01*
X009039Y005876D02*
X005730Y005876D01*
X005705Y005974D02*
X009631Y005974D01*
X009623Y006073D02*
X005634Y006073D01*
X005236Y006073D02*
X002212Y006073D01*
X002212Y006171D02*
X009623Y006171D01*
X009623Y006270D02*
X002212Y006270D01*
X002211Y006368D02*
X009623Y006368D01*
X009623Y006467D02*
X006012Y006467D01*
X005994Y006459D02*
X006102Y006504D01*
X006185Y006587D01*
X006230Y006696D01*
X006230Y006813D01*
X006185Y006921D01*
X006102Y007004D01*
X005994Y007049D01*
X005876Y007049D01*
X005768Y007004D01*
X005685Y006921D01*
X005640Y006813D01*
X005640Y006696D01*
X005685Y006587D01*
X005768Y006504D01*
X005876Y006459D01*
X005994Y006459D01*
X005858Y006467D02*
X002211Y006467D01*
X002211Y006565D02*
X005707Y006565D01*
X005653Y006664D02*
X002211Y006664D01*
X002211Y006763D02*
X005640Y006763D01*
X005660Y006861D02*
X002210Y006861D01*
X002210Y006960D02*
X005723Y006960D01*
X005768Y007204D02*
X005876Y007159D01*
X005994Y007159D01*
X006102Y007204D01*
X006185Y007287D01*
X006230Y007396D01*
X006230Y007513D01*
X006185Y007621D01*
X006102Y007704D01*
X005994Y007749D01*
X005876Y007749D01*
X005768Y007704D01*
X005685Y007621D01*
X005640Y007513D01*
X005640Y007396D01*
X005685Y007287D01*
X005768Y007204D01*
X005717Y007255D02*
X002209Y007255D01*
X002210Y007157D02*
X009623Y007157D01*
X009623Y007255D02*
X006153Y007255D01*
X006213Y007354D02*
X009623Y007354D01*
X009623Y007452D02*
X006230Y007452D01*
X006214Y007551D02*
X009623Y007551D01*
X009623Y007649D02*
X006157Y007649D01*
X005997Y007748D02*
X009623Y007748D01*
X009623Y007847D02*
X004327Y007847D01*
X004355Y007875D02*
X004412Y008013D01*
X004412Y008163D01*
X004355Y008302D01*
X004267Y008390D01*
X004302Y008404D01*
X004385Y008487D01*
X004430Y008596D01*
X004430Y008713D01*
X004385Y008821D01*
X004302Y008904D01*
X004194Y008949D01*
X004076Y008949D01*
X003968Y008904D01*
X003885Y008821D01*
X003840Y008713D01*
X003840Y008596D01*
X003885Y008487D01*
X003923Y008450D01*
X003821Y008408D01*
X003715Y008302D01*
X003658Y008163D01*
X003658Y008013D01*
X003715Y007875D01*
X003821Y007768D01*
X003960Y007711D01*
X004110Y007711D01*
X004249Y007768D01*
X004355Y007875D01*
X004384Y007945D02*
X009623Y007945D01*
X009623Y008044D02*
X009442Y008044D01*
X009402Y008004D02*
X009485Y008087D01*
X009530Y008196D01*
X009530Y008313D01*
X009485Y008421D01*
X009402Y008504D01*
X009294Y008549D01*
X009176Y008549D01*
X009068Y008504D01*
X008985Y008421D01*
X008940Y008313D01*
X008940Y008196D01*
X008985Y008087D01*
X009068Y008004D01*
X009176Y007959D01*
X009294Y007959D01*
X009402Y008004D01*
X009508Y008142D02*
X009623Y008142D01*
X009623Y008241D02*
X009530Y008241D01*
X009519Y008339D02*
X009623Y008339D01*
X009623Y008438D02*
X009469Y008438D01*
X009325Y008536D02*
X009623Y008536D01*
X009623Y008635D02*
X004430Y008635D01*
X004422Y008733D02*
X009623Y008733D01*
X009623Y008832D02*
X004375Y008832D01*
X004239Y008931D02*
X009623Y008931D01*
X009623Y009029D02*
X002205Y009029D01*
X002205Y008931D02*
X004031Y008931D01*
X003896Y008832D02*
X002206Y008832D01*
X002206Y008733D02*
X003849Y008733D01*
X003840Y008635D02*
X002206Y008635D01*
X002206Y008536D02*
X003865Y008536D01*
X003894Y008438D02*
X002206Y008438D01*
X002207Y008339D02*
X003753Y008339D01*
X003690Y008241D02*
X002207Y008241D01*
X002207Y008142D02*
X003658Y008142D01*
X003658Y008044D02*
X002207Y008044D01*
X002208Y007945D02*
X003686Y007945D01*
X003743Y007847D02*
X002208Y007847D01*
X002208Y007748D02*
X003871Y007748D01*
X004199Y007748D02*
X005873Y007748D01*
X005713Y007649D02*
X002208Y007649D01*
X002209Y007551D02*
X005656Y007551D01*
X005640Y007452D02*
X002209Y007452D01*
X002209Y007354D02*
X005657Y007354D01*
X006147Y006960D02*
X009623Y006960D01*
X009623Y007058D02*
X002210Y007058D01*
X002212Y005974D02*
X005166Y005974D01*
X005140Y005876D02*
X002213Y005876D01*
X002213Y005777D02*
X005148Y005777D01*
X005194Y005679D02*
X002213Y005679D01*
X004412Y008044D02*
X005729Y008044D01*
X005768Y008004D02*
X005876Y007959D01*
X005994Y007959D01*
X006102Y008004D01*
X006185Y008087D01*
X006230Y008196D01*
X006230Y008313D01*
X006185Y008421D01*
X006102Y008504D01*
X005994Y008549D01*
X005876Y008549D01*
X005768Y008504D01*
X005685Y008421D01*
X005640Y008313D01*
X005640Y008196D01*
X005685Y008087D01*
X005768Y008004D01*
X005662Y008142D02*
X004412Y008142D01*
X004380Y008241D02*
X005640Y008241D01*
X005651Y008339D02*
X004317Y008339D01*
X004336Y008438D02*
X005701Y008438D01*
X005845Y008536D02*
X004406Y008536D01*
X004110Y009443D02*
X004249Y009501D01*
X004355Y009607D01*
X004412Y009745D01*
X004412Y009895D01*
X004355Y010034D01*
X004249Y010140D01*
X004110Y010198D01*
X003960Y010198D01*
X003821Y010140D01*
X003715Y010034D01*
X003658Y009895D01*
X003658Y009745D01*
X003715Y009607D01*
X003821Y009501D01*
X003960Y009443D01*
X004110Y009443D01*
X004270Y009522D02*
X009483Y009522D01*
X009483Y009620D02*
X004360Y009620D01*
X004401Y009719D02*
X004753Y009719D01*
X004768Y009704D02*
X004876Y009659D01*
X004994Y009659D01*
X005102Y009704D01*
X005185Y009787D01*
X005230Y009896D01*
X005230Y010013D01*
X005185Y010121D01*
X005102Y010204D01*
X004994Y010249D01*
X004876Y010249D01*
X004768Y010204D01*
X004685Y010121D01*
X004640Y010013D01*
X004640Y009896D01*
X004685Y009787D01*
X004768Y009704D01*
X004673Y009817D02*
X004412Y009817D01*
X004404Y009916D02*
X004640Y009916D01*
X004641Y010014D02*
X004363Y010014D01*
X004276Y010113D02*
X004682Y010113D01*
X004785Y010212D02*
X002202Y010212D01*
X002202Y010310D02*
X009545Y010310D01*
X009551Y010295D02*
X009678Y010168D01*
X009843Y010100D01*
X010022Y010100D01*
X010188Y010168D01*
X010314Y010295D01*
X010383Y010460D01*
X010383Y010639D01*
X010314Y010805D01*
X010188Y010931D01*
X010022Y011000D01*
X009843Y011000D01*
X009678Y010931D01*
X009551Y010805D01*
X009483Y010639D01*
X009483Y010460D01*
X009551Y010295D01*
X009635Y010212D02*
X005085Y010212D01*
X005189Y010113D02*
X009812Y010113D01*
X010054Y010113D02*
X010812Y010113D01*
X010843Y010100D02*
X011022Y010100D01*
X011188Y010168D01*
X011314Y010295D01*
X011383Y010460D01*
X011383Y010639D01*
X011314Y010805D01*
X011188Y010931D01*
X011022Y011000D01*
X010843Y011000D01*
X010678Y010931D01*
X010551Y010805D01*
X010483Y010639D01*
X010483Y010460D01*
X010551Y010295D01*
X010678Y010168D01*
X010843Y010100D01*
X010843Y010000D02*
X010678Y009931D01*
X010551Y009805D01*
X010483Y009639D01*
X010483Y009460D01*
X010551Y009295D01*
X010678Y009168D01*
X010843Y009100D01*
X011022Y009100D01*
X011188Y009168D01*
X011314Y009295D01*
X011383Y009460D01*
X011383Y009639D01*
X011314Y009805D01*
X011188Y009931D01*
X011022Y010000D01*
X010843Y010000D01*
X010662Y009916D02*
X010203Y009916D01*
X010302Y009817D02*
X010564Y009817D01*
X010516Y009719D02*
X010350Y009719D01*
X010383Y009620D02*
X010483Y009620D01*
X010483Y009522D02*
X010383Y009522D01*
X010367Y009423D02*
X010498Y009423D01*
X010539Y009325D02*
X010326Y009325D01*
X010245Y009226D02*
X010620Y009226D01*
X010776Y009128D02*
X010243Y009128D01*
X009623Y009128D02*
X002205Y009128D01*
X002205Y009226D02*
X009620Y009226D01*
X009539Y009325D02*
X002204Y009325D01*
X002204Y009423D02*
X009498Y009423D01*
X009516Y009719D02*
X005117Y009719D01*
X005198Y009817D02*
X009564Y009817D01*
X009662Y009916D02*
X005230Y009916D01*
X005229Y010014D02*
X012440Y010014D01*
X012440Y009996D02*
X012485Y009887D01*
X012568Y009804D01*
X012676Y009759D01*
X012794Y009759D01*
X012902Y009804D01*
X012985Y009887D01*
X013030Y009996D01*
X013030Y010113D01*
X013825Y010113D01*
X013846Y010104D02*
X014025Y010104D01*
X014190Y010173D01*
X014317Y010299D01*
X014385Y010465D01*
X014385Y010644D01*
X014317Y010809D01*
X014190Y010936D01*
X014025Y011004D01*
X013846Y011004D01*
X013680Y010936D01*
X013554Y010809D01*
X013485Y010644D01*
X013485Y010465D01*
X013554Y010299D01*
X013680Y010173D01*
X013846Y010104D01*
X013846Y010004D02*
X013680Y009936D01*
X013554Y009809D01*
X013485Y009644D01*
X013485Y009465D01*
X013554Y009299D01*
X013680Y009173D01*
X013846Y009104D01*
X014025Y009104D01*
X014190Y009173D01*
X014317Y009299D01*
X014385Y009465D01*
X014385Y009644D01*
X014317Y009809D01*
X014190Y009936D01*
X014025Y010004D01*
X013846Y010004D01*
X013660Y009916D02*
X012997Y009916D01*
X013030Y010014D02*
X016882Y010014D01*
X016841Y009916D02*
X015210Y009916D01*
X015190Y009936D02*
X015025Y010004D01*
X014846Y010004D01*
X014680Y009936D01*
X014554Y009809D01*
X014485Y009644D01*
X014485Y009465D01*
X014554Y009299D01*
X014680Y009173D01*
X014846Y009104D01*
X015025Y009104D01*
X015190Y009173D01*
X015317Y009299D01*
X015385Y009465D01*
X015385Y009644D01*
X015317Y009809D01*
X015190Y009936D01*
X015308Y009817D02*
X016840Y009817D01*
X016872Y009719D02*
X015354Y009719D01*
X015385Y009620D02*
X016952Y009620D01*
X017185Y009522D02*
X015385Y009522D01*
X015368Y009423D02*
X017144Y009423D01*
X017140Y009325D02*
X015327Y009325D01*
X015243Y009226D02*
X017169Y009226D01*
X017245Y009128D02*
X015081Y009128D01*
X015195Y008931D02*
X023047Y008931D01*
X023040Y008832D02*
X022336Y008832D01*
X022473Y008733D02*
X023066Y008733D01*
X023099Y008635D02*
X022521Y008635D01*
X022530Y008536D02*
X023050Y008536D01*
X023040Y008438D02*
X022506Y008438D01*
X022406Y008142D02*
X022030Y008142D01*
X022009Y008044D02*
X022353Y008044D01*
X022340Y007945D02*
X021943Y007945D01*
X021949Y008635D02*
X015385Y008635D01*
X015348Y008733D02*
X021997Y008733D01*
X022135Y008832D02*
X015294Y008832D01*
X014789Y009128D02*
X014081Y009128D01*
X014243Y009226D02*
X014627Y009226D01*
X014543Y009325D02*
X014327Y009325D01*
X014368Y009423D02*
X014502Y009423D01*
X014485Y009522D02*
X014385Y009522D01*
X014385Y009620D02*
X014485Y009620D01*
X014516Y009719D02*
X014354Y009719D01*
X014308Y009817D02*
X014562Y009817D01*
X014660Y009916D02*
X014210Y009916D01*
X014046Y010113D02*
X014845Y010113D01*
X014830Y010115D02*
X014762Y010137D01*
X014699Y010169D01*
X014642Y010211D01*
X014592Y010261D01*
X014550Y010318D01*
X014518Y010382D01*
X014496Y010449D01*
X014487Y010504D01*
X014885Y010504D01*
X014985Y010504D01*
X014985Y010107D01*
X015040Y010115D01*
X015108Y010137D01*
X015171Y010169D01*
X015228Y010211D01*
X015278Y010261D01*
X015320Y010318D01*
X015352Y010382D01*
X015374Y010449D01*
X015383Y010504D01*
X014985Y010504D01*
X014985Y010604D01*
X015383Y010604D01*
X015374Y010660D01*
X015352Y010727D01*
X015320Y010790D01*
X015278Y010847D01*
X015228Y010898D01*
X015171Y010939D01*
X015108Y010971D01*
X015040Y010993D01*
X014985Y011002D01*
X014985Y010604D01*
X014885Y010604D01*
X014885Y010504D01*
X014885Y010107D01*
X014830Y010115D01*
X014885Y010113D02*
X014985Y010113D01*
X015026Y010113D02*
X016989Y010113D01*
X017281Y010113D02*
X021082Y010113D01*
X021085Y010121D02*
X021040Y010013D01*
X021040Y009896D01*
X021085Y009787D01*
X021168Y009704D01*
X021276Y009659D01*
X021394Y009659D01*
X021502Y009704D01*
X021585Y009787D01*
X021630Y009896D01*
X021630Y010013D01*
X021585Y010121D01*
X021502Y010204D01*
X021394Y010249D01*
X021276Y010249D01*
X021168Y010204D01*
X021085Y010121D01*
X021041Y010014D02*
X017388Y010014D01*
X017429Y009916D02*
X019696Y009916D01*
X019668Y009904D02*
X019585Y009821D01*
X019540Y009713D01*
X019540Y009596D01*
X019585Y009487D01*
X019668Y009404D01*
X019776Y009359D01*
X019894Y009359D01*
X020002Y009404D01*
X020085Y009487D01*
X020130Y009596D01*
X020130Y009713D01*
X020085Y009821D01*
X020002Y009904D01*
X019894Y009949D01*
X019776Y009949D01*
X019668Y009904D01*
X019583Y009817D02*
X017430Y009817D01*
X017398Y009719D02*
X019543Y009719D01*
X019540Y009620D02*
X017564Y009620D01*
X017685Y009522D02*
X019571Y009522D01*
X019649Y009423D02*
X017726Y009423D01*
X017730Y009325D02*
X020369Y009325D01*
X020340Y009423D02*
X020021Y009423D01*
X020099Y009522D02*
X020344Y009522D01*
X020385Y009620D02*
X020130Y009620D01*
X020128Y009719D02*
X020503Y009719D01*
X020767Y009719D02*
X021153Y009719D01*
X021073Y009817D02*
X020087Y009817D01*
X019974Y009916D02*
X021040Y009916D01*
X021185Y010212D02*
X015229Y010212D01*
X015314Y010310D02*
X022776Y010310D01*
X022785Y010287D02*
X022868Y010204D01*
X022785Y010121D01*
X022740Y010013D01*
X022740Y009896D01*
X022785Y009787D01*
X022868Y009704D01*
X022976Y009659D01*
X023094Y009659D01*
X023202Y009704D01*
X023285Y009787D01*
X023330Y009896D01*
X023330Y010013D01*
X023285Y010121D01*
X023202Y010204D01*
X023285Y010287D01*
X023330Y010396D01*
X023330Y010513D01*
X023285Y010621D01*
X023202Y010704D01*
X026340Y010704D01*
X026355Y010667D02*
X026438Y010584D01*
X026546Y010539D01*
X026664Y010539D01*
X026772Y010584D01*
X026855Y010667D01*
X026900Y010776D01*
X026900Y010893D01*
X026855Y011001D01*
X026772Y011084D01*
X026664Y011129D01*
X026546Y011129D01*
X026438Y011084D01*
X026355Y011001D01*
X026310Y010893D01*
X026310Y010776D01*
X026355Y010667D01*
X026416Y010606D02*
X023292Y010606D01*
X023330Y010507D02*
X024575Y010507D01*
X024568Y010504D02*
X024485Y010421D01*
X024440Y010313D01*
X024440Y010196D01*
X024485Y010087D01*
X024568Y010004D01*
X024676Y009959D01*
X024794Y009959D01*
X024902Y010004D01*
X024985Y010087D01*
X025030Y010196D01*
X025030Y010313D01*
X024985Y010421D01*
X024902Y010504D01*
X024794Y010549D01*
X024676Y010549D01*
X024568Y010504D01*
X024480Y010409D02*
X023330Y010409D01*
X023295Y010310D02*
X024440Y010310D01*
X024440Y010212D02*
X023209Y010212D01*
X023289Y010113D02*
X024474Y010113D01*
X024558Y010014D02*
X023329Y010014D01*
X023330Y009916D02*
X025740Y009916D01*
X025740Y009896D02*
X025785Y009787D01*
X025868Y009704D01*
X025976Y009659D01*
X026094Y009659D01*
X026202Y009704D01*
X026285Y009787D01*
X026330Y009896D01*
X026330Y010013D01*
X026285Y010121D01*
X026202Y010204D01*
X026094Y010249D01*
X025976Y010249D01*
X025868Y010204D01*
X025785Y010121D01*
X025740Y010013D01*
X025740Y009896D01*
X025773Y009817D02*
X023298Y009817D01*
X023217Y009719D02*
X025853Y009719D01*
X025741Y010014D02*
X024912Y010014D01*
X024996Y010113D02*
X025782Y010113D01*
X025885Y010212D02*
X025030Y010212D01*
X025030Y010310D02*
X027310Y010310D01*
X027311Y010212D02*
X026185Y010212D01*
X026289Y010113D02*
X027311Y010113D01*
X027312Y010014D02*
X026329Y010014D01*
X026330Y009916D02*
X027312Y009916D01*
X027313Y009817D02*
X026298Y009817D01*
X026217Y009719D02*
X027313Y009719D01*
X027310Y010409D02*
X024990Y010409D01*
X024895Y010507D02*
X027309Y010507D01*
X027309Y010606D02*
X026794Y010606D01*
X026871Y010704D02*
X027308Y010704D01*
X027308Y010803D02*
X026900Y010803D01*
X026897Y010901D02*
X027307Y010901D01*
X027307Y011000D02*
X026856Y011000D01*
X026738Y011098D02*
X027306Y011098D01*
X027306Y011197D02*
X019785Y011197D01*
X019802Y011204D02*
X019885Y011287D01*
X019930Y011396D01*
X019930Y011513D01*
X019885Y011621D01*
X019802Y011704D01*
X019694Y011749D01*
X019576Y011749D01*
X019468Y011704D01*
X019385Y011621D01*
X019340Y011513D01*
X019340Y011396D01*
X019385Y011287D01*
X019468Y011204D01*
X019576Y011159D01*
X019694Y011159D01*
X019802Y011204D01*
X019889Y011296D02*
X027305Y011296D01*
X027305Y011394D02*
X025478Y011394D01*
X025502Y011404D02*
X025585Y011487D01*
X025630Y011596D01*
X025630Y011713D01*
X025585Y011821D01*
X025502Y011904D01*
X025394Y011949D01*
X025330Y011949D01*
X025330Y012013D01*
X025285Y012121D01*
X025202Y012204D01*
X025094Y012249D01*
X025030Y012249D01*
X025030Y012313D01*
X024985Y012421D01*
X024902Y012504D01*
X024794Y012549D01*
X024676Y012549D01*
X024568Y012504D01*
X024530Y012466D01*
X024530Y012513D01*
X024485Y012621D01*
X024402Y012704D01*
X024294Y012749D01*
X024176Y012749D01*
X024068Y012704D01*
X023985Y012621D01*
X023946Y012528D01*
X023894Y012549D01*
X023776Y012549D01*
X023668Y012504D01*
X023585Y012421D01*
X023540Y012313D01*
X023540Y012196D01*
X023585Y012087D01*
X023668Y012004D01*
X023776Y011959D01*
X023894Y011959D01*
X024002Y012004D01*
X024085Y012087D01*
X024124Y012181D01*
X024176Y012159D01*
X024294Y012159D01*
X024402Y012204D01*
X024440Y012242D01*
X024440Y012196D01*
X024485Y012087D01*
X024568Y012004D01*
X024676Y011959D01*
X024740Y011959D01*
X024740Y011896D01*
X024785Y011787D01*
X024868Y011704D01*
X024976Y011659D01*
X025040Y011659D01*
X025040Y011596D01*
X025085Y011487D01*
X025168Y011404D01*
X025276Y011359D01*
X025394Y011359D01*
X025502Y011404D01*
X025587Y011493D02*
X025896Y011493D01*
X025868Y011504D02*
X025976Y011459D01*
X026094Y011459D01*
X026202Y011504D01*
X026285Y011587D01*
X026330Y011696D01*
X026330Y011813D01*
X026285Y011921D01*
X026202Y012004D01*
X026094Y012049D01*
X025976Y012049D01*
X025868Y012004D01*
X025785Y011921D01*
X025740Y011813D01*
X025740Y011696D01*
X025785Y011587D01*
X025868Y011504D01*
X025783Y011591D02*
X025628Y011591D01*
X025630Y011690D02*
X025743Y011690D01*
X025740Y011788D02*
X025599Y011788D01*
X025520Y011887D02*
X025771Y011887D01*
X025849Y011985D02*
X025330Y011985D01*
X025301Y012084D02*
X027301Y012084D01*
X027301Y012182D02*
X025224Y012182D01*
X025030Y012281D02*
X027300Y012281D01*
X027300Y012380D02*
X025003Y012380D01*
X024929Y012478D02*
X027299Y012478D01*
X027299Y012577D02*
X024504Y012577D01*
X024530Y012478D02*
X024542Y012478D01*
X024431Y012675D02*
X027298Y012675D01*
X027298Y012774D02*
X013605Y012774D01*
X013585Y012821D02*
X013502Y012904D01*
X013394Y012949D01*
X013276Y012949D01*
X013168Y012904D01*
X013085Y012821D01*
X013040Y012713D01*
X013040Y012596D01*
X013085Y012487D01*
X013168Y012404D01*
X013276Y012359D01*
X013394Y012359D01*
X013502Y012404D01*
X013585Y012487D01*
X013630Y012596D01*
X013630Y012713D01*
X013585Y012821D01*
X013534Y012872D02*
X027297Y012872D01*
X027297Y012971D02*
X011093Y012971D01*
X011022Y013000D02*
X010843Y013000D01*
X010678Y012931D01*
X010551Y012805D01*
X010483Y012639D01*
X010483Y012460D01*
X010551Y012295D01*
X010678Y012168D01*
X010843Y012100D01*
X011022Y012100D01*
X011188Y012168D01*
X011314Y012295D01*
X011383Y012460D01*
X011383Y012639D01*
X011314Y012805D01*
X011188Y012931D01*
X011022Y013000D01*
X010773Y012971D02*
X010243Y012971D01*
X010243Y012876D02*
X010243Y013430D01*
X010268Y013404D01*
X010376Y013359D01*
X010494Y013359D01*
X010602Y013404D01*
X010685Y013487D01*
X010730Y013596D01*
X010730Y013713D01*
X010685Y013821D01*
X010602Y013904D01*
X010494Y013949D01*
X010376Y013949D01*
X010268Y013904D01*
X010243Y013879D01*
X010243Y015424D01*
X010798Y015979D01*
X010845Y016093D01*
X010845Y016216D01*
X010798Y016330D01*
X010711Y016417D01*
X010597Y016464D01*
X010473Y016464D01*
X010359Y016417D01*
X009670Y015728D01*
X009623Y015614D01*
X009623Y015490D01*
X009623Y014684D01*
X009602Y014704D01*
X009494Y014749D01*
X009376Y014749D01*
X009268Y014704D01*
X009185Y014621D01*
X009140Y014513D01*
X009140Y014396D01*
X009173Y014316D01*
X009094Y014349D01*
X008976Y014349D01*
X008868Y014304D01*
X008785Y014221D01*
X008740Y014113D01*
X008740Y013996D01*
X008785Y013887D01*
X008868Y013804D01*
X008976Y013759D01*
X009094Y013759D01*
X009202Y013804D01*
X009285Y013887D01*
X009330Y013996D01*
X009330Y014113D01*
X009297Y014192D01*
X009376Y014159D01*
X009494Y014159D01*
X009602Y014204D01*
X009623Y014225D01*
X009623Y012876D01*
X009551Y012805D01*
X009483Y012639D01*
X009483Y012460D01*
X009551Y012295D01*
X009678Y012168D01*
X009843Y012100D01*
X010022Y012100D01*
X010188Y012168D01*
X010314Y012295D01*
X010383Y012460D01*
X010383Y012639D01*
X010314Y012805D01*
X010243Y012876D01*
X010247Y012872D02*
X010619Y012872D01*
X010538Y012774D02*
X010327Y012774D01*
X010368Y012675D02*
X010498Y012675D01*
X010483Y012577D02*
X010383Y012577D01*
X010383Y012478D02*
X010483Y012478D01*
X010516Y012380D02*
X010349Y012380D01*
X010300Y012281D02*
X010565Y012281D01*
X010664Y012182D02*
X010202Y012182D01*
X010057Y011985D02*
X010808Y011985D01*
X010843Y012000D02*
X010678Y011931D01*
X010551Y011805D01*
X010483Y011639D01*
X010483Y011460D01*
X010551Y011295D01*
X010678Y011168D01*
X010843Y011100D01*
X011022Y011100D01*
X011188Y011168D01*
X011314Y011295D01*
X011383Y011460D01*
X011383Y011639D01*
X011314Y011805D01*
X011188Y011931D01*
X011022Y012000D01*
X010843Y012000D01*
X011057Y011985D02*
X014814Y011985D01*
X014768Y012004D02*
X014876Y011959D01*
X014994Y011959D01*
X015102Y012004D01*
X015185Y012087D01*
X015230Y012196D01*
X015230Y012313D01*
X015185Y012421D01*
X015102Y012504D01*
X014994Y012549D01*
X014876Y012549D01*
X014768Y012504D01*
X014685Y012421D01*
X014640Y012313D01*
X014640Y012196D01*
X014685Y012087D01*
X014768Y012004D01*
X014688Y012084D02*
X008430Y012084D01*
X008430Y012113D02*
X008385Y012221D01*
X008302Y012304D01*
X008242Y012329D01*
X007070Y013501D01*
X007070Y019035D01*
X007095Y019096D01*
X007095Y019213D01*
X007051Y019321D01*
X006968Y019404D01*
X006859Y019449D01*
X006742Y019449D01*
X006633Y019404D01*
X006550Y019321D01*
X006505Y019213D01*
X006505Y019096D01*
X006530Y019035D01*
X006530Y013443D01*
X006530Y013335D01*
X006572Y013236D01*
X007860Y011948D01*
X007885Y011887D01*
X007968Y011804D01*
X008076Y011759D01*
X008194Y011759D01*
X008302Y011804D01*
X008385Y011887D01*
X008430Y011996D01*
X008430Y012113D01*
X008401Y012182D02*
X009664Y012182D01*
X009565Y012281D02*
X008326Y012281D01*
X008192Y012380D02*
X009516Y012380D01*
X009483Y012478D02*
X008093Y012478D01*
X007995Y012577D02*
X009483Y012577D01*
X009498Y012675D02*
X007896Y012675D01*
X007798Y012774D02*
X009538Y012774D01*
X009619Y012872D02*
X007699Y012872D01*
X007600Y012971D02*
X009623Y012971D01*
X009623Y013069D02*
X007502Y013069D01*
X007403Y013168D02*
X009623Y013168D01*
X009623Y013266D02*
X007305Y013266D01*
X007206Y013365D02*
X009623Y013365D01*
X009623Y013464D02*
X007108Y013464D01*
X007070Y013562D02*
X009623Y013562D01*
X009623Y013661D02*
X007070Y013661D01*
X007070Y013759D02*
X009623Y013759D01*
X009623Y013858D02*
X009256Y013858D01*
X009314Y013956D02*
X009623Y013956D01*
X009623Y014055D02*
X009330Y014055D01*
X009313Y014153D02*
X009623Y014153D01*
X009159Y014350D02*
X007070Y014350D01*
X007070Y014252D02*
X008815Y014252D01*
X008757Y014153D02*
X007070Y014153D01*
X007070Y014055D02*
X008740Y014055D01*
X008756Y013956D02*
X007070Y013956D01*
X007070Y013858D02*
X008815Y013858D01*
X009140Y014449D02*
X007070Y014449D01*
X007070Y014547D02*
X009154Y014547D01*
X009210Y014646D02*
X007070Y014646D01*
X007070Y014745D02*
X009365Y014745D01*
X009505Y014745D02*
X009623Y014745D01*
X009623Y014843D02*
X007070Y014843D01*
X007070Y014942D02*
X009623Y014942D01*
X009623Y015040D02*
X007070Y015040D01*
X007070Y015139D02*
X009623Y015139D01*
X009623Y015237D02*
X007070Y015237D01*
X007070Y015336D02*
X009623Y015336D01*
X009623Y015434D02*
X007070Y015434D01*
X007070Y015533D02*
X009623Y015533D01*
X009630Y015631D02*
X007070Y015631D01*
X007070Y015730D02*
X009672Y015730D01*
X009771Y015829D02*
X007070Y015829D01*
X007070Y015927D02*
X009869Y015927D01*
X009968Y016026D02*
X007070Y016026D01*
X007070Y016124D02*
X010067Y016124D01*
X010165Y016223D02*
X009021Y016223D01*
X009002Y016204D02*
X009085Y016287D01*
X009130Y016396D01*
X009130Y016513D01*
X009085Y016621D01*
X009002Y016704D01*
X008894Y016749D01*
X008776Y016749D01*
X008668Y016704D01*
X008585Y016621D01*
X008540Y016513D01*
X008540Y016396D01*
X008585Y016287D01*
X008668Y016204D01*
X008776Y016159D01*
X008894Y016159D01*
X009002Y016204D01*
X009099Y016321D02*
X010264Y016321D01*
X010366Y016420D02*
X009130Y016420D01*
X009128Y016518D02*
X012802Y016518D01*
X012768Y016504D02*
X012685Y016421D01*
X012640Y016313D01*
X012640Y016196D01*
X012685Y016087D01*
X012768Y016004D01*
X012876Y015959D01*
X012994Y015959D01*
X013102Y016004D01*
X013185Y016087D01*
X013230Y016196D01*
X013230Y016313D01*
X013185Y016421D01*
X013102Y016504D01*
X012994Y016549D01*
X012876Y016549D01*
X012768Y016504D01*
X012684Y016420D02*
X010704Y016420D01*
X010801Y016321D02*
X012644Y016321D01*
X012640Y016223D02*
X010842Y016223D01*
X010845Y016124D02*
X012670Y016124D01*
X012747Y016026D02*
X010817Y016026D01*
X010746Y015927D02*
X023840Y015927D01*
X023840Y015896D02*
X023885Y015787D01*
X023968Y015704D01*
X024076Y015659D01*
X024194Y015659D01*
X024302Y015704D01*
X024385Y015787D01*
X024430Y015896D01*
X024430Y016013D01*
X024385Y016121D01*
X024302Y016204D01*
X024194Y016249D01*
X024076Y016249D01*
X023968Y016204D01*
X023885Y016121D01*
X023840Y016013D01*
X023840Y015896D01*
X023868Y015829D02*
X010648Y015829D01*
X010549Y015730D02*
X023942Y015730D01*
X024328Y015730D02*
X027291Y015730D01*
X027290Y015631D02*
X010451Y015631D01*
X010352Y015533D02*
X021437Y015533D01*
X021476Y015549D02*
X021368Y015504D01*
X021285Y015421D01*
X021240Y015313D01*
X021240Y015196D01*
X021285Y015087D01*
X021368Y015004D01*
X021476Y014959D01*
X021594Y014959D01*
X021702Y015004D01*
X021785Y015087D01*
X021830Y015196D01*
X021830Y015313D01*
X021785Y015421D01*
X021702Y015504D01*
X021594Y015549D01*
X021476Y015549D01*
X021633Y015533D02*
X027288Y015533D01*
X027287Y015434D02*
X021772Y015434D01*
X021821Y015336D02*
X027286Y015336D01*
X027285Y015237D02*
X021830Y015237D01*
X021806Y015139D02*
X022151Y015139D01*
X022176Y015149D02*
X022068Y015104D01*
X021985Y015021D01*
X021940Y014913D01*
X021940Y014796D01*
X021985Y014687D01*
X022068Y014604D01*
X022176Y014559D01*
X022294Y014559D01*
X022402Y014604D01*
X022485Y014687D01*
X022530Y014796D01*
X022530Y014913D01*
X022485Y015021D01*
X022402Y015104D01*
X022294Y015149D01*
X022176Y015149D01*
X022319Y015139D02*
X027286Y015139D01*
X027286Y015040D02*
X022466Y015040D01*
X022518Y014942D02*
X027287Y014942D01*
X027287Y014843D02*
X022530Y014843D01*
X022509Y014745D02*
X026565Y014745D01*
X026576Y014749D02*
X026468Y014704D01*
X026385Y014621D01*
X026340Y014513D01*
X026340Y014396D01*
X026385Y014287D01*
X026468Y014204D01*
X026576Y014159D01*
X026694Y014159D01*
X026802Y014204D01*
X026885Y014287D01*
X026930Y014396D01*
X026930Y014513D01*
X026885Y014621D01*
X026802Y014704D01*
X026694Y014749D01*
X026576Y014749D01*
X026705Y014745D02*
X027288Y014745D01*
X027288Y014646D02*
X026861Y014646D01*
X026916Y014547D02*
X027289Y014547D01*
X027289Y014449D02*
X026930Y014449D01*
X026911Y014350D02*
X027290Y014350D01*
X027290Y014252D02*
X026850Y014252D01*
X026420Y014252D02*
X021755Y014252D01*
X021785Y014221D02*
X021702Y014304D01*
X021594Y014349D01*
X021476Y014349D01*
X021426Y014329D01*
X021485Y014387D01*
X021530Y014496D01*
X021530Y014613D01*
X021485Y014721D01*
X021402Y014804D01*
X021294Y014849D01*
X021176Y014849D01*
X021068Y014804D01*
X020985Y014721D01*
X020940Y014613D01*
X020940Y014496D01*
X020985Y014387D01*
X021068Y014304D01*
X021176Y014259D01*
X021294Y014259D01*
X021344Y014280D01*
X021285Y014221D01*
X021240Y014113D01*
X021240Y013996D01*
X021285Y013887D01*
X021368Y013804D01*
X021476Y013759D01*
X021594Y013759D01*
X021702Y013804D01*
X021785Y013887D01*
X021830Y013996D01*
X021830Y014113D01*
X021785Y014221D01*
X021813Y014153D02*
X023917Y014153D01*
X023885Y014121D02*
X023840Y014013D01*
X023840Y013896D01*
X023885Y013787D01*
X023968Y013704D01*
X024076Y013659D01*
X024194Y013659D01*
X024302Y013704D01*
X024385Y013787D01*
X024430Y013896D01*
X024430Y014013D01*
X024385Y014121D01*
X024302Y014204D01*
X024194Y014249D01*
X024076Y014249D01*
X023968Y014204D01*
X023885Y014121D01*
X023857Y014055D02*
X023452Y014055D01*
X023485Y014021D02*
X023402Y014104D01*
X023294Y014149D01*
X023176Y014149D01*
X023068Y014104D01*
X022985Y014021D01*
X022940Y013913D01*
X022940Y013796D01*
X022985Y013687D01*
X023068Y013604D01*
X023176Y013559D01*
X023294Y013559D01*
X023402Y013604D01*
X023485Y013687D01*
X023530Y013796D01*
X023530Y013913D01*
X023485Y014021D01*
X023512Y013956D02*
X023840Y013956D01*
X023856Y013858D02*
X023530Y013858D01*
X023515Y013759D02*
X023913Y013759D01*
X024073Y013661D02*
X023459Y013661D01*
X023300Y013562D02*
X027294Y013562D01*
X027294Y013464D02*
X020004Y013464D01*
X019994Y013459D02*
X020102Y013504D01*
X020185Y013587D01*
X020230Y013696D01*
X020230Y013813D01*
X020185Y013921D01*
X020102Y014004D01*
X019994Y014049D01*
X019876Y014049D01*
X019768Y014004D01*
X019685Y013921D01*
X019640Y013813D01*
X019640Y013696D01*
X019685Y013587D01*
X019768Y013504D01*
X019876Y013459D01*
X019994Y013459D01*
X019866Y013464D02*
X010661Y013464D01*
X010716Y013562D02*
X019710Y013562D01*
X019655Y013661D02*
X011997Y013661D01*
X011994Y013659D02*
X012102Y013704D01*
X012185Y013787D01*
X012230Y013896D01*
X012230Y014013D01*
X012185Y014121D01*
X012102Y014204D01*
X011994Y014249D01*
X011876Y014249D01*
X011768Y014204D01*
X011685Y014121D01*
X011640Y014013D01*
X011640Y013896D01*
X011685Y013787D01*
X011768Y013704D01*
X011876Y013659D01*
X011994Y013659D01*
X011873Y013661D02*
X011297Y013661D01*
X011294Y013659D02*
X011402Y013704D01*
X011485Y013787D01*
X011530Y013896D01*
X011530Y014013D01*
X011485Y014121D01*
X011402Y014204D01*
X011294Y014249D01*
X011176Y014249D01*
X011068Y014204D01*
X010985Y014121D01*
X010940Y014013D01*
X010940Y013896D01*
X010985Y013787D01*
X011068Y013704D01*
X011176Y013659D01*
X011294Y013659D01*
X011173Y013661D02*
X010730Y013661D01*
X010711Y013759D02*
X011013Y013759D01*
X010956Y013858D02*
X010649Y013858D01*
X010940Y013956D02*
X010243Y013956D01*
X010243Y014055D02*
X010957Y014055D01*
X011017Y014153D02*
X010243Y014153D01*
X010243Y014252D02*
X019116Y014252D01*
X019085Y014221D02*
X019040Y014113D01*
X019040Y013996D01*
X019085Y013887D01*
X019168Y013804D01*
X019276Y013759D01*
X019394Y013759D01*
X019502Y013804D01*
X019585Y013887D01*
X019630Y013996D01*
X019630Y014113D01*
X019585Y014221D01*
X019502Y014304D01*
X019585Y014387D01*
X019630Y014496D01*
X019630Y014613D01*
X019585Y014721D01*
X019502Y014804D01*
X019394Y014849D01*
X019276Y014849D01*
X019168Y014804D01*
X019085Y014721D01*
X019040Y014613D01*
X019040Y014496D01*
X019085Y014387D01*
X019168Y014304D01*
X019085Y014221D01*
X019057Y014153D02*
X012153Y014153D01*
X012213Y014055D02*
X019040Y014055D01*
X019056Y013956D02*
X012230Y013956D01*
X012214Y013858D02*
X019115Y013858D01*
X019556Y013858D02*
X019659Y013858D01*
X019640Y013759D02*
X012157Y013759D01*
X011713Y013759D02*
X011457Y013759D01*
X011514Y013858D02*
X011656Y013858D01*
X011640Y013956D02*
X011530Y013956D01*
X011513Y014055D02*
X011657Y014055D01*
X011717Y014153D02*
X011453Y014153D01*
X010507Y013365D02*
X027295Y013365D01*
X027295Y013266D02*
X010243Y013266D01*
X010243Y013168D02*
X027296Y013168D01*
X027296Y013069D02*
X010243Y013069D01*
X010243Y013365D02*
X010363Y013365D01*
X011247Y012872D02*
X013136Y012872D01*
X013065Y012774D02*
X011327Y012774D01*
X011368Y012675D02*
X013040Y012675D01*
X013048Y012577D02*
X011383Y012577D01*
X011383Y012478D02*
X013094Y012478D01*
X013228Y012380D02*
X011349Y012380D01*
X011300Y012281D02*
X014640Y012281D01*
X014646Y012182D02*
X011202Y012182D01*
X011232Y011887D02*
X016785Y011887D01*
X016868Y011804D01*
X016976Y011759D01*
X017094Y011759D01*
X017202Y011804D01*
X017285Y011887D01*
X017289Y011896D01*
X017376Y011859D01*
X017494Y011859D01*
X017544Y011880D01*
X017485Y011821D01*
X017440Y011713D01*
X017440Y011596D01*
X017485Y011487D01*
X017568Y011404D01*
X017676Y011359D01*
X017794Y011359D01*
X017902Y011404D01*
X017985Y011487D01*
X018030Y011596D01*
X018030Y011713D01*
X017985Y011821D01*
X017902Y011904D01*
X017794Y011949D01*
X017676Y011949D01*
X017626Y011929D01*
X017685Y011987D01*
X017730Y012096D01*
X017730Y012213D01*
X017685Y012321D01*
X017602Y012404D01*
X017494Y012449D01*
X017376Y012449D01*
X017268Y012404D01*
X017185Y012321D01*
X017182Y012313D01*
X017094Y012349D01*
X016976Y012349D01*
X016868Y012304D01*
X016785Y012221D01*
X016740Y012113D01*
X016740Y011996D01*
X016785Y011887D01*
X016744Y011985D02*
X015057Y011985D01*
X015182Y012084D02*
X016740Y012084D01*
X016769Y012182D02*
X015225Y012182D01*
X015230Y012281D02*
X016845Y012281D01*
X017243Y012380D02*
X015203Y012380D01*
X015129Y012478D02*
X021940Y012478D01*
X021940Y012513D02*
X021940Y012396D01*
X021985Y012287D01*
X022068Y012204D01*
X022176Y012159D01*
X022294Y012159D01*
X022402Y012204D01*
X022485Y012287D01*
X022530Y012396D01*
X022530Y012513D01*
X022485Y012621D01*
X022402Y012704D01*
X022294Y012749D01*
X022176Y012749D01*
X022068Y012704D01*
X021985Y012621D01*
X021940Y012513D01*
X021966Y012577D02*
X013622Y012577D01*
X013630Y012675D02*
X022039Y012675D01*
X021947Y012380D02*
X017627Y012380D01*
X017702Y012281D02*
X018345Y012281D01*
X018368Y012304D02*
X018285Y012221D01*
X018240Y012113D01*
X018240Y011996D01*
X018285Y011887D01*
X018368Y011804D01*
X018476Y011759D01*
X018594Y011759D01*
X018702Y011804D01*
X018785Y011887D01*
X018830Y011996D01*
X018830Y012113D01*
X018785Y012221D01*
X018702Y012304D01*
X018594Y012349D01*
X018476Y012349D01*
X018368Y012304D01*
X018269Y012182D02*
X017730Y012182D01*
X017725Y012084D02*
X018240Y012084D01*
X018244Y011985D02*
X017683Y011985D01*
X017920Y011887D02*
X018285Y011887D01*
X018407Y011788D02*
X017999Y011788D01*
X018030Y011690D02*
X019453Y011690D01*
X019373Y011591D02*
X018028Y011591D01*
X017987Y011493D02*
X019340Y011493D01*
X019341Y011394D02*
X018312Y011394D01*
X018302Y011404D02*
X018194Y011449D01*
X018076Y011449D01*
X017968Y011404D01*
X017885Y011321D01*
X017840Y011213D01*
X017840Y011096D01*
X017885Y010987D01*
X017968Y010904D01*
X018076Y010859D01*
X018194Y010859D01*
X018302Y010904D01*
X018385Y010987D01*
X018430Y011096D01*
X018430Y011213D01*
X018385Y011321D01*
X018302Y011404D01*
X018396Y011296D02*
X019382Y011296D01*
X019485Y011197D02*
X018430Y011197D01*
X018430Y011098D02*
X026472Y011098D01*
X026354Y011000D02*
X020707Y011000D01*
X020702Y011004D02*
X020594Y011049D01*
X020476Y011049D01*
X020368Y011004D01*
X020285Y010921D01*
X020240Y010813D01*
X020240Y010696D01*
X020285Y010587D01*
X020368Y010504D01*
X020476Y010459D01*
X020594Y010459D01*
X020702Y010504D01*
X020785Y010587D01*
X020830Y010696D01*
X020830Y010813D01*
X020785Y010921D01*
X020702Y011004D01*
X020793Y010901D02*
X026314Y010901D01*
X026310Y010803D02*
X020830Y010803D01*
X020830Y010704D02*
X022868Y010704D01*
X022785Y010621D01*
X022740Y010513D01*
X022740Y010396D01*
X022785Y010287D01*
X022861Y010212D02*
X021485Y010212D01*
X021589Y010113D02*
X022782Y010113D01*
X022741Y010014D02*
X021629Y010014D01*
X021630Y009916D02*
X022740Y009916D01*
X022773Y009817D02*
X021598Y009817D01*
X021517Y009719D02*
X022853Y009719D01*
X023087Y009423D02*
X022383Y009423D01*
X022425Y009325D02*
X023045Y009325D01*
X023040Y009226D02*
X022430Y009226D01*
X022402Y009128D02*
X023068Y009128D01*
X023093Y009029D02*
X022327Y009029D01*
X022260Y009522D02*
X023210Y009522D01*
X022740Y010409D02*
X018807Y010409D01*
X018802Y010404D02*
X018885Y010487D01*
X018930Y010596D01*
X018930Y010713D01*
X018885Y010821D01*
X018802Y010904D01*
X018694Y010949D01*
X018576Y010949D01*
X018468Y010904D01*
X018385Y010821D01*
X018340Y010713D01*
X018340Y010596D01*
X018385Y010487D01*
X018468Y010404D01*
X018576Y010359D01*
X018694Y010359D01*
X018802Y010404D01*
X018893Y010507D02*
X020365Y010507D01*
X020277Y010606D02*
X018930Y010606D01*
X018930Y010704D02*
X020240Y010704D01*
X020240Y010803D02*
X018893Y010803D01*
X018805Y010901D02*
X020277Y010901D01*
X020364Y011000D02*
X018390Y011000D01*
X018465Y010901D02*
X018295Y010901D01*
X018377Y010803D02*
X015311Y010803D01*
X015360Y010704D02*
X018340Y010704D01*
X018340Y010606D02*
X015383Y010606D01*
X015361Y010409D02*
X018464Y010409D01*
X018377Y010507D02*
X014985Y010507D01*
X014985Y010409D02*
X014885Y010409D01*
X014885Y010507D02*
X014385Y010507D01*
X014385Y010606D02*
X014488Y010606D01*
X014487Y010604D02*
X014885Y010604D01*
X014885Y011002D01*
X014830Y010993D01*
X014762Y010971D01*
X014699Y010939D01*
X014642Y010898D01*
X014592Y010847D01*
X014550Y010790D01*
X014518Y010727D01*
X014496Y010660D01*
X014487Y010604D01*
X014511Y010704D02*
X014360Y010704D01*
X014319Y010803D02*
X014559Y010803D01*
X014647Y010901D02*
X014224Y010901D01*
X014035Y011000D02*
X014872Y011000D01*
X014885Y011000D02*
X014985Y011000D01*
X014998Y011000D02*
X017880Y011000D01*
X017840Y011098D02*
X002200Y011098D01*
X002200Y011000D02*
X013835Y011000D01*
X013646Y010901D02*
X011218Y010901D01*
X011315Y010803D02*
X013551Y010803D01*
X013510Y010704D02*
X011356Y010704D01*
X011383Y010606D02*
X013485Y010606D01*
X013485Y010507D02*
X011383Y010507D01*
X011361Y010409D02*
X013508Y010409D01*
X013549Y010310D02*
X012888Y010310D01*
X012902Y010304D02*
X012794Y010349D01*
X012676Y010349D01*
X012568Y010304D01*
X012485Y010221D01*
X012440Y010113D01*
X012440Y009996D01*
X012473Y009916D02*
X011203Y009916D01*
X011302Y009817D02*
X012555Y009817D01*
X012915Y009817D02*
X013562Y009817D01*
X013516Y009719D02*
X011350Y009719D01*
X011383Y009620D02*
X013485Y009620D01*
X013485Y009522D02*
X011383Y009522D01*
X011367Y009423D02*
X013502Y009423D01*
X013543Y009325D02*
X011326Y009325D01*
X011245Y009226D02*
X013627Y009226D01*
X013789Y009128D02*
X011089Y009128D01*
X011054Y010113D02*
X012440Y010113D01*
X012481Y010212D02*
X011231Y010212D01*
X011320Y010310D02*
X012582Y010310D01*
X012902Y010304D02*
X012985Y010221D01*
X013030Y010113D01*
X012989Y010212D02*
X013641Y010212D01*
X014229Y010212D02*
X014641Y010212D01*
X014556Y010310D02*
X014321Y010310D01*
X014362Y010409D02*
X014509Y010409D01*
X014885Y010310D02*
X014985Y010310D01*
X014985Y010212D02*
X014885Y010212D01*
X014885Y010606D02*
X014985Y010606D01*
X014985Y010704D02*
X014885Y010704D01*
X014885Y010803D02*
X014985Y010803D01*
X014985Y010901D02*
X014885Y010901D01*
X015223Y010901D02*
X017975Y010901D01*
X017840Y011197D02*
X011216Y011197D01*
X011314Y011296D02*
X017874Y011296D01*
X017878Y011394D02*
X017958Y011394D01*
X017592Y011394D02*
X011355Y011394D01*
X011383Y011493D02*
X017483Y011493D01*
X017442Y011591D02*
X011383Y011591D01*
X011362Y011690D02*
X017440Y011690D01*
X017471Y011788D02*
X017164Y011788D01*
X017285Y011887D02*
X017310Y011887D01*
X016907Y011788D02*
X011321Y011788D01*
X010633Y011887D02*
X010232Y011887D01*
X010188Y011931D02*
X010022Y012000D01*
X009843Y012000D01*
X009678Y011931D01*
X009551Y011805D01*
X009483Y011639D01*
X009483Y011460D01*
X009551Y011295D01*
X009678Y011168D01*
X009843Y011100D01*
X010022Y011100D01*
X010188Y011168D01*
X010314Y011295D01*
X010383Y011460D01*
X010383Y011639D01*
X010314Y011805D01*
X010188Y011931D01*
X010321Y011788D02*
X010544Y011788D01*
X010504Y011690D02*
X010362Y011690D01*
X010383Y011591D02*
X010483Y011591D01*
X010483Y011493D02*
X010383Y011493D01*
X010355Y011394D02*
X010510Y011394D01*
X010551Y011296D02*
X010314Y011296D01*
X010216Y011197D02*
X010649Y011197D01*
X010648Y010901D02*
X010218Y010901D01*
X010315Y010803D02*
X010550Y010803D01*
X010510Y010704D02*
X010356Y010704D01*
X010383Y010606D02*
X010483Y010606D01*
X010483Y010507D02*
X010383Y010507D01*
X010361Y010409D02*
X010504Y010409D01*
X010545Y010310D02*
X010320Y010310D01*
X010231Y010212D02*
X010635Y010212D01*
X009648Y010901D02*
X002201Y010901D01*
X002201Y010803D02*
X009550Y010803D01*
X009510Y010704D02*
X002201Y010704D01*
X002201Y010606D02*
X009483Y010606D01*
X009483Y010507D02*
X002201Y010507D01*
X002202Y010409D02*
X009504Y010409D01*
X009649Y011197D02*
X002200Y011197D01*
X002200Y011296D02*
X009551Y011296D01*
X009510Y011394D02*
X002199Y011394D01*
X002199Y011493D02*
X009483Y011493D01*
X009483Y011591D02*
X002199Y011591D01*
X002199Y011690D02*
X009504Y011690D01*
X009544Y011788D02*
X008264Y011788D01*
X008385Y011887D02*
X009633Y011887D01*
X009808Y011985D02*
X008426Y011985D01*
X008007Y011788D02*
X002198Y011788D01*
X002198Y011887D02*
X007885Y011887D01*
X007822Y011985D02*
X002198Y011985D01*
X002198Y012084D02*
X007724Y012084D01*
X007625Y012182D02*
X002197Y012182D01*
X002197Y012281D02*
X007527Y012281D01*
X007428Y012380D02*
X002197Y012380D01*
X002197Y012478D02*
X007330Y012478D01*
X007231Y012577D02*
X002196Y012577D01*
X002196Y012675D02*
X007132Y012675D01*
X007034Y012774D02*
X002196Y012774D01*
X002196Y012872D02*
X006935Y012872D01*
X006837Y012971D02*
X002196Y012971D01*
X002195Y013069D02*
X006738Y013069D01*
X006640Y013168D02*
X002195Y013168D01*
X002195Y013266D02*
X006559Y013266D01*
X006530Y013365D02*
X002195Y013365D01*
X002194Y013464D02*
X006530Y013464D01*
X006530Y013562D02*
X002194Y013562D01*
X002194Y013661D02*
X006530Y013661D01*
X006530Y013759D02*
X002194Y013759D01*
X002193Y013858D02*
X006530Y013858D01*
X006530Y013956D02*
X002193Y013956D01*
X002193Y014055D02*
X006530Y014055D01*
X006530Y014153D02*
X002193Y014153D01*
X002192Y014252D02*
X006530Y014252D01*
X006530Y014350D02*
X002192Y014350D01*
X002192Y014449D02*
X006530Y014449D01*
X006530Y014547D02*
X002192Y014547D01*
X002191Y014646D02*
X006530Y014646D01*
X006530Y014745D02*
X002191Y014745D01*
X002191Y014843D02*
X005529Y014843D01*
X005568Y014804D02*
X005676Y014759D01*
X005794Y014759D01*
X005902Y014804D01*
X005985Y014887D01*
X006030Y014996D01*
X006030Y015113D01*
X005985Y015221D01*
X005902Y015304D01*
X005794Y015349D01*
X005676Y015349D01*
X005568Y015304D01*
X005485Y015221D01*
X005440Y015113D01*
X005440Y014996D01*
X005485Y014887D01*
X005568Y014804D01*
X005462Y014942D02*
X002191Y014942D01*
X002191Y015040D02*
X005440Y015040D01*
X005451Y015139D02*
X002190Y015139D01*
X002190Y015237D02*
X005501Y015237D01*
X005644Y015336D02*
X002190Y015336D01*
X002190Y015434D02*
X006530Y015434D01*
X006530Y015336D02*
X005826Y015336D01*
X005969Y015237D02*
X006530Y015237D01*
X006530Y015139D02*
X006019Y015139D01*
X006030Y015040D02*
X006530Y015040D01*
X006530Y014942D02*
X006008Y014942D01*
X005941Y014843D02*
X006530Y014843D01*
X006530Y015533D02*
X002189Y015533D01*
X002189Y015631D02*
X004541Y015631D01*
X004568Y015604D02*
X004676Y015559D01*
X004794Y015559D01*
X004902Y015604D01*
X004985Y015687D01*
X005030Y015796D01*
X005030Y015913D01*
X004985Y016021D01*
X004902Y016104D01*
X004794Y016149D01*
X004676Y016149D01*
X004568Y016104D01*
X004485Y016021D01*
X004440Y015913D01*
X004440Y015796D01*
X004485Y015687D01*
X004568Y015604D01*
X004467Y015730D02*
X002189Y015730D01*
X002189Y015829D02*
X004440Y015829D01*
X004446Y015927D02*
X002188Y015927D01*
X002188Y016026D02*
X004489Y016026D01*
X004616Y016124D02*
X002188Y016124D01*
X002188Y016223D02*
X006530Y016223D01*
X006530Y016321D02*
X002187Y016321D01*
X002187Y016420D02*
X006530Y016420D01*
X006530Y016518D02*
X002187Y016518D01*
X002187Y016617D02*
X006530Y016617D01*
X006530Y016715D02*
X002186Y016715D01*
X002186Y016814D02*
X006530Y016814D01*
X006530Y016913D02*
X002186Y016913D01*
X002186Y017011D02*
X006530Y017011D01*
X006530Y017110D02*
X002186Y017110D01*
X002185Y017208D02*
X006530Y017208D01*
X006530Y017307D02*
X002185Y017307D01*
X002185Y017405D02*
X006530Y017405D01*
X006530Y017504D02*
X002185Y017504D01*
X002184Y017602D02*
X006530Y017602D01*
X006530Y017701D02*
X002184Y017701D01*
X002184Y017799D02*
X006530Y017799D01*
X006530Y017898D02*
X002184Y017898D01*
X002183Y017996D02*
X006530Y017996D01*
X006530Y018095D02*
X003980Y018095D01*
X004002Y018104D02*
X004085Y018187D01*
X004130Y018296D01*
X004130Y018413D01*
X004085Y018521D01*
X004002Y018604D01*
X003894Y018649D01*
X003776Y018649D01*
X003668Y018604D01*
X003585Y018521D01*
X003540Y018413D01*
X003540Y018296D01*
X003585Y018187D01*
X003668Y018104D01*
X003776Y018059D01*
X003894Y018059D01*
X004002Y018104D01*
X004088Y018194D02*
X006530Y018194D01*
X006530Y018292D02*
X004129Y018292D01*
X004130Y018391D02*
X006530Y018391D01*
X006530Y018489D02*
X004099Y018489D01*
X004019Y018588D02*
X006530Y018588D01*
X006530Y018686D02*
X002182Y018686D01*
X002182Y018588D02*
X003651Y018588D01*
X003572Y018489D02*
X002182Y018489D01*
X002182Y018391D02*
X003540Y018391D01*
X003542Y018292D02*
X002183Y018292D01*
X002183Y018194D02*
X003582Y018194D01*
X003690Y018095D02*
X002183Y018095D01*
X002181Y018785D02*
X006530Y018785D01*
X006530Y018883D02*
X002181Y018883D01*
X002181Y018982D02*
X006530Y018982D01*
X006512Y019080D02*
X002181Y019080D01*
X002181Y019179D02*
X006505Y019179D01*
X006532Y019278D02*
X002180Y019278D01*
X002180Y019376D02*
X006605Y019376D01*
X006996Y019376D02*
X007696Y019376D01*
X007685Y019387D02*
X007768Y019304D01*
X007876Y019259D01*
X007994Y019259D01*
X008102Y019304D01*
X008185Y019387D01*
X008230Y019496D01*
X008230Y019613D01*
X008185Y019721D01*
X008102Y019804D01*
X007994Y019849D01*
X007876Y019849D01*
X007768Y019804D01*
X007685Y019721D01*
X007640Y019613D01*
X007640Y019496D01*
X007685Y019387D01*
X007649Y019475D02*
X002180Y019475D01*
X002180Y019573D02*
X007640Y019573D01*
X007664Y019672D02*
X002179Y019672D01*
X002179Y019770D02*
X007734Y019770D01*
X008136Y019770D02*
X009107Y019770D01*
X008954Y019834D02*
X009266Y019704D01*
X009604Y019704D01*
X009917Y019834D01*
X010156Y020073D01*
X010285Y020385D01*
X010285Y020723D01*
X010156Y021036D01*
X009917Y021275D01*
X009604Y021404D01*
X009266Y021404D01*
X008954Y021275D01*
X008715Y021036D01*
X008585Y020723D01*
X008585Y020385D01*
X008715Y020073D01*
X008954Y019834D01*
X008919Y019869D02*
X002179Y019869D01*
X002179Y019967D02*
X008820Y019967D01*
X008721Y020066D02*
X002178Y020066D01*
X002178Y020164D02*
X008677Y020164D01*
X008636Y020263D02*
X002178Y020263D01*
X002178Y020362D02*
X008595Y020362D01*
X008585Y020460D02*
X002177Y020460D01*
X002177Y020559D02*
X008585Y020559D01*
X008585Y020657D02*
X002177Y020657D01*
X002177Y020756D02*
X008599Y020756D01*
X008639Y020854D02*
X007752Y020854D01*
X007785Y020887D02*
X007830Y020996D01*
X007830Y021113D01*
X007785Y021221D01*
X007702Y021304D01*
X007594Y021349D01*
X007476Y021349D01*
X007368Y021304D01*
X007285Y021221D01*
X007240Y021113D01*
X007240Y020996D01*
X007285Y020887D01*
X007368Y020804D01*
X007476Y020759D01*
X007594Y020759D01*
X007702Y020804D01*
X007785Y020887D01*
X007812Y020953D02*
X008680Y020953D01*
X008730Y021051D02*
X007830Y021051D01*
X007815Y021150D02*
X008829Y021150D01*
X008927Y021248D02*
X007758Y021248D01*
X007599Y021347D02*
X009128Y021347D01*
X009743Y021347D02*
X010435Y021347D01*
X010435Y021248D02*
X009943Y021248D01*
X010042Y021150D02*
X010435Y021150D01*
X010435Y021051D02*
X010140Y021051D01*
X010190Y020953D02*
X010435Y020953D01*
X010435Y020854D02*
X010231Y020854D01*
X010272Y020756D02*
X010435Y020756D01*
X010435Y020657D02*
X010285Y020657D01*
X010285Y020559D02*
X010435Y020559D01*
X010435Y020460D02*
X010285Y020460D01*
X010275Y020362D02*
X010435Y020362D01*
X010435Y020263D02*
X010234Y020263D01*
X010194Y020164D02*
X010435Y020164D01*
X010435Y020066D02*
X010149Y020066D01*
X010050Y019967D02*
X010435Y019967D01*
X010435Y019869D02*
X009952Y019869D01*
X009763Y019770D02*
X010435Y019770D01*
X010435Y019672D02*
X008206Y019672D01*
X008230Y019573D02*
X010435Y019573D01*
X010435Y019475D02*
X008221Y019475D01*
X008174Y019376D02*
X010435Y019376D01*
X010435Y019278D02*
X009529Y019278D01*
X009502Y019304D02*
X009394Y019349D01*
X009276Y019349D01*
X009168Y019304D01*
X009085Y019221D01*
X009040Y019113D01*
X009040Y018996D01*
X009085Y018887D01*
X009168Y018804D01*
X009276Y018759D01*
X009394Y018759D01*
X009502Y018804D01*
X009585Y018887D01*
X009630Y018996D01*
X009630Y019113D01*
X009585Y019221D01*
X009502Y019304D01*
X009603Y019179D02*
X010435Y019179D01*
X010435Y019080D02*
X009630Y019080D01*
X009624Y018982D02*
X021246Y018982D01*
X021169Y018883D02*
X009581Y018883D01*
X009455Y018785D02*
X021140Y018785D01*
X021144Y018686D02*
X008530Y018686D01*
X008530Y018713D02*
X008485Y018821D01*
X008402Y018904D01*
X008294Y018949D01*
X008176Y018949D01*
X008068Y018904D01*
X007985Y018821D01*
X007940Y018713D01*
X007940Y018596D01*
X007985Y018487D01*
X008068Y018404D01*
X008176Y018359D01*
X008294Y018359D01*
X008402Y018404D01*
X008485Y018487D01*
X008530Y018596D01*
X008530Y018713D01*
X008500Y018785D02*
X009215Y018785D01*
X009089Y018883D02*
X008423Y018883D01*
X008047Y018883D02*
X007070Y018883D01*
X007070Y018785D02*
X007970Y018785D01*
X007940Y018686D02*
X007820Y018686D01*
X007802Y018704D02*
X007694Y018749D01*
X007576Y018749D01*
X007468Y018704D01*
X007385Y018621D01*
X007340Y018513D01*
X007340Y018396D01*
X007385Y018287D01*
X007468Y018204D01*
X007576Y018159D01*
X007694Y018159D01*
X007802Y018204D01*
X007885Y018287D01*
X007930Y018396D01*
X007930Y018513D01*
X007885Y018621D01*
X007802Y018704D01*
X007899Y018588D02*
X007943Y018588D01*
X007930Y018489D02*
X007984Y018489D01*
X007928Y018391D02*
X008101Y018391D01*
X007887Y018292D02*
X008456Y018292D01*
X008468Y018304D02*
X008385Y018221D01*
X008340Y018113D01*
X008340Y017996D01*
X008385Y017887D01*
X008468Y017804D01*
X008576Y017759D01*
X008694Y017759D01*
X008802Y017804D01*
X008885Y017887D01*
X008930Y017996D01*
X008930Y018113D01*
X008885Y018221D01*
X008802Y018304D01*
X008694Y018349D01*
X008576Y018349D01*
X008468Y018304D01*
X008369Y018391D02*
X011372Y018391D01*
X011385Y018421D02*
X011340Y018313D01*
X011340Y018196D01*
X011385Y018087D01*
X011468Y018004D01*
X011576Y017959D01*
X011694Y017959D01*
X011802Y018004D01*
X011885Y018087D01*
X011930Y018196D01*
X011930Y018313D01*
X011885Y018421D01*
X011802Y018504D01*
X011694Y018549D01*
X011576Y018549D01*
X011468Y018504D01*
X011385Y018421D01*
X011453Y018489D02*
X008486Y018489D01*
X008527Y018588D02*
X021185Y018588D01*
X021304Y018489D02*
X011817Y018489D01*
X011898Y018391D02*
X027327Y018391D01*
X027328Y018489D02*
X024566Y018489D01*
X024685Y018588D02*
X027330Y018588D01*
X027331Y018686D02*
X024726Y018686D01*
X024730Y018785D02*
X027332Y018785D01*
X027334Y018883D02*
X024701Y018883D01*
X024625Y018982D02*
X027335Y018982D01*
X027326Y018292D02*
X011930Y018292D01*
X011929Y018194D02*
X027324Y018194D01*
X027323Y018095D02*
X011888Y018095D01*
X011783Y017996D02*
X027322Y017996D01*
X027320Y017898D02*
X008890Y017898D01*
X008930Y017996D02*
X011487Y017996D01*
X011382Y018095D02*
X008930Y018095D01*
X008897Y018194D02*
X011341Y018194D01*
X011340Y018292D02*
X008814Y018292D01*
X008374Y018194D02*
X007776Y018194D01*
X007494Y018194D02*
X007070Y018194D01*
X007070Y018292D02*
X007383Y018292D01*
X007342Y018391D02*
X007070Y018391D01*
X007070Y018489D02*
X007340Y018489D01*
X007371Y018588D02*
X007070Y018588D01*
X007070Y018686D02*
X007450Y018686D01*
X007070Y018982D02*
X009046Y018982D01*
X009040Y019080D02*
X007089Y019080D01*
X007095Y019179D02*
X009067Y019179D01*
X009141Y019278D02*
X008038Y019278D01*
X007832Y019278D02*
X007069Y019278D01*
X007070Y018095D02*
X008340Y018095D01*
X008340Y017996D02*
X007070Y017996D01*
X007070Y017898D02*
X008381Y017898D01*
X008480Y017799D02*
X007070Y017799D01*
X007070Y017701D02*
X013177Y017701D01*
X013185Y017721D02*
X013140Y017613D01*
X013140Y017496D01*
X013185Y017387D01*
X013268Y017304D01*
X013376Y017259D01*
X013494Y017259D01*
X013602Y017304D01*
X013685Y017387D01*
X013730Y017496D01*
X013730Y017613D01*
X013685Y017721D01*
X013602Y017804D01*
X013494Y017849D01*
X013376Y017849D01*
X013268Y017804D01*
X013185Y017721D01*
X013263Y017799D02*
X008791Y017799D01*
X008794Y017349D02*
X008676Y017349D01*
X008568Y017304D01*
X008485Y017221D01*
X008440Y017113D01*
X008440Y016996D01*
X008485Y016887D01*
X008568Y016804D01*
X008676Y016759D01*
X008794Y016759D01*
X008902Y016804D01*
X008985Y016887D01*
X009030Y016996D01*
X009030Y017113D01*
X008985Y017221D01*
X008902Y017304D01*
X008794Y017349D01*
X008897Y017307D02*
X013266Y017307D01*
X013178Y017405D02*
X007700Y017405D01*
X007702Y017404D02*
X007594Y017449D01*
X007476Y017449D01*
X007368Y017404D01*
X007285Y017321D01*
X007240Y017213D01*
X007240Y017096D01*
X007285Y016987D01*
X007368Y016904D01*
X007476Y016859D01*
X007594Y016859D01*
X007702Y016904D01*
X007785Y016987D01*
X007830Y017096D01*
X007830Y017213D01*
X007785Y017321D01*
X007702Y017404D01*
X007791Y017307D02*
X008574Y017307D01*
X008480Y017208D02*
X007830Y017208D01*
X007830Y017110D02*
X008440Y017110D01*
X008440Y017011D02*
X007795Y017011D01*
X007710Y016913D02*
X008475Y016913D01*
X008558Y016814D02*
X007070Y016814D01*
X007070Y016913D02*
X007360Y016913D01*
X007275Y017011D02*
X007070Y017011D01*
X007070Y017110D02*
X007240Y017110D01*
X007240Y017208D02*
X007070Y017208D01*
X007070Y017307D02*
X007279Y017307D01*
X007370Y017405D02*
X007070Y017405D01*
X007070Y017504D02*
X013140Y017504D01*
X013140Y017602D02*
X007070Y017602D01*
X007070Y016715D02*
X008695Y016715D01*
X008583Y016617D02*
X007070Y016617D01*
X007070Y016518D02*
X008542Y016518D01*
X008540Y016420D02*
X007070Y016420D01*
X007070Y016321D02*
X008571Y016321D01*
X008650Y016223D02*
X007070Y016223D01*
X006530Y016124D02*
X004854Y016124D01*
X004981Y016026D02*
X006530Y016026D01*
X006530Y015927D02*
X005024Y015927D01*
X005030Y015829D02*
X006530Y015829D01*
X006530Y015730D02*
X005003Y015730D01*
X004929Y015631D02*
X006530Y015631D01*
X008912Y016814D02*
X019958Y016814D01*
X019968Y016804D02*
X020076Y016759D01*
X020194Y016759D01*
X020302Y016804D01*
X020385Y016887D01*
X020430Y016996D01*
X020430Y017113D01*
X020385Y017221D01*
X020302Y017304D01*
X020194Y017349D01*
X020076Y017349D01*
X019968Y017304D01*
X019885Y017221D01*
X019840Y017113D01*
X019840Y016996D01*
X019885Y016887D01*
X019968Y016804D01*
X019875Y016913D02*
X008996Y016913D01*
X009030Y017011D02*
X019840Y017011D01*
X019840Y017110D02*
X009030Y017110D01*
X008991Y017208D02*
X019880Y017208D01*
X019974Y017307D02*
X017605Y017307D01*
X017602Y017304D02*
X017685Y017387D01*
X017730Y017496D01*
X017730Y017613D01*
X017685Y017721D01*
X017602Y017804D01*
X017494Y017849D01*
X017376Y017849D01*
X017268Y017804D01*
X017185Y017721D01*
X017140Y017613D01*
X017140Y017496D01*
X017185Y017387D01*
X017268Y017304D01*
X017376Y017259D01*
X017494Y017259D01*
X017602Y017304D01*
X017693Y017405D02*
X027314Y017405D01*
X027312Y017307D02*
X020297Y017307D01*
X020391Y017208D02*
X027311Y017208D01*
X027310Y017110D02*
X020430Y017110D01*
X020430Y017011D02*
X027308Y017011D01*
X027307Y016913D02*
X020396Y016913D01*
X020312Y016814D02*
X027306Y016814D01*
X027304Y016715D02*
X008976Y016715D01*
X009087Y016617D02*
X023198Y016617D01*
X023168Y016604D02*
X023085Y016521D01*
X023040Y016413D01*
X023040Y016296D01*
X023085Y016187D01*
X023168Y016104D01*
X023276Y016059D01*
X023394Y016059D01*
X023502Y016104D01*
X023585Y016187D01*
X023630Y016296D01*
X023630Y016413D01*
X023585Y016521D01*
X023502Y016604D01*
X023394Y016649D01*
X023276Y016649D01*
X023168Y016604D01*
X023084Y016518D02*
X016069Y016518D01*
X016102Y016504D02*
X015994Y016549D01*
X015876Y016549D01*
X015768Y016504D01*
X015685Y016421D01*
X015640Y016313D01*
X015640Y016196D01*
X015685Y016087D01*
X015768Y016004D01*
X015876Y015959D01*
X015994Y015959D01*
X016102Y016004D01*
X016185Y016087D01*
X016230Y016196D01*
X016230Y016313D01*
X016185Y016421D01*
X016102Y016504D01*
X016186Y016420D02*
X023043Y016420D01*
X023040Y016321D02*
X016227Y016321D01*
X016230Y016223D02*
X023070Y016223D01*
X023148Y016124D02*
X016200Y016124D01*
X016124Y016026D02*
X023845Y016026D01*
X023888Y016124D02*
X023522Y016124D01*
X023600Y016223D02*
X024012Y016223D01*
X024258Y016223D02*
X027298Y016223D01*
X027299Y016321D02*
X023630Y016321D01*
X023627Y016420D02*
X027300Y016420D01*
X027302Y016518D02*
X023586Y016518D01*
X023472Y016617D02*
X027303Y016617D01*
X027296Y016124D02*
X024382Y016124D01*
X024425Y016026D02*
X027295Y016026D01*
X027294Y015927D02*
X024430Y015927D01*
X024402Y015829D02*
X027292Y015829D01*
X026410Y014646D02*
X022444Y014646D01*
X022026Y014646D02*
X021516Y014646D01*
X021530Y014547D02*
X026354Y014547D01*
X026340Y014449D02*
X021511Y014449D01*
X021448Y014350D02*
X026359Y014350D01*
X027291Y014153D02*
X024353Y014153D01*
X024413Y014055D02*
X027291Y014055D01*
X027292Y013956D02*
X024430Y013956D01*
X024414Y013858D02*
X027292Y013858D01*
X027293Y013759D02*
X024357Y013759D01*
X024197Y013661D02*
X027293Y013661D01*
X027302Y011985D02*
X026221Y011985D01*
X026300Y011887D02*
X027302Y011887D01*
X027303Y011788D02*
X026330Y011788D01*
X026328Y011690D02*
X027303Y011690D01*
X027304Y011591D02*
X026287Y011591D01*
X026174Y011493D02*
X027304Y011493D01*
X025192Y011394D02*
X019929Y011394D01*
X019930Y011493D02*
X025083Y011493D01*
X025042Y011591D02*
X019898Y011591D01*
X019817Y011690D02*
X024903Y011690D01*
X024785Y011788D02*
X018664Y011788D01*
X018785Y011887D02*
X024744Y011887D01*
X024614Y011985D02*
X023957Y011985D01*
X024082Y012084D02*
X024488Y012084D01*
X024446Y012182D02*
X024350Y012182D01*
X023966Y012577D02*
X022504Y012577D01*
X022530Y012478D02*
X023642Y012478D01*
X023568Y012380D02*
X022523Y012380D01*
X022479Y012281D02*
X023540Y012281D01*
X023546Y012182D02*
X022350Y012182D01*
X022121Y012182D02*
X018801Y012182D01*
X018830Y012084D02*
X023588Y012084D01*
X023714Y011985D02*
X018826Y011985D01*
X018726Y012281D02*
X021991Y012281D01*
X022431Y012675D02*
X024039Y012675D01*
X023170Y013562D02*
X020160Y013562D01*
X020216Y013661D02*
X023012Y013661D01*
X022955Y013759D02*
X020230Y013759D01*
X020212Y013858D02*
X021315Y013858D01*
X021256Y013956D02*
X020150Y013956D01*
X019720Y013956D02*
X019614Y013956D01*
X019630Y014055D02*
X021240Y014055D01*
X021257Y014153D02*
X019613Y014153D01*
X019555Y014252D02*
X021316Y014252D01*
X021022Y014350D02*
X019548Y014350D01*
X019611Y014449D02*
X020959Y014449D01*
X020940Y014547D02*
X019630Y014547D01*
X019616Y014646D02*
X020954Y014646D01*
X021008Y014745D02*
X019562Y014745D01*
X019409Y014843D02*
X021162Y014843D01*
X021309Y014843D02*
X021940Y014843D01*
X021952Y014942D02*
X016030Y014942D01*
X016030Y014896D02*
X016011Y014849D01*
X016094Y014849D01*
X016202Y014804D01*
X016285Y014721D01*
X016330Y014613D01*
X016330Y014496D01*
X016285Y014387D01*
X016202Y014304D01*
X016094Y014259D01*
X015976Y014259D01*
X015868Y014304D01*
X015785Y014387D01*
X015740Y014496D01*
X015740Y014613D01*
X015759Y014659D01*
X015676Y014659D01*
X015568Y014704D01*
X015485Y014787D01*
X015440Y014896D01*
X015440Y015013D01*
X015485Y015121D01*
X015568Y015204D01*
X015676Y015249D01*
X015794Y015249D01*
X015902Y015204D01*
X015985Y015121D01*
X016030Y015013D01*
X016030Y014896D01*
X016109Y014843D02*
X019262Y014843D01*
X019108Y014745D02*
X016262Y014745D01*
X016316Y014646D02*
X019054Y014646D01*
X019040Y014547D02*
X016330Y014547D01*
X016311Y014449D02*
X019059Y014449D01*
X019122Y014350D02*
X016248Y014350D01*
X015822Y014350D02*
X010243Y014350D01*
X010243Y014449D02*
X015759Y014449D01*
X015740Y014547D02*
X010243Y014547D01*
X010243Y014646D02*
X015754Y014646D01*
X015528Y014745D02*
X010243Y014745D01*
X010243Y014843D02*
X015462Y014843D01*
X015440Y014942D02*
X010243Y014942D01*
X010243Y015040D02*
X015451Y015040D01*
X015502Y015139D02*
X010243Y015139D01*
X010243Y015237D02*
X015647Y015237D01*
X015823Y015237D02*
X021240Y015237D01*
X021250Y015336D02*
X010243Y015336D01*
X010254Y015434D02*
X021298Y015434D01*
X021264Y015139D02*
X015968Y015139D01*
X016019Y015040D02*
X021332Y015040D01*
X021462Y014745D02*
X021961Y014745D01*
X022004Y015040D02*
X021738Y015040D01*
X021830Y014055D02*
X023018Y014055D01*
X022958Y013956D02*
X021814Y013956D01*
X021756Y013858D02*
X022940Y013858D01*
X022976Y010749D02*
X022868Y010704D01*
X022976Y010749D02*
X023094Y010749D01*
X023202Y010704D01*
X022779Y010606D02*
X020793Y010606D01*
X020705Y010507D02*
X022740Y010507D01*
X019806Y008142D02*
X015116Y008142D01*
X014754Y008142D02*
X014116Y008142D01*
X014258Y008241D02*
X014612Y008241D01*
X014537Y008339D02*
X014333Y008339D01*
X014374Y008438D02*
X014496Y008438D01*
X014485Y008536D02*
X014385Y008536D01*
X014385Y008635D02*
X014485Y008635D01*
X014522Y008733D02*
X014348Y008733D01*
X014294Y008832D02*
X014576Y008832D01*
X014675Y008931D02*
X014195Y008931D01*
X014168Y007945D02*
X014703Y007945D01*
X014591Y007847D02*
X014279Y007847D01*
X014342Y007748D02*
X014528Y007748D01*
X014487Y007649D02*
X014383Y007649D01*
X014385Y007551D02*
X014485Y007551D01*
X014490Y007452D02*
X014380Y007452D01*
X014339Y007354D02*
X014531Y007354D01*
X014598Y007255D02*
X014272Y007255D01*
X014151Y007157D02*
X014719Y007157D01*
X015151Y007157D02*
X015340Y007157D01*
X015358Y007255D02*
X015272Y007255D01*
X015339Y007354D02*
X015417Y007354D01*
X015380Y007452D02*
X019556Y007452D01*
X019540Y007354D02*
X015853Y007354D01*
X015913Y007255D02*
X019557Y007255D01*
X019616Y007157D02*
X015930Y007157D01*
X015385Y007551D02*
X019615Y007551D01*
X019947Y005679D02*
X009530Y005679D01*
X009524Y005580D02*
X019992Y005580D01*
X018645Y005481D02*
X009479Y005481D01*
X009351Y005383D02*
X018569Y005383D01*
X018540Y005284D02*
X006722Y005284D01*
X006800Y005186D02*
X018544Y005186D01*
X018585Y005087D02*
X006830Y005087D01*
X006827Y004989D02*
X011052Y004989D01*
X010972Y004890D02*
X006786Y004890D01*
X006672Y004792D02*
X010940Y004792D01*
X011418Y004989D02*
X012652Y004989D01*
X012572Y004890D02*
X011498Y004890D01*
X011530Y004792D02*
X012540Y004792D01*
X012541Y004693D02*
X011529Y004693D01*
X011488Y004595D02*
X012582Y004595D01*
X012688Y004496D02*
X011382Y004496D01*
X013018Y004989D02*
X018705Y004989D01*
X021885Y004200D02*
X022921Y004200D01*
X022880Y004102D02*
X021885Y004102D01*
X021885Y004003D02*
X022880Y004003D01*
X022924Y003905D02*
X021885Y003905D01*
X021885Y003806D02*
X023068Y003806D01*
X023203Y003806D02*
X025568Y003806D01*
X025703Y003806D02*
X027268Y003806D01*
X027203Y003708D02*
X021885Y003708D01*
X021885Y003609D02*
X027162Y003609D01*
X027121Y003511D02*
X021885Y003511D01*
X021885Y003412D02*
X027085Y003412D01*
X027085Y003314D02*
X021885Y003314D01*
X021885Y003215D02*
X027085Y003215D01*
X027085Y003116D02*
X021885Y003116D01*
X021885Y003018D02*
X027113Y003018D01*
X027154Y002919D02*
X021885Y002919D01*
X021885Y002821D02*
X027195Y002821D01*
X027234Y001835D02*
X027435Y001835D01*
X027435Y001737D02*
X027303Y001737D01*
X027344Y001638D02*
X027435Y001638D01*
X027435Y001540D02*
X027345Y001540D01*
X027332Y001441D02*
X027435Y001441D01*
X027435Y001343D02*
X027291Y001343D01*
X027205Y001244D02*
X027435Y001244D01*
X027435Y001146D02*
X027020Y001146D01*
X026850Y001146D02*
X026020Y001146D01*
X025850Y001146D02*
X025020Y001146D01*
X024850Y001146D02*
X024020Y001146D01*
X023850Y001146D02*
X023020Y001146D01*
X023205Y001244D02*
X023665Y001244D01*
X023579Y001343D02*
X023291Y001343D01*
X023332Y001441D02*
X023538Y001441D01*
X023525Y001540D02*
X023345Y001540D01*
X023344Y001638D02*
X023526Y001638D01*
X023567Y001737D02*
X023303Y001737D01*
X023234Y001835D02*
X023636Y001835D01*
X024234Y001835D02*
X024636Y001835D01*
X024567Y001737D02*
X024303Y001737D01*
X024344Y001638D02*
X024526Y001638D01*
X024525Y001540D02*
X024345Y001540D01*
X024332Y001441D02*
X024538Y001441D01*
X024579Y001343D02*
X024291Y001343D01*
X024205Y001244D02*
X024665Y001244D01*
X025205Y001244D02*
X025665Y001244D01*
X025579Y001343D02*
X025291Y001343D01*
X025332Y001441D02*
X025538Y001441D01*
X025525Y001540D02*
X025345Y001540D01*
X025344Y001638D02*
X025526Y001638D01*
X025567Y001737D02*
X025303Y001737D01*
X025234Y001835D02*
X025636Y001835D01*
X026234Y001835D02*
X026636Y001835D01*
X026567Y001737D02*
X026303Y001737D01*
X026344Y001638D02*
X026526Y001638D01*
X026525Y001540D02*
X026345Y001540D01*
X026332Y001441D02*
X026538Y001441D01*
X026579Y001343D02*
X026291Y001343D01*
X026205Y001244D02*
X026665Y001244D01*
X027124Y003905D02*
X025846Y003905D01*
X025890Y004003D02*
X027080Y004003D01*
X027080Y004102D02*
X025890Y004102D01*
X025850Y004200D02*
X027121Y004200D01*
X025421Y004200D02*
X023350Y004200D01*
X023390Y004102D02*
X025380Y004102D01*
X025380Y004003D02*
X023390Y004003D01*
X023346Y003905D02*
X025424Y003905D01*
X027240Y005679D02*
X027334Y005679D01*
X014742Y012478D02*
X013576Y012478D01*
X013443Y012380D02*
X014668Y012380D01*
X014876Y015959D02*
X014994Y015959D01*
X015102Y016004D01*
X015185Y016087D01*
X015230Y016196D01*
X015230Y016313D01*
X015185Y016421D01*
X015102Y016504D01*
X014994Y016549D01*
X014876Y016549D01*
X014768Y016504D01*
X014685Y016421D01*
X014640Y016313D01*
X014640Y016196D01*
X014685Y016087D01*
X014768Y016004D01*
X014876Y015959D01*
X014747Y016026D02*
X014124Y016026D01*
X014102Y016004D02*
X014185Y016087D01*
X014230Y016196D01*
X014230Y016313D01*
X014185Y016421D01*
X014102Y016504D01*
X013994Y016549D01*
X013876Y016549D01*
X013768Y016504D01*
X013685Y016421D01*
X013640Y016313D01*
X013640Y016196D01*
X013685Y016087D01*
X013768Y016004D01*
X013876Y015959D01*
X013994Y015959D01*
X014102Y016004D01*
X014200Y016124D02*
X014670Y016124D01*
X014640Y016223D02*
X014230Y016223D01*
X014227Y016321D02*
X014644Y016321D01*
X014684Y016420D02*
X014186Y016420D01*
X014069Y016518D02*
X014802Y016518D01*
X015069Y016518D02*
X015802Y016518D01*
X015684Y016420D02*
X015186Y016420D01*
X015227Y016321D02*
X015644Y016321D01*
X015640Y016223D02*
X015230Y016223D01*
X015200Y016124D02*
X015670Y016124D01*
X015747Y016026D02*
X015124Y016026D01*
X013802Y016518D02*
X013069Y016518D01*
X013186Y016420D02*
X013684Y016420D01*
X013644Y016321D02*
X013227Y016321D01*
X013230Y016223D02*
X013640Y016223D01*
X013670Y016124D02*
X013200Y016124D01*
X013124Y016026D02*
X013747Y016026D01*
X014268Y017304D02*
X014376Y017259D01*
X014494Y017259D01*
X014602Y017304D01*
X014685Y017387D01*
X014730Y017496D01*
X014730Y017613D01*
X014685Y017721D01*
X014602Y017804D01*
X014494Y017849D01*
X014376Y017849D01*
X014268Y017804D01*
X014185Y017721D01*
X014140Y017613D01*
X014140Y017496D01*
X014185Y017387D01*
X014268Y017304D01*
X014266Y017307D02*
X013605Y017307D01*
X013693Y017405D02*
X014178Y017405D01*
X014140Y017504D02*
X013730Y017504D01*
X013730Y017602D02*
X014140Y017602D01*
X014177Y017701D02*
X013694Y017701D01*
X013607Y017799D02*
X014263Y017799D01*
X014607Y017799D02*
X015263Y017799D01*
X015268Y017804D02*
X015185Y017721D01*
X015140Y017613D01*
X015140Y017496D01*
X015185Y017387D01*
X015268Y017304D01*
X015376Y017259D01*
X015494Y017259D01*
X015602Y017304D01*
X015685Y017387D01*
X015730Y017496D01*
X015730Y017613D01*
X015685Y017721D01*
X015602Y017804D01*
X015494Y017849D01*
X015376Y017849D01*
X015268Y017804D01*
X015177Y017701D02*
X014694Y017701D01*
X014730Y017602D02*
X015140Y017602D01*
X015140Y017504D02*
X014730Y017504D01*
X014693Y017405D02*
X015178Y017405D01*
X015266Y017307D02*
X014605Y017307D01*
X015605Y017307D02*
X016266Y017307D01*
X016268Y017304D02*
X016376Y017259D01*
X016494Y017259D01*
X016602Y017304D01*
X016685Y017387D01*
X016730Y017496D01*
X016730Y017613D01*
X016685Y017721D01*
X016602Y017804D01*
X016494Y017849D01*
X016376Y017849D01*
X016268Y017804D01*
X016185Y017721D01*
X016140Y017613D01*
X016140Y017496D01*
X016185Y017387D01*
X016268Y017304D01*
X016178Y017405D02*
X015693Y017405D01*
X015730Y017504D02*
X016140Y017504D01*
X016140Y017602D02*
X015730Y017602D01*
X015694Y017701D02*
X016177Y017701D01*
X016263Y017799D02*
X015607Y017799D01*
X016607Y017799D02*
X017263Y017799D01*
X017177Y017701D02*
X016694Y017701D01*
X016730Y017602D02*
X017140Y017602D01*
X017140Y017504D02*
X016730Y017504D01*
X016693Y017405D02*
X017178Y017405D01*
X017266Y017307D02*
X016605Y017307D01*
X017607Y017799D02*
X027319Y017799D01*
X027318Y017701D02*
X017694Y017701D01*
X017730Y017602D02*
X027316Y017602D01*
X027315Y017504D02*
X017730Y017504D01*
X021566Y018489D02*
X022304Y018489D01*
X022185Y018588D02*
X021685Y018588D01*
X021726Y018686D02*
X022144Y018686D01*
X022140Y018785D02*
X021730Y018785D01*
X021701Y018883D02*
X022169Y018883D01*
X022246Y018982D02*
X021625Y018982D01*
X022625Y018982D02*
X023246Y018982D01*
X023169Y018883D02*
X022701Y018883D01*
X022730Y018785D02*
X023140Y018785D01*
X023144Y018686D02*
X022726Y018686D01*
X022685Y018588D02*
X023185Y018588D01*
X023304Y018489D02*
X022566Y018489D01*
X023566Y018489D02*
X024304Y018489D01*
X024185Y018588D02*
X023685Y018588D01*
X023726Y018686D02*
X024144Y018686D01*
X024140Y018785D02*
X023730Y018785D01*
X023701Y018883D02*
X024169Y018883D01*
X024246Y018982D02*
X023625Y018982D01*
X009145Y008536D02*
X006025Y008536D01*
X006169Y008438D02*
X009001Y008438D01*
X008951Y008339D02*
X006219Y008339D01*
X006230Y008241D02*
X008940Y008241D01*
X008962Y008142D02*
X006208Y008142D01*
X006142Y008044D02*
X009029Y008044D01*
X009623Y006861D02*
X006210Y006861D01*
X006230Y006763D02*
X009623Y006763D01*
X009623Y006664D02*
X006217Y006664D01*
X006163Y006565D02*
X009623Y006565D01*
X009675Y005876D02*
X009431Y005876D01*
X009504Y005777D02*
X009794Y005777D01*
X003800Y009522D02*
X002204Y009522D01*
X002204Y009620D02*
X003710Y009620D01*
X003669Y009719D02*
X002203Y009719D01*
X002203Y009817D02*
X003658Y009817D01*
X003666Y009916D02*
X002203Y009916D01*
X002203Y010014D02*
X003707Y010014D01*
X003794Y010113D02*
X002202Y010113D01*
X002176Y020854D02*
X007318Y020854D01*
X007258Y020953D02*
X002176Y020953D01*
X002176Y021051D02*
X007240Y021051D01*
X007255Y021150D02*
X002194Y021150D01*
X002240Y021248D02*
X007312Y021248D01*
X007471Y021347D02*
X002342Y021347D01*
D14*
X006800Y019154D02*
X006800Y013389D01*
X008135Y012054D01*
X010935Y009578D02*
X010933Y009550D01*
D15*
X009933Y009550D02*
X009933Y006057D01*
X009935Y006054D01*
X016935Y002754D02*
X016935Y001554D01*
X009933Y012550D02*
X009933Y015552D01*
X010535Y016154D01*
M02*
