G75*
G70*
%OFA0B0*%
%FSLAX24Y24*%
%IPPOS*%
%LPD*%
%AMOC8*
5,1,8,0,0,1.08239X$1,22.5*
%
%ADD10C,0.0680*%
%ADD11C,0.1380*%
%ADD12C,0.0434*%
%ADD13C,0.1660*%
%ADD14C,0.0680*%
%ADD15R,0.0680X0.0680*%
%ADD16OC8,0.0680*%
%ADD17R,0.0395X0.0749*%
D10*
X014935Y000954D02*
X014935Y001554D01*
X015935Y001554D02*
X015935Y000954D01*
X016935Y000954D02*
X016935Y001554D01*
X017935Y001554D02*
X017935Y000954D01*
X018935Y000954D02*
X018935Y001554D01*
X019935Y001554D02*
X019935Y000954D01*
X021935Y000954D02*
X021935Y001554D01*
X022935Y001554D02*
X022935Y000954D01*
X023935Y000954D02*
X023935Y001554D01*
X024935Y001554D02*
X024935Y000954D01*
X025935Y000954D02*
X025935Y001554D01*
X026935Y001554D02*
X026935Y000954D01*
X026935Y020554D02*
X026935Y021154D01*
X025935Y021154D02*
X025935Y020554D01*
X024935Y020554D02*
X024935Y021154D01*
X023935Y021154D02*
X023935Y020554D01*
X022935Y020554D02*
X022935Y021154D01*
X021935Y021154D02*
X021935Y020554D01*
X020935Y020554D02*
X020935Y021154D01*
X019935Y021154D02*
X019935Y020554D01*
X018285Y020554D02*
X018285Y021154D01*
X017285Y021154D02*
X017285Y020554D01*
X016285Y020554D02*
X016285Y021154D01*
X015285Y021154D02*
X015285Y020554D01*
X014285Y020554D02*
X014285Y021154D01*
X013285Y021154D02*
X013285Y020554D01*
X012285Y020554D02*
X012285Y021154D01*
X011285Y021154D02*
X011285Y020554D01*
D11*
X009435Y020554D03*
X027935Y003254D03*
X009435Y001554D03*
D12*
X004035Y008088D03*
X004035Y009820D03*
D13*
X003917Y003414D03*
X006279Y003414D03*
X005098Y001564D03*
D14*
X002565Y002914D03*
X002565Y003914D03*
X010935Y019554D03*
X011935Y019554D03*
X012935Y019554D03*
X013935Y019554D03*
X014935Y019554D03*
X015935Y019554D03*
X016935Y019554D03*
X019935Y019554D03*
X020935Y019554D03*
X021935Y019554D03*
X022935Y019554D03*
X023935Y019554D03*
X024935Y019554D03*
X025935Y019554D03*
D15*
X026935Y019554D03*
X017935Y019554D03*
D16*
X010933Y012550D03*
X009933Y012550D03*
X009933Y011550D03*
X010933Y011550D03*
X010933Y010550D03*
X009933Y010550D03*
X009933Y009550D03*
X010933Y009550D03*
X013935Y009554D03*
X014935Y009554D03*
X014935Y008554D03*
X013935Y008554D03*
X013935Y007554D03*
X014935Y007554D03*
X014935Y010554D03*
X013935Y010554D03*
D17*
X020110Y013087D03*
X020610Y013087D03*
X021110Y013087D03*
X021610Y013087D03*
X022110Y013087D03*
X022610Y013087D03*
X023110Y013087D03*
X023610Y013087D03*
X024110Y013087D03*
X024610Y013087D03*
X025110Y013087D03*
X025610Y013087D03*
X026110Y013087D03*
X026610Y013087D03*
X027110Y013087D03*
X027610Y013087D03*
X028110Y013087D03*
X028610Y013087D03*
X028610Y004819D03*
X028110Y004819D03*
X027610Y004819D03*
X027110Y004819D03*
X026610Y004819D03*
X026110Y004819D03*
X025610Y004819D03*
X025110Y004819D03*
X024610Y004819D03*
X024110Y004819D03*
X023610Y004819D03*
X023110Y004819D03*
X022610Y004819D03*
X022110Y004819D03*
X021610Y004819D03*
X021110Y004819D03*
X020610Y004819D03*
X020110Y004819D03*
M02*
